<svg version="1.1" xmlns="http://www.w3.org/2000/svg" xmlns:xlink="http://www.w3.org/1999/xlink" width="1324" height="1172"><defs/><g><g transform="translate(-62,2) scale(1,1)"><path fill="none" stroke="#000000" d="M 72 8 L 1376 8 L 1376 1160 L 72 1160 L 72 8" stroke-miterlimit="10"/></g><g transform="translate(-62,2) scale(1,1)"><path fill="#ffffff" stroke="none" d="M 72 8 L 72 30 L 236.8525390625 30 L 247.8525390625 19 L 247.8525390625 8 L 72 8"/></g><g transform="translate(-62,2) scale(1,1)"><path fill="none" stroke="#000000" d="M 72 8 L 72 30 L 236.8525390625 30 L 247.8525390625 19 L 247.8525390625 8 L 72 8 L 72 8" stroke-miterlimit="10"/></g><g transform="translate(-62,2) scale(1,1)"><g><path fill="none" stroke="none"/><text fill="#000000" stroke="none" font-family="Arial" font-size="13px" font-style="normal" font-weight="normal" text-decoration="none" x="96.72998046875" y="24">UserSequenceDiagram</text></g></g><g transform="translate(-62,2) scale(1,1)"><g><path fill="none" stroke="none"/><text fill="#000000" stroke="none" font-family="Arial" font-size="13px" font-style="normal" font-weight="bold" text-decoration="none" x="76.279541015625" y="24">sd</text></g></g><g transform="translate(-62,2) scale(1,1)"><path fill="#ffffff" stroke="none" d="M 122.8631454190341 47.3 C 122.8631454190341 43.82060576 125.7415471412159 41 129.292236328125 41 C 132.8429255150341 41 135.72132723721592 43.82060576 135.72132723721592 47.3 C 135.72132723721592 50.779394239999995 132.8429255150341 53.6 129.292236328125 53.6 C 125.7415471412159 53.6 122.8631454190341 50.779394239999995 122.8631454190341 47.3 Z"/></g><g transform="translate(-62,2) scale(1,1)"><path fill="none" stroke="#000000" d="M 122.8631454190341 47.3 C 122.8631454190341 43.82060576 125.7415471412159 41 129.292236328125 41 C 132.8429255150341 41 135.72132723721592 43.82060576 135.72132723721592 47.3 C 135.72132723721592 50.779394239999995 132.8429255150341 53.6 129.292236328125 53.6 C 125.7415471412159 53.6 122.8631454190341 50.779394239999995 122.8631454190341 47.3 Z" stroke-miterlimit="10"/></g><g transform="translate(-62,2) scale(1,1)"><path fill="none" stroke="#000000" d="M 129.292236328125 53.6 L 129.292236328125 66.4" stroke-miterlimit="10"/></g><g transform="translate(-62,2) scale(1,1)"><path fill="none" stroke="#000000" d="M 122.48496360085228 58.4 L 136.09950905539773 58.4" stroke-miterlimit="10"/></g><g transform="translate(-62,2) scale(1,1)"><path fill="none" stroke="#000000" d="M 129.292236328125 66.4 L 119.83769087357955 79" stroke-miterlimit="10"/></g><g transform="translate(-62,2) scale(1,1)"><path fill="none" stroke="#000000" d="M 129.292236328125 66.4 L 138.74678178267047 79" stroke-miterlimit="10"/></g><g transform="translate(-62,2) scale(1,1)"><g><path fill="none" stroke="none"/><text fill="#000000" stroke="none" font-family="Arial" font-size="13px" font-style="normal" font-weight="bold" text-decoration="none" x="96.41455078125" y="98">User: User</text></g></g><g transform="translate(-62,2) scale(1,1)"><path fill="none" stroke="#000000" d="M 130.5 105 L 130.5 1128" stroke-miterlimit="10" stroke-dasharray="3"/></g><g transform="translate(-62,2) scale(1,1)"><path fill="none" stroke="#000000" d="M 306.6318359375 60 C 306.6318359375 51.1634432 313.7952791375 44 322.6318359375 44 C 331.4683927375 44 338.6318359375 51.1634432 338.6318359375 60 C 338.6318359375 68.8365568 331.4683927375 76 322.6318359375 76 C 313.7952791375 76 306.6318359375 68.8365568 306.6318359375 60 Z" stroke-miterlimit="10"/></g><g transform="translate(-62,2) scale(1,1)"><path fill="none" stroke="#000000" d="M 298.6318359375 44 L 298.6318359375 76" stroke-miterlimit="10"/></g><g transform="translate(-62,2) scale(1,1)"><path fill="none" stroke="#000000" d="M 298.6318359375 60 L 306.6318359375 60" stroke-miterlimit="10"/></g><g transform="translate(-62,2) scale(1,1)"><g><path fill="none" stroke="none"/><text fill="#000000" stroke="none" font-family="Arial" font-size="13px" font-style="normal" font-weight="normal" text-decoration="none" x="284.29736328125" y="96">«boundary»</text></g></g><g transform="translate(-62,2) scale(1,1)"><g><path fill="none" stroke="none"/><text fill="#000000" stroke="none" font-family="Arial" font-size="13px" font-style="normal" font-weight="bold" text-decoration="none" x="264.4609375" y="111">Registration form</text></g></g><g transform="translate(-62,2) scale(1,1)"><path fill="none" stroke="#000000" d="M 319.5 118 L 319.5 1136" stroke-miterlimit="10" stroke-dasharray="3"/></g><g transform="translate(-62,2) scale(1,1)"><path fill="none" stroke="#000000" d="M 832.542236328125 60 C 832.542236328125 51.715728 839.257964328125 45 847.542236328125 45 C 855.826508328125 45 862.542236328125 51.715728 862.542236328125 60 C 862.542236328125 68.284272 855.826508328125 75 847.542236328125 75 C 839.257964328125 75 832.542236328125 68.284272 832.542236328125 60 Z" stroke-miterlimit="10"/></g><g transform="translate(-62,2) scale(1,1)"><path fill="none" stroke="#000000" d="M 847.542236328125 45 L 852.542236328125 40" stroke-miterlimit="10"/></g><g transform="translate(-62,2) scale(1,1)"><path fill="none" stroke="#000000" d="M 847.542236328125 45 L 852.542236328125 50" stroke-miterlimit="10"/></g><g transform="translate(-62,2) scale(1,1)"><g><path fill="none" stroke="none"/><text fill="#000000" stroke="none" font-family="Arial" font-size="13px" font-style="normal" font-weight="normal" text-decoration="none" x="820.802734375" y="96">«control»</text></g></g><g transform="translate(-62,2) scale(1,1)"><g><path fill="none" stroke="none"/><text fill="#000000" stroke="none" font-family="Arial" font-size="13px" font-style="normal" font-weight="bold" text-decoration="none" x="836.706787109375" y="111">API</text></g></g><g transform="translate(-62,2) scale(1,1)"><path fill="none" stroke="#000000" d="M 848.5 118 L 848.5 1136" stroke-miterlimit="10" stroke-dasharray="3"/></g><g transform="translate(-62,2) scale(1,1)"><path fill="none" stroke="#000000" d="M 1042.8681640625 60 C 1042.8681640625 50.6111584 1050.4793224625 43 1059.8681640625 43 C 1069.2570056625 43 1076.8681640625 50.6111584 1076.8681640625 60 C 1076.8681640625 69.3888416 1069.2570056625 77 1059.8681640625 77 C 1050.4793224625 77 1042.8681640625 69.3888416 1042.8681640625 60 Z" stroke-miterlimit="10"/></g><g transform="translate(-62,2) scale(1,1)"><path fill="none" stroke="#000000" d="M 1042.8681640625 77 L 1076.8681640625 77" stroke-miterlimit="10"/></g><g transform="translate(-62,2) scale(1,1)"><g><path fill="none" stroke="none"/><text fill="#000000" stroke="none" font-family="Arial" font-size="13px" font-style="normal" font-weight="normal" text-decoration="none" x="1037.102294921875" y="96">«entity»</text></g></g><g transform="translate(-62,2) scale(1,1)"><g><path fill="none" stroke="none"/><text fill="#000000" stroke="none" font-family="Arial" font-size="13px" font-style="normal" font-weight="bold" text-decoration="none" x="1030.964111328125" y="111">Database</text></g></g><g transform="translate(-62,2) scale(1,1)"><path fill="none" stroke="#000000" d="M 1060.5 118 L 1060.5 1136" stroke-miterlimit="10" stroke-dasharray="3"/></g><g transform="translate(-62,2) scale(1,1)"><path fill="none" stroke="#000000" d="M 491.6708984375 60 C 491.6708984375 51.1634432 498.8343416375 44 507.6708984375 44 C 516.5074552375 44 523.6708984375 51.1634432 523.6708984375 60 C 523.6708984375 68.8365568 516.5074552375 76 507.6708984375 76 C 498.8343416375 76 491.6708984375 68.8365568 491.6708984375 60 Z" stroke-miterlimit="10"/></g><g transform="translate(-62,2) scale(1,1)"><path fill="none" stroke="#000000" d="M 483.6708984375 44 L 483.6708984375 76" stroke-miterlimit="10"/></g><g transform="translate(-62,2) scale(1,1)"><path fill="none" stroke="#000000" d="M 483.6708984375 60 L 491.6708984375 60" stroke-miterlimit="10"/></g><g transform="translate(-62,2) scale(1,1)"><g><path fill="none" stroke="none"/><text fill="#000000" stroke="none" font-family="Arial" font-size="13px" font-style="normal" font-weight="normal" text-decoration="none" x="469.33642578125" y="96">«boundary»</text></g></g><g transform="translate(-62,2) scale(1,1)"><g><path fill="none" stroke="none"/><text fill="#000000" stroke="none" font-family="Arial" font-size="13px" font-style="normal" font-weight="bold" text-decoration="none" x="445.5390625" y="111">Authorization form</text></g></g><g transform="translate(-62,2) scale(1,1)"><path fill="none" stroke="#000000" d="M 504.5 118 L 504.5 1136" stroke-miterlimit="10" stroke-dasharray="3"/></g><g transform="translate(-62,2) scale(1,1)"><path fill="none" stroke="#000000" d="M 1242.83447265625 60 C 1242.83447265625 51.1634432 1249.99791585625 44 1258.83447265625 44 C 1267.67102945625 44 1274.83447265625 51.1634432 1274.83447265625 60 C 1274.83447265625 68.8365568 1267.67102945625 76 1258.83447265625 76 C 1249.99791585625 76 1242.83447265625 68.8365568 1242.83447265625 60 Z" stroke-miterlimit="10"/></g><g transform="translate(-62,2) scale(1,1)"><path fill="none" stroke="#000000" d="M 1234.83447265625 44 L 1234.83447265625 76" stroke-miterlimit="10"/></g><g transform="translate(-62,2) scale(1,1)"><path fill="none" stroke="#000000" d="M 1234.83447265625 60 L 1242.83447265625 60" stroke-miterlimit="10"/></g><g transform="translate(-62,2) scale(1,1)"><g><path fill="none" stroke="none"/><text fill="#000000" stroke="none" font-family="Arial" font-size="13px" font-style="normal" font-weight="normal" text-decoration="none" x="1220.5" y="96">«boundary»</text></g></g><g transform="translate(-62,2) scale(1,1)"><g><path fill="none" stroke="none"/><text fill="#000000" stroke="none" font-family="Arial" font-size="13px" font-style="normal" font-weight="bold" text-decoration="none" x="1234.607666015625" y="111">Profile</text></g></g><g transform="translate(-62,2) scale(1,1)"><path fill="none" stroke="#000000" d="M 1255.5 118 L 1255.5 1136" stroke-miterlimit="10" stroke-dasharray="3"/></g><g transform="translate(-62,2) scale(1,1)"><path fill="none" stroke="#000000" d="M 663.83447265625 60 C 663.83447265625 51.1634432 670.99791585625 44 679.83447265625 44 C 688.67102945625 44 695.83447265625 51.1634432 695.83447265625 60 C 695.83447265625 68.8365568 688.67102945625 76 679.83447265625 76 C 670.99791585625 76 663.83447265625 68.8365568 663.83447265625 60 Z" stroke-miterlimit="10"/></g><g transform="translate(-62,2) scale(1,1)"><path fill="none" stroke="#000000" d="M 655.83447265625 44 L 655.83447265625 76" stroke-miterlimit="10"/></g><g transform="translate(-62,2) scale(1,1)"><path fill="none" stroke="#000000" d="M 655.83447265625 60 L 663.83447265625 60" stroke-miterlimit="10"/></g><g transform="translate(-62,2) scale(1,1)"><g><path fill="none" stroke="none"/><text fill="#000000" stroke="none" font-family="Arial" font-size="13px" font-style="normal" font-weight="normal" text-decoration="none" x="641.5" y="96">«boundary»</text></g></g><g transform="translate(-62,2) scale(1,1)"><g><path fill="none" stroke="none"/><text fill="#000000" stroke="none" font-family="Arial" font-size="13px" font-style="normal" font-weight="bold" text-decoration="none" x="644.0517578125" y="111">Main page</text></g></g><g transform="translate(-62,2) scale(1,1)"><path fill="none" stroke="#000000" d="M 676.5 118 L 676.5 1136" stroke-miterlimit="10" stroke-dasharray="3"/></g><g transform="translate(-62,2) scale(1,1)"><path fill="none" stroke="#000000" d="M 130 240 L 312 240" stroke-miterlimit="10"/></g><g transform="translate(-62,2) scale(1,1)"><path fill="#000000" stroke="none" d="M 301.83732514237585 244.209517756016 L 312 240 L 301.83732514237585 235.790482243984"/></g><g transform="translate(-62,2) scale(1,1)"><path fill="none" stroke="#000000" d="M 301.83732514237585 244.209517756016 L 312 240 L 301.83732514237585 235.790482243984 L 301.83732514237585 244.209517756016" stroke-miterlimit="10"/></g><g transform="translate(-62,2) scale(1,1)"><g><path fill="none" stroke="none"/><text fill="#000000" stroke="none" font-family="Arial" font-size="13px" font-style="normal" font-weight="normal" text-decoration="none" x="178.5" y="235">1.1 : User data</text></g></g><g transform="translate(-62,2) scale(1,1)"><rect fill="#ffffff" stroke="none" x="312" y="240" width="13" height="72"/></g><g transform="translate(-62,2) scale(1,1)"><path fill="none" stroke="#000000" d="M 312 240 L 325 240 L 325 312 L 312 312 L 312 240 Z Z" stroke-miterlimit="10"/></g><g transform="translate(-62,2) scale(1,1)"><path fill="none" stroke="#000000" d="M 325 248 L 355 248 L 355 268 L 332 268" stroke-miterlimit="10"/></g><g transform="translate(-62,2) scale(1,1)"><path fill="#000000" stroke="none" d="M 342.16267485762415 263.790482243984 L 332 268 L 342.16267485762415 272.209517756016"/></g><g transform="translate(-62,2) scale(1,1)"><path fill="none" stroke="#000000" d="M 342.16267485762415 263.790482243984 L 332 268 L 342.16267485762415 272.209517756016 L 342.16267485762415 263.790482243984" stroke-miterlimit="10"/></g><g transform="translate(-62,2) scale(1,1)"><g><path fill="none" stroke="none"/><text fill="#000000" stroke="none" font-family="Arial" font-size="13px" font-style="normal" font-weight="normal" text-decoration="none" x="354.900146484375" y="267">1.2 : Validation</text></g></g><g transform="translate(-62,2) scale(1,1)"><rect fill="#ffffff" stroke="none" x="319" y="268" width="13" height="28"/></g><g transform="translate(-62,2) scale(1,1)"><path fill="none" stroke="#000000" d="M 319 268 L 332 268 L 332 296 L 319 296 L 319 268 Z Z" stroke-miterlimit="10"/></g><g transform="translate(-62,2) scale(1,1)"><path fill="none" stroke="#000000" d="M 325 304 L 841 304" stroke-miterlimit="10"/></g><g transform="translate(-62,2) scale(1,1)"><path fill="#000000" stroke="none" d="M 830.8373251423759 308.209517756016 L 841 304 L 830.8373251423758 299.790482243984"/></g><g transform="translate(-62,2) scale(1,1)"><path fill="none" stroke="#000000" d="M 830.8373251423759 308.209517756016 L 841 304 L 830.8373251423758 299.790482243984 L 830.8373251423759 308.209517756016" stroke-miterlimit="10"/></g><g transform="translate(-62,2) scale(1,1)"><g><path fill="none" stroke="none"/><text fill="#000000" stroke="none" font-family="Arial" font-size="13px" font-style="normal" font-weight="normal" text-decoration="none" x="524.5" y="299">1.3 : Send form data</text></g></g><g transform="translate(-62,2) scale(1,1)"><rect fill="#ffffff" stroke="none" x="841" y="304" width="13" height="72"/></g><g transform="translate(-62,2) scale(1,1)"><path fill="none" stroke="#000000" d="M 841 304 L 854 304 L 854 376 L 841 376 L 841 304 Z Z" stroke-miterlimit="10"/></g><g transform="translate(-62,2) scale(1,1)"><path fill="none" stroke="#000000" d="M 854 312 L 884 312 L 884 332 L 861 332" stroke-miterlimit="10"/></g><g transform="translate(-62,2) scale(1,1)"><path fill="#000000" stroke="none" d="M 871.1626748576241 327.790482243984 L 861 332 L 871.1626748576241 336.209517756016"/></g><g transform="translate(-62,2) scale(1,1)"><path fill="none" stroke="#000000" d="M 871.1626748576241 327.790482243984 L 861 332 L 871.1626748576241 336.209517756016 L 871.1626748576241 327.790482243984" stroke-miterlimit="10"/></g><g transform="translate(-62,2) scale(1,1)"><g><path fill="none" stroke="none"/><text fill="#000000" stroke="none" font-family="Arial" font-size="13px" font-style="normal" font-weight="normal" text-decoration="none" x="882.5" y="331">1.4 : Validation</text></g></g><g transform="translate(-62,2) scale(1,1)"><rect fill="#ffffff" stroke="none" x="848" y="332" width="13" height="28"/></g><g transform="translate(-62,2) scale(1,1)"><path fill="none" stroke="#000000" d="M 848 332 L 861 332 L 861 360 L 848 360 L 848 332 Z Z" stroke-miterlimit="10"/></g><g transform="translate(-62,2) scale(1,1)"><path fill="none" stroke="#000000" d="M 854 364 L 1053 364" stroke-miterlimit="10"/></g><g transform="translate(-62,2) scale(1,1)"><path fill="#000000" stroke="none" d="M 1042.837325142376 368.209517756016 L 1053 364 L 1042.837325142376 359.790482243984"/></g><g transform="translate(-62,2) scale(1,1)"><path fill="none" stroke="#000000" d="M 1042.837325142376 368.209517756016 L 1053 364 L 1042.837325142376 359.790482243984 L 1042.837325142376 368.209517756016" stroke-miterlimit="10"/></g><g transform="translate(-62,2) scale(1,1)"><g><path fill="none" stroke="none"/><text fill="#000000" stroke="none" font-family="Arial" font-size="13px" font-style="normal" font-weight="normal" text-decoration="none" x="872.5" y="359">1.5 : Request to create user</text></g></g><g transform="translate(-62,2) scale(1,1)"><rect fill="#ffffff" stroke="none" x="1053" y="364" width="13" height="44"/></g><g transform="translate(-62,2) scale(1,1)"><path fill="none" stroke="#000000" d="M 1053 364 L 1066 364 L 1066 408 L 1053 408 L 1053 364 Z Z" stroke-miterlimit="10"/></g><g transform="translate(-62,2) scale(1,1)"><path fill="none" stroke="#000000" d="M 1053 387 L 848 387" stroke-miterlimit="10" stroke-dasharray="3"/></g><g transform="translate(-62,2) scale(1,1)"><path fill="none" stroke="#000000" d="M 858.1626748576241 382.790482243984 L 848 387 L 858.1626748576241 391.209517756016" stroke-miterlimit="10"/></g><g transform="translate(-62,2) scale(1,1)"><g><path fill="none" stroke="none"/><text fill="#000000" stroke="none" font-family="Arial" font-size="13px" font-style="normal" font-weight="normal" text-decoration="none" x="897.5" y="402">1.6 : User created</text></g></g><g transform="translate(-62,2) scale(1,1)"><path fill="none" stroke="#000000" d="M 130 504 L 497 504" stroke-miterlimit="10"/></g><g transform="translate(-62,2) scale(1,1)"><path fill="#000000" stroke="none" d="M 486.83732514237585 508.209517756016 L 497 504 L 486.83732514237585 499.790482243984"/></g><g transform="translate(-62,2) scale(1,1)"><path fill="none" stroke="#000000" d="M 486.83732514237585 508.209517756016 L 497 504 L 486.83732514237585 499.790482243984 L 486.83732514237585 508.209517756016" stroke-miterlimit="10"/></g><g transform="translate(-62,2) scale(1,1)"><g><path fill="none" stroke="none"/><text fill="#000000" stroke="none" font-family="Arial" font-size="13px" font-style="normal" font-weight="normal" text-decoration="none" x="247.5" y="499">2.1 : Click to forgot link</text></g></g><g transform="translate(-62,2) scale(1,1)"><rect fill="#ffffff" stroke="none" x="497" y="504" width="13" height="28"/></g><g transform="translate(-62,2) scale(1,1)"><path fill="none" stroke="#000000" d="M 497 504 L 510 504 L 510 532 L 497 532 L 497 504 Z Z" stroke-miterlimit="10"/></g><g transform="translate(-62,2) scale(1,1)"><path fill="none" stroke="#000000" d="M 510 520 L 841 520" stroke-miterlimit="10"/></g><g transform="translate(-62,2) scale(1,1)"><path fill="#000000" stroke="none" d="M 830.8373251423759 524.209517756016 L 841 520 L 830.8373251423758 515.790482243984"/></g><g transform="translate(-62,2) scale(1,1)"><path fill="none" stroke="#000000" d="M 830.8373251423759 524.209517756016 L 841 520 L 830.8373251423758 515.790482243984 L 830.8373251423759 524.209517756016" stroke-miterlimit="10"/></g><g transform="translate(-62,2) scale(1,1)"><g><path fill="none" stroke="none"/><text fill="#000000" stroke="none" font-family="Arial" font-size="13px" font-style="normal" font-weight="normal" text-decoration="none" x="592.5" y="515">2.2 : Send to reset password</text></g></g><g transform="translate(-62,2) scale(1,1)"><rect fill="#ffffff" stroke="none" x="841" y="520" width="13" height="64"/></g><g transform="translate(-62,2) scale(1,1)"><path fill="none" stroke="#000000" d="M 841 520 L 854 520 L 854 584 L 841 584 L 841 520 Z Z" stroke-miterlimit="10"/></g><g transform="translate(-62,2) scale(1,1)"><path fill="none" stroke="#000000" d="M 854 528 L 884 528 L 884 548 L 861 548" stroke-miterlimit="10"/></g><g transform="translate(-62,2) scale(1,1)"><path fill="#000000" stroke="none" d="M 871.1626748576241 543.790482243984 L 861 548 L 871.1626748576241 552.209517756016"/></g><g transform="translate(-62,2) scale(1,1)"><path fill="none" stroke="#000000" d="M 871.1626748576241 543.790482243984 L 861 548 L 871.1626748576241 552.209517756016 L 871.1626748576241 543.790482243984" stroke-miterlimit="10"/></g><g transform="translate(-62,2) scale(1,1)"><g><path fill="none" stroke="none"/><text fill="#000000" stroke="none" font-family="Arial" font-size="13px" font-style="normal" font-weight="normal" text-decoration="none" x="886.5" y="539">2.3 : Generate password</text></g></g><g transform="translate(-62,2) scale(1,1)"><rect fill="#ffffff" stroke="none" x="848" y="548" width="13" height="28"/></g><g transform="translate(-62,2) scale(1,1)"><path fill="none" stroke="#000000" d="M 848 548 L 861 548 L 861 576 L 848 576 L 848 548 Z Z" stroke-miterlimit="10"/></g><g transform="translate(-62,2) scale(1,1)"><path fill="none" stroke="#000000" d="M 854 579 L 1053 579" stroke-miterlimit="10"/></g><g transform="translate(-62,2) scale(1,1)"><path fill="#000000" stroke="none" d="M 1042.837325142376 583.209517756016 L 1053 579 L 1042.837325142376 574.790482243984"/></g><g transform="translate(-62,2) scale(1,1)"><path fill="none" stroke="#000000" d="M 1042.837325142376 583.209517756016 L 1053 579 L 1042.837325142376 574.790482243984 L 1042.837325142376 583.209517756016" stroke-miterlimit="10"/></g><g transform="translate(-62,2) scale(1,1)"><g><path fill="none" stroke="none"/><text fill="#000000" stroke="none" font-family="Arial" font-size="13px" font-style="normal" font-weight="normal" text-decoration="none" x="854.5" y="574">2.4 : Request to change password</text></g></g><g transform="translate(-62,2) scale(1,1)"><rect fill="#ffffff" stroke="none" x="1053" y="579" width="13" height="28"/></g><g transform="translate(-62,2) scale(1,1)"><path fill="none" stroke="#000000" d="M 1053 579 L 1066 579 L 1066 607 L 1053 607 L 1053 579 Z Z" stroke-miterlimit="10"/></g><g transform="translate(-62,2) scale(1,1)"><path fill="none" stroke="#000000" d="M 1053 598 L 848 598" stroke-miterlimit="10" stroke-dasharray="3"/></g><g transform="translate(-62,2) scale(1,1)"><path fill="none" stroke="#000000" d="M 858.1626748576241 593.790482243984 L 848 598 L 858.1626748576241 602.209517756016" stroke-miterlimit="10"/></g><g transform="translate(-62,2) scale(1,1)"><g><path fill="none" stroke="none"/><text fill="#000000" stroke="none" font-family="Arial" font-size="13px" font-style="normal" font-weight="normal" text-decoration="none" x="879.5" y="613">2.5 : Password changed</text></g></g><g transform="translate(-62,2) scale(1,1)"><path fill="none" stroke="#000000" d="M 848 608 L 130 608" stroke-miterlimit="10" stroke-dasharray="3"/></g><g transform="translate(-62,2) scale(1,1)"><path fill="none" stroke="#000000" d="M 140.16267485762415 603.790482243984 L 130 608 L 140.16267485762415 612.209517756016" stroke-miterlimit="10"/></g><g transform="translate(-62,2) scale(1,1)"><g><path fill="none" stroke="none"/><text fill="#000000" stroke="none" font-family="Arial" font-size="13px" font-style="normal" font-weight="normal" text-decoration="none" x="389.5" y="623">2.6 : Send new password to Email</text></g></g><g transform="translate(-62,2) scale(1,1)"><path fill="none" stroke="#000000" d="M 130 672 L 497 672" stroke-miterlimit="10"/></g><g transform="translate(-62,2) scale(1,1)"><path fill="none" stroke="#000000" d="M 486.83732514237585 676.209517756016 L 497 672 L 486.83732514237585 667.790482243984" stroke-miterlimit="10"/></g><g transform="translate(-62,2) scale(1,1)"><g><path fill="none" stroke="none"/><text fill="#000000" stroke="none" font-family="Arial" font-size="13px" font-style="normal" font-weight="normal" text-decoration="none" x="270.5" y="667">3.1 : User data</text></g></g><g transform="translate(-62,2) scale(1,1)"><rect fill="#ffffff" stroke="none" x="497" y="672" width="13" height="48"/></g><g transform="translate(-62,2) scale(1,1)"><path fill="none" stroke="#000000" d="M 497 672 L 510 672 L 510 720 L 497 720 L 497 672 Z Z" stroke-miterlimit="10"/></g><g transform="translate(-62,2) scale(1,1)"><path fill="none" stroke="#000000" d="M 510 712 L 841 712" stroke-miterlimit="10"/></g><g transform="translate(-62,2) scale(1,1)"><path fill="#000000" stroke="none" d="M 830.8373251423759 716.209517756016 L 841 712 L 830.8373251423758 707.790482243984"/></g><g transform="translate(-62,2) scale(1,1)"><path fill="none" stroke="#000000" d="M 830.8373251423759 716.209517756016 L 841 712 L 830.8373251423758 707.790482243984 L 830.8373251423759 716.209517756016" stroke-miterlimit="10"/></g><g transform="translate(-62,2) scale(1,1)"><g><path fill="none" stroke="none"/><text fill="#000000" stroke="none" font-family="Arial" font-size="13px" font-style="normal" font-weight="normal" text-decoration="none" x="616.5" y="707">3.2 : Send form data</text></g></g><g transform="translate(-62,2) scale(1,1)"><rect fill="#ffffff" stroke="none" x="841" y="712" width="13" height="216"/></g><g transform="translate(-62,2) scale(1,1)"><path fill="none" stroke="#000000" d="M 841 712 L 854 712 L 854 928 L 841 928 L 841 712 Z Z" stroke-miterlimit="10"/></g><g transform="translate(-62,2) scale(1,1)"><path fill="none" stroke="#000000" d="M 854 744 L 884 744 L 884 764 L 861 764" stroke-miterlimit="10"/></g><g transform="translate(-62,2) scale(1,1)"><path fill="#000000" stroke="none" d="M 871.1626748576241 759.790482243984 L 861 764 L 871.1626748576241 768.209517756016"/></g><g transform="translate(-62,2) scale(1,1)"><path fill="none" stroke="#000000" d="M 871.1626748576241 759.790482243984 L 861 764 L 871.1626748576241 768.209517756016 L 871.1626748576241 759.790482243984" stroke-miterlimit="10"/></g><g transform="translate(-62,2) scale(1,1)"><g><path fill="none" stroke="none"/><text fill="#000000" stroke="none" font-family="Arial" font-size="13px" font-style="normal" font-weight="normal" text-decoration="none" x="895.5" y="758">3.3 : Validation</text></g></g><g transform="translate(-62,2) scale(1,1)"><rect fill="#ffffff" stroke="none" x="848" y="764" width="13" height="28"/></g><g transform="translate(-62,2) scale(1,1)"><path fill="none" stroke="#000000" d="M 848 764 L 861 764 L 861 792 L 848 792 L 848 764 Z Z" stroke-miterlimit="10"/></g><g transform="translate(-62,2) scale(1,1)"><path fill="none" stroke="#000000" d="M 854 802 L 1053 802" stroke-miterlimit="10"/></g><g transform="translate(-62,2) scale(1,1)"><path fill="#000000" stroke="none" d="M 1042.837325142376 806.209517756016 L 1053 802 L 1042.837325142376 797.790482243984"/></g><g transform="translate(-62,2) scale(1,1)"><path fill="none" stroke="#000000" d="M 1042.837325142376 806.209517756016 L 1053 802 L 1042.837325142376 797.790482243984 L 1042.837325142376 806.209517756016" stroke-miterlimit="10"/></g><g transform="translate(-62,2) scale(1,1)"><g><path fill="none" stroke="none"/><text fill="#000000" stroke="none" font-family="Arial" font-size="13px" font-style="normal" font-weight="normal" text-decoration="none" x="873.5" y="797">3.4 : Request to check user</text></g></g><g transform="translate(-62,2) scale(1,1)"><rect fill="#ffffff" stroke="none" x="1053" y="802" width="13" height="46"/></g><g transform="translate(-62,2) scale(1,1)"><path fill="none" stroke="#000000" d="M 1053 802 L 1066 802 L 1066 848 L 1053 848 L 1053 802 Z Z" stroke-miterlimit="10"/></g><g transform="translate(-62,2) scale(1,1)"><path fill="none" stroke="#000000" d="M 1053 834 L 854 834" stroke-miterlimit="10" stroke-dasharray="3"/></g><g transform="translate(-62,2) scale(1,1)"><path fill="none" stroke="#000000" d="M 864.1626748576241 829.790482243984 L 854 834 L 864.1626748576241 838.209517756016" stroke-miterlimit="10"/></g><g transform="translate(-62,2) scale(1,1)"><g><path fill="none" stroke="none"/><text fill="#000000" stroke="none" font-family="Arial" font-size="13px" font-style="normal" font-weight="normal" text-decoration="none" x="909.5" y="849">3.5 : User data</text></g></g><g transform="translate(-62,2) scale(1,1)"><path fill="none" stroke="#000000" d="M 841 880 L 130 880" stroke-miterlimit="10" stroke-dasharray="3"/></g><g transform="translate(-62,2) scale(1,1)"><path fill="none" stroke="#000000" d="M 140.16267485762415 875.790482243984 L 130 880 L 140.16267485762415 884.209517756016" stroke-miterlimit="10"/></g><g transform="translate(-62,2) scale(1,1)"><g><path fill="none" stroke="none"/><text fill="#000000" stroke="none" font-family="Arial" font-size="13px" font-style="normal" font-weight="normal" text-decoration="none" x="394.5" y="895">4 : Send successfully message</text></g></g><g transform="translate(-62,2) scale(1,1)"><path fill="none" stroke="#000000" d="M 854 920 L 1248 920" stroke-miterlimit="10"/></g><g transform="translate(-62,2) scale(1,1)"><path fill="none" stroke="#000000" d="M 1237.837325142376 924.209517756016 L 1248 920 L 1237.837325142376 915.790482243984" stroke-miterlimit="10"/></g><g transform="translate(-62,2) scale(1,1)"><g><path fill="none" stroke="none"/><text fill="#000000" stroke="none" font-family="Arial" font-size="13px" font-style="normal" font-weight="normal" text-decoration="none" x="991.5" y="915">5 : Redirect to profile</text></g></g><g transform="translate(-62,2) scale(1,1)"><rect fill="#ffffff" stroke="none" x="1248" y="920" width="13" height="28"/></g><g transform="translate(-62,2) scale(1,1)"><path fill="none" stroke="#000000" d="M 1248 920 L 1261 920 L 1261 948 L 1248 948 L 1248 920 Z Z" stroke-miterlimit="10"/></g><g transform="translate(-62,2) scale(1,1)"><path fill="none" stroke="#000000" d="M 130 1011 L 669 1011" stroke-miterlimit="10"/></g><g transform="translate(-62,2) scale(1,1)"><path fill="#000000" stroke="none" d="M 658.8373251423759 1015.209517756016 L 669 1011 L 658.8373251423758 1006.790482243984"/></g><g transform="translate(-62,2) scale(1,1)"><path fill="none" stroke="#000000" d="M 658.8373251423759 1015.209517756016 L 669 1011 L 658.8373251423758 1006.790482243984 L 658.8373251423759 1015.209517756016" stroke-miterlimit="10"/></g><g transform="translate(-62,2) scale(1,1)"><g><path fill="none" stroke="none"/><text fill="#000000" stroke="none" font-family="Arial" font-size="13px" font-style="normal" font-weight="normal" text-decoration="none" x="336.5" y="1006">6.1 : Go to main page</text></g></g><g transform="translate(-62,2) scale(1,1)"><rect fill="#ffffff" stroke="none" x="669" y="1011" width="13" height="28"/></g><g transform="translate(-62,2) scale(1,1)"><path fill="none" stroke="#000000" d="M 669 1011 L 682 1011 L 682 1039 L 669 1039 L 669 1011 Z Z" stroke-miterlimit="10"/></g><g transform="translate(-62,2) scale(1,1)"><path fill="none" stroke="#000000" d="M 676 1040 L 841 1040" stroke-miterlimit="10"/></g><g transform="translate(-62,2) scale(1,1)"><path fill="#000000" stroke="none" d="M 830.8373251423759 1044.2095177560159 L 841 1040 L 830.8373251423758 1035.7904822439841"/></g><g transform="translate(-62,2) scale(1,1)"><path fill="none" stroke="#000000" d="M 830.8373251423759 1044.2095177560159 L 841 1040 L 830.8373251423758 1035.7904822439841 L 830.8373251423759 1044.2095177560159" stroke-miterlimit="10"/></g><g transform="translate(-62,2) scale(1,1)"><g><path fill="none" stroke="none"/><text fill="#000000" stroke="none" font-family="Arial" font-size="13px" font-style="normal" font-weight="normal" text-decoration="none" x="698.5" y="1035">6.2 : Send to get info</text></g></g><g transform="translate(-62,2) scale(1,1)"><rect fill="#ffffff" stroke="none" x="841" y="1040" width="13" height="28"/></g><g transform="translate(-62,2) scale(1,1)"><path fill="none" stroke="#000000" d="M 841 1040 L 854 1040 L 854 1068 L 841 1068 L 841 1040 Z Z" stroke-miterlimit="10"/></g><g transform="translate(-62,2) scale(1,1)"><path fill="none" stroke="#000000" d="M 854 1056 L 1053 1056" stroke-miterlimit="10"/></g><g transform="translate(-62,2) scale(1,1)"><path fill="#000000" stroke="none" d="M 1042.837325142376 1060.2095177560159 L 1053 1056 L 1042.837325142376 1051.7904822439841"/></g><g transform="translate(-62,2) scale(1,1)"><path fill="none" stroke="#000000" d="M 1042.837325142376 1060.2095177560159 L 1053 1056 L 1042.837325142376 1051.7904822439841 L 1042.837325142376 1060.2095177560159" stroke-miterlimit="10"/></g><g transform="translate(-62,2) scale(1,1)"><g><path fill="none" stroke="none"/><text fill="#000000" stroke="none" font-family="Arial" font-size="13px" font-style="normal" font-weight="normal" text-decoration="none" x="881.5" y="1051">6.3 : Request to get data</text></g></g><g transform="translate(-62,2) scale(1,1)"><rect fill="#ffffff" stroke="none" x="1053" y="1056" width="13" height="28"/></g><g transform="translate(-62,2) scale(1,1)"><path fill="none" stroke="#000000" d="M 1053 1056 L 1066 1056 L 1066 1084 L 1053 1084 L 1053 1056 Z Z" stroke-miterlimit="10"/></g><g transform="translate(-62,2) scale(1,1)"><path fill="none" stroke="#000000" d="M 1060 1088 L 848 1088" stroke-miterlimit="10" stroke-dasharray="3"/></g><g transform="translate(-62,2) scale(1,1)"><path fill="none" stroke="#000000" d="M 858.1626748576241 1083.7904822439841 L 848 1088 L 858.1626748576241 1092.2095177560159" stroke-miterlimit="10"/></g><g transform="translate(-62,2) scale(1,1)"><g><path fill="none" stroke="none"/><text fill="#000000" stroke="none" font-family="Arial" font-size="13px" font-style="normal" font-weight="normal" text-decoration="none" x="894.5" y="1103">6.4 : Response data</text></g></g><g transform="translate(-62,2) scale(1,1)"><path fill="none" stroke="#000000" d="M 848 1093 L 676 1093" stroke-miterlimit="10" stroke-dasharray="3"/></g><g transform="translate(-62,2) scale(1,1)"><path fill="none" stroke="#000000" d="M 686.1626748576241 1088.7904822439841 L 676 1093 L 686.1626748576241 1097.2095177560159" stroke-miterlimit="10"/></g><g transform="translate(-62,2) scale(1,1)"><g><path fill="none" stroke="none"/><text fill="#000000" stroke="none" font-family="Arial" font-size="13px" font-style="normal" font-weight="normal" text-decoration="none" x="704.5" y="1108">6.5 : Display data</text></g></g><g transform="translate(-62,2) scale(1,1)"><path fill="none" stroke="#000000" d="M 88 152 L 1104 152 L 1104 864 L 88 864 L 88 152" stroke-miterlimit="10"/></g><g transform="translate(-62,2) scale(1,1)"><path fill="#ffffff" stroke="none" d="M 88 152 L 88 174 L 266.5888671875 174 L 277.5888671875 163 L 277.5888671875 152 L 88 152"/></g><g transform="translate(-62,2) scale(1,1)"><path fill="none" stroke="#000000" d="M 88 152 L 88 174 L 266.5888671875 174 L 277.5888671875 163 L 277.5888671875 152 L 88 152 L 88 152" stroke-miterlimit="10"/></g><g transform="translate(-62,2) scale(1,1)"><g><path fill="none" stroke="none"/><text fill="#000000" stroke="none" font-family="Arial" font-size="13px" font-style="normal" font-weight="normal" text-decoration="none" x="112.72998046875" y="168">Registration/Authorization</text></g></g><g transform="translate(-62,2) scale(1,1)"><g><path fill="none" stroke="none"/><text fill="#000000" stroke="none" font-family="Arial" font-size="13px" font-style="normal" font-weight="bold" text-decoration="none" x="92.279541015625" y="168">alt</text></g></g><g transform="translate(-62,2) scale(1,1)"><g><path fill="none" stroke="none"/><text fill="#000000" stroke="none" font-family="Arial" font-size="13px" font-style="normal" font-weight="normal" text-decoration="none" x="107.5" y="201">[User is not register]</text></g></g><g transform="translate(-62,2) scale(1,1)"><path fill="none" stroke="#000000" d="M 88 417 L 1104 417" stroke-miterlimit="10" stroke-dasharray="10,3"/></g><g transform="translate(-62,2) scale(1,1)"><g><path fill="none" stroke="none"/><text fill="#000000" stroke="none" font-family="Arial" font-size="13px" font-style="normal" font-weight="normal" text-decoration="none" x="107.5" y="443">[User is register]</text></g></g><g transform="translate(-62,2) scale(1,1)"><path fill="none" stroke="#000000" d="M 112 456 L 1088 456 L 1088 640 L 112 640 L 112 456" stroke-miterlimit="10"/></g><g transform="translate(-62,2) scale(1,1)"><path fill="#ffffff" stroke="none" d="M 112 456 L 112 478 L 239.28076171875 478 L 250.28076171875 467 L 250.28076171875 456 L 112 456"/></g><g transform="translate(-62,2) scale(1,1)"><path fill="none" stroke="#000000" d="M 112 456 L 112 478 L 239.28076171875 478 L 250.28076171875 467 L 250.28076171875 456 L 112 456 L 112 456" stroke-miterlimit="10"/></g><g transform="translate(-62,2) scale(1,1)"><g><path fill="none" stroke="none"/><text fill="#000000" stroke="none" font-family="Arial" font-size="13px" font-style="normal" font-weight="normal" text-decoration="none" x="141.07177734375" y="472">Reset password</text></g></g><g transform="translate(-62,2) scale(1,1)"><g><path fill="none" stroke="none"/><text fill="#000000" stroke="none" font-family="Arial" font-size="13px" font-style="normal" font-weight="bold" text-decoration="none" x="115.930419921875" y="471.5">opt</text></g></g><g transform="translate(-62,2) scale(1,1)"><g><path fill="none" stroke="none"/><text fill="#000000" stroke="none" font-family="Arial" font-size="13px" font-style="normal" font-weight="normal" text-decoration="none" x="131.5" y="505">[Forgot password]</text></g></g></g></svg>