<svg version="1.1" xmlns="http://www.w3.org/2000/svg" xmlns:xlink="http://www.w3.org/1999/xlink" width="1533" height="1110"><defs/><g><g transform="translate(-30,-38) scale(1,1)"><path fill="#ffffff" stroke="none" d="M 744.4093503196023 337.68 C 744.4093503196023 332.886167936 748.2951926445477 329 753.088623046875 329 C 757.8820534492023 329 761.7678957741477 332.886167936 761.7678957741477 337.68 C 761.7678957741477 342.473832064 757.8820534492023 346.36 753.088623046875 346.36 C 748.2951926445477 346.36 744.4093503196023 342.473832064 744.4093503196023 337.68 Z"/></g><g transform="translate(-30,-38) scale(1,1)"><path fill="none" stroke="#000000" d="M 744.4093503196023 337.68 C 744.4093503196023 332.886167936 748.2951926445477 329 753.088623046875 329 C 757.8820534492023 329 761.7678957741477 332.886167936 761.7678957741477 337.68 C 761.7678957741477 342.473832064 757.8820534492023 346.36 753.088623046875 346.36 C 748.2951926445477 346.36 744.4093503196023 342.473832064 744.4093503196023 337.68 Z" stroke-miterlimit="10"/></g><g transform="translate(-30,-38) scale(1,1)"><path fill="none" stroke="#000000" d="M 753.088623046875 346.36 L 753.088623046875 363.64" stroke-miterlimit="10"/></g><g transform="translate(-30,-38) scale(1,1)"><path fill="none" stroke="#000000" d="M 743.8988048650568 352.84 L 762.2784412286932 352.84" stroke-miterlimit="10"/></g><g transform="translate(-30,-38) scale(1,1)"><path fill="none" stroke="#000000" d="M 753.088623046875 363.64 L 740.3249866832386 381" stroke-miterlimit="10"/></g><g transform="translate(-30,-38) scale(1,1)"><path fill="none" stroke="#000000" d="M 753.088623046875 363.64 L 765.8522594105114 381" stroke-miterlimit="10"/></g><g transform="translate(-30,-38) scale(1,1)"><g><path fill="none" stroke="none"/><text fill="#000000" stroke="none" font-family="Arial" font-size="13px" font-style="normal" font-weight="bold" text-decoration="none" x="738.635009765625" y="400">User</text></g></g><g transform="translate(-30,-38) scale(1,1)"><path fill="#ffffff" stroke="none" d="M 880.4093503196023 617.6800000000001 C 880.4093503196023 612.8861679360001 884.2951926445477 609 889.088623046875 609 C 893.8820534492023 609 897.7678957741477 612.8861679360001 897.7678957741477 617.6800000000001 C 897.7678957741477 622.473832064 893.8820534492023 626.36 889.088623046875 626.36 C 884.2951926445477 626.36 880.4093503196023 622.473832064 880.4093503196023 617.6800000000001 Z"/></g><g transform="translate(-30,-38) scale(1,1)"><path fill="none" stroke="#000000" d="M 880.4093503196023 617.6800000000001 C 880.4093503196023 612.8861679360001 884.2951926445477 609 889.088623046875 609 C 893.8820534492023 609 897.7678957741477 612.8861679360001 897.7678957741477 617.6800000000001 C 897.7678957741477 622.473832064 893.8820534492023 626.36 889.088623046875 626.36 C 884.2951926445477 626.36 880.4093503196023 622.473832064 880.4093503196023 617.6800000000001 Z" stroke-miterlimit="10"/></g><g transform="translate(-30,-38) scale(1,1)"><path fill="none" stroke="#000000" d="M 889.088623046875 626.36 L 889.088623046875 643.64" stroke-miterlimit="10"/></g><g transform="translate(-30,-38) scale(1,1)"><path fill="none" stroke="#000000" d="M 879.8988048650568 632.84 L 898.2784412286932 632.84" stroke-miterlimit="10"/></g><g transform="translate(-30,-38) scale(1,1)"><path fill="none" stroke="#000000" d="M 889.088623046875 643.64 L 876.3249866832386 661" stroke-miterlimit="10"/></g><g transform="translate(-30,-38) scale(1,1)"><path fill="none" stroke="#000000" d="M 889.088623046875 643.64 L 901.8522594105114 661" stroke-miterlimit="10"/></g><g transform="translate(-30,-38) scale(1,1)"><g><path fill="none" stroke="none"/><text fill="#000000" stroke="none" font-family="Arial" font-size="13px" font-style="normal" font-weight="bold" text-decoration="none" x="868.8681640625" y="680">Admin</text></g></g><g transform="translate(-30,-38) scale(1,1)"><path fill="#ffffff" stroke="none" d="M 760.4093503196023 473.68 C 760.4093503196023 468.886167936 764.2951926445477 465 769.088623046875 465 C 773.8820534492023 465 777.7678957741477 468.886167936 777.7678957741477 473.68 C 777.7678957741477 478.473832064 773.8820534492023 482.36 769.088623046875 482.36 C 764.2951926445477 482.36 760.4093503196023 478.473832064 760.4093503196023 473.68 Z"/></g><g transform="translate(-30,-38) scale(1,1)"><path fill="none" stroke="#000000" d="M 760.4093503196023 473.68 C 760.4093503196023 468.886167936 764.2951926445477 465 769.088623046875 465 C 773.8820534492023 465 777.7678957741477 468.886167936 777.7678957741477 473.68 C 777.7678957741477 478.473832064 773.8820534492023 482.36 769.088623046875 482.36 C 764.2951926445477 482.36 760.4093503196023 478.473832064 760.4093503196023 473.68 Z" stroke-miterlimit="10"/></g><g transform="translate(-30,-38) scale(1,1)"><path fill="none" stroke="#000000" d="M 769.088623046875 482.36 L 769.088623046875 499.64" stroke-miterlimit="10"/></g><g transform="translate(-30,-38) scale(1,1)"><path fill="none" stroke="#000000" d="M 759.8988048650568 488.84 L 778.2784412286932 488.84" stroke-miterlimit="10"/></g><g transform="translate(-30,-38) scale(1,1)"><path fill="none" stroke="#000000" d="M 769.088623046875 499.64 L 756.3249866832386 517" stroke-miterlimit="10"/></g><g transform="translate(-30,-38) scale(1,1)"><path fill="none" stroke="#000000" d="M 769.088623046875 499.64 L 781.8522594105114 517" stroke-miterlimit="10"/></g><g transform="translate(-30,-38) scale(1,1)"><g><path fill="none" stroke="none"/><text fill="#000000" stroke="none" font-family="Arial" font-size="13px" font-style="normal" font-weight="bold" text-decoration="none" x="754.64453125" y="536">Staff</text></g></g><g transform="translate(-30,-38) scale(1,1)"><path fill="#ffffff" stroke="none" d="M 624.4093503196023 473.68 C 624.4093503196023 468.886167936 628.2951926445477 465 633.088623046875 465 C 637.8820534492023 465 641.7678957741477 468.886167936 641.7678957741477 473.68 C 641.7678957741477 478.473832064 637.8820534492023 482.36 633.088623046875 482.36 C 628.2951926445477 482.36 624.4093503196023 478.473832064 624.4093503196023 473.68 Z"/></g><g transform="translate(-30,-38) scale(1,1)"><path fill="none" stroke="#000000" d="M 624.4093503196023 473.68 C 624.4093503196023 468.886167936 628.2951926445477 465 633.088623046875 465 C 637.8820534492023 465 641.7678957741477 468.886167936 641.7678957741477 473.68 C 641.7678957741477 478.473832064 637.8820534492023 482.36 633.088623046875 482.36 C 628.2951926445477 482.36 624.4093503196023 478.473832064 624.4093503196023 473.68 Z" stroke-miterlimit="10"/></g><g transform="translate(-30,-38) scale(1,1)"><path fill="none" stroke="#000000" d="M 633.088623046875 482.36 L 633.088623046875 499.64" stroke-miterlimit="10"/></g><g transform="translate(-30,-38) scale(1,1)"><path fill="none" stroke="#000000" d="M 623.8988048650568 488.84 L 642.2784412286932 488.84" stroke-miterlimit="10"/></g><g transform="translate(-30,-38) scale(1,1)"><path fill="none" stroke="#000000" d="M 633.088623046875 499.64 L 620.3249866832386 517" stroke-miterlimit="10"/></g><g transform="translate(-30,-38) scale(1,1)"><path fill="none" stroke="#000000" d="M 633.088623046875 499.64 L 645.8522594105114 517" stroke-miterlimit="10"/></g><g transform="translate(-30,-38) scale(1,1)"><g><path fill="none" stroke="none"/><text fill="#000000" stroke="none" font-family="Arial" font-size="13px" font-style="normal" font-weight="bold" text-decoration="none" x="615.03271484375" y="536">Client</text></g></g><g transform="translate(-30,-38) scale(1,1)"><path fill="none" stroke="#000000" d="M 764 463 L 758 408" stroke-miterlimit="10"/></g><g transform="translate(-30,-38) scale(1,1)"><path fill="#FFFFFF" stroke="none" d="M 768.5736150975143 427.2924509528887 L 758 408 L 751.8348520426123 429.11849783160534"/></g><g transform="translate(-30,-38) scale(1,1)"><path fill="none" stroke="#000000" d="M 768.5736150975143 427.2924509528887 L 758 408 L 751.8348520426123 429.11849783160534 L 768.5736150975143 427.2924509528887" stroke-miterlimit="10"/></g><g transform="translate(-30,-38) scale(1,1)"><path fill="none" stroke="#000000" d="M 659 473 L 727 396" stroke-miterlimit="10"/></g><g transform="translate(-30,-38) scale(1,1)"><path fill="#FFFFFF" stroke="none" d="M 719.8562854723398 416.80786732818376 L 727 396 L 707.2352469248419 405.66201510441937"/></g><g transform="translate(-30,-38) scale(1,1)"><path fill="none" stroke="#000000" d="M 719.8562854723398 416.80786732818376 L 727 396 L 707.2352469248419 405.66201510441937 L 719.8562854723398 416.80786732818376" stroke-miterlimit="10"/></g><g transform="translate(-30,-38) scale(1,1)"><path fill="#C0C0C0" stroke="none" d="M 887 504 C 887 494.6111584 909.6096176 487 937.5 487 C 965.3903824 487 988 494.6111584 988 504 C 988 513.3888416 965.3903824 521 937.5 521 C 909.6096176 521 887 513.3888416 887 504 Z" opacity="0.2"/></g><g transform="translate(-30,-38) scale(1,1)"><path fill="#ffffff" stroke="none" d="M 880 497 C 880 487.6111584 902.6096176 480 930.5 480 C 958.3903824 480 981 487.6111584 981 497 C 981 506.3888416 958.3903824 514 930.5 514 C 902.6096176 514 880 506.3888416 880 497 Z"/></g><g transform="translate(-30,-38) scale(1,1)"><path fill="none" stroke="#000000" d="M 880 497 C 880 487.6111584 902.6096176 480 930.5 480 C 958.3903824 480 981 487.6111584 981 497 C 981 506.3888416 958.3903824 514 930.5 514 C 902.6096176 514 880 506.3888416 880 497 Z" stroke-miterlimit="10"/></g><g transform="translate(-30,-38) scale(1,1)"><g><path fill="none" stroke="none"/><text fill="#000000" stroke="none" font-family="Arial" font-size="13px" font-style="normal" font-weight="bold" text-decoration="none" x="902.087890625" y="502.5">View info</text></g></g><g transform="translate(-30,-38) scale(1,1)"><path fill="none" stroke="#000000" d="M 779 386 L 905 479" stroke-miterlimit="10"/></g><g transform="translate(-30,-38) scale(1,1)"><path fill="#C0C0C0" stroke="none" d="M 927 424 C 927 414.6111584 958.1162064 407 996.5 407 C 1034.8837936 407 1066 414.6111584 1066 424 C 1066 433.3888416 1034.8837936 441 996.5 441 C 958.1162064 441 927 433.3888416 927 424 Z" opacity="0.2"/></g><g transform="translate(-30,-38) scale(1,1)"><path fill="#ffffff" stroke="none" d="M 920 417 C 920 407.6111584 951.1162064 400 989.5 400 C 1027.8837936 400 1059 407.6111584 1059 417 C 1059 426.3888416 1027.8837936 434 989.5 434 C 951.1162064 434 920 426.3888416 920 417 Z"/></g><g transform="translate(-30,-38) scale(1,1)"><path fill="none" stroke="#000000" d="M 920 417 C 920 407.6111584 951.1162064 400 989.5 400 C 1027.8837936 400 1059 407.6111584 1059 417 C 1059 426.3888416 1027.8837936 434 989.5 434 C 951.1162064 434 920 426.3888416 920 417 Z" stroke-miterlimit="10"/></g><g transform="translate(-30,-38) scale(1,1)"><g><path fill="none" stroke="none"/><text fill="#000000" stroke="none" font-family="Arial" font-size="13px" font-style="normal" font-weight="bold" text-decoration="none" x="944.822021484375" y="422.5">View schedule</text></g></g><g transform="translate(-30,-38) scale(1,1)"><path fill="#C0C0C0" stroke="none" d="M 1287 616 C 1287 606.6111584 1327.294368 599 1377 599 C 1426.705632 599 1467 606.6111584 1467 616 C 1467 625.3888416 1426.705632 633 1377 633 C 1327.294368 633 1287 625.3888416 1287 616 Z" opacity="0.2"/></g><g transform="translate(-30,-38) scale(1,1)"><path fill="#ffffff" stroke="none" d="M 1280 609 C 1280 599.6111584 1320.294368 592 1370 592 C 1419.705632 592 1460 599.6111584 1460 609 C 1460 618.3888416 1419.705632 626 1370 626 C 1320.294368 626 1280 618.3888416 1280 609 Z"/></g><g transform="translate(-30,-38) scale(1,1)"><path fill="none" stroke="#000000" d="M 1280 609 C 1280 599.6111584 1320.294368 592 1370 592 C 1419.705632 592 1460 599.6111584 1460 609 C 1460 618.3888416 1419.705632 626 1370 626 C 1320.294368 626 1280 618.3888416 1280 609 Z" stroke-miterlimit="10"/></g><g transform="translate(-30,-38) scale(1,1)"><g><path fill="none" stroke="none"/><text fill="#000000" stroke="none" font-family="Arial" font-size="13px" font-style="normal" font-weight="bold" text-decoration="none" x="1310.881103515625" y="614.5">View subscriptions</text></g></g><g transform="translate(-30,-38) scale(1,1)"><path fill="#C0C0C0" stroke="none" d="M 1119 792 C 1119 782.6111584 1163.0999472 775 1217.5 775 C 1271.9000528 775 1316 782.6111584 1316 792 C 1316 801.3888416 1271.9000528 809 1217.5 809 C 1163.0999472 809 1119 801.3888416 1119 792 Z" opacity="0.2"/></g><g transform="translate(-30,-38) scale(1,1)"><path fill="#ffffff" stroke="none" d="M 1112 785 C 1112 775.6111584 1156.0999472 768 1210.5 768 C 1264.9000528 768 1309 775.6111584 1309 785 C 1309 794.3888416 1264.9000528 802 1210.5 802 C 1156.0999472 802 1112 794.3888416 1112 785 Z"/></g><g transform="translate(-30,-38) scale(1,1)"><path fill="none" stroke="#000000" d="M 1112 785 C 1112 775.6111584 1156.0999472 768 1210.5 768 C 1264.9000528 768 1309 775.6111584 1309 785 C 1309 794.3888416 1264.9000528 802 1210.5 802 C 1156.0999472 802 1112 794.3888416 1112 785 Z" stroke-miterlimit="10"/></g><g transform="translate(-30,-38) scale(1,1)"><g><path fill="none" stroke="none"/><text fill="#000000" stroke="none" font-family="Arial" font-size="13px" font-style="normal" font-weight="bold" text-decoration="none" x="1145.490478515625" y="790.5">Manage subscription</text></g></g><g transform="translate(-30,-38) scale(1,1)"><path fill="#C0C0C0" stroke="none" d="M 1367 808 C 1367 798.6111584 1405.7273648 791 1453.5 791 C 1501.2726352 791 1540 798.6111584 1540 808 C 1540 817.3888416 1501.2726352 825 1453.5 825 C 1405.7273648 825 1367 817.3888416 1367 808 Z" opacity="0.2"/></g><g transform="translate(-30,-38) scale(1,1)"><path fill="#ffffff" stroke="none" d="M 1360 801 C 1360 791.6111584 1398.7273648 784 1446.5 784 C 1494.2726352 784 1533 791.6111584 1533 801 C 1533 810.3888416 1494.2726352 818 1446.5 818 C 1398.7273648 818 1360 810.3888416 1360 801 Z"/></g><g transform="translate(-30,-38) scale(1,1)"><path fill="none" stroke="#000000" d="M 1360 801 C 1360 791.6111584 1398.7273648 784 1446.5 784 C 1494.2726352 784 1533 791.6111584 1533 801 C 1533 810.3888416 1494.2726352 818 1446.5 818 C 1398.7273648 818 1360 810.3888416 1360 801 Z" stroke-miterlimit="10"/></g><g transform="translate(-30,-38) scale(1,1)"><g><path fill="none" stroke="none"/><text fill="#000000" stroke="none" font-family="Arial" font-size="13px" font-style="normal" font-weight="bold" text-decoration="none" x="1389.799560546875" y="806.5">Edit subscriptions</text></g></g><g transform="translate(-30,-38) scale(1,1)"><path fill="#C0C0C0" stroke="none" d="M 271 488 C 271 478.6111584 305.9217856 471 349 471 C 392.0782144 471 427 478.6111584 427 488 C 427 497.3888416 392.0782144 505 349 505 C 305.9217856 505 271 497.3888416 271 488 Z" opacity="0.2"/></g><g transform="translate(-30,-38) scale(1,1)"><path fill="#ffffff" stroke="none" d="M 264 481 C 264 471.6111584 298.9217856 464 342 464 C 385.0782144 464 420 471.6111584 420 481 C 420 490.3888416 385.0782144 498 342 498 C 298.9217856 498 264 490.3888416 264 481 Z"/></g><g transform="translate(-30,-38) scale(1,1)"><path fill="none" stroke="#000000" d="M 264 481 C 264 471.6111584 298.9217856 464 342 464 C 385.0782144 464 420 471.6111584 420 481 C 420 490.3888416 385.0782144 498 342 498 C 298.9217856 498 264 490.3888416 264 481 Z" stroke-miterlimit="10"/></g><g transform="translate(-30,-38) scale(1,1)"><g><path fill="none" stroke="none"/><text fill="#000000" stroke="none" font-family="Arial" font-size="13px" font-style="normal" font-weight="bold" text-decoration="none" x="291.44091796875" y="486.5">Buy subsciption</text></g></g><g transform="translate(-30,-38) scale(1,1)"><path fill="none" stroke="#000000" d="M 915 658 L 1168 767" stroke-miterlimit="10"/></g><g transform="translate(-30,-38) scale(1,1)"><path fill="none" stroke="#000000" d="M 607 501 L 421 487" stroke-miterlimit="10"/></g><g transform="translate(-30,-38) scale(1,1)"><path fill="none" stroke="#000000" d="M 863 616 L 795 534" stroke-miterlimit="10"/></g><g transform="translate(-30,-38) scale(1,1)"><path fill="#FFFFFF" stroke="none" d="M 814.4550193895171 544.2714273863719 L 795 534 L 801.4937801810745 555.0197720958122"/></g><g transform="translate(-30,-38) scale(1,1)"><path fill="none" stroke="#000000" d="M 814.4550193895171 544.2714273863719 L 795 534 L 801.4937801810745 555.0197720958122 L 814.4550193895171 544.2714273863719" stroke-miterlimit="10"/></g><g transform="translate(-30,-38) scale(1,1)"><path fill="#ffffff" stroke="none" d="M 681.4979733664773 617.6800000000001 C 681.4979733664773 612.8861679360001 685.3838156914227 609 690.17724609375 609 C 694.9706764960773 609 698.8565188210227 612.8861679360001 698.8565188210227 617.6800000000001 C 698.8565188210227 622.473832064 694.9706764960773 626.36 690.17724609375 626.36 C 685.3838156914227 626.36 681.4979733664773 622.473832064 681.4979733664773 617.6800000000001 Z"/></g><g transform="translate(-30,-38) scale(1,1)"><path fill="none" stroke="#000000" d="M 681.4979733664773 617.6800000000001 C 681.4979733664773 612.8861679360001 685.3838156914227 609 690.17724609375 609 C 694.9706764960773 609 698.8565188210227 612.8861679360001 698.8565188210227 617.6800000000001 C 698.8565188210227 622.473832064 694.9706764960773 626.36 690.17724609375 626.36 C 685.3838156914227 626.36 681.4979733664773 622.473832064 681.4979733664773 617.6800000000001 Z" stroke-miterlimit="10"/></g><g transform="translate(-30,-38) scale(1,1)"><path fill="none" stroke="#000000" d="M 690.17724609375 626.36 L 690.17724609375 643.64" stroke-miterlimit="10"/></g><g transform="translate(-30,-38) scale(1,1)"><path fill="none" stroke="#000000" d="M 680.9874279119318 632.84 L 699.3670642755682 632.84" stroke-miterlimit="10"/></g><g transform="translate(-30,-38) scale(1,1)"><path fill="none" stroke="#000000" d="M 690.17724609375 643.64 L 677.4136097301136 661" stroke-miterlimit="10"/></g><g transform="translate(-30,-38) scale(1,1)"><path fill="none" stroke="#000000" d="M 690.17724609375 643.64 L 702.9408824573864 661" stroke-miterlimit="10"/></g><g transform="translate(-30,-38) scale(1,1)"><g><path fill="none" stroke="none"/><text fill="#000000" stroke="none" font-family="Arial" font-size="13px" font-style="normal" font-weight="bold" text-decoration="none" x="668.5" y="680">Trainer</text></g></g><g transform="translate(-30,-38) scale(1,1)"><path fill="none" stroke="#000000" d="M 712 607 L 747 544" stroke-miterlimit="10"/></g><g transform="translate(-30,-38) scale(1,1)"><path fill="#FFFFFF" stroke="none" d="M 744.4886987378244 565.8561974270593 L 747 544 L 729.7695764362877 557.678907259539"/></g><g transform="translate(-30,-38) scale(1,1)"><path fill="none" stroke="#000000" d="M 744.4886987378244 565.8561974270593 L 747 544 L 729.7695764362877 557.678907259539 L 744.4886987378244 565.8561974270593" stroke-miterlimit="10"/></g><g transform="translate(-30,-38) scale(1,1)"><path fill="#C0C0C0" stroke="none" d="M 847 920 C 847 910.6111584 880.57864 903 922 903 C 963.42136 903 997 910.6111584 997 920 C 997 929.3888416 963.42136 937 922 937 C 880.57864 937 847 929.3888416 847 920 Z" opacity="0.2"/></g><g transform="translate(-30,-38) scale(1,1)"><path fill="#ffffff" stroke="none" d="M 840 913 C 840 903.6111584 873.57864 896 915 896 C 956.42136 896 990 903.6111584 990 913 C 990 922.3888416 956.42136 930 915 930 C 873.57864 930 840 922.3888416 840 913 Z"/></g><g transform="translate(-30,-38) scale(1,1)"><path fill="none" stroke="#000000" d="M 840 913 C 840 903.6111584 873.57864 896 915 896 C 956.42136 896 990 903.6111584 990 913 C 990 922.3888416 956.42136 930 915 930 C 873.57864 930 840 922.3888416 840 913 Z" stroke-miterlimit="10"/></g><g transform="translate(-30,-38) scale(1,1)"><g><path fill="none" stroke="none"/><text fill="#000000" stroke="none" font-family="Arial" font-size="13px" font-style="normal" font-weight="bold" text-decoration="none" x="866.589599609375" y="918.5">Manage system</text></g></g><g transform="translate(-30,-38) scale(1,1)"><path fill="#C0C0C0" stroke="none" d="M 1015 1024 C 1015 1014.6111584 1044.9969184 1007 1082 1007 C 1119.0030816 1007 1149 1014.6111584 1149 1024 C 1149 1033.3888416 1119.0030816 1041 1082 1041 C 1044.9969184 1041 1015 1033.3888416 1015 1024 Z" opacity="0.2"/></g><g transform="translate(-30,-38) scale(1,1)"><path fill="#ffffff" stroke="none" d="M 1008 1017 C 1008 1007.6111584 1037.9969184 1000 1075 1000 C 1112.0030816 1000 1142 1007.6111584 1142 1017 C 1142 1026.3888416 1112.0030816 1034 1075 1034 C 1037.9969184 1034 1008 1026.3888416 1008 1017 Z"/></g><g transform="translate(-30,-38) scale(1,1)"><path fill="none" stroke="#000000" d="M 1008 1017 C 1008 1007.6111584 1037.9969184 1000 1075 1000 C 1112.0030816 1000 1142 1007.6111584 1142 1017 C 1142 1026.3888416 1112.0030816 1034 1075 1034 C 1037.9969184 1034 1008 1026.3888416 1008 1017 Z" stroke-miterlimit="10"/></g><g transform="translate(-30,-38) scale(1,1)"><g><path fill="none" stroke="none"/><text fill="#000000" stroke="none" font-family="Arial" font-size="13px" font-style="normal" font-weight="bold" text-decoration="none" x="1035.27001953125" y="1022.5">Manage staff</text></g></g><g transform="translate(-30,-38) scale(1,1)"><path fill="none" stroke="#000000" d="M 893 688 L 913 895" stroke-miterlimit="10"/></g><g transform="translate(-30,-38) scale(1,1)"><path fill="#C0C0C0" stroke="none" d="M 951 1128 C 951 1118.6111584 973.6096176 1111 1001.5 1111 C 1029.3903824 1111 1052 1118.6111584 1052 1128 C 1052 1137.3888416 1029.3903824 1145 1001.5 1145 C 973.6096176 1145 951 1137.3888416 951 1128 Z" opacity="0.2"/></g><g transform="translate(-30,-38) scale(1,1)"><path fill="#ffffff" stroke="none" d="M 944 1121 C 944 1111.6111584 966.6096176 1104 994.5 1104 C 1022.3903824 1104 1045 1111.6111584 1045 1121 C 1045 1130.3888416 1022.3903824 1138 994.5 1138 C 966.6096176 1138 944 1130.3888416 944 1121 Z"/></g><g transform="translate(-30,-38) scale(1,1)"><path fill="none" stroke="#000000" d="M 944 1121 C 944 1111.6111584 966.6096176 1104 994.5 1104 C 1022.3903824 1104 1045 1111.6111584 1045 1121 C 1045 1130.3888416 1022.3903824 1138 994.5 1138 C 966.6096176 1138 944 1130.3888416 944 1121 Z" stroke-miterlimit="10"/></g><g transform="translate(-30,-38) scale(1,1)"><g><path fill="none" stroke="none"/><text fill="#000000" stroke="none" font-family="Arial" font-size="13px" font-style="normal" font-weight="bold" text-decoration="none" x="966.33544921875" y="1126.5">Add staff</text></g></g><g transform="translate(-30,-38) scale(1,1)"><path fill="#C0C0C0" stroke="none" d="M 1063 1128 C 1063 1118.6111584 1085.6096176 1111 1113.5 1111 C 1141.3903824 1111 1164 1118.6111584 1164 1128 C 1164 1137.3888416 1141.3903824 1145 1113.5 1145 C 1085.6096176 1145 1063 1137.3888416 1063 1128 Z" opacity="0.2"/></g><g transform="translate(-30,-38) scale(1,1)"><path fill="#ffffff" stroke="none" d="M 1056 1121 C 1056 1111.6111584 1078.6096176 1104 1106.5 1104 C 1134.3903824 1104 1157 1111.6111584 1157 1121 C 1157 1130.3888416 1134.3903824 1138 1106.5 1138 C 1078.6096176 1138 1056 1130.3888416 1056 1121 Z"/></g><g transform="translate(-30,-38) scale(1,1)"><path fill="none" stroke="#000000" d="M 1056 1121 C 1056 1111.6111584 1078.6096176 1104 1106.5 1104 C 1134.3903824 1104 1157 1111.6111584 1157 1121 C 1157 1130.3888416 1134.3903824 1138 1106.5 1138 C 1078.6096176 1138 1056 1130.3888416 1056 1121 Z" stroke-miterlimit="10"/></g><g transform="translate(-30,-38) scale(1,1)"><g><path fill="none" stroke="none"/><text fill="#000000" stroke="none" font-family="Arial" font-size="13px" font-style="normal" font-weight="bold" text-decoration="none" x="1078.694091796875" y="1126.5">Edit staff</text></g></g><g transform="translate(-30,-38) scale(1,1)"><path fill="#C0C0C0" stroke="none" d="M 1175 1088 C 1175 1078.6111584 1200.0720512 1071 1231 1071 C 1261.9279488 1071 1287 1078.6111584 1287 1088 C 1287 1097.3888416 1261.9279488 1105 1231 1105 C 1200.0720512 1105 1175 1097.3888416 1175 1088 Z" opacity="0.2"/></g><g transform="translate(-30,-38) scale(1,1)"><path fill="#ffffff" stroke="none" d="M 1168 1081 C 1168 1071.6111584 1193.0720512 1064 1224 1064 C 1254.9279488 1064 1280 1071.6111584 1280 1081 C 1280 1090.3888416 1254.9279488 1098 1224 1098 C 1193.0720512 1098 1168 1090.3888416 1168 1081 Z"/></g><g transform="translate(-30,-38) scale(1,1)"><path fill="none" stroke="#000000" d="M 1168 1081 C 1168 1071.6111584 1193.0720512 1064 1224 1064 C 1254.9279488 1064 1280 1071.6111584 1280 1081 C 1280 1090.3888416 1254.9279488 1098 1224 1098 C 1193.0720512 1098 1168 1090.3888416 1168 1081 Z" stroke-miterlimit="10"/></g><g transform="translate(-30,-38) scale(1,1)"><g><path fill="none" stroke="none"/><text fill="#000000" stroke="none" font-family="Arial" font-size="13px" font-style="normal" font-weight="bold" text-decoration="none" x="1188.9609375" y="1086.5">Delete staff</text></g></g><g transform="translate(-30,-38) scale(1,1)"><path fill="#C0C0C0" stroke="none" d="M 1031 888 C 1031 878.6111584 1053.6096176 871 1081.5 871 C 1109.3903824 871 1132 878.6111584 1132 888 C 1132 897.3888416 1109.3903824 905 1081.5 905 C 1053.6096176 905 1031 897.3888416 1031 888 Z" opacity="0.2"/></g><g transform="translate(-30,-38) scale(1,1)"><path fill="#ffffff" stroke="none" d="M 1024 881 C 1024 871.6111584 1046.6096176 864 1074.5 864 C 1102.3903824 864 1125 871.6111584 1125 881 C 1125 890.3888416 1102.3903824 898 1074.5 898 C 1046.6096176 898 1024 890.3888416 1024 881 Z"/></g><g transform="translate(-30,-38) scale(1,1)"><path fill="none" stroke="#000000" d="M 1024 881 C 1024 871.6111584 1046.6096176 864 1074.5 864 C 1102.3903824 864 1125 871.6111584 1125 881 C 1125 890.3888416 1102.3903824 898 1074.5 898 C 1046.6096176 898 1024 890.3888416 1024 881 Z" stroke-miterlimit="10"/></g><g transform="translate(-30,-38) scale(1,1)"><g><path fill="none" stroke="none"/><text fill="#000000" stroke="none" font-family="Arial" font-size="13px" font-style="normal" font-weight="bold" text-decoration="none" x="1044.275634765625" y="886.5">View staff</text></g></g><g transform="translate(-30,-38) scale(1,1)"><path fill="#C0C0C0" stroke="none" d="M 719 992 C 719 982.6111584 751.2354944 975 791 975 C 830.7645056 975 863 982.6111584 863 992 C 863 1001.3888416 830.7645056 1009 791 1009 C 751.2354944 1009 719 1001.3888416 719 992 Z" opacity="0.2"/></g><g transform="translate(-30,-38) scale(1,1)"><path fill="#ffffff" stroke="none" d="M 712 985 C 712 975.6111584 744.2354944 968 784 968 C 823.7645056 968 856 975.6111584 856 985 C 856 994.3888416 823.7645056 1002 784 1002 C 744.2354944 1002 712 994.3888416 712 985 Z"/></g><g transform="translate(-30,-38) scale(1,1)"><path fill="none" stroke="#000000" d="M 712 985 C 712 975.6111584 744.2354944 968 784 968 C 823.7645056 968 856 975.6111584 856 985 C 856 994.3888416 823.7645056 1002 784 1002 C 744.2354944 1002 712 994.3888416 712 985 Z" stroke-miterlimit="10"/></g><g transform="translate(-30,-38) scale(1,1)"><g><path fill="none" stroke="none"/><text fill="#000000" stroke="none" font-family="Arial" font-size="13px" font-style="normal" font-weight="bold" text-decoration="none" x="737.40185546875" y="990.5">Manage clients</text></g></g><g transform="translate(-30,-38) scale(1,1)"><path fill="#C0C0C0" stroke="none" d="M 479 960 C 479 950.6111584 501.8334752 943 530 943 C 558.1665248 943 581 950.6111584 581 960 C 581 969.3888416 558.1665248 977 530 977 C 501.8334752 977 479 969.3888416 479 960 Z" opacity="0.2"/></g><g transform="translate(-30,-38) scale(1,1)"><path fill="#ffffff" stroke="none" d="M 472 953 C 472 943.6111584 494.8334752 936 523 936 C 551.1665248 936 574 943.6111584 574 953 C 574 962.3888416 551.1665248 970 523 970 C 494.8334752 970 472 962.3888416 472 953 Z"/></g><g transform="translate(-30,-38) scale(1,1)"><path fill="none" stroke="#000000" d="M 472 953 C 472 943.6111584 494.8334752 936 523 936 C 551.1665248 936 574 943.6111584 574 953 C 574 962.3888416 551.1665248 970 523 970 C 494.8334752 970 472 962.3888416 472 953 Z" stroke-miterlimit="10"/></g><g transform="translate(-30,-38) scale(1,1)"><g><path fill="none" stroke="none"/><text fill="#000000" stroke="none" font-family="Arial" font-size="13px" font-style="normal" font-weight="bold" text-decoration="none" x="491.582275390625" y="958.5">Add client</text></g></g><g transform="translate(-30,-38) scale(1,1)"><path fill="#C0C0C0" stroke="none" d="M 559 1040 C 559 1030.6111584 581.6096176 1023 609.5 1023 C 637.3903824 1023 660 1030.6111584 660 1040 C 660 1049.3888416 637.3903824 1057 609.5 1057 C 581.6096176 1057 559 1049.3888416 559 1040 Z" opacity="0.2"/></g><g transform="translate(-30,-38) scale(1,1)"><path fill="#ffffff" stroke="none" d="M 552 1033 C 552 1023.6111584 574.6096176 1016 602.5 1016 C 630.3903824 1016 653 1023.6111584 653 1033 C 653 1042.3888416 630.3903824 1050 602.5 1050 C 574.6096176 1050 552 1042.3888416 552 1033 Z"/></g><g transform="translate(-30,-38) scale(1,1)"><path fill="none" stroke="#000000" d="M 552 1033 C 552 1023.6111584 574.6096176 1016 602.5 1016 C 630.3903824 1016 653 1023.6111584 653 1033 C 653 1042.3888416 630.3903824 1050 602.5 1050 C 574.6096176 1050 552 1042.3888416 552 1033 Z" stroke-miterlimit="10"/></g><g transform="translate(-30,-38) scale(1,1)"><g><path fill="none" stroke="none"/><text fill="#000000" stroke="none" font-family="Arial" font-size="13px" font-style="normal" font-weight="bold" text-decoration="none" x="571.44091796875" y="1038.5">Edit client</text></g></g><g transform="translate(-30,-38) scale(1,1)"><path fill="#C0C0C0" stroke="none" d="M 679 1096 C 679 1086.6111584 706.0867696 1079 739.5 1079 C 772.9132304 1079 800 1086.6111584 800 1096 C 800 1105.3888416 772.9132304 1113 739.5 1113 C 706.0867696 1113 679 1105.3888416 679 1096 Z" opacity="0.2"/></g><g transform="translate(-30,-38) scale(1,1)"><path fill="#ffffff" stroke="none" d="M 672 1089 C 672 1079.6111584 699.0867696 1072 732.5 1072 C 765.9132304 1072 793 1079.6111584 793 1089 C 793 1098.3888416 765.9132304 1106 732.5 1106 C 699.0867696 1106 672 1098.3888416 672 1089 Z"/></g><g transform="translate(-30,-38) scale(1,1)"><path fill="none" stroke="#000000" d="M 672 1089 C 672 1079.6111584 699.0867696 1072 732.5 1072 C 765.9132304 1072 793 1079.6111584 793 1089 C 793 1098.3888416 765.9132304 1106 732.5 1106 C 699.0867696 1106 672 1098.3888416 672 1089 Z" stroke-miterlimit="10"/></g><g transform="translate(-30,-38) scale(1,1)"><g><path fill="none" stroke="none"/><text fill="#000000" stroke="none" font-family="Arial" font-size="13px" font-style="normal" font-weight="bold" text-decoration="none" x="694.207763671875" y="1094.5">Delete client</text></g></g><g transform="translate(-30,-38) scale(1,1)"><path fill="#C0C0C0" stroke="none" d="M 599 776 C 599 766.6111584 622.9527632 759 652.5 759 C 682.0472368 759 706 766.6111584 706 776 C 706 785.3888416 682.0472368 793 652.5 793 C 622.9527632 793 599 785.3888416 599 776 Z" opacity="0.2"/></g><g transform="translate(-30,-38) scale(1,1)"><path fill="#ffffff" stroke="none" d="M 592 769 C 592 759.6111584 615.9527632 752 645.5 752 C 675.0472368 752 699 759.6111584 699 769 C 699 778.3888416 675.0472368 786 645.5 786 C 615.9527632 786 592 778.3888416 592 769 Z"/></g><g transform="translate(-30,-38) scale(1,1)"><path fill="none" stroke="#000000" d="M 592 769 C 592 759.6111584 615.9527632 752 645.5 752 C 675.0472368 752 699 759.6111584 699 769 C 699 778.3888416 675.0472368 786 645.5 786 C 615.9527632 786 592 778.3888416 592 769 Z" stroke-miterlimit="10"/></g><g transform="translate(-30,-38) scale(1,1)"><g><path fill="none" stroke="none"/><text fill="#000000" stroke="none" font-family="Arial" font-size="13px" font-style="normal" font-weight="bold" text-decoration="none" x="612.0224609375" y="774.5">View client</text></g></g><g transform="translate(-30,-38) scale(1,1)"><path fill="none" stroke="#000000" d="M 657 787 L 772 967" stroke-miterlimit="10" stroke-dasharray="3"/></g><g transform="translate(-30,-38) scale(1,1)"><path fill="none" stroke="#000000" d="M 762.9811799613716 960.7023111294036 L 772 967 L 770.0758696985865 956.1695926861829" stroke-miterlimit="10"/></g><g transform="translate(-30,-38) scale(1,1)"><g><path fill="none" stroke="none"/><text fill="#000000" stroke="none" font-family="Arial" font-size="13px" font-style="normal" font-weight="normal" text-decoration="none" x="680.5" y="838">«include»</text></g></g><g transform="translate(-30,-38) scale(1,1)"><path fill="#ffffff" stroke="none" d="M 774.5507077414773 617.6800000000001 C 774.5507077414773 612.8861679360001 778.4365500664227 609 783.22998046875 609 C 788.0234108710773 609 791.9092531960227 612.8861679360001 791.9092531960227 617.6800000000001 C 791.9092531960227 622.473832064 788.0234108710773 626.36 783.22998046875 626.36 C 778.4365500664227 626.36 774.5507077414773 622.473832064 774.5507077414773 617.6800000000001 Z"/></g><g transform="translate(-30,-38) scale(1,1)"><path fill="none" stroke="#000000" d="M 774.5507077414773 617.6800000000001 C 774.5507077414773 612.8861679360001 778.4365500664227 609 783.22998046875 609 C 788.0234108710773 609 791.9092531960227 612.8861679360001 791.9092531960227 617.6800000000001 C 791.9092531960227 622.473832064 788.0234108710773 626.36 783.22998046875 626.36 C 778.4365500664227 626.36 774.5507077414773 622.473832064 774.5507077414773 617.6800000000001 Z" stroke-miterlimit="10"/></g><g transform="translate(-30,-38) scale(1,1)"><path fill="none" stroke="#000000" d="M 783.22998046875 626.36 L 783.22998046875 643.64" stroke-miterlimit="10"/></g><g transform="translate(-30,-38) scale(1,1)"><path fill="none" stroke="#000000" d="M 774.0401622869318 632.84 L 792.4197986505682 632.84" stroke-miterlimit="10"/></g><g transform="translate(-30,-38) scale(1,1)"><path fill="none" stroke="#000000" d="M 783.22998046875 643.64 L 770.4663441051136 661" stroke-miterlimit="10"/></g><g transform="translate(-30,-38) scale(1,1)"><path fill="none" stroke="#000000" d="M 783.22998046875 643.64 L 795.9936168323864 661" stroke-miterlimit="10"/></g><g transform="translate(-30,-38) scale(1,1)"><g><path fill="none" stroke="none"/><text fill="#000000" stroke="none" font-family="Arial" font-size="13px" font-style="normal" font-weight="bold" text-decoration="none" x="756.5" y="680">Manager</text></g></g><g transform="translate(-30,-38) scale(1,1)"><path fill="none" stroke="#000000" d="M 779 607 L 773 544" stroke-miterlimit="10"/></g><g transform="translate(-30,-38) scale(1,1)"><path fill="#FFFFFF" stroke="none" d="M 783.308139699685 563.4355925027198 L 773 544 L 766.5459162280139 565.0319947381171"/></g><g transform="translate(-30,-38) scale(1,1)"><path fill="none" stroke="#000000" d="M 783.308139699685 563.4355925027198 L 773 544 L 766.5459162280139 565.0319947381171 L 783.308139699685 563.4355925027198" stroke-miterlimit="10"/></g><g transform="translate(-30,-38) scale(1,1)"><path fill="none" stroke="#000000" d="M 783 688 L 784 967" stroke-miterlimit="10"/></g><g transform="translate(-30,-38) scale(1,1)"><path fill="#C0C0C0" stroke="none" d="M 1087 664 C 1087 654.6111584 1125.9512224 647 1174 647 C 1222.0487776 647 1261 654.6111584 1261 664 C 1261 673.3888416 1222.0487776 681 1174 681 C 1125.9512224 681 1087 673.3888416 1087 664 Z" opacity="0.2"/></g><g transform="translate(-30,-38) scale(1,1)"><path fill="#ffffff" stroke="none" d="M 1080 657 C 1080 647.6111584 1118.9512224 640 1167 640 C 1215.0487776 640 1254 647.6111584 1254 657 C 1254 666.3888416 1215.0487776 674 1167 674 C 1118.9512224 674 1080 666.3888416 1080 657 Z"/></g><g transform="translate(-30,-38) scale(1,1)"><path fill="none" stroke="#000000" d="M 1080 657 C 1080 647.6111584 1118.9512224 640 1167 640 C 1215.0487776 640 1254 647.6111584 1254 657 C 1254 666.3888416 1215.0487776 674 1167 674 C 1118.9512224 674 1080 666.3888416 1080 657 Z" stroke-miterlimit="10"/></g><g transform="translate(-30,-38) scale(1,1)"><g><path fill="none" stroke="none"/><text fill="#000000" stroke="none" font-family="Arial" font-size="13px" font-style="normal" font-weight="bold" text-decoration="none" x="1109.94091796875" y="662.5">Add subscriptions</text></g></g><g transform="translate(-30,-38) scale(1,1)"><path fill="#C0C0C0" stroke="none" d="M 1367 720 C 1367 710.6111584 1410.2045168 703 1463.5 703 C 1516.7954832 703 1560 710.6111584 1560 720 C 1560 729.3888416 1516.7954832 737 1463.5 737 C 1410.2045168 737 1367 729.3888416 1367 720 Z" opacity="0.2"/></g><g transform="translate(-30,-38) scale(1,1)"><path fill="#ffffff" stroke="none" d="M 1360 713 C 1360 703.6111584 1403.2045168 696 1456.5 696 C 1509.7954832 696 1553 703.6111584 1553 713 C 1553 722.3888416 1509.7954832 730 1456.5 730 C 1403.2045168 730 1360 722.3888416 1360 713 Z"/></g><g transform="translate(-30,-38) scale(1,1)"><path fill="none" stroke="#000000" d="M 1360 713 C 1360 703.6111584 1403.2045168 696 1456.5 696 C 1509.7954832 696 1553 703.6111584 1553 713 C 1553 722.3888416 1509.7954832 730 1456.5 730 C 1403.2045168 730 1360 722.3888416 1360 713 Z" stroke-miterlimit="10"/></g><g transform="translate(-30,-38) scale(1,1)"><g><path fill="none" stroke="none"/><text fill="#000000" stroke="none" font-family="Arial" font-size="13px" font-style="normal" font-weight="bold" text-decoration="none" x="1392.56640625" y="718.5">Delete subscriptions</text></g></g><g transform="translate(-30,-38) scale(1,1)"><path fill="none" stroke="#000000" d="M 815 657 L 1154 767" stroke-miterlimit="10"/></g><g transform="translate(-30,-38) scale(1,1)"><path fill="#C0C0C0" stroke="none" d="M 1127 336 C 1127 326.6111584 1156.5492032 319 1193 319 C 1229.4507968 319 1259 326.6111584 1259 336 C 1259 345.3888416 1229.4507968 353 1193 353 C 1156.5492032 353 1127 345.3888416 1127 336 Z" opacity="0.2"/></g><g transform="translate(-30,-38) scale(1,1)"><path fill="#ffffff" stroke="none" d="M 1120 329 C 1120 319.6111584 1149.5492032 312 1186 312 C 1222.4507968 312 1252 319.6111584 1252 329 C 1252 338.3888416 1222.4507968 346 1186 346 C 1149.5492032 346 1120 338.3888416 1120 329 Z"/></g><g transform="translate(-30,-38) scale(1,1)"><path fill="none" stroke="#000000" d="M 1120 329 C 1120 319.6111584 1149.5492032 312 1186 312 C 1222.4507968 312 1252 319.6111584 1252 329 C 1252 338.3888416 1222.4507968 346 1186 346 C 1149.5492032 346 1120 338.3888416 1120 329 Z" stroke-miterlimit="10"/></g><g transform="translate(-30,-38) scale(1,1)"><g><path fill="none" stroke="none"/><text fill="#000000" stroke="none" font-family="Arial" font-size="13px" font-style="normal" font-weight="bold" text-decoration="none" x="1143.740478515625" y="334.5">Edit schedule</text></g></g><g transform="translate(-30,-38) scale(1,1)"><path fill="#C0C0C0" stroke="none" d="M 1015 208 C 1015 198.6111584 1048.1309248 191 1089 191 C 1129.8690752 191 1163 198.6111584 1163 208 C 1163 217.3888416 1129.8690752 225 1089 225 C 1048.1309248 225 1015 217.3888416 1015 208 Z" opacity="0.2"/></g><g transform="translate(-30,-38) scale(1,1)"><path fill="#ffffff" stroke="none" d="M 1008 201 C 1008 191.6111584 1041.1309248 184 1082 184 C 1122.8690752 184 1156 191.6111584 1156 201 C 1156 210.3888416 1122.8690752 218 1082 218 C 1041.1309248 218 1008 210.3888416 1008 201 Z"/></g><g transform="translate(-30,-38) scale(1,1)"><path fill="none" stroke="#000000" d="M 1008 201 C 1008 191.6111584 1041.1309248 184 1082 184 C 1122.8690752 184 1156 191.6111584 1156 201 C 1156 210.3888416 1122.8690752 218 1082 218 C 1041.1309248 218 1008 210.3888416 1008 201 Z" stroke-miterlimit="10"/></g><g transform="translate(-30,-38) scale(1,1)"><g><path fill="none" stroke="none"/><text fill="#000000" stroke="none" font-family="Arial" font-size="13px" font-style="normal" font-weight="bold" text-decoration="none" x="1034.313232421875" y="206.5">Delete schedue</text></g></g><g transform="translate(-30,-38) scale(1,1)"><path fill="#C0C0C0" stroke="none" d="M 951 296 C 951 286.6111584 988.1603616 279 1034 279 C 1079.8396384 279 1117 286.6111584 1117 296 C 1117 305.3888416 1079.8396384 313 1034 313 C 988.1603616 313 951 305.3888416 951 296 Z" opacity="0.2"/></g><g transform="translate(-30,-38) scale(1,1)"><path fill="#ffffff" stroke="none" d="M 944 289 C 944 279.6111584 981.1603616 272 1027 272 C 1072.8396384 272 1110 279.6111584 1110 289 C 1110 298.3888416 1072.8396384 306 1027 306 C 981.1603616 306 944 298.3888416 944 289 Z"/></g><g transform="translate(-30,-38) scale(1,1)"><path fill="none" stroke="#000000" d="M 944 289 C 944 279.6111584 981.1603616 272 1027 272 C 1072.8396384 272 1110 279.6111584 1110 289 C 1110 298.3888416 1072.8396384 306 1027 306 C 981.1603616 306 944 298.3888416 944 289 Z" stroke-miterlimit="10"/></g><g transform="translate(-30,-38) scale(1,1)"><g><path fill="none" stroke="none"/><text fill="#000000" stroke="none" font-family="Arial" font-size="13px" font-style="normal" font-weight="bold" text-decoration="none" x="972.81640625" y="294.5">Manage schedule</text></g></g><g transform="translate(-30,-38) scale(1,1)"><path fill="#C0C0C0" stroke="none" d="M 879 160 C 879 150.6111584 908.7730607999999 143 945.5 143 C 982.2269392000001 143 1012 150.6111584 1012 160 C 1012 169.3888416 982.2269392000001 177 945.5 177 C 908.7730607999999 177 879 169.3888416 879 160 Z" opacity="0.2"/></g><g transform="translate(-30,-38) scale(1,1)"><path fill="#ffffff" stroke="none" d="M 872 153 C 872 143.6111584 901.7730607999999 136 938.5 136 C 975.2269392000001 136 1005 143.6111584 1005 153 C 1005 162.3888416 975.2269392000001 170 938.5 170 C 901.7730607999999 170 872 162.3888416 872 153 Z"/></g><g transform="translate(-30,-38) scale(1,1)"><path fill="none" stroke="#000000" d="M 872 153 C 872 143.6111584 901.7730607999999 136 938.5 136 C 975.2269392000001 136 1005 143.6111584 1005 153 C 1005 162.3888416 975.2269392000001 170 938.5 170 C 901.7730607999999 170 872 162.3888416 872 153 Z" stroke-miterlimit="10"/></g><g transform="translate(-30,-38) scale(1,1)"><g><path fill="none" stroke="none"/><text fill="#000000" stroke="none" font-family="Arial" font-size="13px" font-style="normal" font-weight="bold" text-decoration="none" x="895.8818359375" y="158.5">Add schedule</text></g></g><g transform="translate(-30,-38) scale(1,1)"><path fill="#C0C0C0" stroke="none" d="M 159 672 C 159 662.6111584 212.50196640000001 655 278.5 655 C 344.4980336 655 398 662.6111584 398 672 C 398 681.3888416 344.4980336 689 278.5 689 C 212.50196640000001 689 159 681.3888416 159 672 Z" opacity="0.2"/></g><g transform="translate(-30,-38) scale(1,1)"><path fill="#ffffff" stroke="none" d="M 152 665 C 152 655.6111584 205.50196640000001 648 271.5 648 C 337.4980336 648 391 655.6111584 391 665 C 391 674.3888416 337.4980336 682 271.5 682 C 205.50196640000001 682 152 674.3888416 152 665 Z"/></g><g transform="translate(-30,-38) scale(1,1)"><path fill="none" stroke="#000000" d="M 152 665 C 152 655.6111584 205.50196640000001 648 271.5 648 C 337.4980336 648 391 655.6111584 391 665 C 391 674.3888416 337.4980336 682 271.5 682 C 205.50196640000001 682 152 674.3888416 152 665 Z" stroke-miterlimit="10"/></g><g transform="translate(-30,-38) scale(1,1)"><g><path fill="none" stroke="none"/><text fill="#000000" stroke="none" font-family="Arial" font-size="13px" font-style="normal" font-weight="bold" text-decoration="none" x="191.319580078125" y="670.5">Manage personal workout</text></g></g><g transform="translate(-30,-38) scale(1,1)"><path fill="#C0C0C0" stroke="none" d="M 391 888 C 391 878.6111584 437.11466559999997 871 494 871 C 550.8853344 871 597 878.6111584 597 888 C 597 897.3888416 550.8853344 905 494 905 C 437.11466559999997 905 391 897.3888416 391 888 Z" opacity="0.2"/></g><g transform="translate(-30,-38) scale(1,1)"><path fill="#ffffff" stroke="none" d="M 384 881 C 384 871.6111584 430.11466559999997 864 487 864 C 543.8853344 864 590 871.6111584 590 881 C 590 890.3888416 543.8853344 898 487 898 C 430.11466559999997 898 384 890.3888416 384 881 Z"/></g><g transform="translate(-30,-38) scale(1,1)"><path fill="none" stroke="#000000" d="M 384 881 C 384 871.6111584 430.11466559999997 864 487 864 C 543.8853344 864 590 871.6111584 590 881 C 590 890.3888416 543.8853344 898 487 898 C 430.11466559999997 898 384 890.3888416 384 881 Z" stroke-miterlimit="10"/></g><g transform="translate(-30,-38) scale(1,1)"><g><path fill="none" stroke="none"/><text fill="#000000" stroke="none" font-family="Arial" font-size="13px" font-style="normal" font-weight="bold" text-decoration="none" x="418.74365234375" y="886.5">Subscribe on workout</text></g></g><g transform="translate(-30,-38) scale(1,1)"><path fill="#C0C0C0" stroke="none" d="M 119 904 C 119 894.6111584 174.29282719999998 887 242.5 887 C 310.7071728 887 366 894.6111584 366 904 C 366 913.3888416 310.7071728 921 242.5 921 C 174.29282719999998 921 119 913.3888416 119 904 Z" opacity="0.2"/></g><g transform="translate(-30,-38) scale(1,1)"><path fill="#ffffff" stroke="none" d="M 112 897 C 112 887.6111584 167.29282719999998 880 235.5 880 C 303.7071728 880 359 887.6111584 359 897 C 359 906.3888416 303.7071728 914 235.5 914 C 167.29282719999998 914 112 906.3888416 112 897 Z"/></g><g transform="translate(-30,-38) scale(1,1)"><path fill="none" stroke="#000000" d="M 112 897 C 112 887.6111584 167.29282719999998 880 235.5 880 C 303.7071728 880 359 887.6111584 359 897 C 359 906.3888416 303.7071728 914 235.5 914 C 167.29282719999998 914 112 906.3888416 112 897 Z" stroke-miterlimit="10"/></g><g transform="translate(-30,-38) scale(1,1)"><g><path fill="none" stroke="none"/><text fill="#000000" stroke="none" font-family="Arial" font-size="13px" font-style="normal" font-weight="bold" text-decoration="none" x="152.79638671875" y="902.5">Unsubscribe from workout</text></g></g><g transform="translate(-30,-38) scale(1,1)"><path fill="none" stroke="#000000" d="M 663 648 L 392 660" stroke-miterlimit="10"/></g><g transform="translate(-30,-38) scale(1,1)"><path fill="#C0C0C0" stroke="none" d="M 343 416 C 343 406.6111584 377.0263552 399 419 399 C 460.9736448 399 495 406.6111584 495 416 C 495 425.3888416 460.9736448 433 419 433 C 377.0263552 433 343 425.3888416 343 416 Z" opacity="0.2"/></g><g transform="translate(-30,-38) scale(1,1)"><path fill="#ffffff" stroke="none" d="M 336 409 C 336 399.6111584 370.0263552 392 412 392 C 453.9736448 392 488 399.6111584 488 409 C 488 418.3888416 453.9736448 426 412 426 C 370.0263552 426 336 418.3888416 336 409 Z"/></g><g transform="translate(-30,-38) scale(1,1)"><path fill="none" stroke="#000000" d="M 336 409 C 336 399.6111584 370.0263552 392 412 392 C 453.9736448 392 488 399.6111584 488 409 C 488 418.3888416 453.9736448 426 412 426 C 370.0263552 426 336 418.3888416 336 409 Z" stroke-miterlimit="10"/></g><g transform="translate(-30,-38) scale(1,1)"><g><path fill="none" stroke="none"/><text fill="#000000" stroke="none" font-family="Arial" font-size="13px" font-style="normal" font-weight="bold" text-decoration="none" x="362.865966796875" y="414.5">Select schedule</text></g></g><g transform="translate(-30,-38) scale(1,1)"><path fill="none" stroke="#000000" d="M 607 492 L 454 427" stroke-miterlimit="10"/></g><g transform="translate(-30,-38) scale(1,1)"><path fill="#C0C0C0" stroke="none" d="M 287 336 C 287 326.6111584 309.8334752 319 338 319 C 366.1665248 319 389 326.6111584 389 336 C 389 345.3888416 366.1665248 353 338 353 C 309.8334752 353 287 345.3888416 287 336 Z" opacity="0.2"/></g><g transform="translate(-30,-38) scale(1,1)"><path fill="#ffffff" stroke="none" d="M 280 329 C 280 319.6111584 302.8334752 312 331 312 C 359.1665248 312 382 319.6111584 382 329 C 382 338.3888416 359.1665248 346 331 346 C 302.8334752 346 280 338.3888416 280 329 Z"/></g><g transform="translate(-30,-38) scale(1,1)"><path fill="none" stroke="#000000" d="M 280 329 C 280 319.6111584 302.8334752 312 331 312 C 359.1665248 312 382 319.6111584 382 329 C 382 338.3888416 359.1665248 346 331 346 C 302.8334752 346 280 338.3888416 280 329 Z" stroke-miterlimit="10"/></g><g transform="translate(-30,-38) scale(1,1)"><g><path fill="none" stroke="none"/><text fill="#000000" stroke="none" font-family="Arial" font-size="13px" font-style="normal" font-weight="bold" text-decoration="none" x="299.57275390625" y="334.5">Subscribe</text></g></g><g transform="translate(-30,-38) scale(1,1)"><path fill="#C0C0C0" stroke="none" d="M 439 328 C 439 318.6111584 466.7583424 311 501 311 C 535.2416576 311 563 318.6111584 563 328 C 563 337.3888416 535.2416576 345 501 345 C 466.7583424 345 439 337.3888416 439 328 Z" opacity="0.2"/></g><g transform="translate(-30,-38) scale(1,1)"><path fill="#ffffff" stroke="none" d="M 432 321 C 432 311.6111584 459.7583424 304 494 304 C 528.2416576 304 556 311.6111584 556 321 C 556 330.3888416 528.2416576 338 494 338 C 459.7583424 338 432 330.3888416 432 321 Z"/></g><g transform="translate(-30,-38) scale(1,1)"><path fill="none" stroke="#000000" d="M 432 321 C 432 311.6111584 459.7583424 304 494 304 C 528.2416576 304 556 311.6111584 556 321 C 556 330.3888416 528.2416576 338 494 338 C 459.7583424 338 432 330.3888416 432 321 Z" stroke-miterlimit="10"/></g><g transform="translate(-30,-38) scale(1,1)"><g><path fill="none" stroke="none"/><text fill="#000000" stroke="none" font-family="Arial" font-size="13px" font-style="normal" font-weight="bold" text-decoration="none" x="454.628662109375" y="326.5">Unsubscribe</text></g></g><g transform="translate(-30,-38) scale(1,1)"><path fill="#C0C0C0" stroke="none" d="M 71 608 C 71 598.6111584 98.9822 591 133.5 591 C 168.0178 591 196 598.6111584 196 608 C 196 617.3888416 168.0178 625 133.5 625 C 98.9822 625 71 617.3888416 71 608 Z" opacity="0.2"/></g><g transform="translate(-30,-38) scale(1,1)"><path fill="#ffffff" stroke="none" d="M 64 601 C 64 591.6111584 91.9822 584 126.5 584 C 161.0178 584 189 591.6111584 189 601 C 189 610.3888416 161.0178 618 126.5 618 C 91.9822 618 64 610.3888416 64 601 Z"/></g><g transform="translate(-30,-38) scale(1,1)"><path fill="none" stroke="#000000" d="M 64 601 C 64 591.6111584 91.9822 584 126.5 584 C 161.0178 584 189 591.6111584 189 601 C 189 610.3888416 161.0178 618 126.5 618 C 91.9822 618 64 610.3888416 64 601 Z" stroke-miterlimit="10"/></g><g transform="translate(-30,-38) scale(1,1)"><g><path fill="none" stroke="none"/><text fill="#000000" stroke="none" font-family="Arial" font-size="13px" font-style="normal" font-weight="bold" text-decoration="none" x="86.78271484375" y="606.5">Add workout</text></g></g><g transform="translate(-30,-38) scale(1,1)"><path fill="#C0C0C0" stroke="none" d="M 47 768 C 47 758.6111584 74.7583424 751 109 751 C 143.2416576 751 171 758.6111584 171 768 C 171 777.3888416 143.2416576 785 109 785 C 74.7583424 785 47 777.3888416 47 768 Z" opacity="0.2"/></g><g transform="translate(-30,-38) scale(1,1)"><path fill="#ffffff" stroke="none" d="M 40 761 C 40 751.6111584 67.7583424 744 102 744 C 136.2416576 744 164 751.6111584 164 761 C 164 770.3888416 136.2416576 778 102 778 C 67.7583424 778 40 770.3888416 40 761 Z"/></g><g transform="translate(-30,-38) scale(1,1)"><path fill="none" stroke="#000000" d="M 40 761 C 40 751.6111584 67.7583424 744 102 744 C 136.2416576 744 164 751.6111584 164 761 C 164 770.3888416 136.2416576 778 102 778 C 67.7583424 778 40 770.3888416 40 761 Z" stroke-miterlimit="10"/></g><g transform="translate(-30,-38) scale(1,1)"><g><path fill="none" stroke="none"/><text fill="#000000" stroke="none" font-family="Arial" font-size="13px" font-style="normal" font-weight="bold" text-decoration="none" x="62.641357421875" y="766.5">Edit workout</text></g></g><g transform="translate(-30,-38) scale(1,1)"><path fill="#C0C0C0" stroke="none" d="M 103 824 C 103 814.6111584 135.2354944 807 175 807 C 214.7645056 807 247 814.6111584 247 824 C 247 833.3888416 214.7645056 841 175 841 C 135.2354944 841 103 833.3888416 103 824 Z" opacity="0.2"/></g><g transform="translate(-30,-38) scale(1,1)"><path fill="#ffffff" stroke="none" d="M 96 817 C 96 807.6111584 128.2354944 800 168 800 C 207.7645056 800 240 807.6111584 240 817 C 240 826.3888416 207.7645056 834 168 834 C 128.2354944 834 96 826.3888416 96 817 Z"/></g><g transform="translate(-30,-38) scale(1,1)"><path fill="none" stroke="#000000" d="M 96 817 C 96 807.6111584 128.2354944 800 168 800 C 207.7645056 800 240 807.6111584 240 817 C 240 826.3888416 207.7645056 834 168 834 C 128.2354944 834 96 826.3888416 96 817 Z" stroke-miterlimit="10"/></g><g transform="translate(-30,-38) scale(1,1)"><g><path fill="none" stroke="none"/><text fill="#000000" stroke="none" font-family="Arial" font-size="13px" font-style="normal" font-weight="bold" text-decoration="none" x="121.408203125" y="822.5">Delete workout</text></g></g><g transform="translate(-30,-38) scale(1,1)"><path fill="#C0C0C0" stroke="none" d="M 367 752 C 367 742.6111584 396.3253456 735 432.5 735 C 468.6746544 735 498 742.6111584 498 752 C 498 761.3888416 468.6746544 769 432.5 769 C 396.3253456 769 367 761.3888416 367 752 Z" opacity="0.2"/></g><g transform="translate(-30,-38) scale(1,1)"><path fill="#ffffff" stroke="none" d="M 360 745 C 360 735.6111584 389.3253456 728 425.5 728 C 461.6746544 728 491 735.6111584 491 745 C 491 754.3888416 461.6746544 762 425.5 762 C 389.3253456 762 360 754.3888416 360 745 Z"/></g><g transform="translate(-30,-38) scale(1,1)"><path fill="none" stroke="#000000" d="M 360 745 C 360 735.6111584 389.3253456 728 425.5 728 C 461.6746544 728 491 735.6111584 491 745 C 491 754.3888416 461.6746544 762 425.5 762 C 389.3253456 762 360 754.3888416 360 745 Z" stroke-miterlimit="10"/></g><g transform="translate(-30,-38) scale(1,1)"><g><path fill="none" stroke="none"/><text fill="#000000" stroke="none" font-family="Arial" font-size="13px" font-style="normal" font-weight="bold" text-decoration="none" x="383.722900390625" y="750.5">View workout</text></g></g><g transform="translate(-30,-38) scale(1,1)"><path fill="none" stroke="#000000" d="M 451 727 L 743 521" stroke-miterlimit="10"/></g><g transform="translate(-30,-38) scale(1,1)"><path fill="none" stroke="#000000" d="M 607 533 L 440 727" stroke-miterlimit="10"/></g><g transform="translate(-30,-38) scale(1,1)"><path fill="none" stroke="#000000" d="M 433 763 L 479 863" stroke-miterlimit="10" stroke-dasharray="3"/></g><g transform="translate(-30,-38) scale(1,1)"><path fill="none" stroke="#000000" d="M 470.9286544906376 855.5264879963637 L 479 863 L 478.5772678740805 852.00812583998" stroke-miterlimit="10"/></g><g transform="translate(-30,-38) scale(1,1)"><g><path fill="none" stroke="none"/><text fill="#000000" stroke="none" font-family="Arial" font-size="13px" font-style="normal" font-weight="normal" text-decoration="none" x="464.5" y="816">«extend»</text></g></g><g transform="translate(-30,-38) scale(1,1)"><path fill="none" stroke="#000000" d="M 403 763 L 258 879" stroke-miterlimit="10" stroke-dasharray="3"/></g><g transform="translate(-30,-38) scale(1,1)"><path fill="none" stroke="#000000" d="M 263.306050922054 869.3643462280668 L 258 879 L 268.5653807116052 875.9385084650058" stroke-miterlimit="10"/></g><g transform="translate(-30,-38) scale(1,1)"><g><path fill="none" stroke="none"/><text fill="#000000" stroke="none" font-family="Arial" font-size="13px" font-style="normal" font-weight="normal" text-decoration="none" x="281.5" y="816">«extend»</text></g></g><g transform="translate(-30,-38) scale(1,1)"><path fill="none" stroke="#000000" d="M 652 751 L 675 688" stroke-miterlimit="10"/></g><g transform="translate(-30,-38) scale(1,1)"><path fill="none" stroke="#000000" d="M 306 683 L 390 727" stroke-miterlimit="10" stroke-dasharray="3"/></g><g transform="translate(-30,-38) scale(1,1)"><path fill="none" stroke="#000000" d="M 379.04433644533646 726.0133713581005 L 390 727 L 382.95082781129906 718.555524204899" stroke-miterlimit="10"/></g><g transform="translate(-30,-38) scale(1,1)"><g><path fill="none" stroke="none"/><text fill="#000000" stroke="none" font-family="Arial" font-size="13px" font-style="normal" font-weight="normal" text-decoration="none" x="294.5" y="721">«include»</text></g></g><g transform="translate(-30,-38) scale(1,1)"><path fill="none" stroke="#000000" d="M 259 683 L 180 799" stroke-miterlimit="10" stroke-dasharray="3"/></g><g transform="translate(-30,-38) scale(1,1)"><path fill="none" stroke="#000000" d="M 182.24122705162108 788.2307427692026 L 180 799 L 189.1998016626191 792.9697720301409" stroke-miterlimit="10"/></g><g transform="translate(-30,-38) scale(1,1)"><g><path fill="none" stroke="none"/><text fill="#000000" stroke="none" font-family="Arial" font-size="13px" font-style="normal" font-weight="normal" text-decoration="none" x="215.5" y="762">«include»</text></g></g><g transform="translate(-30,-38) scale(1,1)"><path fill="none" stroke="#000000" d="M 239 683 L 134 743" stroke-miterlimit="10" stroke-dasharray="3"/></g><g transform="translate(-30,-38) scale(1,1)"><path fill="none" stroke="#000000" d="M 140.73516708030883 734.3030163619607 L 134 743 L 144.91217842123686 741.6127862085847" stroke-miterlimit="10"/></g><g transform="translate(-30,-38) scale(1,1)"><g><path fill="none" stroke="none"/><text fill="#000000" stroke="none" font-family="Arial" font-size="13px" font-style="normal" font-weight="normal" text-decoration="none" x="172.5" y="743">«include»</text></g></g><g transform="translate(-30,-38) scale(1,1)"><path fill="none" stroke="#000000" d="M 230 647 L 167 619" stroke-miterlimit="10" stroke-dasharray="3"/></g><g transform="translate(-30,-38) scale(1,1)"><path fill="none" stroke="#000000" d="M 177.99641673402277 619.280747238106 L 167 619 L 174.5771225655166 626.9741591172449" stroke-miterlimit="10"/></g><g transform="translate(-30,-38) scale(1,1)"><g><path fill="none" stroke="none"/><text fill="#000000" stroke="none" font-family="Arial" font-size="13px" font-style="normal" font-weight="normal" text-decoration="none" x="191.5" y="627">«include»</text></g></g><g transform="translate(-30,-38) scale(1,1)"><path fill="none" stroke="#000000" d="M 711 976 L 575 959" stroke-miterlimit="10" stroke-dasharray="3"/></g><g transform="translate(-30,-38) scale(1,1)"><path fill="none" stroke="#000000" d="M 585.6063238470707 956.0835133377539 L 575 959 L 584.5620710118386 964.4375360196099" stroke-miterlimit="10"/></g><g transform="translate(-30,-38) scale(1,1)"><g><path fill="none" stroke="none"/><text fill="#000000" stroke="none" font-family="Arial" font-size="13px" font-style="normal" font-weight="normal" text-decoration="none" x="611.5" y="1001">«include»</text></g></g><g transform="translate(-30,-38) scale(1,1)"><path fill="none" stroke="#000000" d="M 716 1003 L 654 1019" stroke-miterlimit="10" stroke-dasharray="3"/></g><g transform="translate(-30,-38) scale(1,1)"><path fill="none" stroke="#000000" d="M 662.7884216549585 1012.3845903517124 L 654 1019 L 664.892153570779 1020.5365515255168" stroke-miterlimit="10"/></g><g transform="translate(-30,-38) scale(1,1)"><g><path fill="none" stroke="none"/><text fill="#000000" stroke="none" font-family="Arial" font-size="13px" font-style="normal" font-weight="normal" text-decoration="none" x="664.5" y="1045">«include»</text></g></g><g transform="translate(-30,-38) scale(1,1)"><path fill="none" stroke="#000000" d="M 775 1003 L 741 1071" stroke-miterlimit="10" stroke-dasharray="3"/></g><g transform="translate(-30,-38) scale(1,1)"><path fill="none" stroke="#000000" d="M 741.7797792209975 1060.0276737030608 L 741 1071 L 749.3099935049528 1063.7927808450386" stroke-miterlimit="10"/></g><g transform="translate(-30,-38) scale(1,1)"><g><path fill="none" stroke="none"/><text fill="#000000" stroke="none" font-family="Arial" font-size="13px" font-style="normal" font-weight="normal" text-decoration="none" x="756.5" y="1055">«include»</text></g></g><g transform="translate(-30,-38) scale(1,1)"><path fill="none" stroke="#000000" d="M 1061 1035 L 1008 1103" stroke-miterlimit="10" stroke-dasharray="3"/></g><g transform="translate(-30,-38) scale(1,1)"><path fill="none" stroke="#000000" d="M 1010.9272748971372 1092.3966485639403 L 1008 1103 L 1017.5675976339048 1097.5721942264208" stroke-miterlimit="10"/></g><g transform="translate(-30,-38) scale(1,1)"><g><path fill="none" stroke="none"/><text fill="#000000" stroke="none" font-family="Arial" font-size="13px" font-style="normal" font-weight="normal" text-decoration="none" x="1029.5" y="1092">«include»</text></g></g><g transform="translate(-30,-38) scale(1,1)"><path fill="none" stroke="#000000" d="M 1080 1035 L 1101 1103" stroke-miterlimit="10" stroke-dasharray="3"/></g><g transform="translate(-30,-38) scale(1,1)"><path fill="none" stroke="#000000" d="M 1093.9791806890394 1094.5319366911413 L 1101 1103 L 1102.0233560449453 1092.0477060665232" stroke-miterlimit="10"/></g><g transform="translate(-30,-38) scale(1,1)"><g><path fill="none" stroke="none"/><text fill="#000000" stroke="none" font-family="Arial" font-size="13px" font-style="normal" font-weight="normal" text-decoration="none" x="1090.5" y="1064">«include»</text></g></g><g transform="translate(-30,-38) scale(1,1)"><path fill="none" stroke="#000000" d="M 1117 1035 L 1182 1063" stroke-miterlimit="10" stroke-dasharray="3"/></g><g transform="translate(-30,-38) scale(1,1)"><path fill="none" stroke="#000000" d="M 1171.0010853852812 1062.8454771922277 L 1182 1063 L 1174.3318570154643 1055.1133287650166" stroke-miterlimit="10"/></g><g transform="translate(-30,-38) scale(1,1)"><g><path fill="none" stroke="none"/><text fill="#000000" stroke="none" font-family="Arial" font-size="13px" font-style="normal" font-weight="normal" text-decoration="none" x="1159.5" y="1035">«include»</text></g></g><g transform="translate(-30,-38) scale(1,1)"><path fill="none" stroke="#000000" d="M 1075 999 L 1074 899" stroke-miterlimit="10" stroke-dasharray="3"/></g><g transform="translate(-30,-38) scale(1,1)"><path fill="none" stroke="#000000" d="M 1078.3109289635324 909.120073689029 L 1074 899 L 1069.8923143717072 909.2042598349473" stroke-miterlimit="10"/></g><g transform="translate(-30,-38) scale(1,1)"><g><path fill="none" stroke="none"/><text fill="#000000" stroke="none" font-family="Arial" font-size="13px" font-style="normal" font-weight="normal" text-decoration="none" x="1082.5" y="965">«include»</text></g></g><g transform="translate(-30,-38) scale(1,1)"><path fill="none" stroke="#000000" d="M 943 931 L 1047 999" stroke-miterlimit="10" stroke-dasharray="3"/></g><g transform="translate(-30,-38) scale(1,1)"><path fill="none" stroke="#000000" d="M 1036.1904940370316 996.9617211092324 L 1047 999 L 1040.7978058579197 989.9152442066974" stroke-miterlimit="10"/></g><g transform="translate(-30,-38) scale(1,1)"><g><path fill="none" stroke="none"/><text fill="#000000" stroke="none" font-family="Arial" font-size="13px" font-style="normal" font-weight="normal" text-decoration="none" x="983.5" y="944">«include»</text></g></g><g transform="translate(-30,-38) scale(1,1)"><path fill="none" stroke="#000000" d="M 882 931 L 817 967" stroke-miterlimit="10" stroke-dasharray="3"/></g><g transform="translate(-30,-38) scale(1,1)"><path fill="none" stroke="#000000" d="M 823.8507094914634 958.3937360333549 L 817 967 L 827.929730748849 965.7586355258567" stroke-miterlimit="10"/></g><g transform="translate(-30,-38) scale(1,1)"><g><path fill="none" stroke="none"/><text fill="#000000" stroke="none" font-family="Arial" font-size="13px" font-style="normal" font-weight="normal" text-decoration="none" x="851.5" y="959">«include»</text></g></g><g transform="translate(-30,-38) scale(1,1)"><path fill="none" stroke="#000000" d="M 1204 767 L 1173 675" stroke-miterlimit="10" stroke-dasharray="3"/></g><g transform="translate(-30,-38) scale(1,1)"><path fill="none" stroke="#000000" d="M 1180.2342491594286 683.2864732606403 L 1173 675 L 1172.2559652027055 685.9748080721448" stroke-miterlimit="10"/></g><g transform="translate(-30,-38) scale(1,1)"><g><path fill="none" stroke="none"/><text fill="#000000" stroke="none" font-family="Arial" font-size="13px" font-style="normal" font-weight="normal" text-decoration="none" x="1131.5" y="735">«include»</text></g></g><g transform="translate(-30,-38) scale(1,1)"><path fill="none" stroke="#000000" d="M 1226 767 L 1354 627" stroke-miterlimit="10" stroke-dasharray="3"/></g><g transform="translate(-30,-38) scale(1,1)"><path fill="none" stroke="#000000" d="M 1350.2492854096604 637.3407997786348 L 1354 627 L 1344.0357946325105 631.6598939252407" stroke-miterlimit="10"/></g><g transform="translate(-30,-38) scale(1,1)"><g><path fill="none" stroke="none"/><text fill="#000000" stroke="none" font-family="Arial" font-size="13px" font-style="normal" font-weight="normal" text-decoration="none" x="1318.5" y="674">«include»</text></g></g><g transform="translate(-30,-38) scale(1,1)"><path fill="none" stroke="#000000" d="M 1272 767 L 1395 731" stroke-miterlimit="10" stroke-dasharray="3"/></g><g transform="translate(-30,-38) scale(1,1)"><path fill="none" stroke="#000000" d="M 1386.4289490734116 737.8947143533163 L 1395 731 L 1384.0640524943399 729.8146510414882" stroke-miterlimit="10"/></g><g transform="translate(-30,-38) scale(1,1)"><g><path fill="none" stroke="none"/><text fill="#000000" stroke="none" font-family="Arial" font-size="13px" font-style="normal" font-weight="normal" text-decoration="none" x="1296.5" y="725">«include»</text></g></g><g transform="translate(-30,-38) scale(1,1)"><path fill="none" stroke="#000000" d="M 1310 792 L 1359 795" stroke-miterlimit="10" stroke-dasharray="3"/></g><g transform="translate(-30,-38) scale(1,1)"><path fill="none" stroke="#000000" d="M 1348.599074944126 798.580608604985 L 1359 795 L 1349.1135627370186 790.1773079877382" stroke-miterlimit="10"/></g><g transform="translate(-30,-38) scale(1,1)"><g><path fill="none" stroke="none"/><text fill="#000000" stroke="none" font-family="Arial" font-size="13px" font-style="normal" font-weight="normal" text-decoration="none" x="1308.5" y="768">«include»</text></g></g><g transform="translate(-30,-38) scale(1,1)"><path fill="none" stroke="#000000" d="M 982 510 L 1299 591" stroke-miterlimit="10" stroke-dasharray="3"/></g><g transform="translate(-30,-38) scale(1,1)"><path fill="none" stroke="#000000" d="M 1288.1115446270505 592.562542668629 L 1299 591 L 1290.1958148522594 584.4055838860212" stroke-miterlimit="10"/></g><g transform="translate(-30,-38) scale(1,1)"><g><path fill="none" stroke="none"/><text fill="#000000" stroke="none" font-family="Arial" font-size="13px" font-style="normal" font-weight="normal" text-decoration="none" x="1119.5" y="525">«include»</text></g></g><g transform="translate(-30,-38) scale(1,1)"><path fill="none" stroke="#000000" d="M 943 479 L 976 435" stroke-miterlimit="10" stroke-dasharray="3"/></g><g transform="translate(-30,-38) scale(1,1)"><path fill="none" stroke="#000000" d="M 973.2700092902382 445.6558505397089 L 976 435 L 966.5347808806127 440.60442923248974" stroke-miterlimit="10"/></g><g transform="translate(-30,-38) scale(1,1)"><g><path fill="none" stroke="none"/><text fill="#000000" stroke="none" font-family="Arial" font-size="13px" font-style="normal" font-weight="normal" text-decoration="none" x="898.5" y="452">«include»</text></g></g><g transform="translate(-30,-38) scale(1,1)"><path fill="none" stroke="#000000" d="M 1015 271 L 950 171" stroke-miterlimit="10" stroke-dasharray="3"/></g><g transform="translate(-30,-38) scale(1,1)"><path fill="none" stroke="#000000" d="M 959.0679826985298 177.2266917202607 L 950 171 L 952.0090961180583 181.8149679975672" stroke-miterlimit="10"/></g><g transform="translate(-30,-38) scale(1,1)"><g><path fill="none" stroke="none"/><text fill="#000000" stroke="none" font-family="Arial" font-size="13px" font-style="normal" font-weight="normal" text-decoration="none" x="933.5" y="221">«include»</text></g></g><g transform="translate(-30,-38) scale(1,1)"><path fill="none" stroke="#000000" d="M 1022 307 L 994 399" stroke-miterlimit="10" stroke-dasharray="3"/></g><g transform="translate(-30,-38) scale(1,1)"><path fill="none" stroke="#000000" d="M 992.931845145838 388.0519844169123 L 994 399 L 1000.986116518602 390.50328439992745" stroke-miterlimit="10"/></g><g transform="translate(-30,-38) scale(1,1)"><g><path fill="none" stroke="none"/><text fill="#000000" stroke="none" font-family="Arial" font-size="13px" font-style="normal" font-weight="normal" text-decoration="none" x="999.5" y="351">«include»</text></g></g><g transform="translate(-30,-38) scale(1,1)"><path fill="none" stroke="#000000" d="M 1038 271 L 1071 219" stroke-miterlimit="10" stroke-dasharray="3"/></g><g transform="translate(-30,-38) scale(1,1)"><path fill="none" stroke="#000000" d="M 1069.108810124427 229.83620786320245 L 1071 219 L 1062.0003707520536 225.3250828768885" stroke-miterlimit="10"/></g><g transform="translate(-30,-38) scale(1,1)"><g><path fill="none" stroke="none"/><text fill="#000000" stroke="none" font-family="Arial" font-size="13px" font-style="normal" font-weight="normal" text-decoration="none" x="1000.5" y="233">«include»</text></g></g><g transform="translate(-30,-38) scale(1,1)"><path fill="none" stroke="#000000" d="M 1099 307 L 1119 312" stroke-miterlimit="10" stroke-dasharray="3"/></g><g transform="translate(-30,-38) scale(1,1)"><path fill="none" stroke="#000000" d="M 1108.1197991854035 313.61902138159263 L 1119 312 L 1110.1617152255174 305.4513572211376" stroke-miterlimit="10"/></g><g transform="translate(-30,-38) scale(1,1)"><g><path fill="none" stroke="none"/><text fill="#000000" stroke="none" font-family="Arial" font-size="13px" font-style="normal" font-weight="normal" text-decoration="none" x="1119.5" y="299">«include»</text></g></g><g transform="translate(-30,-38) scale(1,1)"><path fill="none" stroke="#000000" d="M 429 391 L 477 339" stroke-miterlimit="10" stroke-dasharray="3"/></g><g transform="translate(-30,-38) scale(1,1)"><path fill="none" stroke="#000000" d="M 473.20002800086905 349.32280062801857 L 477 339 L 467.0136917061868 343.6123363560042" stroke-miterlimit="10"/></g><g transform="translate(-30,-38) scale(1,1)"><g><path fill="none" stroke="none"/><text fill="#000000" stroke="none" font-family="Arial" font-size="13px" font-style="normal" font-weight="normal" text-decoration="none" x="402.5" y="349">«include»</text></g></g><g transform="translate(-30,-38) scale(1,1)"><path fill="none" stroke="#000000" d="M 394 391 L 349 347" stroke-miterlimit="10" stroke-dasharray="3"/></g><g transform="translate(-30,-38) scale(1,1)"><path fill="none" stroke="#000000" d="M 359.20932838334 351.09507191159423 L 349 347 L 353.3234322130852 357.11473844935483" stroke-miterlimit="10"/></g><g transform="translate(-30,-38) scale(1,1)"><g><path fill="none" stroke="none"/><text fill="#000000" stroke="none" font-family="Arial" font-size="13px" font-style="normal" font-weight="normal" text-decoration="none" x="321.5" y="395">«include»</text></g></g><g transform="translate(-30,-38) scale(1,1)"><path fill="#C0C0C0" stroke="none" d="M 519 208 C 519 198.6111584 553.9217856 191 597 191 C 640.0782144 191 675 198.6111584 675 208 C 675 217.3888416 640.0782144 225 597 225 C 553.9217856 225 519 217.3888416 519 208 Z" opacity="0.2"/></g><g transform="translate(-30,-38) scale(1,1)"><path fill="#ffffff" stroke="none" d="M 512 201 C 512 191.6111584 546.9217856 184 590 184 C 633.0782144 184 668 191.6111584 668 201 C 668 210.3888416 633.0782144 218 590 218 C 546.9217856 218 512 210.3888416 512 201 Z"/></g><g transform="translate(-30,-38) scale(1,1)"><path fill="none" stroke="#000000" d="M 512 201 C 512 191.6111584 546.9217856 184 590 184 C 633.0782144 184 668 191.6111584 668 201 C 668 210.3888416 633.0782144 218 590 218 C 546.9217856 218 512 210.3888416 512 201 Z" stroke-miterlimit="10"/></g><g transform="translate(-30,-38) scale(1,1)"><g><path fill="none" stroke="none"/><text fill="#000000" stroke="none" font-family="Arial" font-size="13px" font-style="normal" font-weight="bold" text-decoration="none" x="541.970458984375" y="206.5">Entering profile</text></g></g><g transform="translate(-30,-38) scale(1,1)"><path fill="#C0C0C0" stroke="none" d="M 391 88 C 391 78.6111584 415.4004784 71 445.5 71 C 475.5995216 71 500 78.6111584 500 88 C 500 97.3888416 475.5995216 105 445.5 105 C 415.4004784 105 391 97.3888416 391 88 Z" opacity="0.2"/></g><g transform="translate(-30,-38) scale(1,1)"><path fill="#ffffff" stroke="none" d="M 384 81 C 384 71.6111584 408.4004784 64 438.5 64 C 468.5995216 64 493 71.6111584 493 81 C 493 90.3888416 468.5995216 98 438.5 98 C 408.4004784 98 384 90.3888416 384 81 Z"/></g><g transform="translate(-30,-38) scale(1,1)"><path fill="none" stroke="#000000" d="M 384 81 C 384 71.6111584 408.4004784 64 438.5 64 C 468.5995216 64 493 71.6111584 493 81 C 493 90.3888416 468.5995216 98 438.5 98 C 408.4004784 98 384 90.3888416 384 81 Z" stroke-miterlimit="10"/></g><g transform="translate(-30,-38) scale(1,1)"><g><path fill="none" stroke="none"/><text fill="#000000" stroke="none" font-family="Arial" font-size="13px" font-style="normal" font-weight="bold" text-decoration="none" x="404.555908203125" y="86.5">Edit profile</text></g></g><g transform="translate(-30,-38) scale(1,1)"><path fill="none" stroke="#000000" d="M 461 99 L 567 183" stroke-miterlimit="10" stroke-dasharray="3"/></g><g transform="translate(-30,-38) scale(1,1)"><path fill="none" stroke="#000000" d="M 556.4205913029409 179.9873414364401 L 567 183 L 561.6494996690585 173.38895706967267" stroke-miterlimit="10"/></g><g transform="translate(-30,-38) scale(1,1)"><g><path fill="none" stroke="none"/><text fill="#000000" stroke="none" font-family="Arial" font-size="13px" font-style="normal" font-weight="normal" text-decoration="none" x="505.5" y="122">«extend»</text></g></g><g transform="translate(-30,-38) scale(1,1)"><path fill="#C0C0C0" stroke="none" d="M 367 176 C 367 166.6111584 389.6096176 159 417.5 159 C 445.3903824 159 468 166.6111584 468 176 C 468 185.3888416 445.3903824 193 417.5 193 C 389.6096176 193 367 185.3888416 367 176 Z" opacity="0.2"/></g><g transform="translate(-30,-38) scale(1,1)"><path fill="#ffffff" stroke="none" d="M 360 169 C 360 159.6111584 382.6096176 152 410.5 152 C 438.3903824 152 461 159.6111584 461 169 C 461 178.3888416 438.3903824 186 410.5 186 C 382.6096176 186 360 178.3888416 360 169 Z"/></g><g transform="translate(-30,-38) scale(1,1)"><path fill="none" stroke="#000000" d="M 360 169 C 360 159.6111584 382.6096176 152 410.5 152 C 438.3903824 152 461 159.6111584 461 169 C 461 178.3888416 438.3903824 186 410.5 186 C 382.6096176 186 360 178.3888416 360 169 Z" stroke-miterlimit="10"/></g><g transform="translate(-30,-38) scale(1,1)"><g><path fill="none" stroke="none"/><text fill="#000000" stroke="none" font-family="Arial" font-size="13px" font-style="normal" font-weight="bold" text-decoration="none" x="388.483154296875" y="174.5">Logout</text></g></g><g transform="translate(-30,-38) scale(1,1)"><path fill="none" stroke="#000000" d="M 462 178 L 511 187" stroke-miterlimit="10" stroke-dasharray="3"/></g><g transform="translate(-30,-38) scale(1,1)"><path fill="none" stroke="#000000" d="M 500.24407415997285 189.30435659650064 L 511 187 L 501.76498572491965 181.02383807623474" stroke-miterlimit="10"/></g><g transform="translate(-30,-38) scale(1,1)"><g><path fill="none" stroke="none"/><text fill="#000000" stroke="none" font-family="Arial" font-size="13px" font-style="normal" font-weight="normal" text-decoration="none" x="438.5" y="199">«extend»</text></g></g><g transform="translate(-30,-38) scale(1,1)"><path fill="#C0C0C0" stroke="none" d="M 807 72 C 807 62.6111584 829.6096176 55 857.5 55 C 885.3903824 55 908 62.6111584 908 72 C 908 81.3888416 885.3903824 89 857.5 89 C 829.6096176 89 807 81.3888416 807 72 Z" opacity="0.2"/></g><g transform="translate(-30,-38) scale(1,1)"><path fill="#ffffff" stroke="none" d="M 800 65 C 800 55.6111584 822.6096176 48 850.5 48 C 878.3903824 48 901 55.6111584 901 65 C 901 74.3888416 878.3903824 82 850.5 82 C 822.6096176 82 800 74.3888416 800 65 Z"/></g><g transform="translate(-30,-38) scale(1,1)"><path fill="none" stroke="#000000" d="M 800 65 C 800 55.6111584 822.6096176 48 850.5 48 C 878.3903824 48 901 55.6111584 901 65 C 901 74.3888416 878.3903824 82 850.5 82 C 822.6096176 82 800 74.3888416 800 65 Z" stroke-miterlimit="10"/></g><g transform="translate(-30,-38) scale(1,1)"><g><path fill="none" stroke="none"/><text fill="#000000" stroke="none" font-family="Arial" font-size="13px" font-style="normal" font-weight="bold" text-decoration="none" x="832.812255859375" y="70.5">Login</text></g></g><g transform="translate(-30,-38) scale(1,1)"><path fill="#C0C0C0" stroke="none" d="M 703 216 C 703 206.6111584 725.6096176 199 753.5 199 C 781.3903824 199 804 206.6111584 804 216 C 804 225.3888416 781.3903824 233 753.5 233 C 725.6096176 233 703 225.3888416 703 216 Z" opacity="0.2"/></g><g transform="translate(-30,-38) scale(1,1)"><path fill="#ffffff" stroke="none" d="M 696 209 C 696 199.6111584 718.6096176 192 746.5 192 C 774.3903824 192 797 199.6111584 797 209 C 797 218.3888416 774.3903824 226 746.5 226 C 718.6096176 226 696 218.3888416 696 209 Z"/></g><g transform="translate(-30,-38) scale(1,1)"><path fill="none" stroke="#000000" d="M 696 209 C 696 199.6111584 718.6096176 192 746.5 192 C 774.3903824 192 797 199.6111584 797 209 C 797 218.3888416 774.3903824 226 746.5 226 C 718.6096176 226 696 218.3888416 696 209 Z" stroke-miterlimit="10"/></g><g transform="translate(-30,-38) scale(1,1)"><g><path fill="none" stroke="none"/><text fill="#000000" stroke="none" font-family="Arial" font-size="13px" font-style="normal" font-weight="bold" text-decoration="none" x="720.490478515625" y="214.5">Register</text></g></g><g transform="translate(-30,-38) scale(1,1)"><path fill="none" stroke="#000000" d="M 751 327 L 747 227" stroke-miterlimit="10"/></g><g transform="translate(-30,-38) scale(1,1)"><path fill="none" stroke="#000000" d="M 759 191 L 837 83" stroke-miterlimit="10" stroke-dasharray="3"/></g><g transform="translate(-30,-38) scale(1,1)"><path fill="none" stroke="#000000" d="M 834.4624184754522 93.70330229444508 L 837 83 L 827.6372812626869 88.77403652967016" stroke-miterlimit="10"/></g><g transform="translate(-30,-38) scale(1,1)"><g><path fill="none" stroke="none"/><text fill="#000000" stroke="none" font-family="Arial" font-size="13px" font-style="normal" font-weight="normal" text-decoration="none" x="781.5" y="169">«include»</text></g></g><g transform="translate(-30,-38) scale(1,1)"><path fill="none" stroke="#000000" d="M 593 219 L 627 463" stroke-miterlimit="10"/></g><g transform="translate(-30,-38) scale(1,1)"><path fill="none" stroke="#000000" d="M 778 327 L 848 216 L 850 83" stroke-miterlimit="10"/></g><g transform="translate(-30,-38) scale(1,1)"><path fill="none" stroke="#000000" d="M 745 463 L 601 219" stroke-miterlimit="10"/></g><g transform="translate(-30,-38) scale(1,1)"><path fill="none" stroke="#000000" d="M 795 481 L 1005 307" stroke-miterlimit="10"/></g><g transform="translate(-30,-38) scale(1,1)"><path fill="none" stroke="#000000" d="M 937 515 L 1067 863" stroke-miterlimit="10" stroke-dasharray="3"/></g><g transform="translate(-30,-38) scale(1,1)"><path fill="none" stroke="#000000" d="M 1059.5002875211546 854.9529935544545 L 1067 863 L 1067.386995275156 852.006809623362" stroke-miterlimit="10"/></g><g transform="translate(-30,-38) scale(1,1)"><g><path fill="none" stroke="none"/><text fill="#000000" stroke="none" font-family="Arial" font-size="13px" font-style="normal" font-weight="normal" text-decoration="none" x="1002.5" y="683">«include»</text></g></g><g transform="translate(-30,-38) scale(1,1)"><path fill="#C0C0C0" stroke="none" d="M 607 120 C 607 110.6111584 641.4740704 103 684 103 C 726.5259296 103 761 110.6111584 761 120 C 761 129.3888416 726.5259296 137 684 137 C 641.4740704 137 607 129.3888416 607 120 Z" opacity="0.2"/></g><g transform="translate(-30,-38) scale(1,1)"><path fill="#ffffff" stroke="none" d="M 600 113 C 600 103.6111584 634.4740704 96 677 96 C 719.5259296 96 754 103.6111584 754 113 C 754 122.3888416 719.5259296 130 677 130 C 634.4740704 130 600 122.3888416 600 113 Z"/></g><g transform="translate(-30,-38) scale(1,1)"><path fill="none" stroke="#000000" d="M 600 113 C 600 103.6111584 634.4740704 96 677 96 C 719.5259296 96 754 103.6111584 754 113 C 754 122.3888416 719.5259296 130 677 130 C 634.4740704 130 600 122.3888416 600 113 Z" stroke-miterlimit="10"/></g><g transform="translate(-30,-38) scale(1,1)"><g><path fill="none" stroke="none"/><text fill="#000000" stroke="none" font-family="Arial" font-size="13px" font-style="normal" font-weight="bold" text-decoration="none" x="627.148681640625" y="118.5">Reset password</text></g></g><g transform="translate(-30,-38) scale(1,1)"><path fill="none" stroke="#000000" d="M 742 95 L 799 79" stroke-miterlimit="10" stroke-dasharray="3"/></g><g transform="translate(-30,-38) scale(1,1)"><path fill="none" stroke="#000000" d="M 790.3531437103657 85.79940264335121 L 799 79 L 788.0778455645227 77.69365299878541" stroke-miterlimit="10"/></g><g transform="translate(-30,-38) scale(1,1)"><g><path fill="none" stroke="none"/><text fill="#000000" stroke="none" font-family="Arial" font-size="13px" font-style="normal" font-weight="normal" text-decoration="none" x="735.5" y="63">«extend»</text></g></g></g></svg>