<svg version="1.1" xmlns="http://www.w3.org/2000/svg" xmlns:xlink="http://www.w3.org/1999/xlink" width="1465" height="1086"><defs/><g><g transform="translate(-30,-38) scale(1,1)"><path fill="#ffffff" stroke="none" d="M 744.4093503196023 337.68 C 744.4093503196023 332.886167936 748.2951926445477 329 753.088623046875 329 C 757.8820534492023 329 761.7678957741477 332.886167936 761.7678957741477 337.68 C 761.7678957741477 342.473832064 757.8820534492023 346.36 753.088623046875 346.36 C 748.2951926445477 346.36 744.4093503196023 342.473832064 744.4093503196023 337.68 Z"/></g><g transform="translate(-30,-38) scale(1,1)"><path fill="none" stroke="#000000" d="M 744.4093503196023 337.68 C 744.4093503196023 332.886167936 748.2951926445477 329 753.088623046875 329 C 757.8820534492023 329 761.7678957741477 332.886167936 761.7678957741477 337.68 C 761.7678957741477 342.473832064 757.8820534492023 346.36 753.088623046875 346.36 C 748.2951926445477 346.36 744.4093503196023 342.473832064 744.4093503196023 337.68 Z" stroke-miterlimit="10"/></g><g transform="translate(-30,-38) scale(1,1)"><path fill="none" stroke="#000000" d="M 753.088623046875 346.36 L 753.088623046875 363.64" stroke-miterlimit="10"/></g><g transform="translate(-30,-38) scale(1,1)"><path fill="none" stroke="#000000" d="M 743.8988048650568 352.84 L 762.2784412286932 352.84" stroke-miterlimit="10"/></g><g transform="translate(-30,-38) scale(1,1)"><path fill="none" stroke="#000000" d="M 753.088623046875 363.64 L 740.3249866832386 381" stroke-miterlimit="10"/></g><g transform="translate(-30,-38) scale(1,1)"><path fill="none" stroke="#000000" d="M 753.088623046875 363.64 L 765.8522594105114 381" stroke-miterlimit="10"/></g><g transform="translate(-30,-38) scale(1,1)"><g><path fill="none" stroke="none"/><text fill="#000000" stroke="none" font-family="Arial" font-size="13px" font-style="normal" font-weight="bold" text-decoration="none" x="738.635009765625" y="400">User</text></g></g><g transform="translate(-30,-38) scale(1,1)"><path fill="#ffffff" stroke="none" d="M 904.4093503196023 617.6800000000001 C 904.4093503196023 612.8861679360001 908.2951926445477 609 913.088623046875 609 C 917.8820534492023 609 921.7678957741477 612.8861679360001 921.7678957741477 617.6800000000001 C 921.7678957741477 622.473832064 917.8820534492023 626.36 913.088623046875 626.36 C 908.2951926445477 626.36 904.4093503196023 622.473832064 904.4093503196023 617.6800000000001 Z"/></g><g transform="translate(-30,-38) scale(1,1)"><path fill="none" stroke="#000000" d="M 904.4093503196023 617.6800000000001 C 904.4093503196023 612.8861679360001 908.2951926445477 609 913.088623046875 609 C 917.8820534492023 609 921.7678957741477 612.8861679360001 921.7678957741477 617.6800000000001 C 921.7678957741477 622.473832064 917.8820534492023 626.36 913.088623046875 626.36 C 908.2951926445477 626.36 904.4093503196023 622.473832064 904.4093503196023 617.6800000000001 Z" stroke-miterlimit="10"/></g><g transform="translate(-30,-38) scale(1,1)"><path fill="none" stroke="#000000" d="M 913.088623046875 626.36 L 913.088623046875 643.64" stroke-miterlimit="10"/></g><g transform="translate(-30,-38) scale(1,1)"><path fill="none" stroke="#000000" d="M 903.8988048650568 632.84 L 922.2784412286932 632.84" stroke-miterlimit="10"/></g><g transform="translate(-30,-38) scale(1,1)"><path fill="none" stroke="#000000" d="M 913.088623046875 643.64 L 900.3249866832386 661" stroke-miterlimit="10"/></g><g transform="translate(-30,-38) scale(1,1)"><path fill="none" stroke="#000000" d="M 913.088623046875 643.64 L 925.8522594105114 661" stroke-miterlimit="10"/></g><g transform="translate(-30,-38) scale(1,1)"><g><path fill="none" stroke="none"/><text fill="#000000" stroke="none" font-family="Arial" font-size="13px" font-style="normal" font-weight="bold" text-decoration="none" x="892.8681640625" y="680">Admin</text></g></g><g transform="translate(-30,-38) scale(1,1)"><path fill="#ffffff" stroke="none" d="M 760.4093503196023 473.68 C 760.4093503196023 468.886167936 764.2951926445477 465 769.088623046875 465 C 773.8820534492023 465 777.7678957741477 468.886167936 777.7678957741477 473.68 C 777.7678957741477 478.473832064 773.8820534492023 482.36 769.088623046875 482.36 C 764.2951926445477 482.36 760.4093503196023 478.473832064 760.4093503196023 473.68 Z"/></g><g transform="translate(-30,-38) scale(1,1)"><path fill="none" stroke="#000000" d="M 760.4093503196023 473.68 C 760.4093503196023 468.886167936 764.2951926445477 465 769.088623046875 465 C 773.8820534492023 465 777.7678957741477 468.886167936 777.7678957741477 473.68 C 777.7678957741477 478.473832064 773.8820534492023 482.36 769.088623046875 482.36 C 764.2951926445477 482.36 760.4093503196023 478.473832064 760.4093503196023 473.68 Z" stroke-miterlimit="10"/></g><g transform="translate(-30,-38) scale(1,1)"><path fill="none" stroke="#000000" d="M 769.088623046875 482.36 L 769.088623046875 499.64" stroke-miterlimit="10"/></g><g transform="translate(-30,-38) scale(1,1)"><path fill="none" stroke="#000000" d="M 759.8988048650568 488.84 L 778.2784412286932 488.84" stroke-miterlimit="10"/></g><g transform="translate(-30,-38) scale(1,1)"><path fill="none" stroke="#000000" d="M 769.088623046875 499.64 L 756.3249866832386 517" stroke-miterlimit="10"/></g><g transform="translate(-30,-38) scale(1,1)"><path fill="none" stroke="#000000" d="M 769.088623046875 499.64 L 781.8522594105114 517" stroke-miterlimit="10"/></g><g transform="translate(-30,-38) scale(1,1)"><g><path fill="none" stroke="none"/><text fill="#000000" stroke="none" font-family="Arial" font-size="13px" font-style="normal" font-weight="bold" text-decoration="none" x="754.64453125" y="536">Staff</text></g></g><g transform="translate(-30,-38) scale(1,1)"><path fill="#ffffff" stroke="none" d="M 624.4093503196023 473.68 C 624.4093503196023 468.886167936 628.2951926445477 465 633.088623046875 465 C 637.8820534492023 465 641.7678957741477 468.886167936 641.7678957741477 473.68 C 641.7678957741477 478.473832064 637.8820534492023 482.36 633.088623046875 482.36 C 628.2951926445477 482.36 624.4093503196023 478.473832064 624.4093503196023 473.68 Z"/></g><g transform="translate(-30,-38) scale(1,1)"><path fill="none" stroke="#000000" d="M 624.4093503196023 473.68 C 624.4093503196023 468.886167936 628.2951926445477 465 633.088623046875 465 C 637.8820534492023 465 641.7678957741477 468.886167936 641.7678957741477 473.68 C 641.7678957741477 478.473832064 637.8820534492023 482.36 633.088623046875 482.36 C 628.2951926445477 482.36 624.4093503196023 478.473832064 624.4093503196023 473.68 Z" stroke-miterlimit="10"/></g><g transform="translate(-30,-38) scale(1,1)"><path fill="none" stroke="#000000" d="M 633.088623046875 482.36 L 633.088623046875 499.64" stroke-miterlimit="10"/></g><g transform="translate(-30,-38) scale(1,1)"><path fill="none" stroke="#000000" d="M 623.8988048650568 488.84 L 642.2784412286932 488.84" stroke-miterlimit="10"/></g><g transform="translate(-30,-38) scale(1,1)"><path fill="none" stroke="#000000" d="M 633.088623046875 499.64 L 620.3249866832386 517" stroke-miterlimit="10"/></g><g transform="translate(-30,-38) scale(1,1)"><path fill="none" stroke="#000000" d="M 633.088623046875 499.64 L 645.8522594105114 517" stroke-miterlimit="10"/></g><g transform="translate(-30,-38) scale(1,1)"><g><path fill="none" stroke="none"/><text fill="#000000" stroke="none" font-family="Arial" font-size="13px" font-style="normal" font-weight="bold" text-decoration="none" x="615.03271484375" y="536">Client</text></g></g><g transform="translate(-30,-38) scale(1,1)"><path fill="none" stroke="#000000" d="M 764 463 L 758 408" stroke-miterlimit="10"/></g><g transform="translate(-30,-38) scale(1,1)"><path fill="#FFFFFF" stroke="none" d="M 768.5736150975143 427.2924509528887 L 758 408 L 751.8348520426123 429.11849783160534"/></g><g transform="translate(-30,-38) scale(1,1)"><path fill="none" stroke="#000000" d="M 768.5736150975143 427.2924509528887 L 758 408 L 751.8348520426123 429.11849783160534 L 768.5736150975143 427.2924509528887" stroke-miterlimit="10"/></g><g transform="translate(-30,-38) scale(1,1)"><path fill="none" stroke="#000000" d="M 659 473 L 727 396" stroke-miterlimit="10"/></g><g transform="translate(-30,-38) scale(1,1)"><path fill="#FFFFFF" stroke="none" d="M 719.8562854723398 416.80786732818376 L 727 396 L 707.2352469248419 405.66201510441937"/></g><g transform="translate(-30,-38) scale(1,1)"><path fill="none" stroke="#000000" d="M 719.8562854723398 416.80786732818376 L 727 396 L 707.2352469248419 405.66201510441937 L 719.8562854723398 416.80786732818376" stroke-miterlimit="10"/></g><g transform="translate(-30,-38) scale(1,1)"><path fill="#C0C0C0" stroke="none" d="M 887 504 C 887 494.6111584 909.6096176 487 937.5 487 C 965.3903824 487 988 494.6111584 988 504 C 988 513.3888416 965.3903824 521 937.5 521 C 909.6096176 521 887 513.3888416 887 504 Z" opacity="0.2"/></g><g transform="translate(-30,-38) scale(1,1)"><path fill="#ffffff" stroke="none" d="M 880 497 C 880 487.6111584 902.6096176 480 930.5 480 C 958.3903824 480 981 487.6111584 981 497 C 981 506.3888416 958.3903824 514 930.5 514 C 902.6096176 514 880 506.3888416 880 497 Z"/></g><g transform="translate(-30,-38) scale(1,1)"><path fill="none" stroke="#000000" d="M 880 497 C 880 487.6111584 902.6096176 480 930.5 480 C 958.3903824 480 981 487.6111584 981 497 C 981 506.3888416 958.3903824 514 930.5 514 C 902.6096176 514 880 506.3888416 880 497 Z" stroke-miterlimit="10"/></g><g transform="translate(-30,-38) scale(1,1)"><g><path fill="none" stroke="none"/><text fill="#000000" stroke="none" font-family="Arial" font-size="13px" font-style="normal" font-weight="bold" text-decoration="none" x="902.087890625" y="502.5">View info</text></g></g><g transform="translate(-30,-38) scale(1,1)"><path fill="none" stroke="#000000" d="M 779 386 L 905 479" stroke-miterlimit="10"/></g><g transform="translate(-30,-38) scale(1,1)"><path fill="#C0C0C0" stroke="none" d="M 927 424 C 927 414.6111584 958.1162064 407 996.5 407 C 1034.8837936 407 1066 414.6111584 1066 424 C 1066 433.3888416 1034.8837936 441 996.5 441 C 958.1162064 441 927 433.3888416 927 424 Z" opacity="0.2"/></g><g transform="translate(-30,-38) scale(1,1)"><path fill="#ffffff" stroke="none" d="M 920 417 C 920 407.6111584 951.1162064 400 989.5 400 C 1027.8837936 400 1059 407.6111584 1059 417 C 1059 426.3888416 1027.8837936 434 989.5 434 C 951.1162064 434 920 426.3888416 920 417 Z"/></g><g transform="translate(-30,-38) scale(1,1)"><path fill="none" stroke="#000000" d="M 920 417 C 920 407.6111584 951.1162064 400 989.5 400 C 1027.8837936 400 1059 407.6111584 1059 417 C 1059 426.3888416 1027.8837936 434 989.5 434 C 951.1162064 434 920 426.3888416 920 417 Z" stroke-miterlimit="10"/></g><g transform="translate(-30,-38) scale(1,1)"><g><path fill="none" stroke="none"/><text fill="#000000" stroke="none" font-family="Arial" font-size="13px" font-style="normal" font-weight="bold" text-decoration="none" x="944.822021484375" y="422.5">View schedule</text></g></g><g transform="translate(-30,-38) scale(1,1)"><path fill="#C0C0C0" stroke="none" d="M 1007 760 C 1007 750.6111584 1047.294368 743 1097 743 C 1146.705632 743 1187 750.6111584 1187 760 C 1187 769.3888416 1146.705632 777 1097 777 C 1047.294368 777 1007 769.3888416 1007 760 Z" opacity="0.2"/></g><g transform="translate(-30,-38) scale(1,1)"><path fill="#ffffff" stroke="none" d="M 1000 753 C 1000 743.6111584 1040.294368 736 1090 736 C 1139.705632 736 1180 743.6111584 1180 753 C 1180 762.3888416 1139.705632 770 1090 770 C 1040.294368 770 1000 762.3888416 1000 753 Z"/></g><g transform="translate(-30,-38) scale(1,1)"><path fill="none" stroke="#000000" d="M 1000 753 C 1000 743.6111584 1040.294368 736 1090 736 C 1139.705632 736 1180 743.6111584 1180 753 C 1180 762.3888416 1139.705632 770 1090 770 C 1040.294368 770 1000 762.3888416 1000 753 Z" stroke-miterlimit="10"/></g><g transform="translate(-30,-38) scale(1,1)"><g><path fill="none" stroke="none"/><text fill="#000000" stroke="none" font-family="Arial" font-size="13px" font-style="normal" font-weight="bold" text-decoration="none" x="1030.881103515625" y="758.5">View subscriptions</text></g></g><g transform="translate(-30,-38) scale(1,1)"><path fill="#C0C0C0" stroke="none" d="M 879 928 C 879 918.6111584 923.0999472 911 977.5 911 C 1031.9000528 911 1076 918.6111584 1076 928 C 1076 937.3888416 1031.9000528 945 977.5 945 C 923.0999472 945 879 937.3888416 879 928 Z" opacity="0.2"/></g><g transform="translate(-30,-38) scale(1,1)"><path fill="#ffffff" stroke="none" d="M 872 921 C 872 911.6111584 916.0999472 904 970.5 904 C 1024.9000528 904 1069 911.6111584 1069 921 C 1069 930.3888416 1024.9000528 938 970.5 938 C 916.0999472 938 872 930.3888416 872 921 Z"/></g><g transform="translate(-30,-38) scale(1,1)"><path fill="none" stroke="#000000" d="M 872 921 C 872 911.6111584 916.0999472 904 970.5 904 C 1024.9000528 904 1069 911.6111584 1069 921 C 1069 930.3888416 1024.9000528 938 970.5 938 C 916.0999472 938 872 930.3888416 872 921 Z" stroke-miterlimit="10"/></g><g transform="translate(-30,-38) scale(1,1)"><g><path fill="none" stroke="none"/><text fill="#000000" stroke="none" font-family="Arial" font-size="13px" font-style="normal" font-weight="bold" text-decoration="none" x="905.490478515625" y="926.5">Manage subscription</text></g></g><g transform="translate(-30,-38) scale(1,1)"><path fill="#C0C0C0" stroke="none" d="M 1055 1104 C 1055 1094.6111584 1093.7273648 1087 1141.5 1087 C 1189.2726352 1087 1228 1094.6111584 1228 1104 C 1228 1113.3888416 1189.2726352 1121 1141.5 1121 C 1093.7273648 1121 1055 1113.3888416 1055 1104 Z" opacity="0.2"/></g><g transform="translate(-30,-38) scale(1,1)"><path fill="#ffffff" stroke="none" d="M 1048 1097 C 1048 1087.6111584 1086.7273648 1080 1134.5 1080 C 1182.2726352 1080 1221 1087.6111584 1221 1097 C 1221 1106.3888416 1182.2726352 1114 1134.5 1114 C 1086.7273648 1114 1048 1106.3888416 1048 1097 Z"/></g><g transform="translate(-30,-38) scale(1,1)"><path fill="none" stroke="#000000" d="M 1048 1097 C 1048 1087.6111584 1086.7273648 1080 1134.5 1080 C 1182.2726352 1080 1221 1087.6111584 1221 1097 C 1221 1106.3888416 1182.2726352 1114 1134.5 1114 C 1086.7273648 1114 1048 1106.3888416 1048 1097 Z" stroke-miterlimit="10"/></g><g transform="translate(-30,-38) scale(1,1)"><g><path fill="none" stroke="none"/><text fill="#000000" stroke="none" font-family="Arial" font-size="13px" font-style="normal" font-weight="bold" text-decoration="none" x="1077.799560546875" y="1102.5">Edit subscriptions</text></g></g><g transform="translate(-30,-38) scale(1,1)"><path fill="#C0C0C0" stroke="none" d="M 271 488 C 271 478.6111584 305.9217856 471 349 471 C 392.0782144 471 427 478.6111584 427 488 C 427 497.3888416 392.0782144 505 349 505 C 305.9217856 505 271 497.3888416 271 488 Z" opacity="0.2"/></g><g transform="translate(-30,-38) scale(1,1)"><path fill="#ffffff" stroke="none" d="M 264 481 C 264 471.6111584 298.9217856 464 342 464 C 385.0782144 464 420 471.6111584 420 481 C 420 490.3888416 385.0782144 498 342 498 C 298.9217856 498 264 490.3888416 264 481 Z"/></g><g transform="translate(-30,-38) scale(1,1)"><path fill="none" stroke="#000000" d="M 264 481 C 264 471.6111584 298.9217856 464 342 464 C 385.0782144 464 420 471.6111584 420 481 C 420 490.3888416 385.0782144 498 342 498 C 298.9217856 498 264 490.3888416 264 481 Z" stroke-miterlimit="10"/></g><g transform="translate(-30,-38) scale(1,1)"><g><path fill="none" stroke="none"/><text fill="#000000" stroke="none" font-family="Arial" font-size="13px" font-style="normal" font-weight="bold" text-decoration="none" x="291.44091796875" y="486.5">Buy subsciption</text></g></g><g transform="translate(-30,-38) scale(1,1)"><path fill="none" stroke="#000000" d="M 607 501 L 421 487" stroke-miterlimit="10"/></g><g transform="translate(-30,-38) scale(1,1)"><path fill="none" stroke="#000000" d="M 887 621 L 795 529" stroke-miterlimit="10"/></g><g transform="translate(-30,-38) scale(1,1)"><path fill="#FFFFFF" stroke="none" d="M 815.3253497152483 537.419035512032 L 795 529 L 803.419035512032 549.3253497152483"/></g><g transform="translate(-30,-38) scale(1,1)"><path fill="none" stroke="#000000" d="M 815.3253497152483 537.419035512032 L 795 529 L 803.419035512032 549.3253497152483 L 815.3253497152483 537.419035512032" stroke-miterlimit="10"/></g><g transform="translate(-30,-38) scale(1,1)"><path fill="#ffffff" stroke="none" d="M 681.4979733664773 617.6800000000001 C 681.4979733664773 612.8861679360001 685.3838156914227 609 690.17724609375 609 C 694.9706764960773 609 698.8565188210227 612.8861679360001 698.8565188210227 617.6800000000001 C 698.8565188210227 622.473832064 694.9706764960773 626.36 690.17724609375 626.36 C 685.3838156914227 626.36 681.4979733664773 622.473832064 681.4979733664773 617.6800000000001 Z"/></g><g transform="translate(-30,-38) scale(1,1)"><path fill="none" stroke="#000000" d="M 681.4979733664773 617.6800000000001 C 681.4979733664773 612.8861679360001 685.3838156914227 609 690.17724609375 609 C 694.9706764960773 609 698.8565188210227 612.8861679360001 698.8565188210227 617.6800000000001 C 698.8565188210227 622.473832064 694.9706764960773 626.36 690.17724609375 626.36 C 685.3838156914227 626.36 681.4979733664773 622.473832064 681.4979733664773 617.6800000000001 Z" stroke-miterlimit="10"/></g><g transform="translate(-30,-38) scale(1,1)"><path fill="none" stroke="#000000" d="M 690.17724609375 626.36 L 690.17724609375 643.64" stroke-miterlimit="10"/></g><g transform="translate(-30,-38) scale(1,1)"><path fill="none" stroke="#000000" d="M 680.9874279119318 632.84 L 699.3670642755682 632.84" stroke-miterlimit="10"/></g><g transform="translate(-30,-38) scale(1,1)"><path fill="none" stroke="#000000" d="M 690.17724609375 643.64 L 677.4136097301136 661" stroke-miterlimit="10"/></g><g transform="translate(-30,-38) scale(1,1)"><path fill="none" stroke="#000000" d="M 690.17724609375 643.64 L 702.9408824573864 661" stroke-miterlimit="10"/></g><g transform="translate(-30,-38) scale(1,1)"><g><path fill="none" stroke="none"/><text fill="#000000" stroke="none" font-family="Arial" font-size="13px" font-style="normal" font-weight="bold" text-decoration="none" x="668.5" y="680">Trainer</text></g></g><g transform="translate(-30,-38) scale(1,1)"><path fill="none" stroke="#000000" d="M 712 607 L 747 544" stroke-miterlimit="10"/></g><g transform="translate(-30,-38) scale(1,1)"><path fill="#FFFFFF" stroke="none" d="M 744.4886987378244 565.8561974270593 L 747 544 L 729.7695764362877 557.678907259539"/></g><g transform="translate(-30,-38) scale(1,1)"><path fill="none" stroke="#000000" d="M 744.4886987378244 565.8561974270593 L 747 544 L 729.7695764362877 557.678907259539 L 744.4886987378244 565.8561974270593" stroke-miterlimit="10"/></g><g transform="translate(-30,-38) scale(1,1)"><path fill="#C0C0C0" stroke="none" d="M 1119 648 C 1119 638.6111584 1148.9969184 631 1186 631 C 1223.0030816 631 1253 638.6111584 1253 648 C 1253 657.3888416 1223.0030816 665 1186 665 C 1148.9969184 665 1119 657.3888416 1119 648 Z" opacity="0.2"/></g><g transform="translate(-30,-38) scale(1,1)"><path fill="#ffffff" stroke="none" d="M 1112 641 C 1112 631.6111584 1141.9969184 624 1179 624 C 1216.0030816 624 1246 631.6111584 1246 641 C 1246 650.3888416 1216.0030816 658 1179 658 C 1141.9969184 658 1112 650.3888416 1112 641 Z"/></g><g transform="translate(-30,-38) scale(1,1)"><path fill="none" stroke="#000000" d="M 1112 641 C 1112 631.6111584 1141.9969184 624 1179 624 C 1216.0030816 624 1246 631.6111584 1246 641 C 1246 650.3888416 1216.0030816 658 1179 658 C 1141.9969184 658 1112 650.3888416 1112 641 Z" stroke-miterlimit="10"/></g><g transform="translate(-30,-38) scale(1,1)"><g><path fill="none" stroke="none"/><text fill="#000000" stroke="none" font-family="Arial" font-size="13px" font-style="normal" font-weight="bold" text-decoration="none" x="1139.27001953125" y="646.5">Manage staff</text></g></g><g transform="translate(-30,-38) scale(1,1)"><path fill="#C0C0C0" stroke="none" d="M 1271 768 C 1271 758.6111584 1293.6096176 751 1321.5 751 C 1349.3903824 751 1372 758.6111584 1372 768 C 1372 777.3888416 1349.3903824 785 1321.5 785 C 1293.6096176 785 1271 777.3888416 1271 768 Z" opacity="0.2"/></g><g transform="translate(-30,-38) scale(1,1)"><path fill="#ffffff" stroke="none" d="M 1264 761 C 1264 751.6111584 1286.6096176 744 1314.5 744 C 1342.3903824 744 1365 751.6111584 1365 761 C 1365 770.3888416 1342.3903824 778 1314.5 778 C 1286.6096176 778 1264 770.3888416 1264 761 Z"/></g><g transform="translate(-30,-38) scale(1,1)"><path fill="none" stroke="#000000" d="M 1264 761 C 1264 751.6111584 1286.6096176 744 1314.5 744 C 1342.3903824 744 1365 751.6111584 1365 761 C 1365 770.3888416 1342.3903824 778 1314.5 778 C 1286.6096176 778 1264 770.3888416 1264 761 Z" stroke-miterlimit="10"/></g><g transform="translate(-30,-38) scale(1,1)"><g><path fill="none" stroke="none"/><text fill="#000000" stroke="none" font-family="Arial" font-size="13px" font-style="normal" font-weight="bold" text-decoration="none" x="1286.33544921875" y="766.5">Add staff</text></g></g><g transform="translate(-30,-38) scale(1,1)"><path fill="#C0C0C0" stroke="none" d="M 1391 664 C 1391 654.6111584 1413.6096176 647 1441.5 647 C 1469.3903824 647 1492 654.6111584 1492 664 C 1492 673.3888416 1469.3903824 681 1441.5 681 C 1413.6096176 681 1391 673.3888416 1391 664 Z" opacity="0.2"/></g><g transform="translate(-30,-38) scale(1,1)"><path fill="#ffffff" stroke="none" d="M 1384 657 C 1384 647.6111584 1406.6096176 640 1434.5 640 C 1462.3903824 640 1485 647.6111584 1485 657 C 1485 666.3888416 1462.3903824 674 1434.5 674 C 1406.6096176 674 1384 666.3888416 1384 657 Z"/></g><g transform="translate(-30,-38) scale(1,1)"><path fill="none" stroke="#000000" d="M 1384 657 C 1384 647.6111584 1406.6096176 640 1434.5 640 C 1462.3903824 640 1485 647.6111584 1485 657 C 1485 666.3888416 1462.3903824 674 1434.5 674 C 1406.6096176 674 1384 666.3888416 1384 657 Z" stroke-miterlimit="10"/></g><g transform="translate(-30,-38) scale(1,1)"><g><path fill="none" stroke="none"/><text fill="#000000" stroke="none" font-family="Arial" font-size="13px" font-style="normal" font-weight="bold" text-decoration="none" x="1406.694091796875" y="662.5">Edit staff</text></g></g><g transform="translate(-30,-38) scale(1,1)"><path fill="#C0C0C0" stroke="none" d="M 1279 552 C 1279 542.6111584 1304.0720512 535 1335 535 C 1365.9279488 535 1391 542.6111584 1391 552 C 1391 561.3888416 1365.9279488 569 1335 569 C 1304.0720512 569 1279 561.3888416 1279 552 Z" opacity="0.2"/></g><g transform="translate(-30,-38) scale(1,1)"><path fill="#ffffff" stroke="none" d="M 1272 545 C 1272 535.6111584 1297.0720512 528 1328 528 C 1358.9279488 528 1384 535.6111584 1384 545 C 1384 554.3888416 1358.9279488 562 1328 562 C 1297.0720512 562 1272 554.3888416 1272 545 Z"/></g><g transform="translate(-30,-38) scale(1,1)"><path fill="none" stroke="#000000" d="M 1272 545 C 1272 535.6111584 1297.0720512 528 1328 528 C 1358.9279488 528 1384 535.6111584 1384 545 C 1384 554.3888416 1358.9279488 562 1328 562 C 1297.0720512 562 1272 554.3888416 1272 545 Z" stroke-miterlimit="10"/></g><g transform="translate(-30,-38) scale(1,1)"><g><path fill="none" stroke="none"/><text fill="#000000" stroke="none" font-family="Arial" font-size="13px" font-style="normal" font-weight="bold" text-decoration="none" x="1292.9609375" y="550.5">Delete staff</text></g></g><g transform="translate(-30,-38) scale(1,1)"><path fill="#C0C0C0" stroke="none" d="M 1095 504 C 1095 494.6111584 1117.6096176 487 1145.5 487 C 1173.3903824 487 1196 494.6111584 1196 504 C 1196 513.3888416 1173.3903824 521 1145.5 521 C 1117.6096176 521 1095 513.3888416 1095 504 Z" opacity="0.2"/></g><g transform="translate(-30,-38) scale(1,1)"><path fill="#ffffff" stroke="none" d="M 1088 497 C 1088 487.6111584 1110.6096176 480 1138.5 480 C 1166.3903824 480 1189 487.6111584 1189 497 C 1189 506.3888416 1166.3903824 514 1138.5 514 C 1110.6096176 514 1088 506.3888416 1088 497 Z"/></g><g transform="translate(-30,-38) scale(1,1)"><path fill="none" stroke="#000000" d="M 1088 497 C 1088 487.6111584 1110.6096176 480 1138.5 480 C 1166.3903824 480 1189 487.6111584 1189 497 C 1189 506.3888416 1166.3903824 514 1138.5 514 C 1110.6096176 514 1088 506.3888416 1088 497 Z" stroke-miterlimit="10"/></g><g transform="translate(-30,-38) scale(1,1)"><g><path fill="none" stroke="none"/><text fill="#000000" stroke="none" font-family="Arial" font-size="13px" font-style="normal" font-weight="bold" text-decoration="none" x="1108.275634765625" y="502.5">View staff</text></g></g><g transform="translate(-30,-38) scale(1,1)"><path fill="#C0C0C0" stroke="none" d="M 719 992 C 719 982.6111584 751.2354944 975 791 975 C 830.7645056 975 863 982.6111584 863 992 C 863 1001.3888416 830.7645056 1009 791 1009 C 751.2354944 1009 719 1001.3888416 719 992 Z" opacity="0.2"/></g><g transform="translate(-30,-38) scale(1,1)"><path fill="#ffffff" stroke="none" d="M 712 985 C 712 975.6111584 744.2354944 968 784 968 C 823.7645056 968 856 975.6111584 856 985 C 856 994.3888416 823.7645056 1002 784 1002 C 744.2354944 1002 712 994.3888416 712 985 Z"/></g><g transform="translate(-30,-38) scale(1,1)"><path fill="none" stroke="#000000" d="M 712 985 C 712 975.6111584 744.2354944 968 784 968 C 823.7645056 968 856 975.6111584 856 985 C 856 994.3888416 823.7645056 1002 784 1002 C 744.2354944 1002 712 994.3888416 712 985 Z" stroke-miterlimit="10"/></g><g transform="translate(-30,-38) scale(1,1)"><g><path fill="none" stroke="none"/><text fill="#000000" stroke="none" font-family="Arial" font-size="13px" font-style="normal" font-weight="bold" text-decoration="none" x="737.40185546875" y="990.5">Manage clients</text></g></g><g transform="translate(-30,-38) scale(1,1)"><path fill="#C0C0C0" stroke="none" d="M 543 944 C 543 934.6111584 565.8334752 927 594 927 C 622.1665248 927 645 934.6111584 645 944 C 645 953.3888416 622.1665248 961 594 961 C 565.8334752 961 543 953.3888416 543 944 Z" opacity="0.2"/></g><g transform="translate(-30,-38) scale(1,1)"><path fill="#ffffff" stroke="none" d="M 536 937 C 536 927.6111584 558.8334752 920 587 920 C 615.1665248 920 638 927.6111584 638 937 C 638 946.3888416 615.1665248 954 587 954 C 558.8334752 954 536 946.3888416 536 937 Z"/></g><g transform="translate(-30,-38) scale(1,1)"><path fill="none" stroke="#000000" d="M 536 937 C 536 927.6111584 558.8334752 920 587 920 C 615.1665248 920 638 927.6111584 638 937 C 638 946.3888416 615.1665248 954 587 954 C 558.8334752 954 536 946.3888416 536 937 Z" stroke-miterlimit="10"/></g><g transform="translate(-30,-38) scale(1,1)"><g><path fill="none" stroke="none"/><text fill="#000000" stroke="none" font-family="Arial" font-size="13px" font-style="normal" font-weight="bold" text-decoration="none" x="555.582275390625" y="942.5">Add client</text></g></g><g transform="translate(-30,-38) scale(1,1)"><path fill="#C0C0C0" stroke="none" d="M 559 1040 C 559 1030.6111584 581.6096176 1023 609.5 1023 C 637.3903824 1023 660 1030.6111584 660 1040 C 660 1049.3888416 637.3903824 1057 609.5 1057 C 581.6096176 1057 559 1049.3888416 559 1040 Z" opacity="0.2"/></g><g transform="translate(-30,-38) scale(1,1)"><path fill="#ffffff" stroke="none" d="M 552 1033 C 552 1023.6111584 574.6096176 1016 602.5 1016 C 630.3903824 1016 653 1023.6111584 653 1033 C 653 1042.3888416 630.3903824 1050 602.5 1050 C 574.6096176 1050 552 1042.3888416 552 1033 Z"/></g><g transform="translate(-30,-38) scale(1,1)"><path fill="none" stroke="#000000" d="M 552 1033 C 552 1023.6111584 574.6096176 1016 602.5 1016 C 630.3903824 1016 653 1023.6111584 653 1033 C 653 1042.3888416 630.3903824 1050 602.5 1050 C 574.6096176 1050 552 1042.3888416 552 1033 Z" stroke-miterlimit="10"/></g><g transform="translate(-30,-38) scale(1,1)"><g><path fill="none" stroke="none"/><text fill="#000000" stroke="none" font-family="Arial" font-size="13px" font-style="normal" font-weight="bold" text-decoration="none" x="571.44091796875" y="1038.5">Edit client</text></g></g><g transform="translate(-30,-38) scale(1,1)"><path fill="#C0C0C0" stroke="none" d="M 679 1096 C 679 1086.6111584 706.0867696 1079 739.5 1079 C 772.9132304 1079 800 1086.6111584 800 1096 C 800 1105.3888416 772.9132304 1113 739.5 1113 C 706.0867696 1113 679 1105.3888416 679 1096 Z" opacity="0.2"/></g><g transform="translate(-30,-38) scale(1,1)"><path fill="#ffffff" stroke="none" d="M 672 1089 C 672 1079.6111584 699.0867696 1072 732.5 1072 C 765.9132304 1072 793 1079.6111584 793 1089 C 793 1098.3888416 765.9132304 1106 732.5 1106 C 699.0867696 1106 672 1098.3888416 672 1089 Z"/></g><g transform="translate(-30,-38) scale(1,1)"><path fill="none" stroke="#000000" d="M 672 1089 C 672 1079.6111584 699.0867696 1072 732.5 1072 C 765.9132304 1072 793 1079.6111584 793 1089 C 793 1098.3888416 765.9132304 1106 732.5 1106 C 699.0867696 1106 672 1098.3888416 672 1089 Z" stroke-miterlimit="10"/></g><g transform="translate(-30,-38) scale(1,1)"><g><path fill="none" stroke="none"/><text fill="#000000" stroke="none" font-family="Arial" font-size="13px" font-style="normal" font-weight="bold" text-decoration="none" x="694.207763671875" y="1094.5">Delete client</text></g></g><g transform="translate(-30,-38) scale(1,1)"><path fill="#C0C0C0" stroke="none" d="M 591 800 C 591 790.6111584 614.9527632 783 644.5 783 C 674.0472368 783 698 790.6111584 698 800 C 698 809.3888416 674.0472368 817 644.5 817 C 614.9527632 817 591 809.3888416 591 800 Z" opacity="0.2"/></g><g transform="translate(-30,-38) scale(1,1)"><path fill="#ffffff" stroke="none" d="M 584 793 C 584 783.6111584 607.9527632 776 637.5 776 C 667.0472368 776 691 783.6111584 691 793 C 691 802.3888416 667.0472368 810 637.5 810 C 607.9527632 810 584 802.3888416 584 793 Z"/></g><g transform="translate(-30,-38) scale(1,1)"><path fill="none" stroke="#000000" d="M 584 793 C 584 783.6111584 607.9527632 776 637.5 776 C 667.0472368 776 691 783.6111584 691 793 C 691 802.3888416 667.0472368 810 637.5 810 C 607.9527632 810 584 802.3888416 584 793 Z" stroke-miterlimit="10"/></g><g transform="translate(-30,-38) scale(1,1)"><g><path fill="none" stroke="none"/><text fill="#000000" stroke="none" font-family="Arial" font-size="13px" font-style="normal" font-weight="bold" text-decoration="none" x="604.0224609375" y="798.5">View client</text></g></g><g transform="translate(-30,-38) scale(1,1)"><path fill="none" stroke="#000000" d="M 651 811 L 770 967" stroke-miterlimit="10" stroke-dasharray="3"/></g><g transform="translate(-30,-38) scale(1,1)"><path fill="none" stroke="#000000" d="M 760.489393311642 961.4729428789491 L 770 967 L 767.1832050877643 956.3667659471635" stroke-miterlimit="10"/></g><g transform="translate(-30,-38) scale(1,1)"><g><path fill="none" stroke="none"/><text fill="#000000" stroke="none" font-family="Arial" font-size="13px" font-style="normal" font-weight="normal" text-decoration="none" x="687.5" y="851">«include»</text></g></g><g transform="translate(-30,-38) scale(1,1)"><path fill="#ffffff" stroke="none" d="M 774.5507077414773 617.6800000000001 C 774.5507077414773 612.8861679360001 778.4365500664227 609 783.22998046875 609 C 788.0234108710773 609 791.9092531960227 612.8861679360001 791.9092531960227 617.6800000000001 C 791.9092531960227 622.473832064 788.0234108710773 626.36 783.22998046875 626.36 C 778.4365500664227 626.36 774.5507077414773 622.473832064 774.5507077414773 617.6800000000001 Z"/></g><g transform="translate(-30,-38) scale(1,1)"><path fill="none" stroke="#000000" d="M 774.5507077414773 617.6800000000001 C 774.5507077414773 612.8861679360001 778.4365500664227 609 783.22998046875 609 C 788.0234108710773 609 791.9092531960227 612.8861679360001 791.9092531960227 617.6800000000001 C 791.9092531960227 622.473832064 788.0234108710773 626.36 783.22998046875 626.36 C 778.4365500664227 626.36 774.5507077414773 622.473832064 774.5507077414773 617.6800000000001 Z" stroke-miterlimit="10"/></g><g transform="translate(-30,-38) scale(1,1)"><path fill="none" stroke="#000000" d="M 783.22998046875 626.36 L 783.22998046875 643.64" stroke-miterlimit="10"/></g><g transform="translate(-30,-38) scale(1,1)"><path fill="none" stroke="#000000" d="M 774.0401622869318 632.84 L 792.4197986505682 632.84" stroke-miterlimit="10"/></g><g transform="translate(-30,-38) scale(1,1)"><path fill="none" stroke="#000000" d="M 783.22998046875 643.64 L 770.4663441051136 661" stroke-miterlimit="10"/></g><g transform="translate(-30,-38) scale(1,1)"><path fill="none" stroke="#000000" d="M 783.22998046875 643.64 L 795.9936168323864 661" stroke-miterlimit="10"/></g><g transform="translate(-30,-38) scale(1,1)"><g><path fill="none" stroke="none"/><text fill="#000000" stroke="none" font-family="Arial" font-size="13px" font-style="normal" font-weight="bold" text-decoration="none" x="756.5" y="680">Manager</text></g></g><g transform="translate(-30,-38) scale(1,1)"><path fill="none" stroke="#000000" d="M 779 607 L 773 544" stroke-miterlimit="10"/></g><g transform="translate(-30,-38) scale(1,1)"><path fill="#FFFFFF" stroke="none" d="M 783.308139699685 563.4355925027198 L 773 544 L 766.5459162280139 565.0319947381171"/></g><g transform="translate(-30,-38) scale(1,1)"><path fill="none" stroke="#000000" d="M 783.308139699685 563.4355925027198 L 773 544 L 766.5459162280139 565.0319947381171 L 783.308139699685 563.4355925027198" stroke-miterlimit="10"/></g><g transform="translate(-30,-38) scale(1,1)"><path fill="none" stroke="#000000" d="M 783 688 L 784 967" stroke-miterlimit="10"/></g><g transform="translate(-30,-38) scale(1,1)"><path fill="#C0C0C0" stroke="none" d="M 839 1104 C 839 1094.6111584 877.9512224 1087 926 1087 C 974.0487776 1087 1013 1094.6111584 1013 1104 C 1013 1113.3888416 974.0487776 1121 926 1121 C 877.9512224 1121 839 1113.3888416 839 1104 Z" opacity="0.2"/></g><g transform="translate(-30,-38) scale(1,1)"><path fill="#ffffff" stroke="none" d="M 832 1097 C 832 1087.6111584 870.9512224 1080 919 1080 C 967.0487776 1080 1006 1087.6111584 1006 1097 C 1006 1106.3888416 967.0487776 1114 919 1114 C 870.9512224 1114 832 1106.3888416 832 1097 Z"/></g><g transform="translate(-30,-38) scale(1,1)"><path fill="none" stroke="#000000" d="M 832 1097 C 832 1087.6111584 870.9512224 1080 919 1080 C 967.0487776 1080 1006 1087.6111584 1006 1097 C 1006 1106.3888416 967.0487776 1114 919 1114 C 870.9512224 1114 832 1106.3888416 832 1097 Z" stroke-miterlimit="10"/></g><g transform="translate(-30,-38) scale(1,1)"><g><path fill="none" stroke="none"/><text fill="#000000" stroke="none" font-family="Arial" font-size="13px" font-style="normal" font-weight="bold" text-decoration="none" x="861.94091796875" y="1102.5">Add subscriptions</text></g></g><g transform="translate(-30,-38) scale(1,1)"><path fill="#C0C0C0" stroke="none" d="M 1159 1016 C 1159 1006.6111584 1202.2045168 999 1255.5 999 C 1308.7954832 999 1352 1006.6111584 1352 1016 C 1352 1025.3888416 1308.7954832 1033 1255.5 1033 C 1202.2045168 1033 1159 1025.3888416 1159 1016 Z" opacity="0.2"/></g><g transform="translate(-30,-38) scale(1,1)"><path fill="#ffffff" stroke="none" d="M 1152 1009 C 1152 999.6111584 1195.2045168 992 1248.5 992 C 1301.7954832 992 1345 999.6111584 1345 1009 C 1345 1018.3888416 1301.7954832 1026 1248.5 1026 C 1195.2045168 1026 1152 1018.3888416 1152 1009 Z"/></g><g transform="translate(-30,-38) scale(1,1)"><path fill="none" stroke="#000000" d="M 1152 1009 C 1152 999.6111584 1195.2045168 992 1248.5 992 C 1301.7954832 992 1345 999.6111584 1345 1009 C 1345 1018.3888416 1301.7954832 1026 1248.5 1026 C 1195.2045168 1026 1152 1018.3888416 1152 1009 Z" stroke-miterlimit="10"/></g><g transform="translate(-30,-38) scale(1,1)"><g><path fill="none" stroke="none"/><text fill="#000000" stroke="none" font-family="Arial" font-size="13px" font-style="normal" font-weight="bold" text-decoration="none" x="1184.56640625" y="1014.5">Delete subscriptions</text></g></g><g transform="translate(-30,-38) scale(1,1)"><path fill="none" stroke="#000000" d="M 811 688 L 958 903" stroke-miterlimit="10"/></g><g transform="translate(-30,-38) scale(1,1)"><path fill="#C0C0C0" stroke="none" d="M 1127 336 C 1127 326.6111584 1156.5492032 319 1193 319 C 1229.4507968 319 1259 326.6111584 1259 336 C 1259 345.3888416 1229.4507968 353 1193 353 C 1156.5492032 353 1127 345.3888416 1127 336 Z" opacity="0.2"/></g><g transform="translate(-30,-38) scale(1,1)"><path fill="#ffffff" stroke="none" d="M 1120 329 C 1120 319.6111584 1149.5492032 312 1186 312 C 1222.4507968 312 1252 319.6111584 1252 329 C 1252 338.3888416 1222.4507968 346 1186 346 C 1149.5492032 346 1120 338.3888416 1120 329 Z"/></g><g transform="translate(-30,-38) scale(1,1)"><path fill="none" stroke="#000000" d="M 1120 329 C 1120 319.6111584 1149.5492032 312 1186 312 C 1222.4507968 312 1252 319.6111584 1252 329 C 1252 338.3888416 1222.4507968 346 1186 346 C 1149.5492032 346 1120 338.3888416 1120 329 Z" stroke-miterlimit="10"/></g><g transform="translate(-30,-38) scale(1,1)"><g><path fill="none" stroke="none"/><text fill="#000000" stroke="none" font-family="Arial" font-size="13px" font-style="normal" font-weight="bold" text-decoration="none" x="1143.740478515625" y="334.5">Edit schedule</text></g></g><g transform="translate(-30,-38) scale(1,1)"><path fill="#C0C0C0" stroke="none" d="M 1015 208 C 1015 198.6111584 1048.1309248 191 1089 191 C 1129.8690752 191 1163 198.6111584 1163 208 C 1163 217.3888416 1129.8690752 225 1089 225 C 1048.1309248 225 1015 217.3888416 1015 208 Z" opacity="0.2"/></g><g transform="translate(-30,-38) scale(1,1)"><path fill="#ffffff" stroke="none" d="M 1008 201 C 1008 191.6111584 1041.1309248 184 1082 184 C 1122.8690752 184 1156 191.6111584 1156 201 C 1156 210.3888416 1122.8690752 218 1082 218 C 1041.1309248 218 1008 210.3888416 1008 201 Z"/></g><g transform="translate(-30,-38) scale(1,1)"><path fill="none" stroke="#000000" d="M 1008 201 C 1008 191.6111584 1041.1309248 184 1082 184 C 1122.8690752 184 1156 191.6111584 1156 201 C 1156 210.3888416 1122.8690752 218 1082 218 C 1041.1309248 218 1008 210.3888416 1008 201 Z" stroke-miterlimit="10"/></g><g transform="translate(-30,-38) scale(1,1)"><g><path fill="none" stroke="none"/><text fill="#000000" stroke="none" font-family="Arial" font-size="13px" font-style="normal" font-weight="bold" text-decoration="none" x="1034.313232421875" y="206.5">Delete schedue</text></g></g><g transform="translate(-30,-38) scale(1,1)"><path fill="#C0C0C0" stroke="none" d="M 951 296 C 951 286.6111584 988.1603616 279 1034 279 C 1079.8396384 279 1117 286.6111584 1117 296 C 1117 305.3888416 1079.8396384 313 1034 313 C 988.1603616 313 951 305.3888416 951 296 Z" opacity="0.2"/></g><g transform="translate(-30,-38) scale(1,1)"><path fill="#ffffff" stroke="none" d="M 944 289 C 944 279.6111584 981.1603616 272 1027 272 C 1072.8396384 272 1110 279.6111584 1110 289 C 1110 298.3888416 1072.8396384 306 1027 306 C 981.1603616 306 944 298.3888416 944 289 Z"/></g><g transform="translate(-30,-38) scale(1,1)"><path fill="none" stroke="#000000" d="M 944 289 C 944 279.6111584 981.1603616 272 1027 272 C 1072.8396384 272 1110 279.6111584 1110 289 C 1110 298.3888416 1072.8396384 306 1027 306 C 981.1603616 306 944 298.3888416 944 289 Z" stroke-miterlimit="10"/></g><g transform="translate(-30,-38) scale(1,1)"><g><path fill="none" stroke="none"/><text fill="#000000" stroke="none" font-family="Arial" font-size="13px" font-style="normal" font-weight="bold" text-decoration="none" x="972.81640625" y="294.5">Manage schedule</text></g></g><g transform="translate(-30,-38) scale(1,1)"><path fill="#C0C0C0" stroke="none" d="M 879 160 C 879 150.6111584 908.7730607999999 143 945.5 143 C 982.2269392000001 143 1012 150.6111584 1012 160 C 1012 169.3888416 982.2269392000001 177 945.5 177 C 908.7730607999999 177 879 169.3888416 879 160 Z" opacity="0.2"/></g><g transform="translate(-30,-38) scale(1,1)"><path fill="#ffffff" stroke="none" d="M 872 153 C 872 143.6111584 901.7730607999999 136 938.5 136 C 975.2269392000001 136 1005 143.6111584 1005 153 C 1005 162.3888416 975.2269392000001 170 938.5 170 C 901.7730607999999 170 872 162.3888416 872 153 Z"/></g><g transform="translate(-30,-38) scale(1,1)"><path fill="none" stroke="#000000" d="M 872 153 C 872 143.6111584 901.7730607999999 136 938.5 136 C 975.2269392000001 136 1005 143.6111584 1005 153 C 1005 162.3888416 975.2269392000001 170 938.5 170 C 901.7730607999999 170 872 162.3888416 872 153 Z" stroke-miterlimit="10"/></g><g transform="translate(-30,-38) scale(1,1)"><g><path fill="none" stroke="none"/><text fill="#000000" stroke="none" font-family="Arial" font-size="13px" font-style="normal" font-weight="bold" text-decoration="none" x="895.8818359375" y="158.5">Add schedule</text></g></g><g transform="translate(-30,-38) scale(1,1)"><path fill="#C0C0C0" stroke="none" d="M 159 672 C 159 662.6111584 212.50196640000001 655 278.5 655 C 344.4980336 655 398 662.6111584 398 672 C 398 681.3888416 344.4980336 689 278.5 689 C 212.50196640000001 689 159 681.3888416 159 672 Z" opacity="0.2"/></g><g transform="translate(-30,-38) scale(1,1)"><path fill="#ffffff" stroke="none" d="M 152 665 C 152 655.6111584 205.50196640000001 648 271.5 648 C 337.4980336 648 391 655.6111584 391 665 C 391 674.3888416 337.4980336 682 271.5 682 C 205.50196640000001 682 152 674.3888416 152 665 Z"/></g><g transform="translate(-30,-38) scale(1,1)"><path fill="none" stroke="#000000" d="M 152 665 C 152 655.6111584 205.50196640000001 648 271.5 648 C 337.4980336 648 391 655.6111584 391 665 C 391 674.3888416 337.4980336 682 271.5 682 C 205.50196640000001 682 152 674.3888416 152 665 Z" stroke-miterlimit="10"/></g><g transform="translate(-30,-38) scale(1,1)"><g><path fill="none" stroke="none"/><text fill="#000000" stroke="none" font-family="Arial" font-size="13px" font-style="normal" font-weight="bold" text-decoration="none" x="191.319580078125" y="670.5">Manage personal workout</text></g></g><g transform="translate(-30,-38) scale(1,1)"><path fill="#C0C0C0" stroke="none" d="M 391 888 C 391 878.6111584 437.11466559999997 871 494 871 C 550.8853344 871 597 878.6111584 597 888 C 597 897.3888416 550.8853344 905 494 905 C 437.11466559999997 905 391 897.3888416 391 888 Z" opacity="0.2"/></g><g transform="translate(-30,-38) scale(1,1)"><path fill="#ffffff" stroke="none" d="M 384 881 C 384 871.6111584 430.11466559999997 864 487 864 C 543.8853344 864 590 871.6111584 590 881 C 590 890.3888416 543.8853344 898 487 898 C 430.11466559999997 898 384 890.3888416 384 881 Z"/></g><g transform="translate(-30,-38) scale(1,1)"><path fill="none" stroke="#000000" d="M 384 881 C 384 871.6111584 430.11466559999997 864 487 864 C 543.8853344 864 590 871.6111584 590 881 C 590 890.3888416 543.8853344 898 487 898 C 430.11466559999997 898 384 890.3888416 384 881 Z" stroke-miterlimit="10"/></g><g transform="translate(-30,-38) scale(1,1)"><g><path fill="none" stroke="none"/><text fill="#000000" stroke="none" font-family="Arial" font-size="13px" font-style="normal" font-weight="bold" text-decoration="none" x="418.74365234375" y="886.5">Subscribe on workout</text></g></g><g transform="translate(-30,-38) scale(1,1)"><path fill="#C0C0C0" stroke="none" d="M 119 904 C 119 894.6111584 174.29282719999998 887 242.5 887 C 310.7071728 887 366 894.6111584 366 904 C 366 913.3888416 310.7071728 921 242.5 921 C 174.29282719999998 921 119 913.3888416 119 904 Z" opacity="0.2"/></g><g transform="translate(-30,-38) scale(1,1)"><path fill="#ffffff" stroke="none" d="M 112 897 C 112 887.6111584 167.29282719999998 880 235.5 880 C 303.7071728 880 359 887.6111584 359 897 C 359 906.3888416 303.7071728 914 235.5 914 C 167.29282719999998 914 112 906.3888416 112 897 Z"/></g><g transform="translate(-30,-38) scale(1,1)"><path fill="none" stroke="#000000" d="M 112 897 C 112 887.6111584 167.29282719999998 880 235.5 880 C 303.7071728 880 359 887.6111584 359 897 C 359 906.3888416 303.7071728 914 235.5 914 C 167.29282719999998 914 112 906.3888416 112 897 Z" stroke-miterlimit="10"/></g><g transform="translate(-30,-38) scale(1,1)"><g><path fill="none" stroke="none"/><text fill="#000000" stroke="none" font-family="Arial" font-size="13px" font-style="normal" font-weight="bold" text-decoration="none" x="152.79638671875" y="902.5">Unsubscribe from workout</text></g></g><g transform="translate(-30,-38) scale(1,1)"><path fill="none" stroke="#000000" d="M 663 648 L 392 660" stroke-miterlimit="10"/></g><g transform="translate(-30,-38) scale(1,1)"><path fill="#C0C0C0" stroke="none" d="M 343 416 C 343 406.6111584 377.0263552 399 419 399 C 460.9736448 399 495 406.6111584 495 416 C 495 425.3888416 460.9736448 433 419 433 C 377.0263552 433 343 425.3888416 343 416 Z" opacity="0.2"/></g><g transform="translate(-30,-38) scale(1,1)"><path fill="#ffffff" stroke="none" d="M 336 409 C 336 399.6111584 370.0263552 392 412 392 C 453.9736448 392 488 399.6111584 488 409 C 488 418.3888416 453.9736448 426 412 426 C 370.0263552 426 336 418.3888416 336 409 Z"/></g><g transform="translate(-30,-38) scale(1,1)"><path fill="none" stroke="#000000" d="M 336 409 C 336 399.6111584 370.0263552 392 412 392 C 453.9736448 392 488 399.6111584 488 409 C 488 418.3888416 453.9736448 426 412 426 C 370.0263552 426 336 418.3888416 336 409 Z" stroke-miterlimit="10"/></g><g transform="translate(-30,-38) scale(1,1)"><g><path fill="none" stroke="none"/><text fill="#000000" stroke="none" font-family="Arial" font-size="13px" font-style="normal" font-weight="bold" text-decoration="none" x="362.865966796875" y="414.5">Select schedule</text></g></g><g transform="translate(-30,-38) scale(1,1)"><path fill="none" stroke="#000000" d="M 607 492 L 454 427" stroke-miterlimit="10"/></g><g transform="translate(-30,-38) scale(1,1)"><path fill="#C0C0C0" stroke="none" d="M 287 336 C 287 326.6111584 309.8334752 319 338 319 C 366.1665248 319 389 326.6111584 389 336 C 389 345.3888416 366.1665248 353 338 353 C 309.8334752 353 287 345.3888416 287 336 Z" opacity="0.2"/></g><g transform="translate(-30,-38) scale(1,1)"><path fill="#ffffff" stroke="none" d="M 280 329 C 280 319.6111584 302.8334752 312 331 312 C 359.1665248 312 382 319.6111584 382 329 C 382 338.3888416 359.1665248 346 331 346 C 302.8334752 346 280 338.3888416 280 329 Z"/></g><g transform="translate(-30,-38) scale(1,1)"><path fill="none" stroke="#000000" d="M 280 329 C 280 319.6111584 302.8334752 312 331 312 C 359.1665248 312 382 319.6111584 382 329 C 382 338.3888416 359.1665248 346 331 346 C 302.8334752 346 280 338.3888416 280 329 Z" stroke-miterlimit="10"/></g><g transform="translate(-30,-38) scale(1,1)"><g><path fill="none" stroke="none"/><text fill="#000000" stroke="none" font-family="Arial" font-size="13px" font-style="normal" font-weight="bold" text-decoration="none" x="299.57275390625" y="334.5">Subscribe</text></g></g><g transform="translate(-30,-38) scale(1,1)"><path fill="#C0C0C0" stroke="none" d="M 439 328 C 439 318.6111584 466.7583424 311 501 311 C 535.2416576 311 563 318.6111584 563 328 C 563 337.3888416 535.2416576 345 501 345 C 466.7583424 345 439 337.3888416 439 328 Z" opacity="0.2"/></g><g transform="translate(-30,-38) scale(1,1)"><path fill="#ffffff" stroke="none" d="M 432 321 C 432 311.6111584 459.7583424 304 494 304 C 528.2416576 304 556 311.6111584 556 321 C 556 330.3888416 528.2416576 338 494 338 C 459.7583424 338 432 330.3888416 432 321 Z"/></g><g transform="translate(-30,-38) scale(1,1)"><path fill="none" stroke="#000000" d="M 432 321 C 432 311.6111584 459.7583424 304 494 304 C 528.2416576 304 556 311.6111584 556 321 C 556 330.3888416 528.2416576 338 494 338 C 459.7583424 338 432 330.3888416 432 321 Z" stroke-miterlimit="10"/></g><g transform="translate(-30,-38) scale(1,1)"><g><path fill="none" stroke="none"/><text fill="#000000" stroke="none" font-family="Arial" font-size="13px" font-style="normal" font-weight="bold" text-decoration="none" x="454.628662109375" y="326.5">Unsubscribe</text></g></g><g transform="translate(-30,-38) scale(1,1)"><path fill="#C0C0C0" stroke="none" d="M 71 608 C 71 598.6111584 98.9822 591 133.5 591 C 168.0178 591 196 598.6111584 196 608 C 196 617.3888416 168.0178 625 133.5 625 C 98.9822 625 71 617.3888416 71 608 Z" opacity="0.2"/></g><g transform="translate(-30,-38) scale(1,1)"><path fill="#ffffff" stroke="none" d="M 64 601 C 64 591.6111584 91.9822 584 126.5 584 C 161.0178 584 189 591.6111584 189 601 C 189 610.3888416 161.0178 618 126.5 618 C 91.9822 618 64 610.3888416 64 601 Z"/></g><g transform="translate(-30,-38) scale(1,1)"><path fill="none" stroke="#000000" d="M 64 601 C 64 591.6111584 91.9822 584 126.5 584 C 161.0178 584 189 591.6111584 189 601 C 189 610.3888416 161.0178 618 126.5 618 C 91.9822 618 64 610.3888416 64 601 Z" stroke-miterlimit="10"/></g><g transform="translate(-30,-38) scale(1,1)"><g><path fill="none" stroke="none"/><text fill="#000000" stroke="none" font-family="Arial" font-size="13px" font-style="normal" font-weight="bold" text-decoration="none" x="86.78271484375" y="606.5">Add workout</text></g></g><g transform="translate(-30,-38) scale(1,1)"><path fill="#C0C0C0" stroke="none" d="M 47 768 C 47 758.6111584 74.7583424 751 109 751 C 143.2416576 751 171 758.6111584 171 768 C 171 777.3888416 143.2416576 785 109 785 C 74.7583424 785 47 777.3888416 47 768 Z" opacity="0.2"/></g><g transform="translate(-30,-38) scale(1,1)"><path fill="#ffffff" stroke="none" d="M 40 761 C 40 751.6111584 67.7583424 744 102 744 C 136.2416576 744 164 751.6111584 164 761 C 164 770.3888416 136.2416576 778 102 778 C 67.7583424 778 40 770.3888416 40 761 Z"/></g><g transform="translate(-30,-38) scale(1,1)"><path fill="none" stroke="#000000" d="M 40 761 C 40 751.6111584 67.7583424 744 102 744 C 136.2416576 744 164 751.6111584 164 761 C 164 770.3888416 136.2416576 778 102 778 C 67.7583424 778 40 770.3888416 40 761 Z" stroke-miterlimit="10"/></g><g transform="translate(-30,-38) scale(1,1)"><g><path fill="none" stroke="none"/><text fill="#000000" stroke="none" font-family="Arial" font-size="13px" font-style="normal" font-weight="bold" text-decoration="none" x="62.641357421875" y="766.5">Edit workout</text></g></g><g transform="translate(-30,-38) scale(1,1)"><path fill="#C0C0C0" stroke="none" d="M 103 824 C 103 814.6111584 135.2354944 807 175 807 C 214.7645056 807 247 814.6111584 247 824 C 247 833.3888416 214.7645056 841 175 841 C 135.2354944 841 103 833.3888416 103 824 Z" opacity="0.2"/></g><g transform="translate(-30,-38) scale(1,1)"><path fill="#ffffff" stroke="none" d="M 96 817 C 96 807.6111584 128.2354944 800 168 800 C 207.7645056 800 240 807.6111584 240 817 C 240 826.3888416 207.7645056 834 168 834 C 128.2354944 834 96 826.3888416 96 817 Z"/></g><g transform="translate(-30,-38) scale(1,1)"><path fill="none" stroke="#000000" d="M 96 817 C 96 807.6111584 128.2354944 800 168 800 C 207.7645056 800 240 807.6111584 240 817 C 240 826.3888416 207.7645056 834 168 834 C 128.2354944 834 96 826.3888416 96 817 Z" stroke-miterlimit="10"/></g><g transform="translate(-30,-38) scale(1,1)"><g><path fill="none" stroke="none"/><text fill="#000000" stroke="none" font-family="Arial" font-size="13px" font-style="normal" font-weight="bold" text-decoration="none" x="121.408203125" y="822.5">Delete workout</text></g></g><g transform="translate(-30,-38) scale(1,1)"><path fill="#C0C0C0" stroke="none" d="M 367 752 C 367 742.6111584 396.3253456 735 432.5 735 C 468.6746544 735 498 742.6111584 498 752 C 498 761.3888416 468.6746544 769 432.5 769 C 396.3253456 769 367 761.3888416 367 752 Z" opacity="0.2"/></g><g transform="translate(-30,-38) scale(1,1)"><path fill="#ffffff" stroke="none" d="M 360 745 C 360 735.6111584 389.3253456 728 425.5 728 C 461.6746544 728 491 735.6111584 491 745 C 491 754.3888416 461.6746544 762 425.5 762 C 389.3253456 762 360 754.3888416 360 745 Z"/></g><g transform="translate(-30,-38) scale(1,1)"><path fill="none" stroke="#000000" d="M 360 745 C 360 735.6111584 389.3253456 728 425.5 728 C 461.6746544 728 491 735.6111584 491 745 C 491 754.3888416 461.6746544 762 425.5 762 C 389.3253456 762 360 754.3888416 360 745 Z" stroke-miterlimit="10"/></g><g transform="translate(-30,-38) scale(1,1)"><g><path fill="none" stroke="none"/><text fill="#000000" stroke="none" font-family="Arial" font-size="13px" font-style="normal" font-weight="bold" text-decoration="none" x="383.722900390625" y="750.5">View workout</text></g></g><g transform="translate(-30,-38) scale(1,1)"><path fill="none" stroke="#000000" d="M 451 727 L 743 521" stroke-miterlimit="10"/></g><g transform="translate(-30,-38) scale(1,1)"><path fill="none" stroke="#000000" d="M 607 533 L 440 727" stroke-miterlimit="10"/></g><g transform="translate(-30,-38) scale(1,1)"><path fill="none" stroke="#000000" d="M 433 763 L 479 863" stroke-miterlimit="10" stroke-dasharray="3"/></g><g transform="translate(-30,-38) scale(1,1)"><path fill="none" stroke="#000000" d="M 470.9286544906376 855.5264879963637 L 479 863 L 478.5772678740805 852.00812583998" stroke-miterlimit="10"/></g><g transform="translate(-30,-38) scale(1,1)"><g><path fill="none" stroke="none"/><text fill="#000000" stroke="none" font-family="Arial" font-size="13px" font-style="normal" font-weight="normal" text-decoration="none" x="464.5" y="816">«extend»</text></g></g><g transform="translate(-30,-38) scale(1,1)"><path fill="none" stroke="#000000" d="M 403 763 L 258 879" stroke-miterlimit="10" stroke-dasharray="3"/></g><g transform="translate(-30,-38) scale(1,1)"><path fill="none" stroke="#000000" d="M 263.306050922054 869.3643462280668 L 258 879 L 268.5653807116052 875.9385084650058" stroke-miterlimit="10"/></g><g transform="translate(-30,-38) scale(1,1)"><g><path fill="none" stroke="none"/><text fill="#000000" stroke="none" font-family="Arial" font-size="13px" font-style="normal" font-weight="normal" text-decoration="none" x="281.5" y="816">«extend»</text></g></g><g transform="translate(-30,-38) scale(1,1)"><path fill="none" stroke="#000000" d="M 644 775 L 675 688" stroke-miterlimit="10"/></g><g transform="translate(-30,-38) scale(1,1)"><path fill="none" stroke="#000000" d="M 306 683 L 390 727" stroke-miterlimit="10" stroke-dasharray="3"/></g><g transform="translate(-30,-38) scale(1,1)"><path fill="none" stroke="#000000" d="M 379.04433644533646 726.0133713581005 L 390 727 L 382.95082781129906 718.555524204899" stroke-miterlimit="10"/></g><g transform="translate(-30,-38) scale(1,1)"><g><path fill="none" stroke="none"/><text fill="#000000" stroke="none" font-family="Arial" font-size="13px" font-style="normal" font-weight="normal" text-decoration="none" x="294.5" y="721">«include»</text></g></g><g transform="translate(-30,-38) scale(1,1)"><path fill="none" stroke="#000000" d="M 259 683 L 180 799" stroke-miterlimit="10" stroke-dasharray="3"/></g><g transform="translate(-30,-38) scale(1,1)"><path fill="none" stroke="#000000" d="M 182.24122705162108 788.2307427692026 L 180 799 L 189.1998016626191 792.9697720301409" stroke-miterlimit="10"/></g><g transform="translate(-30,-38) scale(1,1)"><g><path fill="none" stroke="none"/><text fill="#000000" stroke="none" font-family="Arial" font-size="13px" font-style="normal" font-weight="normal" text-decoration="none" x="215.5" y="762">«include»</text></g></g><g transform="translate(-30,-38) scale(1,1)"><path fill="none" stroke="#000000" d="M 239 683 L 134 743" stroke-miterlimit="10" stroke-dasharray="3"/></g><g transform="translate(-30,-38) scale(1,1)"><path fill="none" stroke="#000000" d="M 140.73516708030883 734.3030163619607 L 134 743 L 144.91217842123686 741.6127862085847" stroke-miterlimit="10"/></g><g transform="translate(-30,-38) scale(1,1)"><g><path fill="none" stroke="none"/><text fill="#000000" stroke="none" font-family="Arial" font-size="13px" font-style="normal" font-weight="normal" text-decoration="none" x="172.5" y="743">«include»</text></g></g><g transform="translate(-30,-38) scale(1,1)"><path fill="none" stroke="#000000" d="M 230 647 L 167 619" stroke-miterlimit="10" stroke-dasharray="3"/></g><g transform="translate(-30,-38) scale(1,1)"><path fill="none" stroke="#000000" d="M 177.99641673402277 619.280747238106 L 167 619 L 174.5771225655166 626.9741591172449" stroke-miterlimit="10"/></g><g transform="translate(-30,-38) scale(1,1)"><g><path fill="none" stroke="none"/><text fill="#000000" stroke="none" font-family="Arial" font-size="13px" font-style="normal" font-weight="normal" text-decoration="none" x="191.5" y="627">«include»</text></g></g><g transform="translate(-30,-38) scale(1,1)"><path fill="none" stroke="#000000" d="M 711 967 L 639 950" stroke-miterlimit="10" stroke-dasharray="3"/></g><g transform="translate(-30,-38) scale(1,1)"><path fill="none" stroke="#000000" d="M 649.858034014028 948.23843894508 L 639 950 L 647.9234012490815 956.4321777142653" stroke-miterlimit="10"/></g><g transform="translate(-30,-38) scale(1,1)"><g><path fill="none" stroke="none"/><text fill="#000000" stroke="none" font-family="Arial" font-size="13px" font-style="normal" font-weight="normal" text-decoration="none" x="663.5" y="947">«include»</text></g></g><g transform="translate(-30,-38) scale(1,1)"><path fill="none" stroke="#000000" d="M 716 1003 L 654 1019" stroke-miterlimit="10" stroke-dasharray="3"/></g><g transform="translate(-30,-38) scale(1,1)"><path fill="none" stroke="#000000" d="M 662.7884216549585 1012.3845903517124 L 654 1019 L 664.892153570779 1020.5365515255168" stroke-miterlimit="10"/></g><g transform="translate(-30,-38) scale(1,1)"><g><path fill="none" stroke="none"/><text fill="#000000" stroke="none" font-family="Arial" font-size="13px" font-style="normal" font-weight="normal" text-decoration="none" x="664.5" y="1045">«include»</text></g></g><g transform="translate(-30,-38) scale(1,1)"><path fill="none" stroke="#000000" d="M 775 1003 L 741 1071" stroke-miterlimit="10" stroke-dasharray="3"/></g><g transform="translate(-30,-38) scale(1,1)"><path fill="none" stroke="#000000" d="M 741.7797792209975 1060.0276737030608 L 741 1071 L 749.3099935049528 1063.7927808450386" stroke-miterlimit="10"/></g><g transform="translate(-30,-38) scale(1,1)"><g><path fill="none" stroke="none"/><text fill="#000000" stroke="none" font-family="Arial" font-size="13px" font-style="normal" font-weight="normal" text-decoration="none" x="756.5" y="1055">«include»</text></g></g><g transform="translate(-30,-38) scale(1,1)"><path fill="none" stroke="#000000" d="M 1199 659 L 1294 743" stroke-miterlimit="10" stroke-dasharray="3"/></g><g transform="translate(-30,-38) scale(1,1)"><path fill="none" stroke="#000000" d="M 1283.5982618075684 739.4217542599605 L 1294 743 L 1289.1750622155384 733.1146585604707" stroke-miterlimit="10"/></g><g transform="translate(-30,-38) scale(1,1)"><g><path fill="none" stroke="none"/><text fill="#000000" stroke="none" font-family="Arial" font-size="13px" font-style="normal" font-weight="normal" text-decoration="none" x="1237.5" y="683">«include»</text></g></g><g transform="translate(-30,-38) scale(1,1)"><path fill="none" stroke="#000000" d="M 1247 645 L 1383 654" stroke-miterlimit="10" stroke-dasharray="3"/></g><g transform="translate(-30,-38) scale(1,1)"><path fill="none" stroke="#000000" d="M 1372.5815421005807 657.5292683374926 L 1383 654 L 1373.1374681957461 649.128607343882" stroke-miterlimit="10"/></g><g transform="translate(-30,-38) scale(1,1)"><g><path fill="none" stroke="none"/><text fill="#000000" stroke="none" font-family="Arial" font-size="13px" font-style="normal" font-weight="normal" text-decoration="none" x="1289.5" y="624">«include»</text></g></g><g transform="translate(-30,-38) scale(1,1)"><path fill="none" stroke="#000000" d="M 1207 623 L 1300 563" stroke-miterlimit="10" stroke-dasharray="3"/></g><g transform="translate(-30,-38) scale(1,1)"><path fill="none" stroke="#000000" d="M 1293.7424310646752 572.0467027706042 L 1300 563 L 1289.1782456956162 564.9722154485628" stroke-miterlimit="10"/></g><g transform="translate(-30,-38) scale(1,1)"><g><path fill="none" stroke="none"/><text fill="#000000" stroke="none" font-family="Arial" font-size="13px" font-style="normal" font-weight="normal" text-decoration="none" x="1207.5" y="570">«include»</text></g></g><g transform="translate(-30,-38) scale(1,1)"><path fill="none" stroke="#000000" d="M 1174 623 L 1143 515" stroke-miterlimit="10" stroke-dasharray="3"/></g><g transform="translate(-30,-38) scale(1,1)"><path fill="none" stroke="#000000" d="M 1149.8499805548963 523.6068441601752 L 1143 515 L 1141.7577098310874 525.9296255716389" stroke-miterlimit="10"/></g><g transform="translate(-30,-38) scale(1,1)"><g><path fill="none" stroke="none"/><text fill="#000000" stroke="none" font-family="Arial" font-size="13px" font-style="normal" font-weight="normal" text-decoration="none" x="1095.5" y="575">«include»</text></g></g><g transform="translate(-30,-38) scale(1,1)"><path fill="none" stroke="#000000" d="M 965 939 L 924 1079" stroke-miterlimit="10" stroke-dasharray="3"/></g><g transform="translate(-30,-38) scale(1,1)"><path fill="none" stroke="#000000" d="M 922.8164058621664 1068.0638624315125 L 924 1079 L 930.8960895936318 1070.4300555242987" stroke-miterlimit="10"/></g><g transform="translate(-30,-38) scale(1,1)"><g><path fill="none" stroke="none"/><text fill="#000000" stroke="none" font-family="Arial" font-size="13px" font-style="normal" font-weight="normal" text-decoration="none" x="944.5" y="1022">«include»</text></g></g><g transform="translate(-30,-38) scale(1,1)"><path fill="none" stroke="#000000" d="M 983 903 L 1077 771" stroke-miterlimit="10" stroke-dasharray="3"/></g><g transform="translate(-30,-38) scale(1,1)"><path fill="none" stroke="#000000" d="M 1074.5338683512357 781.7199904240146 L 1077 771 L 1067.6760036647845 776.8363595109356" stroke-miterlimit="10"/></g><g transform="translate(-30,-38) scale(1,1)"><g><path fill="none" stroke="none"/><text fill="#000000" stroke="none" font-family="Arial" font-size="13px" font-style="normal" font-weight="normal" text-decoration="none" x="1055.5" y="808">«include»</text></g></g><g transform="translate(-30,-38) scale(1,1)"><path fill="none" stroke="#000000" d="M 1027 939 L 1191 991" stroke-miterlimit="10" stroke-dasharray="3"/></g><g transform="translate(-30,-38) scale(1,1)"><path fill="none" stroke="#000000" d="M 1180.0403260663297 991.9410352106217 L 1191 991 L 1182.5849278631424 983.9157526206743" stroke-miterlimit="10"/></g><g transform="translate(-30,-38) scale(1,1)"><g><path fill="none" stroke="none"/><text fill="#000000" stroke="none" font-family="Arial" font-size="13px" font-style="normal" font-weight="normal" text-decoration="none" x="1090.5" y="941">«include»</text></g></g><g transform="translate(-30,-38) scale(1,1)"><path fill="none" stroke="#000000" d="M 987 939 L 1117 1079" stroke-miterlimit="10" stroke-dasharray="3"/></g><g transform="translate(-30,-38) scale(1,1)"><path fill="none" stroke="#000000" d="M 1107.0000895061237 1074.417228991706 L 1117 1079 L 1113.1695039351114 1068.6884870219317" stroke-miterlimit="10"/></g><g transform="translate(-30,-38) scale(1,1)"><g><path fill="none" stroke="none"/><text fill="#000000" stroke="none" font-family="Arial" font-size="13px" font-style="normal" font-weight="normal" text-decoration="none" x="1045.5" y="993">«include»</text></g></g><g transform="translate(-30,-38) scale(1,1)"><path fill="none" stroke="#000000" d="M 941 515 L 1079 735" stroke-miterlimit="10" stroke-dasharray="3"/></g><g transform="translate(-30,-38) scale(1,1)"><path fill="none" stroke="#000000" d="M 1070.0337135528453 728.6277392279061 L 1079 735 L 1077.1657468545925 724.1540092477192" stroke-miterlimit="10"/></g><g transform="translate(-30,-38) scale(1,1)"><g><path fill="none" stroke="none"/><text fill="#000000" stroke="none" font-family="Arial" font-size="13px" font-style="normal" font-weight="normal" text-decoration="none" x="1007.5" y="614">«include»</text></g></g><g transform="translate(-30,-38) scale(1,1)"><path fill="none" stroke="#000000" d="M 943 479 L 976 435" stroke-miterlimit="10" stroke-dasharray="3"/></g><g transform="translate(-30,-38) scale(1,1)"><path fill="none" stroke="#000000" d="M 973.2700092902382 445.6558505397089 L 976 435 L 966.5347808806127 440.60442923248974" stroke-miterlimit="10"/></g><g transform="translate(-30,-38) scale(1,1)"><g><path fill="none" stroke="none"/><text fill="#000000" stroke="none" font-family="Arial" font-size="13px" font-style="normal" font-weight="normal" text-decoration="none" x="898.5" y="452">«include»</text></g></g><g transform="translate(-30,-38) scale(1,1)"><path fill="none" stroke="#000000" d="M 1015 271 L 950 171" stroke-miterlimit="10" stroke-dasharray="3"/></g><g transform="translate(-30,-38) scale(1,1)"><path fill="none" stroke="#000000" d="M 959.0679826985298 177.2266917202607 L 950 171 L 952.0090961180583 181.8149679975672" stroke-miterlimit="10"/></g><g transform="translate(-30,-38) scale(1,1)"><g><path fill="none" stroke="none"/><text fill="#000000" stroke="none" font-family="Arial" font-size="13px" font-style="normal" font-weight="normal" text-decoration="none" x="933.5" y="221">«include»</text></g></g><g transform="translate(-30,-38) scale(1,1)"><path fill="none" stroke="#000000" d="M 1022 307 L 994 399" stroke-miterlimit="10" stroke-dasharray="3"/></g><g transform="translate(-30,-38) scale(1,1)"><path fill="none" stroke="#000000" d="M 992.931845145838 388.0519844169123 L 994 399 L 1000.986116518602 390.50328439992745" stroke-miterlimit="10"/></g><g transform="translate(-30,-38) scale(1,1)"><g><path fill="none" stroke="none"/><text fill="#000000" stroke="none" font-family="Arial" font-size="13px" font-style="normal" font-weight="normal" text-decoration="none" x="999.5" y="351">«include»</text></g></g><g transform="translate(-30,-38) scale(1,1)"><path fill="none" stroke="#000000" d="M 1038 271 L 1071 219" stroke-miterlimit="10" stroke-dasharray="3"/></g><g transform="translate(-30,-38) scale(1,1)"><path fill="none" stroke="#000000" d="M 1069.108810124427 229.83620786320245 L 1071 219 L 1062.0003707520536 225.3250828768885" stroke-miterlimit="10"/></g><g transform="translate(-30,-38) scale(1,1)"><g><path fill="none" stroke="none"/><text fill="#000000" stroke="none" font-family="Arial" font-size="13px" font-style="normal" font-weight="normal" text-decoration="none" x="1000.5" y="233">«include»</text></g></g><g transform="translate(-30,-38) scale(1,1)"><path fill="none" stroke="#000000" d="M 1099 307 L 1119 312" stroke-miterlimit="10" stroke-dasharray="3"/></g><g transform="translate(-30,-38) scale(1,1)"><path fill="none" stroke="#000000" d="M 1108.1197991854035 313.61902138159263 L 1119 312 L 1110.1617152255174 305.4513572211376" stroke-miterlimit="10"/></g><g transform="translate(-30,-38) scale(1,1)"><g><path fill="none" stroke="none"/><text fill="#000000" stroke="none" font-family="Arial" font-size="13px" font-style="normal" font-weight="normal" text-decoration="none" x="1119.5" y="299">«include»</text></g></g><g transform="translate(-30,-38) scale(1,1)"><path fill="none" stroke="#000000" d="M 429 391 L 477 339" stroke-miterlimit="10" stroke-dasharray="3"/></g><g transform="translate(-30,-38) scale(1,1)"><path fill="none" stroke="#000000" d="M 473.20002800086905 349.32280062801857 L 477 339 L 467.0136917061868 343.6123363560042" stroke-miterlimit="10"/></g><g transform="translate(-30,-38) scale(1,1)"><g><path fill="none" stroke="none"/><text fill="#000000" stroke="none" font-family="Arial" font-size="13px" font-style="normal" font-weight="normal" text-decoration="none" x="402.5" y="349">«include»</text></g></g><g transform="translate(-30,-38) scale(1,1)"><path fill="none" stroke="#000000" d="M 394 391 L 349 347" stroke-miterlimit="10" stroke-dasharray="3"/></g><g transform="translate(-30,-38) scale(1,1)"><path fill="none" stroke="#000000" d="M 359.20932838334 351.09507191159423 L 349 347 L 353.3234322130852 357.11473844935483" stroke-miterlimit="10"/></g><g transform="translate(-30,-38) scale(1,1)"><g><path fill="none" stroke="none"/><text fill="#000000" stroke="none" font-family="Arial" font-size="13px" font-style="normal" font-weight="normal" text-decoration="none" x="321.5" y="395">«include»</text></g></g><g transform="translate(-30,-38) scale(1,1)"><path fill="#C0C0C0" stroke="none" d="M 519 208 C 519 198.6111584 553.9217856 191 597 191 C 640.0782144 191 675 198.6111584 675 208 C 675 217.3888416 640.0782144 225 597 225 C 553.9217856 225 519 217.3888416 519 208 Z" opacity="0.2"/></g><g transform="translate(-30,-38) scale(1,1)"><path fill="#ffffff" stroke="none" d="M 512 201 C 512 191.6111584 546.9217856 184 590 184 C 633.0782144 184 668 191.6111584 668 201 C 668 210.3888416 633.0782144 218 590 218 C 546.9217856 218 512 210.3888416 512 201 Z"/></g><g transform="translate(-30,-38) scale(1,1)"><path fill="none" stroke="#000000" d="M 512 201 C 512 191.6111584 546.9217856 184 590 184 C 633.0782144 184 668 191.6111584 668 201 C 668 210.3888416 633.0782144 218 590 218 C 546.9217856 218 512 210.3888416 512 201 Z" stroke-miterlimit="10"/></g><g transform="translate(-30,-38) scale(1,1)"><g><path fill="none" stroke="none"/><text fill="#000000" stroke="none" font-family="Arial" font-size="13px" font-style="normal" font-weight="bold" text-decoration="none" x="541.970458984375" y="206.5">Entering profile</text></g></g><g transform="translate(-30,-38) scale(1,1)"><path fill="#C0C0C0" stroke="none" d="M 391 88 C 391 78.6111584 415.4004784 71 445.5 71 C 475.5995216 71 500 78.6111584 500 88 C 500 97.3888416 475.5995216 105 445.5 105 C 415.4004784 105 391 97.3888416 391 88 Z" opacity="0.2"/></g><g transform="translate(-30,-38) scale(1,1)"><path fill="#ffffff" stroke="none" d="M 384 81 C 384 71.6111584 408.4004784 64 438.5 64 C 468.5995216 64 493 71.6111584 493 81 C 493 90.3888416 468.5995216 98 438.5 98 C 408.4004784 98 384 90.3888416 384 81 Z"/></g><g transform="translate(-30,-38) scale(1,1)"><path fill="none" stroke="#000000" d="M 384 81 C 384 71.6111584 408.4004784 64 438.5 64 C 468.5995216 64 493 71.6111584 493 81 C 493 90.3888416 468.5995216 98 438.5 98 C 408.4004784 98 384 90.3888416 384 81 Z" stroke-miterlimit="10"/></g><g transform="translate(-30,-38) scale(1,1)"><g><path fill="none" stroke="none"/><text fill="#000000" stroke="none" font-family="Arial" font-size="13px" font-style="normal" font-weight="bold" text-decoration="none" x="404.555908203125" y="86.5">Edit profile</text></g></g><g transform="translate(-30,-38) scale(1,1)"><path fill="none" stroke="#000000" d="M 461 99 L 567 183" stroke-miterlimit="10" stroke-dasharray="3"/></g><g transform="translate(-30,-38) scale(1,1)"><path fill="none" stroke="#000000" d="M 556.4205913029409 179.9873414364401 L 567 183 L 561.6494996690585 173.38895706967267" stroke-miterlimit="10"/></g><g transform="translate(-30,-38) scale(1,1)"><g><path fill="none" stroke="none"/><text fill="#000000" stroke="none" font-family="Arial" font-size="13px" font-style="normal" font-weight="normal" text-decoration="none" x="505.5" y="122">«extend»</text></g></g><g transform="translate(-30,-38) scale(1,1)"><path fill="#C0C0C0" stroke="none" d="M 367 176 C 367 166.6111584 389.6096176 159 417.5 159 C 445.3903824 159 468 166.6111584 468 176 C 468 185.3888416 445.3903824 193 417.5 193 C 389.6096176 193 367 185.3888416 367 176 Z" opacity="0.2"/></g><g transform="translate(-30,-38) scale(1,1)"><path fill="#ffffff" stroke="none" d="M 360 169 C 360 159.6111584 382.6096176 152 410.5 152 C 438.3903824 152 461 159.6111584 461 169 C 461 178.3888416 438.3903824 186 410.5 186 C 382.6096176 186 360 178.3888416 360 169 Z"/></g><g transform="translate(-30,-38) scale(1,1)"><path fill="none" stroke="#000000" d="M 360 169 C 360 159.6111584 382.6096176 152 410.5 152 C 438.3903824 152 461 159.6111584 461 169 C 461 178.3888416 438.3903824 186 410.5 186 C 382.6096176 186 360 178.3888416 360 169 Z" stroke-miterlimit="10"/></g><g transform="translate(-30,-38) scale(1,1)"><g><path fill="none" stroke="none"/><text fill="#000000" stroke="none" font-family="Arial" font-size="13px" font-style="normal" font-weight="bold" text-decoration="none" x="388.483154296875" y="174.5">Logout</text></g></g><g transform="translate(-30,-38) scale(1,1)"><path fill="none" stroke="#000000" d="M 462 178 L 511 187" stroke-miterlimit="10" stroke-dasharray="3"/></g><g transform="translate(-30,-38) scale(1,1)"><path fill="none" stroke="#000000" d="M 500.24407415997285 189.30435659650064 L 511 187 L 501.76498572491965 181.02383807623474" stroke-miterlimit="10"/></g><g transform="translate(-30,-38) scale(1,1)"><g><path fill="none" stroke="none"/><text fill="#000000" stroke="none" font-family="Arial" font-size="13px" font-style="normal" font-weight="normal" text-decoration="none" x="438.5" y="199">«extend»</text></g></g><g transform="translate(-30,-38) scale(1,1)"><path fill="#C0C0C0" stroke="none" d="M 807 72 C 807 62.6111584 829.6096176 55 857.5 55 C 885.3903824 55 908 62.6111584 908 72 C 908 81.3888416 885.3903824 89 857.5 89 C 829.6096176 89 807 81.3888416 807 72 Z" opacity="0.2"/></g><g transform="translate(-30,-38) scale(1,1)"><path fill="#ffffff" stroke="none" d="M 800 65 C 800 55.6111584 822.6096176 48 850.5 48 C 878.3903824 48 901 55.6111584 901 65 C 901 74.3888416 878.3903824 82 850.5 82 C 822.6096176 82 800 74.3888416 800 65 Z"/></g><g transform="translate(-30,-38) scale(1,1)"><path fill="none" stroke="#000000" d="M 800 65 C 800 55.6111584 822.6096176 48 850.5 48 C 878.3903824 48 901 55.6111584 901 65 C 901 74.3888416 878.3903824 82 850.5 82 C 822.6096176 82 800 74.3888416 800 65 Z" stroke-miterlimit="10"/></g><g transform="translate(-30,-38) scale(1,1)"><g><path fill="none" stroke="none"/><text fill="#000000" stroke="none" font-family="Arial" font-size="13px" font-style="normal" font-weight="bold" text-decoration="none" x="832.812255859375" y="70.5">Login</text></g></g><g transform="translate(-30,-38) scale(1,1)"><path fill="#C0C0C0" stroke="none" d="M 703 216 C 703 206.6111584 725.6096176 199 753.5 199 C 781.3903824 199 804 206.6111584 804 216 C 804 225.3888416 781.3903824 233 753.5 233 C 725.6096176 233 703 225.3888416 703 216 Z" opacity="0.2"/></g><g transform="translate(-30,-38) scale(1,1)"><path fill="#ffffff" stroke="none" d="M 696 209 C 696 199.6111584 718.6096176 192 746.5 192 C 774.3903824 192 797 199.6111584 797 209 C 797 218.3888416 774.3903824 226 746.5 226 C 718.6096176 226 696 218.3888416 696 209 Z"/></g><g transform="translate(-30,-38) scale(1,1)"><path fill="none" stroke="#000000" d="M 696 209 C 696 199.6111584 718.6096176 192 746.5 192 C 774.3903824 192 797 199.6111584 797 209 C 797 218.3888416 774.3903824 226 746.5 226 C 718.6096176 226 696 218.3888416 696 209 Z" stroke-miterlimit="10"/></g><g transform="translate(-30,-38) scale(1,1)"><g><path fill="none" stroke="none"/><text fill="#000000" stroke="none" font-family="Arial" font-size="13px" font-style="normal" font-weight="bold" text-decoration="none" x="720.490478515625" y="214.5">Register</text></g></g><g transform="translate(-30,-38) scale(1,1)"><path fill="none" stroke="#000000" d="M 751 327 L 747 227" stroke-miterlimit="10"/></g><g transform="translate(-30,-38) scale(1,1)"><path fill="none" stroke="#000000" d="M 759 191 L 837 83" stroke-miterlimit="10" stroke-dasharray="3"/></g><g transform="translate(-30,-38) scale(1,1)"><path fill="none" stroke="#000000" d="M 834.4624184754522 93.70330229444508 L 837 83 L 827.6372812626869 88.77403652967016" stroke-miterlimit="10"/></g><g transform="translate(-30,-38) scale(1,1)"><g><path fill="none" stroke="none"/><text fill="#000000" stroke="none" font-family="Arial" font-size="13px" font-style="normal" font-weight="normal" text-decoration="none" x="781.5" y="169">«include»</text></g></g><g transform="translate(-30,-38) scale(1,1)"><path fill="none" stroke="#000000" d="M 593 219 L 627 463" stroke-miterlimit="10"/></g><g transform="translate(-30,-38) scale(1,1)"><path fill="none" stroke="#000000" d="M 778 327 L 848 216 L 850 83" stroke-miterlimit="10"/></g><g transform="translate(-30,-38) scale(1,1)"><path fill="none" stroke="#000000" d="M 745 463 L 601 219" stroke-miterlimit="10"/></g><g transform="translate(-30,-38) scale(1,1)"><path fill="none" stroke="#000000" d="M 795 481 L 1005 307" stroke-miterlimit="10"/></g><g transform="translate(-30,-38) scale(1,1)"><path fill="none" stroke="#000000" d="M 982 497 L 1087 497" stroke-miterlimit="10" stroke-dasharray="3"/></g><g transform="translate(-30,-38) scale(1,1)"><path fill="none" stroke="#000000" d="M 1076.837325142376 501.209517756016 L 1087 497 L 1076.837325142376 492.790482243984" stroke-miterlimit="10"/></g><g transform="translate(-30,-38) scale(1,1)"><g><path fill="none" stroke="none"/><text fill="#000000" stroke="none" font-family="Arial" font-size="13px" font-style="normal" font-weight="normal" text-decoration="none" x="1007.5" y="491">«include»</text></g></g><g transform="translate(-30,-38) scale(1,1)"><path fill="#C0C0C0" stroke="none" d="M 607 120 C 607 110.6111584 641.4740704 103 684 103 C 726.5259296 103 761 110.6111584 761 120 C 761 129.3888416 726.5259296 137 684 137 C 641.4740704 137 607 129.3888416 607 120 Z" opacity="0.2"/></g><g transform="translate(-30,-38) scale(1,1)"><path fill="#ffffff" stroke="none" d="M 600 113 C 600 103.6111584 634.4740704 96 677 96 C 719.5259296 96 754 103.6111584 754 113 C 754 122.3888416 719.5259296 130 677 130 C 634.4740704 130 600 122.3888416 600 113 Z"/></g><g transform="translate(-30,-38) scale(1,1)"><path fill="none" stroke="#000000" d="M 600 113 C 600 103.6111584 634.4740704 96 677 96 C 719.5259296 96 754 103.6111584 754 113 C 754 122.3888416 719.5259296 130 677 130 C 634.4740704 130 600 122.3888416 600 113 Z" stroke-miterlimit="10"/></g><g transform="translate(-30,-38) scale(1,1)"><g><path fill="none" stroke="none"/><text fill="#000000" stroke="none" font-family="Arial" font-size="13px" font-style="normal" font-weight="bold" text-decoration="none" x="627.148681640625" y="118.5">Reset password</text></g></g><g transform="translate(-30,-38) scale(1,1)"><path fill="none" stroke="#000000" d="M 742 95 L 799 79" stroke-miterlimit="10" stroke-dasharray="3"/></g><g transform="translate(-30,-38) scale(1,1)"><path fill="none" stroke="#000000" d="M 790.3531437103657 85.79940264335121 L 799 79 L 788.0778455645227 77.69365299878541" stroke-miterlimit="10"/></g><g transform="translate(-30,-38) scale(1,1)"><g><path fill="none" stroke="none"/><text fill="#000000" stroke="none" font-family="Arial" font-size="13px" font-style="normal" font-weight="normal" text-decoration="none" x="735.5" y="63">«extend»</text></g></g><g transform="translate(-30,-38) scale(1,1)"><path fill="none" stroke="#000000" d="M 887 647 L 815 647" stroke-miterlimit="10"/></g><g transform="translate(-30,-38) scale(1,1)"><path fill="#FFFFFF" stroke="none" d="M 835.3253497152483 638.580964487968 L 815 647 L 835.3253497152483 655.419035512032"/></g><g transform="translate(-30,-38) scale(1,1)"><path fill="none" stroke="#000000" d="M 835.3253497152483 638.580964487968 L 815 647 L 835.3253497152483 655.419035512032 L 835.3253497152483 638.580964487968" stroke-miterlimit="10"/></g><g transform="translate(-30,-38) scale(1,1)"><path fill="none" stroke="#000000" d="M 939 646 L 1111 643" stroke-miterlimit="10"/></g></g></svg>