<svg version="1.1" xmlns="http://www.w3.org/2000/svg" xmlns:xlink="http://www.w3.org/1999/xlink" width="1036" height="2684"><defs/><g><g transform="translate(-6,2) scale(1,1)"><path fill="none" stroke="#000000" d="M 16 8 L 1032 8 L 1032 2672 L 16 2672 L 16 8" stroke-miterlimit="10"/></g><g transform="translate(-6,2) scale(1,1)"><path fill="#ffffff" stroke="none" d="M 16 8 L 16 30 L 204.71337890625 30 L 215.71337890625 19 L 215.71337890625 8 L 16 8"/></g><g transform="translate(-6,2) scale(1,1)"><path fill="none" stroke="#000000" d="M 16 8 L 16 30 L 204.71337890625 30 L 215.71337890625 19 L 215.71337890625 8 L 16 8 L 16 8" stroke-miterlimit="10"/></g><g transform="translate(-6,2) scale(1,1)"><g><path fill="none" stroke="none"/><text fill="#000000" stroke="none" font-family="Arial" font-size="13px" font-style="normal" font-weight="normal" text-decoration="none" x="40.72998046875" y="24">ManagerSequenceDiagram</text></g></g><g transform="translate(-6,2) scale(1,1)"><g><path fill="none" stroke="none"/><text fill="#000000" stroke="none" font-family="Arial" font-size="13px" font-style="normal" font-weight="bold" text-decoration="none" x="20.279541015625" y="24">sd</text></g></g><g transform="translate(-6,2) scale(1,1)"><path fill="#ffffff" stroke="none" d="M 95.5013290127841 47.3 C 95.5013290127841 43.82060576 98.37973073496592 41 101.930419921875 41 C 105.48110910878408 41 108.3595108309659 43.82060576 108.3595108309659 47.3 C 108.3595108309659 50.779394239999995 105.48110910878408 53.6 101.930419921875 53.6 C 98.37973073496592 53.6 95.5013290127841 50.779394239999995 95.5013290127841 47.3 Z"/></g><g transform="translate(-6,2) scale(1,1)"><path fill="none" stroke="#000000" d="M 95.5013290127841 47.3 C 95.5013290127841 43.82060576 98.37973073496592 41 101.930419921875 41 C 105.48110910878408 41 108.3595108309659 43.82060576 108.3595108309659 47.3 C 108.3595108309659 50.779394239999995 105.48110910878408 53.6 101.930419921875 53.6 C 98.37973073496592 53.6 95.5013290127841 50.779394239999995 95.5013290127841 47.3 Z" stroke-miterlimit="10"/></g><g transform="translate(-6,2) scale(1,1)"><path fill="none" stroke="#000000" d="M 101.930419921875 53.6 L 101.930419921875 66.4" stroke-miterlimit="10"/></g><g transform="translate(-6,2) scale(1,1)"><path fill="none" stroke="#000000" d="M 95.12314719460227 58.4 L 108.73769264914773 58.4" stroke-miterlimit="10"/></g><g transform="translate(-6,2) scale(1,1)"><path fill="none" stroke="#000000" d="M 101.930419921875 66.4 L 92.47587446732955 79" stroke-miterlimit="10"/></g><g transform="translate(-6,2) scale(1,1)"><path fill="none" stroke="#000000" d="M 101.930419921875 66.4 L 111.38496537642045 79" stroke-miterlimit="10"/></g><g transform="translate(-6,2) scale(1,1)"><g><path fill="none" stroke="none"/><text fill="#000000" stroke="none" font-family="Arial" font-size="13px" font-style="normal" font-weight="bold" text-decoration="none" x="44.5" y="98">Manager: Manager</text></g></g><g transform="translate(-6,2) scale(1,1)"><path fill="none" stroke="#000000" d="M 102.5 105 L 102.5 2664" stroke-miterlimit="10" stroke-dasharray="3"/></g><g transform="translate(-6,2) scale(1,1)"><path fill="none" stroke="#000000" d="M 637.239501953125 60 C 637.239501953125 51.715728 643.955229953125 45 652.239501953125 45 C 660.523773953125 45 667.239501953125 51.715728 667.239501953125 60 C 667.239501953125 68.284272 660.523773953125 75 652.239501953125 75 C 643.955229953125 75 637.239501953125 68.284272 637.239501953125 60 Z" stroke-miterlimit="10"/></g><g transform="translate(-6,2) scale(1,1)"><path fill="none" stroke="#000000" d="M 652.239501953125 45 L 657.239501953125 40" stroke-miterlimit="10"/></g><g transform="translate(-6,2) scale(1,1)"><path fill="none" stroke="#000000" d="M 652.239501953125 45 L 657.239501953125 50" stroke-miterlimit="10"/></g><g transform="translate(-6,2) scale(1,1)"><g><path fill="none" stroke="none"/><text fill="#000000" stroke="none" font-family="Arial" font-size="13px" font-style="normal" font-weight="normal" text-decoration="none" x="625.5" y="96">«control»</text></g></g><g transform="translate(-6,2) scale(1,1)"><g><path fill="none" stroke="none"/><text fill="#000000" stroke="none" font-family="Arial" font-size="13px" font-style="normal" font-weight="bold" text-decoration="none" x="641.404052734375" y="111">API</text></g></g><g transform="translate(-6,2) scale(1,1)"><path fill="none" stroke="#000000" d="M 653.5 118 L 653.5 2664" stroke-miterlimit="10" stroke-dasharray="3"/></g><g transform="translate(-6,2) scale(1,1)"><path fill="none" stroke="#000000" d="M 367.83447265625 60 C 367.83447265625 51.1634432 374.99791585625 44 383.83447265625 44 C 392.67102945625 44 399.83447265625 51.1634432 399.83447265625 60 C 399.83447265625 68.8365568 392.67102945625 76 383.83447265625 76 C 374.99791585625 76 367.83447265625 68.8365568 367.83447265625 60 Z" stroke-miterlimit="10"/></g><g transform="translate(-6,2) scale(1,1)"><path fill="none" stroke="#000000" d="M 359.83447265625 44 L 359.83447265625 76" stroke-miterlimit="10"/></g><g transform="translate(-6,2) scale(1,1)"><path fill="none" stroke="#000000" d="M 359.83447265625 60 L 367.83447265625 60" stroke-miterlimit="10"/></g><g transform="translate(-6,2) scale(1,1)"><g><path fill="none" stroke="none"/><text fill="#000000" stroke="none" font-family="Arial" font-size="13px" font-style="normal" font-weight="normal" text-decoration="none" x="345.5" y="96">«boundary»</text></g></g><g transform="translate(-6,2) scale(1,1)"><g><path fill="none" stroke="none"/><text fill="#000000" stroke="none" font-family="Arial" font-size="13px" font-style="normal" font-weight="bold" text-decoration="none" x="359.607666015625" y="111">Profile</text></g></g><g transform="translate(-6,2) scale(1,1)"><path fill="none" stroke="#000000" d="M 380.5 118 L 380.5 2664" stroke-miterlimit="10" stroke-dasharray="3"/></g><g transform="translate(-6,2) scale(1,1)"><path fill="none" stroke="#000000" d="M 909.404052734375 60 C 909.404052734375 50.6111584 917.015211134375 43 926.404052734375 43 C 935.792894334375 43 943.404052734375 50.6111584 943.404052734375 60 C 943.404052734375 69.3888416 935.792894334375 77 926.404052734375 77 C 917.015211134375 77 909.404052734375 69.3888416 909.404052734375 60 Z" stroke-miterlimit="10"/></g><g transform="translate(-6,2) scale(1,1)"><path fill="none" stroke="#000000" d="M 909.404052734375 77 L 943.404052734375 77" stroke-miterlimit="10"/></g><g transform="translate(-6,2) scale(1,1)"><g><path fill="none" stroke="none"/><text fill="#000000" stroke="none" font-family="Arial" font-size="13px" font-style="normal" font-weight="normal" text-decoration="none" x="903.63818359375" y="96">«entity»</text></g></g><g transform="translate(-6,2) scale(1,1)"><g><path fill="none" stroke="none"/><text fill="#000000" stroke="none" font-family="Arial" font-size="13px" font-style="normal" font-weight="bold" text-decoration="none" x="897.5" y="111">Database</text></g></g><g transform="translate(-6,2) scale(1,1)"><path fill="none" stroke="#000000" d="M 927.5 118 L 927.5 2664" stroke-miterlimit="10" stroke-dasharray="3"/></g><g transform="translate(-6,2) scale(1,1)"><path fill="none" stroke="#000000" d="M 102 144 L 373 144" stroke-miterlimit="10"/></g><g transform="translate(-6,2) scale(1,1)"><path fill="#000000" stroke="none" d="M 362.83732514237585 148.209517756016 L 373 144 L 362.83732514237585 139.790482243984"/></g><g transform="translate(-6,2) scale(1,1)"><path fill="none" stroke="#000000" d="M 362.83732514237585 148.209517756016 L 373 144 L 362.83732514237585 139.790482243984 L 362.83732514237585 148.209517756016" stroke-miterlimit="10"/></g><g transform="translate(-6,2) scale(1,1)"><g><path fill="none" stroke="none"/><text fill="#000000" stroke="none" font-family="Arial" font-size="13px" font-style="normal" font-weight="normal" text-decoration="none" x="175.5" y="139">1.1 : Go to clients tab</text></g></g><g transform="translate(-6,2) scale(1,1)"><rect fill="#ffffff" stroke="none" x="373" y="144" width="13" height="28"/></g><g transform="translate(-6,2) scale(1,1)"><path fill="none" stroke="#000000" d="M 373 144 L 386 144 L 386 172 L 373 172 L 373 144 Z Z" stroke-miterlimit="10"/></g><g transform="translate(-6,2) scale(1,1)"><path fill="none" stroke="#000000" d="M 386 163 L 646 163" stroke-miterlimit="10"/></g><g transform="translate(-6,2) scale(1,1)"><path fill="#000000" stroke="none" d="M 635.8373251423759 167.209517756016 L 646 163 L 635.8373251423758 158.790482243984"/></g><g transform="translate(-6,2) scale(1,1)"><path fill="none" stroke="#000000" d="M 635.8373251423759 167.209517756016 L 646 163 L 635.8373251423758 158.790482243984 L 635.8373251423759 167.209517756016" stroke-miterlimit="10"/></g><g transform="translate(-6,2) scale(1,1)"><g><path fill="none" stroke="none"/><text fill="#000000" stroke="none" font-family="Arial" font-size="13px" font-style="normal" font-weight="normal" text-decoration="none" x="406.5" y="158">1.2 : Send request to show clients info</text></g></g><g transform="translate(-6,2) scale(1,1)"><rect fill="#ffffff" stroke="none" x="646" y="163" width="13" height="28"/></g><g transform="translate(-6,2) scale(1,1)"><path fill="none" stroke="#000000" d="M 646 163 L 659 163 L 659 191 L 646 191 L 646 163 Z Z" stroke-miterlimit="10"/></g><g transform="translate(-6,2) scale(1,1)"><path fill="none" stroke="#000000" d="M 659 177 L 920 177" stroke-miterlimit="10"/></g><g transform="translate(-6,2) scale(1,1)"><path fill="#000000" stroke="none" d="M 909.8373251423759 181.209517756016 L 920 177 L 909.8373251423758 172.790482243984"/></g><g transform="translate(-6,2) scale(1,1)"><path fill="none" stroke="#000000" d="M 909.8373251423759 181.209517756016 L 920 177 L 909.8373251423758 172.790482243984 L 909.8373251423759 181.209517756016" stroke-miterlimit="10"/></g><g transform="translate(-6,2) scale(1,1)"><g><path fill="none" stroke="none"/><text fill="#000000" stroke="none" font-family="Arial" font-size="13px" font-style="normal" font-weight="normal" text-decoration="none" x="712.5" y="172">1.3 : Request to get clients</text></g></g><g transform="translate(-6,2) scale(1,1)"><rect fill="#ffffff" stroke="none" x="920" y="177" width="13" height="28"/></g><g transform="translate(-6,2) scale(1,1)"><path fill="none" stroke="#000000" d="M 920 177 L 933 177 L 933 205 L 920 205 L 920 177 Z Z" stroke-miterlimit="10"/></g><g transform="translate(-6,2) scale(1,1)"><path fill="none" stroke="#000000" d="M 920 201 L 653 201" stroke-miterlimit="10" stroke-dasharray="3"/></g><g transform="translate(-6,2) scale(1,1)"><path fill="none" stroke="#000000" d="M 663.1626748576241 196.790482243984 L 653 201 L 663.1626748576241 205.209517756016" stroke-miterlimit="10"/></g><g transform="translate(-6,2) scale(1,1)"><g><path fill="none" stroke="none"/><text fill="#000000" stroke="none" font-family="Arial" font-size="13px" font-style="normal" font-weight="normal" text-decoration="none" x="721.5" y="216">1.4 : Response clients</text></g></g><g transform="translate(-6,2) scale(1,1)"><path fill="none" stroke="#000000" d="M 653 208 L 380 208" stroke-miterlimit="10" stroke-dasharray="3"/></g><g transform="translate(-6,2) scale(1,1)"><path fill="none" stroke="#000000" d="M 390.16267485762415 203.790482243984 L 380 208 L 390.16267485762415 212.209517756016" stroke-miterlimit="10"/></g><g transform="translate(-6,2) scale(1,1)"><g><path fill="none" stroke="none"/><text fill="#000000" stroke="none" font-family="Arial" font-size="13px" font-style="normal" font-weight="normal" text-decoration="none" x="459.5" y="223">1.5 : Display clients</text></g></g><g transform="translate(-6,2) scale(1,1)"><path fill="none" stroke="#000000" d="M 102 300 L 373 300" stroke-miterlimit="10"/></g><g transform="translate(-6,2) scale(1,1)"><path fill="#000000" stroke="none" d="M 362.83732514237585 304.209517756016 L 373 300 L 362.83732514237585 295.790482243984"/></g><g transform="translate(-6,2) scale(1,1)"><path fill="none" stroke="#000000" d="M 362.83732514237585 304.209517756016 L 373 300 L 362.83732514237585 295.790482243984 L 362.83732514237585 304.209517756016" stroke-miterlimit="10"/></g><g transform="translate(-6,2) scale(1,1)"><g><path fill="none" stroke="none"/><text fill="#000000" stroke="none" font-family="Arial" font-size="13px" font-style="normal" font-weight="normal" text-decoration="none" x="160.5" y="295">2.1 : Select add client form</text></g></g><g transform="translate(-6,2) scale(1,1)"><rect fill="#ffffff" stroke="none" x="373" y="300" width="13" height="28"/></g><g transform="translate(-6,2) scale(1,1)"><path fill="none" stroke="#000000" d="M 373 300 L 386 300 L 386 328 L 373 328 L 373 300 Z Z" stroke-miterlimit="10"/></g><g transform="translate(-6,2) scale(1,1)"><path fill="none" stroke="#000000" d="M 386 312 L 416 312 L 416 332 L 386 332" stroke-miterlimit="10"/></g><g transform="translate(-6,2) scale(1,1)"><path fill="#000000" stroke="none" d="M 396.16267485762415 327.790482243984 L 386 332 L 396.16267485762415 336.209517756016"/></g><g transform="translate(-6,2) scale(1,1)"><path fill="none" stroke="#000000" d="M 396.16267485762415 327.790482243984 L 386 332 L 396.16267485762415 336.209517756016 L 396.16267485762415 327.790482243984" stroke-miterlimit="10"/></g><g transform="translate(-6,2) scale(1,1)"><g><path fill="none" stroke="none"/><text fill="#000000" stroke="none" font-family="Arial" font-size="13px" font-style="normal" font-weight="normal" text-decoration="none" x="422.5" y="326">2.2 : Display add client form</text></g></g><g transform="translate(-6,2) scale(1,1)"><rect fill="#ffffff" stroke="none" x="373" y="332" width="13" height="55"/></g><g transform="translate(-6,2) scale(1,1)"><path fill="none" stroke="#000000" d="M 373 332 L 386 332 L 386 387 L 373 387 L 373 332 Z Z" stroke-miterlimit="10"/></g><g transform="translate(-6,2) scale(1,1)"><path fill="none" stroke="#000000" d="M 102 356 L 380 356" stroke-miterlimit="10"/></g><g transform="translate(-6,2) scale(1,1)"><path fill="#000000" stroke="none" d="M 369.83732514237585 360.209517756016 L 380 356 L 369.83732514237585 351.790482243984"/></g><g transform="translate(-6,2) scale(1,1)"><path fill="none" stroke="#000000" d="M 369.83732514237585 360.209517756016 L 380 356 L 369.83732514237585 351.790482243984 L 369.83732514237585 360.209517756016" stroke-miterlimit="10"/></g><g transform="translate(-6,2) scale(1,1)"><g><path fill="none" stroke="none"/><text fill="#000000" stroke="none" font-family="Arial" font-size="13px" font-style="normal" font-weight="normal" text-decoration="none" x="165.5" y="351">2.3 : Insert new client data</text></g></g><g transform="translate(-6,2) scale(1,1)"><rect fill="#ffffff" stroke="none" x="380" y="356" width="13" height="28"/></g><g transform="translate(-6,2) scale(1,1)"><path fill="none" stroke="#000000" d="M 380 356 L 393 356 L 393 384 L 380 384 L 380 356 Z Z" stroke-miterlimit="10"/></g><g transform="translate(-6,2) scale(1,1)"><path fill="none" stroke="#000000" d="M 386 384 L 416 384 L 416 404 L 386 404" stroke-miterlimit="10"/></g><g transform="translate(-6,2) scale(1,1)"><path fill="#000000" stroke="none" d="M 396.16267485762415 399.790482243984 L 386 404 L 396.16267485762415 408.209517756016"/></g><g transform="translate(-6,2) scale(1,1)"><path fill="none" stroke="#000000" d="M 396.16267485762415 399.790482243984 L 386 404 L 396.16267485762415 408.209517756016 L 396.16267485762415 399.790482243984" stroke-miterlimit="10"/></g><g transform="translate(-6,2) scale(1,1)"><g><path fill="none" stroke="none"/><text fill="#000000" stroke="none" font-family="Arial" font-size="13px" font-style="normal" font-weight="normal" text-decoration="none" x="418.5" y="398">2.4 : Validation</text></g></g><g transform="translate(-6,2) scale(1,1)"><rect fill="#ffffff" stroke="none" x="373" y="404" width="13" height="28"/></g><g transform="translate(-6,2) scale(1,1)"><path fill="none" stroke="#000000" d="M 373 404 L 386 404 L 386 432 L 373 432 L 373 404 Z Z" stroke-miterlimit="10"/></g><g transform="translate(-6,2) scale(1,1)"><path fill="none" stroke="#000000" d="M 380 432 L 646 432" stroke-miterlimit="10"/></g><g transform="translate(-6,2) scale(1,1)"><path fill="#000000" stroke="none" d="M 635.8373251423759 436.209517756016 L 646 432 L 635.8373251423758 427.790482243984"/></g><g transform="translate(-6,2) scale(1,1)"><path fill="none" stroke="#000000" d="M 635.8373251423759 436.209517756016 L 646 432 L 635.8373251423758 427.790482243984 L 635.8373251423759 436.209517756016" stroke-miterlimit="10"/></g><g transform="translate(-6,2) scale(1,1)"><g><path fill="none" stroke="none"/><text fill="#000000" stroke="none" font-family="Arial" font-size="13px" font-style="normal" font-weight="normal" text-decoration="none" x="446.5" y="427">2.5 : Send create client</text></g></g><g transform="translate(-6,2) scale(1,1)"><rect fill="#ffffff" stroke="none" x="646" y="432" width="13" height="54"/></g><g transform="translate(-6,2) scale(1,1)"><path fill="none" stroke="#000000" d="M 646 432 L 659 432 L 659 486 L 646 486 L 646 432 Z Z" stroke-miterlimit="10"/></g><g transform="translate(-6,2) scale(1,1)"><path fill="none" stroke="#000000" d="M 659 432 L 689 432 L 689 452 L 666 452" stroke-miterlimit="10"/></g><g transform="translate(-6,2) scale(1,1)"><path fill="#000000" stroke="none" d="M 676.1626748576241 447.790482243984 L 666 452 L 676.1626748576241 456.209517756016"/></g><g transform="translate(-6,2) scale(1,1)"><path fill="none" stroke="#000000" d="M 676.1626748576241 447.790482243984 L 666 452 L 676.1626748576241 456.209517756016 L 676.1626748576241 447.790482243984" stroke-miterlimit="10"/></g><g transform="translate(-6,2) scale(1,1)"><g><path fill="none" stroke="none"/><text fill="#000000" stroke="none" font-family="Arial" font-size="13px" font-style="normal" font-weight="normal" text-decoration="none" x="690.5" y="446">2.6 : Validation</text></g></g><g transform="translate(-6,2) scale(1,1)"><rect fill="#ffffff" stroke="none" x="653" y="452" width="13" height="31"/></g><g transform="translate(-6,2) scale(1,1)"><path fill="none" stroke="#000000" d="M 653 452 L 666 452 L 666 483 L 653 483 L 653 452 Z Z" stroke-miterlimit="10"/></g><g transform="translate(-6,2) scale(1,1)"><path fill="none" stroke="#000000" d="M 653 496 L 920 496" stroke-miterlimit="10"/></g><g transform="translate(-6,2) scale(1,1)"><path fill="#000000" stroke="none" d="M 909.8373251423759 500.209517756016 L 920 496 L 909.8373251423758 491.790482243984"/></g><g transform="translate(-6,2) scale(1,1)"><path fill="none" stroke="#000000" d="M 909.8373251423759 500.209517756016 L 920 496 L 909.8373251423758 491.790482243984 L 909.8373251423759 500.209517756016" stroke-miterlimit="10"/></g><g transform="translate(-6,2) scale(1,1)"><g><path fill="none" stroke="none"/><text fill="#000000" stroke="none" font-family="Arial" font-size="13px" font-style="normal" font-weight="normal" text-decoration="none" x="697.5" y="491">2.7.1 : Request to create client</text></g></g><g transform="translate(-6,2) scale(1,1)"><rect fill="#ffffff" stroke="none" x="920" y="496" width="13" height="28"/></g><g transform="translate(-6,2) scale(1,1)"><path fill="none" stroke="#000000" d="M 920 496 L 933 496 L 933 524 L 920 524 L 920 496 Z Z" stroke-miterlimit="10"/></g><g transform="translate(-6,2) scale(1,1)"><path fill="none" stroke="#000000" d="M 920 520 L 653 520" stroke-miterlimit="10" stroke-dasharray="3"/></g><g transform="translate(-6,2) scale(1,1)"><path fill="none" stroke="#000000" d="M 663.1626748576241 515.790482243984 L 653 520 L 663.1626748576241 524.209517756016" stroke-miterlimit="10"/></g><g transform="translate(-6,2) scale(1,1)"><g><path fill="none" stroke="none"/><text fill="#000000" stroke="none" font-family="Arial" font-size="13px" font-style="normal" font-weight="normal" text-decoration="none" x="682.5" y="535">2.7.2 : Response success message</text></g></g><g transform="translate(-6,2) scale(1,1)"><path fill="none" stroke="#000000" d="M 653 535 L 380 535" stroke-miterlimit="10" stroke-dasharray="3"/></g><g transform="translate(-6,2) scale(1,1)"><path fill="none" stroke="#000000" d="M 390.16267485762415 530.790482243984 L 380 535 L 390.16267485762415 539.209517756016" stroke-miterlimit="10"/></g><g transform="translate(-6,2) scale(1,1)"><g><path fill="none" stroke="none"/><text fill="#000000" stroke="none" font-family="Arial" font-size="13px" font-style="normal" font-weight="normal" text-decoration="none" x="420.5" y="550">2.7.3 : Display success message</text></g></g><g transform="translate(-6,2) scale(1,1)"><path fill="none" stroke="#000000" d="M 653 600 L 380 600" stroke-miterlimit="10" stroke-dasharray="3"/></g><g transform="translate(-6,2) scale(1,1)"><path fill="none" stroke="#000000" d="M 390.16267485762415 595.790482243984 L 380 600 L 390.16267485762415 604.209517756016" stroke-miterlimit="10"/></g><g transform="translate(-6,2) scale(1,1)"><g><path fill="none" stroke="none"/><text fill="#000000" stroke="none" font-family="Arial" font-size="13px" font-style="normal" font-weight="normal" text-decoration="none" x="435.5" y="615">2.7.1 : DIsplay fail message</text></g></g><g transform="translate(-6,2) scale(1,1)"><path fill="none" stroke="#000000" d="M 102 720 L 373 720" stroke-miterlimit="10"/></g><g transform="translate(-6,2) scale(1,1)"><path fill="#000000" stroke="none" d="M 362.83732514237585 724.209517756016 L 373 720 L 362.83732514237585 715.790482243984"/></g><g transform="translate(-6,2) scale(1,1)"><path fill="none" stroke="#000000" d="M 362.83732514237585 724.209517756016 L 373 720 L 362.83732514237585 715.790482243984 L 362.83732514237585 724.209517756016" stroke-miterlimit="10"/></g><g transform="translate(-6,2) scale(1,1)"><g><path fill="none" stroke="none"/><text fill="#000000" stroke="none" font-family="Arial" font-size="13px" font-style="normal" font-weight="normal" text-decoration="none" x="187.5" y="715">2.8 : Select client</text></g></g><g transform="translate(-6,2) scale(1,1)"><rect fill="#ffffff" stroke="none" x="373" y="720" width="13" height="28"/></g><g transform="translate(-6,2) scale(1,1)"><path fill="none" stroke="#000000" d="M 373 720 L 386 720 L 386 748 L 373 748 L 373 720 Z Z" stroke-miterlimit="10"/></g><g transform="translate(-6,2) scale(1,1)"><path fill="none" stroke="#000000" d="M 386 736 L 416 736 L 416 756 L 386 756" stroke-miterlimit="10"/></g><g transform="translate(-6,2) scale(1,1)"><path fill="#000000" stroke="none" d="M 396.16267485762415 751.790482243984 L 386 756 L 396.16267485762415 760.209517756016"/></g><g transform="translate(-6,2) scale(1,1)"><path fill="none" stroke="#000000" d="M 396.16267485762415 751.790482243984 L 386 756 L 396.16267485762415 760.209517756016 L 396.16267485762415 751.790482243984" stroke-miterlimit="10"/></g><g transform="translate(-6,2) scale(1,1)"><g><path fill="none" stroke="none"/><text fill="#000000" stroke="none" font-family="Arial" font-size="13px" font-style="normal" font-weight="normal" text-decoration="none" x="416.5" y="750">2.9 : Display edit form</text></g></g><g transform="translate(-6,2) scale(1,1)"><rect fill="#ffffff" stroke="none" x="373" y="756" width="13" height="28"/></g><g transform="translate(-6,2) scale(1,1)"><path fill="none" stroke="#000000" d="M 373 756 L 386 756 L 386 784 L 373 784 L 373 756 Z Z" stroke-miterlimit="10"/></g><g transform="translate(-6,2) scale(1,1)"><path fill="none" stroke="#000000" d="M 102 791 L 373 791" stroke-miterlimit="10"/></g><g transform="translate(-6,2) scale(1,1)"><path fill="#000000" stroke="none" d="M 362.83732514237585 795.209517756016 L 373 791 L 362.83732514237585 786.790482243984"/></g><g transform="translate(-6,2) scale(1,1)"><path fill="none" stroke="#000000" d="M 362.83732514237585 795.209517756016 L 373 791 L 362.83732514237585 786.790482243984 L 362.83732514237585 795.209517756016" stroke-miterlimit="10"/></g><g transform="translate(-6,2) scale(1,1)"><g><path fill="none" stroke="none"/><text fill="#000000" stroke="none" font-family="Arial" font-size="13px" font-style="normal" font-weight="normal" text-decoration="none" x="164.5" y="786">2.10 : Change client data</text></g></g><g transform="translate(-6,2) scale(1,1)"><rect fill="#ffffff" stroke="none" x="373" y="791" width="13" height="28"/></g><g transform="translate(-6,2) scale(1,1)"><path fill="none" stroke="#000000" d="M 373 791 L 386 791 L 386 819 L 373 819 L 373 791 Z Z" stroke-miterlimit="10"/></g><g transform="translate(-6,2) scale(1,1)"><path fill="none" stroke="#000000" d="M 386 800 L 416 800 L 416 820 L 386 820" stroke-miterlimit="10"/></g><g transform="translate(-6,2) scale(1,1)"><path fill="#000000" stroke="none" d="M 396.16267485762415 815.790482243984 L 386 820 L 396.16267485762415 824.209517756016"/></g><g transform="translate(-6,2) scale(1,1)"><path fill="none" stroke="#000000" d="M 396.16267485762415 815.790482243984 L 386 820 L 396.16267485762415 824.209517756016 L 396.16267485762415 815.790482243984" stroke-miterlimit="10"/></g><g transform="translate(-6,2) scale(1,1)"><g><path fill="none" stroke="none"/><text fill="#000000" stroke="none" font-family="Arial" font-size="13px" font-style="normal" font-weight="normal" text-decoration="none" x="423.5" y="814">2.11 : Validation</text></g></g><g transform="translate(-6,2) scale(1,1)"><rect fill="#ffffff" stroke="none" x="373" y="820" width="13" height="28"/></g><g transform="translate(-6,2) scale(1,1)"><path fill="none" stroke="#000000" d="M 373 820 L 386 820 L 386 848 L 373 848 L 373 820 Z Z" stroke-miterlimit="10"/></g><g transform="translate(-6,2) scale(1,1)"><path fill="none" stroke="#000000" d="M 380 853 L 646 853" stroke-miterlimit="10"/></g><g transform="translate(-6,2) scale(1,1)"><path fill="none" stroke="#000000" d="M 635.8373251423759 857.209517756016 L 646 853 L 635.8373251423758 848.790482243984" stroke-miterlimit="10"/></g><g transform="translate(-6,2) scale(1,1)"><g><path fill="none" stroke="none"/><text fill="#000000" stroke="none" font-family="Arial" font-size="13px" font-style="normal" font-weight="normal" text-decoration="none" x="453.5" y="848">2.12 : Send changes</text></g></g><g transform="translate(-6,2) scale(1,1)"><rect fill="#ffffff" stroke="none" x="646" y="853" width="13" height="28"/></g><g transform="translate(-6,2) scale(1,1)"><path fill="none" stroke="#000000" d="M 646 853 L 659 853 L 659 881 L 646 881 L 646 853 Z Z" stroke-miterlimit="10"/></g><g transform="translate(-6,2) scale(1,1)"><path fill="none" stroke="#000000" d="M 659 872 L 689 872 L 689 892 L 659 892" stroke-miterlimit="10"/></g><g transform="translate(-6,2) scale(1,1)"><path fill="#000000" stroke="none" d="M 669.1626748576241 887.790482243984 L 659 892 L 669.1626748576241 896.209517756016"/></g><g transform="translate(-6,2) scale(1,1)"><path fill="none" stroke="#000000" d="M 669.1626748576241 887.790482243984 L 659 892 L 669.1626748576241 896.209517756016 L 669.1626748576241 887.790482243984" stroke-miterlimit="10"/></g><g transform="translate(-6,2) scale(1,1)"><g><path fill="none" stroke="none"/><text fill="#000000" stroke="none" font-family="Arial" font-size="13px" font-style="normal" font-weight="normal" text-decoration="none" x="694.5" y="886">2.13 : Validation</text></g></g><g transform="translate(-6,2) scale(1,1)"><rect fill="#ffffff" stroke="none" x="646" y="892" width="13" height="28"/></g><g transform="translate(-6,2) scale(1,1)"><path fill="none" stroke="#000000" d="M 646 892 L 659 892 L 659 920 L 646 920 L 646 892 Z Z" stroke-miterlimit="10"/></g><g transform="translate(-6,2) scale(1,1)"><path fill="none" stroke="#000000" d="M 653 945 L 920 945" stroke-miterlimit="10"/></g><g transform="translate(-6,2) scale(1,1)"><path fill="#000000" stroke="none" d="M 909.8373251423759 949.209517756016 L 920 945 L 909.8373251423758 940.790482243984"/></g><g transform="translate(-6,2) scale(1,1)"><path fill="none" stroke="#000000" d="M 909.8373251423759 949.209517756016 L 920 945 L 909.8373251423758 940.790482243984 L 909.8373251423759 949.209517756016" stroke-miterlimit="10"/></g><g transform="translate(-6,2) scale(1,1)"><g><path fill="none" stroke="none"/><text fill="#000000" stroke="none" font-family="Arial" font-size="13px" font-style="normal" font-weight="normal" text-decoration="none" x="701.5" y="940">2.14.1 : Request to edit client</text></g></g><g transform="translate(-6,2) scale(1,1)"><rect fill="#ffffff" stroke="none" x="920" y="945" width="13" height="28"/></g><g transform="translate(-6,2) scale(1,1)"><path fill="none" stroke="#000000" d="M 920 945 L 933 945 L 933 973 L 920 973 L 920 945 Z Z" stroke-miterlimit="10"/></g><g transform="translate(-6,2) scale(1,1)"><path fill="none" stroke="#000000" d="M 927 976 L 653 976" stroke-miterlimit="10" stroke-dasharray="3"/></g><g transform="translate(-6,2) scale(1,1)"><path fill="none" stroke="#000000" d="M 663.1626748576241 971.790482243984 L 653 976 L 663.1626748576241 980.209517756016" stroke-miterlimit="10"/></g><g transform="translate(-6,2) scale(1,1)"><g><path fill="none" stroke="none"/><text fill="#000000" stroke="none" font-family="Arial" font-size="13px" font-style="normal" font-weight="normal" text-decoration="none" x="682.5" y="991">2.14.2 : Response success message</text></g></g><g transform="translate(-6,2) scale(1,1)"><path fill="none" stroke="#000000" d="M 653 992 L 380 992" stroke-miterlimit="10" stroke-dasharray="3"/></g><g transform="translate(-6,2) scale(1,1)"><path fill="none" stroke="#000000" d="M 390.16267485762415 987.790482243984 L 380 992 L 390.16267485762415 996.209517756016" stroke-miterlimit="10"/></g><g transform="translate(-6,2) scale(1,1)"><g><path fill="none" stroke="none"/><text fill="#000000" stroke="none" font-family="Arial" font-size="13px" font-style="normal" font-weight="normal" text-decoration="none" x="443.5" y="1007">2.14.3 : Display changes</text></g></g><g transform="translate(-6,2) scale(1,1)"><path fill="none" stroke="#000000" d="M 653 1044 L 380 1044" stroke-miterlimit="10" stroke-dasharray="3"/></g><g transform="translate(-6,2) scale(1,1)"><path fill="none" stroke="#000000" d="M 390.16267485762415 1039.7904822439841 L 380 1044 L 390.16267485762415 1048.2095177560159" stroke-miterlimit="10"/></g><g transform="translate(-6,2) scale(1,1)"><g><path fill="none" stroke="none"/><text fill="#000000" stroke="none" font-family="Arial" font-size="13px" font-style="normal" font-weight="normal" text-decoration="none" x="424.5" y="1059">2.14.1 : Display failed message</text></g></g><g transform="translate(-6,2) scale(1,1)"><path fill="none" stroke="#000000" d="M 102 1128 L 373 1128" stroke-miterlimit="10"/></g><g transform="translate(-6,2) scale(1,1)"><path fill="#000000" stroke="none" d="M 362.83732514237585 1132.2095177560159 L 373 1128 L 362.83732514237585 1123.7904822439841"/></g><g transform="translate(-6,2) scale(1,1)"><path fill="none" stroke="#000000" d="M 362.83732514237585 1132.2095177560159 L 373 1128 L 362.83732514237585 1123.7904822439841 L 362.83732514237585 1132.2095177560159" stroke-miterlimit="10"/></g><g transform="translate(-6,2) scale(1,1)"><g><path fill="none" stroke="none"/><text fill="#000000" stroke="none" font-family="Arial" font-size="13px" font-style="normal" font-weight="normal" text-decoration="none" x="183.5" y="1123">2.15 : Select client</text></g></g><g transform="translate(-6,2) scale(1,1)"><rect fill="#ffffff" stroke="none" x="373" y="1128" width="13" height="28"/></g><g transform="translate(-6,2) scale(1,1)"><path fill="none" stroke="#000000" d="M 373 1128 L 386 1128 L 386 1156 L 373 1156 L 373 1128 Z Z" stroke-miterlimit="10"/></g><g transform="translate(-6,2) scale(1,1)"><path fill="none" stroke="#000000" d="M 386 1136 L 416 1136 L 416 1156 L 393 1156" stroke-miterlimit="10"/></g><g transform="translate(-6,2) scale(1,1)"><path fill="#000000" stroke="none" d="M 403.16267485762415 1151.7904822439841 L 393 1156 L 403.16267485762415 1160.2095177560159"/></g><g transform="translate(-6,2) scale(1,1)"><path fill="none" stroke="#000000" d="M 403.16267485762415 1151.7904822439841 L 393 1156 L 403.16267485762415 1160.2095177560159 L 403.16267485762415 1151.7904822439841" stroke-miterlimit="10"/></g><g transform="translate(-6,2) scale(1,1)"><g><path fill="none" stroke="none"/><text fill="#000000" stroke="none" font-family="Arial" font-size="13px" font-style="normal" font-weight="normal" text-decoration="none" x="423.5" y="1150">2.16 : Display delete button</text></g></g><g transform="translate(-6,2) scale(1,1)"><rect fill="#ffffff" stroke="none" x="380" y="1156" width="13" height="51"/></g><g transform="translate(-6,2) scale(1,1)"><path fill="none" stroke="#000000" d="M 380 1156 L 393 1156 L 393 1207 L 380 1207 L 380 1156 Z Z" stroke-miterlimit="10"/></g><g transform="translate(-6,2) scale(1,1)"><path fill="none" stroke="#000000" d="M 102 1176 L 387 1176" stroke-miterlimit="10"/></g><g transform="translate(-6,2) scale(1,1)"><path fill="#000000" stroke="none" d="M 376.83732514237585 1180.2095177560159 L 387 1176 L 376.83732514237585 1171.7904822439841"/></g><g transform="translate(-6,2) scale(1,1)"><path fill="none" stroke="#000000" d="M 376.83732514237585 1180.2095177560159 L 387 1176 L 376.83732514237585 1171.7904822439841 L 376.83732514237585 1180.2095177560159" stroke-miterlimit="10"/></g><g transform="translate(-6,2) scale(1,1)"><g><path fill="none" stroke="none"/><text fill="#000000" stroke="none" font-family="Arial" font-size="13px" font-style="normal" font-weight="normal" text-decoration="none" x="172.5" y="1171">2.17 : Click delete button</text></g></g><g transform="translate(-6,2) scale(1,1)"><rect fill="#ffffff" stroke="none" x="387" y="1176" width="13" height="28"/></g><g transform="translate(-6,2) scale(1,1)"><path fill="none" stroke="#000000" d="M 387 1176 L 400 1176 L 400 1204 L 387 1204 L 387 1176 Z Z" stroke-miterlimit="10"/></g><g transform="translate(-6,2) scale(1,1)"><path fill="none" stroke="#000000" d="M 380 1212 L 646 1212" stroke-miterlimit="10"/></g><g transform="translate(-6,2) scale(1,1)"><path fill="#000000" stroke="none" d="M 635.8373251423759 1216.2095177560159 L 646 1212 L 635.8373251423758 1207.7904822439841"/></g><g transform="translate(-6,2) scale(1,1)"><path fill="none" stroke="#000000" d="M 635.8373251423759 1216.2095177560159 L 646 1212 L 635.8373251423758 1207.7904822439841 L 635.8373251423759 1216.2095177560159" stroke-miterlimit="10"/></g><g transform="translate(-6,2) scale(1,1)"><g><path fill="none" stroke="none"/><text fill="#000000" stroke="none" font-family="Arial" font-size="13px" font-style="normal" font-weight="normal" text-decoration="none" x="431.5" y="1207">2.18 : Send deletion request</text></g></g><g transform="translate(-6,2) scale(1,1)"><rect fill="#ffffff" stroke="none" x="646" y="1212" width="13" height="28"/></g><g transform="translate(-6,2) scale(1,1)"><path fill="none" stroke="#000000" d="M 646 1212 L 659 1212 L 659 1240 L 646 1240 L 646 1212 Z Z" stroke-miterlimit="10"/></g><g transform="translate(-6,2) scale(1,1)"><path fill="none" stroke="#000000" d="M 659 1224 L 689 1224 L 689 1244 L 659 1244" stroke-miterlimit="10"/></g><g transform="translate(-6,2) scale(1,1)"><path fill="#000000" stroke="none" d="M 669.1626748576241 1239.7904822439841 L 659 1244 L 669.1626748576241 1248.2095177560159"/></g><g transform="translate(-6,2) scale(1,1)"><path fill="none" stroke="#000000" d="M 669.1626748576241 1239.7904822439841 L 659 1244 L 669.1626748576241 1248.2095177560159 L 669.1626748576241 1239.7904822439841" stroke-miterlimit="10"/></g><g transform="translate(-6,2) scale(1,1)"><g><path fill="none" stroke="none"/><text fill="#000000" stroke="none" font-family="Arial" font-size="13px" font-style="normal" font-weight="normal" text-decoration="none" x="694.5" y="1238">2.19 : Validation</text></g></g><g transform="translate(-6,2) scale(1,1)"><rect fill="#ffffff" stroke="none" x="646" y="1244" width="13" height="28"/></g><g transform="translate(-6,2) scale(1,1)"><path fill="none" stroke="#000000" d="M 646 1244 L 659 1244 L 659 1272 L 646 1272 L 646 1244 Z Z" stroke-miterlimit="10"/></g><g transform="translate(-6,2) scale(1,1)"><path fill="none" stroke="#000000" d="M 659 1268 L 920 1268" stroke-miterlimit="10"/></g><g transform="translate(-6,2) scale(1,1)"><path fill="#000000" stroke="none" d="M 909.8373251423759 1272.2095177560159 L 920 1268 L 909.8373251423758 1263.7904822439841"/></g><g transform="translate(-6,2) scale(1,1)"><path fill="none" stroke="#000000" d="M 909.8373251423759 1272.2095177560159 L 920 1268 L 909.8373251423758 1263.7904822439841 L 909.8373251423759 1272.2095177560159" stroke-miterlimit="10"/></g><g transform="translate(-6,2) scale(1,1)"><g><path fill="none" stroke="none"/><text fill="#000000" stroke="none" font-family="Arial" font-size="13px" font-style="normal" font-weight="normal" text-decoration="none" x="697.5" y="1263">2.20.1 : Request to delete client</text></g></g><g transform="translate(-6,2) scale(1,1)"><rect fill="#ffffff" stroke="none" x="920" y="1268" width="13" height="28"/></g><g transform="translate(-6,2) scale(1,1)"><path fill="none" stroke="#000000" d="M 920 1268 L 933 1268 L 933 1296 L 920 1296 L 920 1268 Z Z" stroke-miterlimit="10"/></g><g transform="translate(-6,2) scale(1,1)"><path fill="none" stroke="#000000" d="M 920 1288 L 653 1288" stroke-miterlimit="10" stroke-dasharray="3"/></g><g transform="translate(-6,2) scale(1,1)"><path fill="none" stroke="#000000" d="M 663.1626748576241 1283.7904822439841 L 653 1288 L 663.1626748576241 1292.2095177560159" stroke-miterlimit="10"/></g><g transform="translate(-6,2) scale(1,1)"><g><path fill="none" stroke="none"/><text fill="#000000" stroke="none" font-family="Arial" font-size="13px" font-style="normal" font-weight="normal" text-decoration="none" x="678.5" y="1303">2.20.2 : Response success message</text></g></g><g transform="translate(-6,2) scale(1,1)"><path fill="none" stroke="#000000" d="M 653 1312 L 380 1312" stroke-miterlimit="10" stroke-dasharray="3"/></g><g transform="translate(-6,2) scale(1,1)"><path fill="none" stroke="#000000" d="M 390.16267485762415 1307.7904822439841 L 380 1312 L 390.16267485762415 1316.2095177560159" stroke-miterlimit="10"/></g><g transform="translate(-6,2) scale(1,1)"><g><path fill="none" stroke="none"/><text fill="#000000" stroke="none" font-family="Arial" font-size="13px" font-style="normal" font-weight="normal" text-decoration="none" x="416.5" y="1327">2.20.3 : Display success message</text></g></g><g transform="translate(-6,2) scale(1,1)"><path fill="none" stroke="#000000" d="M 653 1368 L 380 1368" stroke-miterlimit="10" stroke-dasharray="3"/></g><g transform="translate(-6,2) scale(1,1)"><path fill="none" stroke="#000000" d="M 390.16267485762415 1363.7904822439841 L 380 1368 L 390.16267485762415 1372.2095177560159" stroke-miterlimit="10"/></g><g transform="translate(-6,2) scale(1,1)"><g><path fill="none" stroke="none"/><text fill="#000000" stroke="none" font-family="Arial" font-size="13px" font-style="normal" font-weight="normal" text-decoration="none" x="424.5" y="1383">2.20.1 : Display failed message</text></g></g><g transform="translate(-6,2) scale(1,1)"><path fill="none" stroke="#000000" d="M 102 1466 L 373 1466" stroke-miterlimit="10"/></g><g transform="translate(-6,2) scale(1,1)"><path fill="#000000" stroke="none" d="M 362.83732514237585 1470.2095177560159 L 373 1466 L 362.83732514237585 1461.7904822439841"/></g><g transform="translate(-6,2) scale(1,1)"><path fill="none" stroke="#000000" d="M 362.83732514237585 1470.2095177560159 L 373 1466 L 362.83732514237585 1461.7904822439841 L 362.83732514237585 1470.2095177560159" stroke-miterlimit="10"/></g><g transform="translate(-6,2) scale(1,1)"><g><path fill="none" stroke="none"/><text fill="#000000" stroke="none" font-family="Arial" font-size="13px" font-style="normal" font-weight="normal" text-decoration="none" x="166.5" y="1461">3.1 : Go to subscribe tab</text></g></g><g transform="translate(-6,2) scale(1,1)"><rect fill="#ffffff" stroke="none" x="373" y="1466" width="13" height="28"/></g><g transform="translate(-6,2) scale(1,1)"><path fill="none" stroke="#000000" d="M 373 1466 L 386 1466 L 386 1494 L 373 1494 L 373 1466 Z Z" stroke-miterlimit="10"/></g><g transform="translate(-6,2) scale(1,1)"><path fill="none" stroke="#000000" d="M 386 1488 L 646 1488" stroke-miterlimit="10"/></g><g transform="translate(-6,2) scale(1,1)"><path fill="#000000" stroke="none" d="M 635.8373251423759 1492.2095177560159 L 646 1488 L 635.8373251423758 1483.7904822439841"/></g><g transform="translate(-6,2) scale(1,1)"><path fill="none" stroke="#000000" d="M 635.8373251423759 1492.2095177560159 L 646 1488 L 635.8373251423758 1483.7904822439841 L 635.8373251423759 1492.2095177560159" stroke-miterlimit="10"/></g><g transform="translate(-6,2) scale(1,1)"><g><path fill="none" stroke="none"/><text fill="#000000" stroke="none" font-family="Arial" font-size="13px" font-style="normal" font-weight="normal" text-decoration="none" x="393.5" y="1483">3.2 : Send request to show subscribes info</text></g></g><g transform="translate(-6,2) scale(1,1)"><rect fill="#ffffff" stroke="none" x="646" y="1488" width="13" height="28"/></g><g transform="translate(-6,2) scale(1,1)"><path fill="none" stroke="#000000" d="M 646 1488 L 659 1488 L 659 1516 L 646 1516 L 646 1488 Z Z" stroke-miterlimit="10"/></g><g transform="translate(-6,2) scale(1,1)"><path fill="none" stroke="#000000" d="M 659 1507 L 920 1507" stroke-miterlimit="10"/></g><g transform="translate(-6,2) scale(1,1)"><path fill="#000000" stroke="none" d="M 909.8373251423759 1511.2095177560159 L 920 1507 L 909.8373251423758 1502.7904822439841"/></g><g transform="translate(-6,2) scale(1,1)"><path fill="none" stroke="#000000" d="M 909.8373251423759 1511.2095177560159 L 920 1507 L 909.8373251423758 1502.7904822439841 L 909.8373251423759 1511.2095177560159" stroke-miterlimit="10"/></g><g transform="translate(-6,2) scale(1,1)"><g><path fill="none" stroke="none"/><text fill="#000000" stroke="none" font-family="Arial" font-size="13px" font-style="normal" font-weight="normal" text-decoration="none" x="699.5" y="1502">3.3 : Request to get subscribes</text></g></g><g transform="translate(-6,2) scale(1,1)"><rect fill="#ffffff" stroke="none" x="920" y="1507" width="13" height="28"/></g><g transform="translate(-6,2) scale(1,1)"><path fill="none" stroke="#000000" d="M 920 1507 L 933 1507 L 933 1535 L 920 1535 L 920 1507 Z Z" stroke-miterlimit="10"/></g><g transform="translate(-6,2) scale(1,1)"><path fill="none" stroke="#000000" d="M 927 1535 L 653 1535" stroke-miterlimit="10" stroke-dasharray="3"/></g><g transform="translate(-6,2) scale(1,1)"><path fill="none" stroke="#000000" d="M 663.1626748576241 1530.7904822439841 L 653 1535 L 663.1626748576241 1539.2095177560159" stroke-miterlimit="10"/></g><g transform="translate(-6,2) scale(1,1)"><g><path fill="none" stroke="none"/><text fill="#000000" stroke="none" font-family="Arial" font-size="13px" font-style="normal" font-weight="normal" text-decoration="none" x="712.5" y="1550">3.4 : Response subscribes</text></g></g><g transform="translate(-6,2) scale(1,1)"><path fill="none" stroke="#000000" d="M 653 1547 L 380 1547" stroke-miterlimit="10" stroke-dasharray="3"/></g><g transform="translate(-6,2) scale(1,1)"><path fill="none" stroke="#000000" d="M 390.16267485762415 1542.7904822439841 L 380 1547 L 390.16267485762415 1551.2095177560159" stroke-miterlimit="10"/></g><g transform="translate(-6,2) scale(1,1)"><g><path fill="none" stroke="none"/><text fill="#000000" stroke="none" font-family="Arial" font-size="13px" font-style="normal" font-weight="normal" text-decoration="none" x="446.5" y="1562">3.5 : Display subscribes</text></g></g><g transform="translate(-6,2) scale(1,1)"><path fill="none" stroke="#000000" d="M 102 1636 L 373 1636" stroke-miterlimit="10"/></g><g transform="translate(-6,2) scale(1,1)"><path fill="#000000" stroke="none" d="M 362.83732514237585 1640.2095177560159 L 373 1636 L 362.83732514237585 1631.7904822439841"/></g><g transform="translate(-6,2) scale(1,1)"><path fill="none" stroke="#000000" d="M 362.83732514237585 1640.2095177560159 L 373 1636 L 362.83732514237585 1631.7904822439841 L 362.83732514237585 1640.2095177560159" stroke-miterlimit="10"/></g><g transform="translate(-6,2) scale(1,1)"><g><path fill="none" stroke="none"/><text fill="#000000" stroke="none" font-family="Arial" font-size="13px" font-style="normal" font-weight="normal" text-decoration="none" x="161.5" y="1631">Select add subscribe form</text></g></g><g transform="translate(-6,2) scale(1,1)"><rect fill="#ffffff" stroke="none" x="373" y="1636" width="13" height="55"/></g><g transform="translate(-6,2) scale(1,1)"><path fill="none" stroke="#000000" d="M 373 1636 L 386 1636 L 386 1691 L 373 1691 L 373 1636 Z Z" stroke-miterlimit="10"/></g><g transform="translate(-6,2) scale(1,1)"><path fill="none" stroke="#000000" d="M 386 1640 L 416 1640 L 416 1660 L 393 1660" stroke-miterlimit="10"/></g><g transform="translate(-6,2) scale(1,1)"><path fill="#000000" stroke="none" d="M 403.16267485762415 1655.7904822439841 L 393 1660 L 403.16267485762415 1664.2095177560159"/></g><g transform="translate(-6,2) scale(1,1)"><path fill="none" stroke="#000000" d="M 403.16267485762415 1655.7904822439841 L 393 1660 L 403.16267485762415 1664.2095177560159 L 403.16267485762415 1655.7904822439841" stroke-miterlimit="10"/></g><g transform="translate(-6,2) scale(1,1)"><g><path fill="none" stroke="none"/><text fill="#000000" stroke="none" font-family="Arial" font-size="13px" font-style="normal" font-weight="normal" text-decoration="none" x="438.5" y="1654">Display add  subscribe form</text></g></g><g transform="translate(-6,2) scale(1,1)"><rect fill="#ffffff" stroke="none" x="380" y="1660" width="13" height="28"/></g><g transform="translate(-6,2) scale(1,1)"><path fill="none" stroke="#000000" d="M 380 1660 L 393 1660 L 393 1688 L 380 1688 L 380 1660 Z Z" stroke-miterlimit="10"/></g><g transform="translate(-6,2) scale(1,1)"><path fill="none" stroke="#000000" d="M 102 1707 L 373 1707" stroke-miterlimit="10"/></g><g transform="translate(-6,2) scale(1,1)"><path fill="#000000" stroke="none" d="M 362.83732514237585 1711.2095177560159 L 373 1707 L 362.83732514237585 1702.7904822439841"/></g><g transform="translate(-6,2) scale(1,1)"><path fill="none" stroke="#000000" d="M 362.83732514237585 1711.2095177560159 L 373 1707 L 362.83732514237585 1702.7904822439841 L 362.83732514237585 1711.2095177560159" stroke-miterlimit="10"/></g><g transform="translate(-6,2) scale(1,1)"><g><path fill="none" stroke="none"/><text fill="#000000" stroke="none" font-family="Arial" font-size="13px" font-style="normal" font-weight="normal" text-decoration="none" x="162.5" y="1702">Insert new subscribe data</text></g></g><g transform="translate(-6,2) scale(1,1)"><rect fill="#ffffff" stroke="none" x="373" y="1707" width="13" height="56"/></g><g transform="translate(-6,2) scale(1,1)"><path fill="none" stroke="#000000" d="M 373 1707 L 386 1707 L 386 1763 L 373 1763 L 373 1707 Z Z" stroke-miterlimit="10"/></g><g transform="translate(-6,2) scale(1,1)"><path fill="none" stroke="#000000" d="M 386 1712 L 416 1712 L 416 1732 L 393 1732" stroke-miterlimit="10"/></g><g transform="translate(-6,2) scale(1,1)"><path fill="#000000" stroke="none" d="M 403.16267485762415 1727.7904822439841 L 393 1732 L 403.16267485762415 1736.2095177560159"/></g><g transform="translate(-6,2) scale(1,1)"><path fill="none" stroke="#000000" d="M 403.16267485762415 1727.7904822439841 L 393 1732 L 403.16267485762415 1736.2095177560159 L 403.16267485762415 1727.7904822439841" stroke-miterlimit="10"/></g><g transform="translate(-6,2) scale(1,1)"><g><path fill="none" stroke="none"/><text fill="#000000" stroke="none" font-family="Arial" font-size="13px" font-style="normal" font-weight="normal" text-decoration="none" x="441.42333984375" y="1726">Validation</text></g></g><g transform="translate(-6,2) scale(1,1)"><rect fill="#ffffff" stroke="none" x="380" y="1732" width="13" height="28"/></g><g transform="translate(-6,2) scale(1,1)"><path fill="none" stroke="#000000" d="M 380 1732 L 393 1732 L 393 1760 L 380 1760 L 380 1732 Z Z" stroke-miterlimit="10"/></g><g transform="translate(-6,2) scale(1,1)"><path fill="none" stroke="#000000" d="M 393 1758 L 646 1758" stroke-miterlimit="10"/></g><g transform="translate(-6,2) scale(1,1)"><path fill="#000000" stroke="none" d="M 635.8373251423759 1762.2095177560159 L 646 1758 L 635.8373251423758 1753.7904822439841"/></g><g transform="translate(-6,2) scale(1,1)"><path fill="none" stroke="#000000" d="M 635.8373251423759 1762.2095177560159 L 646 1758 L 635.8373251423758 1753.7904822439841 L 635.8373251423759 1762.2095177560159" stroke-miterlimit="10"/></g><g transform="translate(-6,2) scale(1,1)"><g><path fill="none" stroke="none"/><text fill="#000000" stroke="none" font-family="Arial" font-size="13px" font-style="normal" font-weight="normal" text-decoration="none" x="454.5" y="1753">Send create subscribe</text></g></g><g transform="translate(-6,2) scale(1,1)"><rect fill="#ffffff" stroke="none" x="646" y="1758" width="13" height="28"/></g><g transform="translate(-6,2) scale(1,1)"><path fill="none" stroke="#000000" d="M 646 1758 L 659 1758 L 659 1786 L 646 1786 L 646 1758 Z Z" stroke-miterlimit="10"/></g><g transform="translate(-6,2) scale(1,1)"><path fill="none" stroke="#000000" d="M 659 1768 L 689 1768 L 689 1788 L 659 1788" stroke-miterlimit="10"/></g><g transform="translate(-6,2) scale(1,1)"><path fill="#000000" stroke="none" d="M 669.1626748576241 1783.7904822439841 L 659 1788 L 669.1626748576241 1792.2095177560159"/></g><g transform="translate(-6,2) scale(1,1)"><path fill="none" stroke="#000000" d="M 669.1626748576241 1783.7904822439841 L 659 1788 L 669.1626748576241 1792.2095177560159 L 669.1626748576241 1783.7904822439841" stroke-miterlimit="10"/></g><g transform="translate(-6,2) scale(1,1)"><g><path fill="none" stroke="none"/><text fill="#000000" stroke="none" font-family="Arial" font-size="13px" font-style="normal" font-weight="normal" text-decoration="none" x="713.42333984375" y="1782">Validation</text></g></g><g transform="translate(-6,2) scale(1,1)"><rect fill="#ffffff" stroke="none" x="646" y="1788" width="13" height="28"/></g><g transform="translate(-6,2) scale(1,1)"><path fill="none" stroke="#000000" d="M 646 1788 L 659 1788 L 659 1816 L 646 1816 L 646 1788 Z Z" stroke-miterlimit="10"/></g><g transform="translate(-6,2) scale(1,1)"><path fill="none" stroke="#000000" d="M 653 1823 L 920 1823" stroke-miterlimit="10"/></g><g transform="translate(-6,2) scale(1,1)"><path fill="#000000" stroke="none" d="M 909.8373251423759 1827.2095177560159 L 920 1823 L 909.8373251423758 1818.7904822439841"/></g><g transform="translate(-6,2) scale(1,1)"><path fill="none" stroke="#000000" d="M 909.8373251423759 1827.2095177560159 L 920 1823 L 909.8373251423758 1818.7904822439841 L 909.8373251423759 1827.2095177560159" stroke-miterlimit="10"/></g><g transform="translate(-6,2) scale(1,1)"><g><path fill="none" stroke="none"/><text fill="#000000" stroke="none" font-family="Arial" font-size="13px" font-style="normal" font-weight="normal" text-decoration="none" x="705.5" y="1818">Request to create subscribe</text></g></g><g transform="translate(-6,2) scale(1,1)"><rect fill="#ffffff" stroke="none" x="920" y="1823" width="13" height="28"/></g><g transform="translate(-6,2) scale(1,1)"><path fill="none" stroke="#000000" d="M 920 1823 L 933 1823 L 933 1851 L 920 1851 L 920 1823 Z Z" stroke-miterlimit="10"/></g><g transform="translate(-6,2) scale(1,1)"><path fill="none" stroke="#000000" d="M 920 1848 L 653 1848" stroke-miterlimit="10" stroke-dasharray="3"/></g><g transform="translate(-6,2) scale(1,1)"><path fill="none" stroke="#000000" d="M 663.1626748576241 1843.7904822439841 L 653 1848 L 663.1626748576241 1852.2095177560159" stroke-miterlimit="10"/></g><g transform="translate(-6,2) scale(1,1)"><g><path fill="none" stroke="none"/><text fill="#000000" stroke="none" font-family="Arial" font-size="13px" font-style="normal" font-weight="normal" text-decoration="none" x="702.5" y="1863">Response success message</text></g></g><g transform="translate(-6,2) scale(1,1)"><path fill="none" stroke="#000000" d="M 653 1862 L 380 1862" stroke-miterlimit="10" stroke-dasharray="3"/></g><g transform="translate(-6,2) scale(1,1)"><path fill="none" stroke="#000000" d="M 390.16267485762415 1857.7904822439841 L 380 1862 L 390.16267485762415 1866.2095177560159" stroke-miterlimit="10"/></g><g transform="translate(-6,2) scale(1,1)"><g><path fill="none" stroke="none"/><text fill="#000000" stroke="none" font-family="Arial" font-size="13px" font-style="normal" font-weight="normal" text-decoration="none" x="440.5" y="1877">Display success message</text></g></g><g transform="translate(-6,2) scale(1,1)"><path fill="none" stroke="#000000" d="M 653 1926 L 380 1926" stroke-miterlimit="10" stroke-dasharray="3"/></g><g transform="translate(-6,2) scale(1,1)"><path fill="none" stroke="#000000" d="M 390.16267485762415 1921.7904822439841 L 380 1926 L 390.16267485762415 1930.2095177560159" stroke-miterlimit="10"/></g><g transform="translate(-6,2) scale(1,1)"><g><path fill="none" stroke="none"/><text fill="#000000" stroke="none" font-family="Arial" font-size="13px" font-style="normal" font-weight="normal" text-decoration="none" x="447.8349609375" y="1941">Display failed message</text></g></g><g transform="translate(-6,2) scale(1,1)"><path fill="none" stroke="#000000" d="M 102 2016 L 373 2016" stroke-miterlimit="10"/></g><g transform="translate(-6,2) scale(1,1)"><path fill="#000000" stroke="none" d="M 362.83732514237585 2020.2095177560159 L 373 2016 L 362.83732514237585 2011.7904822439841"/></g><g transform="translate(-6,2) scale(1,1)"><path fill="none" stroke="#000000" d="M 362.83732514237585 2020.2095177560159 L 373 2016 L 362.83732514237585 2011.7904822439841 L 362.83732514237585 2020.2095177560159" stroke-miterlimit="10"/></g><g transform="translate(-6,2) scale(1,1)"><g><path fill="none" stroke="none"/><text fill="#000000" stroke="none" font-family="Arial" font-size="13px" font-style="normal" font-weight="normal" text-decoration="none" x="189.5" y="2011">Select subscribe</text></g></g><g transform="translate(-6,2) scale(1,1)"><rect fill="#ffffff" stroke="none" x="373" y="2016" width="13" height="28"/></g><g transform="translate(-6,2) scale(1,1)"><path fill="none" stroke="#000000" d="M 373 2016 L 386 2016 L 386 2044 L 373 2044 L 373 2016 Z Z" stroke-miterlimit="10"/></g><g transform="translate(-6,2) scale(1,1)"><path fill="none" stroke="#000000" d="M 386 2024 L 416 2024 L 416 2044 L 393 2044" stroke-miterlimit="10"/></g><g transform="translate(-6,2) scale(1,1)"><path fill="#000000" stroke="none" d="M 403.16267485762415 2039.7904822439841 L 393 2044 L 403.16267485762415 2048.209517756016"/></g><g transform="translate(-6,2) scale(1,1)"><path fill="none" stroke="#000000" d="M 403.16267485762415 2039.7904822439841 L 393 2044 L 403.16267485762415 2048.209517756016 L 403.16267485762415 2039.7904822439841" stroke-miterlimit="10"/></g><g transform="translate(-6,2) scale(1,1)"><g><path fill="none" stroke="none"/><text fill="#000000" stroke="none" font-family="Arial" font-size="13px" font-style="normal" font-weight="normal" text-decoration="none" x="438.5" y="2038">Display edit form</text></g></g><g transform="translate(-6,2) scale(1,1)"><rect fill="#ffffff" stroke="none" x="380" y="2044" width="13" height="28"/></g><g transform="translate(-6,2) scale(1,1)"><path fill="none" stroke="#000000" d="M 380 2044 L 393 2044 L 393 2072 L 380 2072 L 380 2044 Z Z" stroke-miterlimit="10"/></g><g transform="translate(-6,2) scale(1,1)"><path fill="none" stroke="#000000" d="M 102 2073 L 373 2073" stroke-miterlimit="10"/></g><g transform="translate(-6,2) scale(1,1)"><path fill="#000000" stroke="none" d="M 362.83732514237585 2077.209517756016 L 373 2073 L 362.83732514237585 2068.790482243984"/></g><g transform="translate(-6,2) scale(1,1)"><path fill="none" stroke="#000000" d="M 362.83732514237585 2077.209517756016 L 373 2073 L 362.83732514237585 2068.790482243984 L 362.83732514237585 2077.209517756016" stroke-miterlimit="10"/></g><g transform="translate(-6,2) scale(1,1)"><g><path fill="none" stroke="none"/><text fill="#000000" stroke="none" font-family="Arial" font-size="13px" font-style="normal" font-weight="normal" text-decoration="none" x="170.5" y="2068">Change subscribe data</text></g></g><g transform="translate(-6,2) scale(1,1)"><rect fill="#ffffff" stroke="none" x="373" y="2073" width="13" height="58"/></g><g transform="translate(-6,2) scale(1,1)"><path fill="none" stroke="#000000" d="M 373 2073 L 386 2073 L 386 2131 L 373 2131 L 373 2073 Z Z" stroke-miterlimit="10"/></g><g transform="translate(-6,2) scale(1,1)"><path fill="none" stroke="#000000" d="M 386 2080 L 416 2080 L 416 2100 L 393 2100" stroke-miterlimit="10"/></g><g transform="translate(-6,2) scale(1,1)"><path fill="#000000" stroke="none" d="M 403.16267485762415 2095.790482243984 L 393 2100 L 403.16267485762415 2104.209517756016"/></g><g transform="translate(-6,2) scale(1,1)"><path fill="none" stroke="#000000" d="M 403.16267485762415 2095.790482243984 L 393 2100 L 403.16267485762415 2104.209517756016 L 403.16267485762415 2095.790482243984" stroke-miterlimit="10"/></g><g transform="translate(-6,2) scale(1,1)"><g><path fill="none" stroke="none"/><text fill="#000000" stroke="none" font-family="Arial" font-size="13px" font-style="normal" font-weight="normal" text-decoration="none" x="449.42333984375" y="2094">Validation</text></g></g><g transform="translate(-6,2) scale(1,1)"><rect fill="#ffffff" stroke="none" x="380" y="2100" width="13" height="28"/></g><g transform="translate(-6,2) scale(1,1)"><path fill="none" stroke="#000000" d="M 380 2100 L 393 2100 L 393 2128 L 380 2128 L 380 2100 Z Z" stroke-miterlimit="10"/></g><g transform="translate(-6,2) scale(1,1)"><path fill="none" stroke="#000000" d="M 386 2129 L 646 2129" stroke-miterlimit="10"/></g><g transform="translate(-6,2) scale(1,1)"><path fill="none" stroke="#000000" d="M 635.8373251423759 2133.209517756016 L 646 2129 L 635.8373251423758 2124.790482243984" stroke-miterlimit="10"/></g><g transform="translate(-6,2) scale(1,1)"><g><path fill="none" stroke="none"/><text fill="#000000" stroke="none" font-family="Arial" font-size="13px" font-style="normal" font-weight="normal" text-decoration="none" x="474.5" y="2124">Send changes</text></g></g><g transform="translate(-6,2) scale(1,1)"><rect fill="#ffffff" stroke="none" x="646" y="2129" width="13" height="62"/></g><g transform="translate(-6,2) scale(1,1)"><path fill="none" stroke="#000000" d="M 646 2129 L 659 2129 L 659 2191 L 646 2191 L 646 2129 Z Z" stroke-miterlimit="10"/></g><g transform="translate(-6,2) scale(1,1)"><path fill="none" stroke="#000000" d="M 659 2136 L 689 2136 L 689 2156 L 666 2156" stroke-miterlimit="10"/></g><g transform="translate(-6,2) scale(1,1)"><path fill="#000000" stroke="none" d="M 676.1626748576241 2151.790482243984 L 666 2156 L 676.1626748576241 2160.209517756016"/></g><g transform="translate(-6,2) scale(1,1)"><path fill="none" stroke="#000000" d="M 676.1626748576241 2151.790482243984 L 666 2156 L 676.1626748576241 2160.209517756016 L 676.1626748576241 2151.790482243984" stroke-miterlimit="10"/></g><g transform="translate(-6,2) scale(1,1)"><g><path fill="none" stroke="none"/><text fill="#000000" stroke="none" font-family="Arial" font-size="13px" font-style="normal" font-weight="normal" text-decoration="none" x="713.42333984375" y="2147">Validation</text></g></g><g transform="translate(-6,2) scale(1,1)"><rect fill="#ffffff" stroke="none" x="653" y="2156" width="13" height="32"/></g><g transform="translate(-6,2) scale(1,1)"><path fill="none" stroke="#000000" d="M 653 2156 L 666 2156 L 666 2188 L 653 2188 L 653 2156 Z Z" stroke-miterlimit="10"/></g><g transform="translate(-6,2) scale(1,1)"><path fill="none" stroke="#000000" d="M 653 2200 L 920 2200" stroke-miterlimit="10"/></g><g transform="translate(-6,2) scale(1,1)"><path fill="#000000" stroke="none" d="M 909.8373251423759 2204.209517756016 L 920 2200 L 909.8373251423758 2195.790482243984"/></g><g transform="translate(-6,2) scale(1,1)"><path fill="none" stroke="#000000" d="M 909.8373251423759 2204.209517756016 L 920 2200 L 909.8373251423758 2195.790482243984 L 909.8373251423759 2204.209517756016" stroke-miterlimit="10"/></g><g transform="translate(-6,2) scale(1,1)"><g><path fill="none" stroke="none"/><text fill="#000000" stroke="none" font-family="Arial" font-size="13px" font-style="normal" font-weight="normal" text-decoration="none" x="712.5" y="2195">Request to edit subscribe</text></g></g><g transform="translate(-6,2) scale(1,1)"><rect fill="#ffffff" stroke="none" x="920" y="2200" width="13" height="28"/></g><g transform="translate(-6,2) scale(1,1)"><path fill="none" stroke="#000000" d="M 920 2200 L 933 2200 L 933 2228 L 920 2228 L 920 2200 Z Z" stroke-miterlimit="10"/></g><g transform="translate(-6,2) scale(1,1)"><path fill="none" stroke="#000000" d="M 920 2216 L 653 2216" stroke-miterlimit="10" stroke-dasharray="3"/></g><g transform="translate(-6,2) scale(1,1)"><path fill="none" stroke="#000000" d="M 663.1626748576241 2211.790482243984 L 653 2216 L 663.1626748576241 2220.209517756016" stroke-miterlimit="10"/></g><g transform="translate(-6,2) scale(1,1)"><g><path fill="none" stroke="none"/><text fill="#000000" stroke="none" font-family="Arial" font-size="13px" font-style="normal" font-weight="normal" text-decoration="none" x="705.5" y="2231">Reponse success message</text></g></g><g transform="translate(-6,2) scale(1,1)"><path fill="none" stroke="#000000" d="M 653 2232 L 380 2232" stroke-miterlimit="10" stroke-dasharray="3"/></g><g transform="translate(-6,2) scale(1,1)"><path fill="none" stroke="#000000" d="M 390.16267485762415 2227.790482243984 L 380 2232 L 390.16267485762415 2236.209517756016" stroke-miterlimit="10"/></g><g transform="translate(-6,2) scale(1,1)"><g><path fill="none" stroke="none"/><text fill="#000000" stroke="none" font-family="Arial" font-size="13px" font-style="normal" font-weight="normal" text-decoration="none" x="470.5" y="2247">Display canges</text></g></g><g transform="translate(-6,2) scale(1,1)"><path fill="none" stroke="#000000" d="M 653 2288 L 380 2288" stroke-miterlimit="10" stroke-dasharray="3"/></g><g transform="translate(-6,2) scale(1,1)"><path fill="none" stroke="#000000" d="M 390.16267485762415 2283.790482243984 L 380 2288 L 390.16267485762415 2292.209517756016" stroke-miterlimit="10"/></g><g transform="translate(-6,2) scale(1,1)"><g><path fill="none" stroke="none"/><text fill="#000000" stroke="none" font-family="Arial" font-size="13px" font-style="normal" font-weight="normal" text-decoration="none" x="448.5" y="2303">Display failed message</text></g></g><g transform="translate(-6,2) scale(1,1)"><path fill="none" stroke="#000000" d="M 102 2371 L 373 2371" stroke-miterlimit="10"/></g><g transform="translate(-6,2) scale(1,1)"><path fill="#000000" stroke="none" d="M 362.83732514237585 2375.209517756016 L 373 2371 L 362.83732514237585 2366.790482243984"/></g><g transform="translate(-6,2) scale(1,1)"><path fill="none" stroke="#000000" d="M 362.83732514237585 2375.209517756016 L 373 2371 L 362.83732514237585 2366.790482243984 L 362.83732514237585 2375.209517756016" stroke-miterlimit="10"/></g><g transform="translate(-6,2) scale(1,1)"><g><path fill="none" stroke="none"/><text fill="#000000" stroke="none" font-family="Arial" font-size="13px" font-style="normal" font-weight="normal" text-decoration="none" x="189.5" y="2366">Select subscribe</text></g></g><g transform="translate(-6,2) scale(1,1)"><rect fill="#ffffff" stroke="none" x="373" y="2371" width="13" height="78"/></g><g transform="translate(-6,2) scale(1,1)"><path fill="none" stroke="#000000" d="M 373 2371 L 386 2371 L 386 2449 L 373 2449 L 373 2371 Z Z" stroke-miterlimit="10"/></g><g transform="translate(-6,2) scale(1,1)"><path fill="none" stroke="#000000" d="M 386 2376 L 416 2376 L 416 2396 L 393 2396" stroke-miterlimit="10"/></g><g transform="translate(-6,2) scale(1,1)"><path fill="#000000" stroke="none" d="M 403.16267485762415 2391.790482243984 L 393 2396 L 403.16267485762415 2400.209517756016"/></g><g transform="translate(-6,2) scale(1,1)"><path fill="none" stroke="#000000" d="M 403.16267485762415 2391.790482243984 L 393 2396 L 403.16267485762415 2400.209517756016 L 403.16267485762415 2391.790482243984" stroke-miterlimit="10"/></g><g transform="translate(-6,2) scale(1,1)"><g><path fill="none" stroke="none"/><text fill="#000000" stroke="none" font-family="Arial" font-size="13px" font-style="normal" font-weight="normal" text-decoration="none" x="427.5" y="2390">Display delete button</text></g></g><g transform="translate(-6,2) scale(1,1)"><rect fill="#ffffff" stroke="none" x="380" y="2396" width="13" height="50"/></g><g transform="translate(-6,2) scale(1,1)"><path fill="none" stroke="#000000" d="M 380 2396 L 393 2396 L 393 2446 L 380 2446 L 380 2396 Z Z" stroke-miterlimit="10"/></g><g transform="translate(-6,2) scale(1,1)"><path fill="none" stroke="#000000" d="M 102 2415 L 387 2415" stroke-miterlimit="10"/></g><g transform="translate(-6,2) scale(1,1)"><path fill="#000000" stroke="none" d="M 376.83732514237585 2419.209517756016 L 387 2415 L 376.83732514237585 2410.790482243984"/></g><g transform="translate(-6,2) scale(1,1)"><path fill="none" stroke="#000000" d="M 376.83732514237585 2419.209517756016 L 387 2415 L 376.83732514237585 2410.790482243984 L 376.83732514237585 2419.209517756016" stroke-miterlimit="10"/></g><g transform="translate(-6,2) scale(1,1)"><g><path fill="none" stroke="none"/><text fill="#000000" stroke="none" font-family="Arial" font-size="13px" font-style="normal" font-weight="normal" text-decoration="none" x="190.5" y="2410">Click delete button</text></g></g><g transform="translate(-6,2) scale(1,1)"><rect fill="#ffffff" stroke="none" x="387" y="2415" width="13" height="28"/></g><g transform="translate(-6,2) scale(1,1)"><path fill="none" stroke="#000000" d="M 387 2415 L 400 2415 L 400 2443 L 387 2443 L 387 2415 Z Z" stroke-miterlimit="10"/></g><g transform="translate(-6,2) scale(1,1)"><path fill="none" stroke="#000000" d="M 400 2434 L 646 2434" stroke-miterlimit="10"/></g><g transform="translate(-6,2) scale(1,1)"><path fill="#000000" stroke="none" d="M 635.8373251423759 2438.209517756016 L 646 2434 L 635.8373251423758 2429.790482243984"/></g><g transform="translate(-6,2) scale(1,1)"><path fill="none" stroke="#000000" d="M 635.8373251423759 2438.209517756016 L 646 2434 L 635.8373251423758 2429.790482243984 L 635.8373251423759 2438.209517756016" stroke-miterlimit="10"/></g><g transform="translate(-6,2) scale(1,1)"><g><path fill="none" stroke="none"/><text fill="#000000" stroke="none" font-family="Arial" font-size="13px" font-style="normal" font-weight="normal" text-decoration="none" x="459.5" y="2429">Send deletion request</text></g></g><g transform="translate(-6,2) scale(1,1)"><rect fill="#ffffff" stroke="none" x="646" y="2434" width="13" height="57"/></g><g transform="translate(-6,2) scale(1,1)"><path fill="none" stroke="#000000" d="M 646 2434 L 659 2434 L 659 2491 L 646 2491 L 646 2434 Z Z" stroke-miterlimit="10"/></g><g transform="translate(-6,2) scale(1,1)"><path fill="none" stroke="#000000" d="M 659 2440 L 689 2440 L 689 2460 L 666 2460" stroke-miterlimit="10"/></g><g transform="translate(-6,2) scale(1,1)"><path fill="#000000" stroke="none" d="M 676.1626748576241 2455.790482243984 L 666 2460 L 676.1626748576241 2464.209517756016"/></g><g transform="translate(-6,2) scale(1,1)"><path fill="none" stroke="#000000" d="M 676.1626748576241 2455.790482243984 L 666 2460 L 676.1626748576241 2464.209517756016 L 676.1626748576241 2455.790482243984" stroke-miterlimit="10"/></g><g transform="translate(-6,2) scale(1,1)"><g><path fill="none" stroke="none"/><text fill="#000000" stroke="none" font-family="Arial" font-size="13px" font-style="normal" font-weight="normal" text-decoration="none" x="705.42333984375" y="2454">Validation</text></g></g><g transform="translate(-6,2) scale(1,1)"><rect fill="#ffffff" stroke="none" x="653" y="2460" width="13" height="28"/></g><g transform="translate(-6,2) scale(1,1)"><path fill="none" stroke="#000000" d="M 653 2460 L 666 2460 L 666 2488 L 653 2488 L 653 2460 Z Z" stroke-miterlimit="10"/></g><g transform="translate(-6,2) scale(1,1)"><path fill="none" stroke="#000000" d="M 653 2501 L 920 2501" stroke-miterlimit="10"/></g><g transform="translate(-6,2) scale(1,1)"><path fill="#000000" stroke="none" d="M 909.8373251423759 2505.209517756016 L 920 2501 L 909.8373251423758 2496.790482243984"/></g><g transform="translate(-6,2) scale(1,1)"><path fill="none" stroke="#000000" d="M 909.8373251423759 2505.209517756016 L 920 2501 L 909.8373251423758 2496.790482243984 L 909.8373251423759 2505.209517756016" stroke-miterlimit="10"/></g><g transform="translate(-6,2) scale(1,1)"><g><path fill="none" stroke="none"/><text fill="#000000" stroke="none" font-family="Arial" font-size="13px" font-style="normal" font-weight="normal" text-decoration="none" x="698.5" y="2496">Request to delete subscription</text></g></g><g transform="translate(-6,2) scale(1,1)"><rect fill="#ffffff" stroke="none" x="920" y="2501" width="13" height="28"/></g><g transform="translate(-6,2) scale(1,1)"><path fill="none" stroke="#000000" d="M 920 2501 L 933 2501 L 933 2529 L 920 2529 L 920 2501 Z Z" stroke-miterlimit="10"/></g><g transform="translate(-6,2) scale(1,1)"><path fill="none" stroke="#000000" d="M 920 2522 L 653 2522" stroke-miterlimit="10" stroke-dasharray="3"/></g><g transform="translate(-6,2) scale(1,1)"><path fill="none" stroke="#000000" d="M 663.1626748576241 2517.790482243984 L 653 2522 L 663.1626748576241 2526.209517756016" stroke-miterlimit="10"/></g><g transform="translate(-6,2) scale(1,1)"><g><path fill="none" stroke="none"/><text fill="#000000" stroke="none" font-family="Arial" font-size="13px" font-style="normal" font-weight="normal" text-decoration="none" x="702.5" y="2537">Response success message</text></g></g><g transform="translate(-6,2) scale(1,1)"><path fill="none" stroke="#000000" d="M 653 2536 L 380 2536" stroke-miterlimit="10" stroke-dasharray="3"/></g><g transform="translate(-6,2) scale(1,1)"><path fill="none" stroke="#000000" d="M 390.16267485762415 2531.790482243984 L 380 2536 L 390.16267485762415 2540.209517756016" stroke-miterlimit="10"/></g><g transform="translate(-6,2) scale(1,1)"><g><path fill="none" stroke="none"/><text fill="#000000" stroke="none" font-family="Arial" font-size="13px" font-style="normal" font-weight="normal" text-decoration="none" x="440.5" y="2551">Display success message</text></g></g><g transform="translate(-6,2) scale(1,1)"><path fill="none" stroke="#000000" d="M 653 2600 L 380 2600" stroke-miterlimit="10" stroke-dasharray="3"/></g><g transform="translate(-6,2) scale(1,1)"><path fill="none" stroke="#000000" d="M 390.16267485762415 2595.790482243984 L 380 2600 L 390.16267485762415 2604.209517756016" stroke-miterlimit="10"/></g><g transform="translate(-6,2) scale(1,1)"><g><path fill="none" stroke="none"/><text fill="#000000" stroke="none" font-family="Arial" font-size="13px" font-style="normal" font-weight="normal" text-decoration="none" x="448.5" y="2615">Display failed message</text></g></g><g transform="translate(-6,2) scale(1,1)"><path fill="none" stroke="#000000" d="M 352 464 L 943 464 L 943 623 L 352 623 L 352 464" stroke-miterlimit="10"/></g><g transform="translate(-6,2) scale(1,1)"><path fill="#ffffff" stroke="none" d="M 352 464 L 352 486 L 546.9658203125 486 L 557.9658203125 475 L 557.9658203125 464 L 352 464"/></g><g transform="translate(-6,2) scale(1,1)"><path fill="none" stroke="#000000" d="M 352 464 L 352 486 L 546.9658203125 486 L 557.9658203125 475 L 557.9658203125 464 L 352 464 L 352 464" stroke-miterlimit="10"/></g><g transform="translate(-6,2) scale(1,1)"><g><path fill="none" stroke="none"/><text fill="#000000" stroke="none" font-family="Arial" font-size="13px" font-style="normal" font-weight="normal" text-decoration="none" x="376.72998046875" y="480">Validation check (add client )</text></g></g><g transform="translate(-6,2) scale(1,1)"><g><path fill="none" stroke="none"/><text fill="#000000" stroke="none" font-family="Arial" font-size="13px" font-style="normal" font-weight="bold" text-decoration="none" x="356.279541015625" y="480">alt</text></g></g><g transform="translate(-6,2) scale(1,1)"><g><path fill="none" stroke="none"/><text fill="#000000" stroke="none" font-family="Arial" font-size="13px" font-style="normal" font-weight="normal" text-decoration="none" x="371.5" y="513">[Validation success]</text></g></g><g transform="translate(-6,2) scale(1,1)"><path fill="none" stroke="#000000" d="M 352 553 L 943 553" stroke-miterlimit="10" stroke-dasharray="10,3"/></g><g transform="translate(-6,2) scale(1,1)"><g><path fill="none" stroke="none"/><text fill="#000000" stroke="none" font-family="Arial" font-size="13px" font-style="normal" font-weight="normal" text-decoration="none" x="371.5" y="579">[Validation failed]</text></g></g><g transform="translate(-6,2) scale(1,1)"><path fill="none" stroke="#000000" d="M 80 256 L 951 256 L 951 631 L 80 631 L 80 256" stroke-miterlimit="10"/></g><g transform="translate(-6,2) scale(1,1)"><path fill="#ffffff" stroke="none" d="M 80 256 L 80 278 L 171.16259765625 278 L 182.16259765625 267 L 182.16259765625 256 L 80 256"/></g><g transform="translate(-6,2) scale(1,1)"><path fill="none" stroke="#000000" d="M 80 256 L 80 278 L 171.16259765625 278 L 182.16259765625 267 L 182.16259765625 256 L 80 256 L 80 256" stroke-miterlimit="10"/></g><g transform="translate(-6,2) scale(1,1)"><g><path fill="none" stroke="none"/><text fill="#000000" stroke="none" font-family="Arial" font-size="13px" font-style="normal" font-weight="normal" text-decoration="none" x="109.07177734375" y="272">Add client</text></g></g><g transform="translate(-6,2) scale(1,1)"><g><path fill="none" stroke="none"/><text fill="#000000" stroke="none" font-family="Arial" font-size="13px" font-style="normal" font-weight="bold" text-decoration="none" x="83.930419921875" y="271.5">opt</text></g></g><g transform="translate(-6,2) scale(1,1)"><path fill="none" stroke="#000000" d="M 360 912 L 951 912 L 951 1080 L 360 1080 L 360 912" stroke-miterlimit="10"/></g><g transform="translate(-6,2) scale(1,1)"><path fill="#ffffff" stroke="none" d="M 360 912 L 360 934 L 550.6240234375 934 L 561.6240234375 923 L 561.6240234375 912 L 360 912"/></g><g transform="translate(-6,2) scale(1,1)"><path fill="none" stroke="#000000" d="M 360 912 L 360 934 L 550.6240234375 934 L 561.6240234375 923 L 561.6240234375 912 L 360 912 L 360 912" stroke-miterlimit="10"/></g><g transform="translate(-6,2) scale(1,1)"><g><path fill="none" stroke="none"/><text fill="#000000" stroke="none" font-family="Arial" font-size="13px" font-style="normal" font-weight="normal" text-decoration="none" x="384.72998046875" y="928">Validation check (edit client)</text></g></g><g transform="translate(-6,2) scale(1,1)"><g><path fill="none" stroke="none"/><text fill="#000000" stroke="none" font-family="Arial" font-size="13px" font-style="normal" font-weight="bold" text-decoration="none" x="364.279541015625" y="928">alt</text></g></g><g transform="translate(-6,2) scale(1,1)"><g><path fill="none" stroke="none"/><text fill="#000000" stroke="none" font-family="Arial" font-size="13px" font-style="normal" font-weight="normal" text-decoration="none" x="379.5" y="961">[Validation success]</text></g></g><g transform="translate(-6,2) scale(1,1)"><path fill="none" stroke="#000000" d="M 360 1009 L 951 1009" stroke-miterlimit="10" stroke-dasharray="10,3"/></g><g transform="translate(-6,2) scale(1,1)"><g><path fill="none" stroke="none"/><text fill="#000000" stroke="none" font-family="Arial" font-size="13px" font-style="normal" font-weight="normal" text-decoration="none" x="379.5" y="1035">[Validation failed]</text></g></g><g transform="translate(-6,2) scale(1,1)"><path fill="none" stroke="#000000" d="M 72 672 L 959 672 L 959 1087 L 72 1087 L 72 672" stroke-miterlimit="10"/></g><g transform="translate(-6,2) scale(1,1)"><path fill="#ffffff" stroke="none" d="M 72 672 L 72 694 L 162.4326171875 694 L 173.4326171875 683 L 173.4326171875 672 L 72 672"/></g><g transform="translate(-6,2) scale(1,1)"><path fill="none" stroke="#000000" d="M 72 672 L 72 694 L 162.4326171875 694 L 173.4326171875 683 L 173.4326171875 672 L 72 672 L 72 672" stroke-miterlimit="10"/></g><g transform="translate(-6,2) scale(1,1)"><g><path fill="none" stroke="none"/><text fill="#000000" stroke="none" font-family="Arial" font-size="13px" font-style="normal" font-weight="normal" text-decoration="none" x="101.07177734375" y="688">Edit client</text></g></g><g transform="translate(-6,2) scale(1,1)"><g><path fill="none" stroke="none"/><text fill="#000000" stroke="none" font-family="Arial" font-size="13px" font-style="normal" font-weight="bold" text-decoration="none" x="75.930419921875" y="687.5">opt</text></g></g><g transform="translate(-6,2) scale(1,1)"><path fill="none" stroke="#000000" d="M 360 1248 L 951 1248 L 951 1392 L 360 1392 L 360 1248" stroke-miterlimit="10"/></g><g transform="translate(-6,2) scale(1,1)"><path fill="#ffffff" stroke="none" d="M 360 1248 L 360 1270 L 565.083984375 1270 L 576.083984375 1259 L 576.083984375 1248 L 360 1248"/></g><g transform="translate(-6,2) scale(1,1)"><path fill="none" stroke="#000000" d="M 360 1248 L 360 1270 L 565.083984375 1270 L 576.083984375 1259 L 576.083984375 1248 L 360 1248 L 360 1248" stroke-miterlimit="10"/></g><g transform="translate(-6,2) scale(1,1)"><g><path fill="none" stroke="none"/><text fill="#000000" stroke="none" font-family="Arial" font-size="13px" font-style="normal" font-weight="normal" text-decoration="none" x="384.72998046875" y="1264">Validation check (delete client)</text></g></g><g transform="translate(-6,2) scale(1,1)"><g><path fill="none" stroke="none"/><text fill="#000000" stroke="none" font-family="Arial" font-size="13px" font-style="normal" font-weight="bold" text-decoration="none" x="364.279541015625" y="1264">alt</text></g></g><g transform="translate(-6,2) scale(1,1)"><g><path fill="none" stroke="none"/><text fill="#000000" stroke="none" font-family="Arial" font-size="13px" font-style="normal" font-weight="normal" text-decoration="none" x="379.5" y="1297">[Validation success]</text></g></g><g transform="translate(-6,2) scale(1,1)"><path fill="none" stroke="#000000" d="M 360 1337 L 951 1337" stroke-miterlimit="10" stroke-dasharray="10,3"/></g><g transform="translate(-6,2) scale(1,1)"><g><path fill="none" stroke="none"/><text fill="#000000" stroke="none" font-family="Arial" font-size="13px" font-style="normal" font-weight="normal" text-decoration="none" x="379.5" y="1363">[Validation failed]</text></g></g><g transform="translate(-6,2) scale(1,1)"><path fill="none" stroke="#000000" d="M 64 1096 L 959 1096 L 959 1399 L 64 1399 L 64 1096" stroke-miterlimit="10"/></g><g transform="translate(-6,2) scale(1,1)"><path fill="#ffffff" stroke="none" d="M 64 1096 L 64 1118 L 169.60986328125 1118 L 180.60986328125 1107 L 180.60986328125 1096 L 64 1096"/></g><g transform="translate(-6,2) scale(1,1)"><path fill="none" stroke="#000000" d="M 64 1096 L 64 1118 L 169.60986328125 1118 L 180.60986328125 1107 L 180.60986328125 1096 L 64 1096 L 64 1096" stroke-miterlimit="10"/></g><g transform="translate(-6,2) scale(1,1)"><g><path fill="none" stroke="none"/><text fill="#000000" stroke="none" font-family="Arial" font-size="13px" font-style="normal" font-weight="normal" text-decoration="none" x="93.07177734375" y="1112">Delete client</text></g></g><g transform="translate(-6,2) scale(1,1)"><g><path fill="none" stroke="none"/><text fill="#000000" stroke="none" font-family="Arial" font-size="13px" font-style="normal" font-weight="bold" text-decoration="none" x="67.930419921875" y="1111.5">opt</text></g></g><g transform="translate(-6,2) scale(1,1)"><path fill="none" stroke="#000000" d="M 40 232 L 983 232 L 983 1416 L 40 1416 L 40 232" stroke-miterlimit="10"/></g><g transform="translate(-6,2) scale(1,1)"><path fill="#ffffff" stroke="none" d="M 40 232 L 40 254 L 161.5107421875 254 L 172.5107421875 243 L 172.5107421875 232 L 40 232"/></g><g transform="translate(-6,2) scale(1,1)"><path fill="none" stroke="#000000" d="M 40 232 L 40 254 L 161.5107421875 254 L 172.5107421875 243 L 172.5107421875 232 L 40 232 L 40 232" stroke-miterlimit="10"/></g><g transform="translate(-6,2) scale(1,1)"><g><path fill="none" stroke="none"/><text fill="#000000" stroke="none" font-family="Arial" font-size="13px" font-style="normal" font-weight="normal" text-decoration="none" x="69.07177734375" y="248">Manage clients</text></g></g><g transform="translate(-6,2) scale(1,1)"><g><path fill="none" stroke="none"/><text fill="#000000" stroke="none" font-family="Arial" font-size="13px" font-style="normal" font-weight="bold" text-decoration="none" x="43.930419921875" y="247.5">opt</text></g></g><g transform="translate(-6,2) scale(1,1)"><path fill="none" stroke="#000000" d="M 360 1800 L 951 1800 L 951 1959 L 360 1959 L 360 1800" stroke-miterlimit="10"/></g><g transform="translate(-6,2) scale(1,1)"><path fill="#ffffff" stroke="none" d="M 360 1800 L 360 1822 L 576.64306640625 1822 L 587.64306640625 1811 L 587.64306640625 1800 L 360 1800"/></g><g transform="translate(-6,2) scale(1,1)"><path fill="none" stroke="#000000" d="M 360 1800 L 360 1822 L 576.64306640625 1822 L 587.64306640625 1811 L 587.64306640625 1800 L 360 1800 L 360 1800" stroke-miterlimit="10"/></g><g transform="translate(-6,2) scale(1,1)"><g><path fill="none" stroke="none"/><text fill="#000000" stroke="none" font-family="Arial" font-size="13px" font-style="normal" font-weight="normal" text-decoration="none" x="384.72998046875" y="1816">Validation check (add subscribe)</text></g></g><g transform="translate(-6,2) scale(1,1)"><g><path fill="none" stroke="none"/><text fill="#000000" stroke="none" font-family="Arial" font-size="13px" font-style="normal" font-weight="bold" text-decoration="none" x="364.279541015625" y="1816">alt</text></g></g><g transform="translate(-6,2) scale(1,1)"><g><path fill="none" stroke="none"/><text fill="#000000" stroke="none" font-family="Arial" font-size="13px" font-style="normal" font-weight="normal" text-decoration="none" x="379.5" y="1849">[Validation success]</text></g></g><g transform="translate(-6,2) scale(1,1)"><path fill="none" stroke="#000000" d="M 360 1881 L 951 1881" stroke-miterlimit="10" stroke-dasharray="10,3"/></g><g transform="translate(-6,2) scale(1,1)"><g><path fill="none" stroke="none"/><text fill="#000000" stroke="none" font-family="Arial" font-size="13px" font-style="normal" font-weight="normal" text-decoration="none" x="379.5" y="1907">[Validation failed]</text></g></g><g transform="translate(-6,2) scale(1,1)"><path fill="none" stroke="#000000" d="M 80 1592 L 959 1592 L 959 1967 L 80 1967 L 80 1592" stroke-miterlimit="10"/></g><g transform="translate(-6,2) scale(1,1)"><path fill="#ffffff" stroke="none" d="M 80 1592 L 80 1614 L 210.181640625 1614 L 221.181640625 1603 L 221.181640625 1592 L 80 1592"/></g><g transform="translate(-6,2) scale(1,1)"><path fill="none" stroke="#000000" d="M 80 1592 L 80 1614 L 210.181640625 1614 L 221.181640625 1603 L 221.181640625 1592 L 80 1592 L 80 1592" stroke-miterlimit="10"/></g><g transform="translate(-6,2) scale(1,1)"><g><path fill="none" stroke="none"/><text fill="#000000" stroke="none" font-family="Arial" font-size="13px" font-style="normal" font-weight="normal" text-decoration="none" x="109.07177734375" y="1608">Add subscription</text></g></g><g transform="translate(-6,2) scale(1,1)"><g><path fill="none" stroke="none"/><text fill="#000000" stroke="none" font-family="Arial" font-size="13px" font-style="normal" font-weight="bold" text-decoration="none" x="83.930419921875" y="1607.5">opt</text></g></g><g transform="translate(-6,2) scale(1,1)"><path fill="none" stroke="#000000" d="M 352 2176 L 943 2176 L 943 2311 L 352 2311 L 352 2176" stroke-miterlimit="10"/></g><g transform="translate(-6,2) scale(1,1)"><path fill="#ffffff" stroke="none" d="M 352 2176 L 352 2198 L 581.64306640625 2198 L 592.64306640625 2187 L 592.64306640625 2176 L 352 2176"/></g><g transform="translate(-6,2) scale(1,1)"><path fill="none" stroke="#000000" d="M 352 2176 L 352 2198 L 581.64306640625 2198 L 592.64306640625 2187 L 592.64306640625 2176 L 352 2176 L 352 2176" stroke-miterlimit="10"/></g><g transform="translate(-6,2) scale(1,1)"><g><path fill="none" stroke="none"/><text fill="#000000" stroke="none" font-family="Arial" font-size="13px" font-style="normal" font-weight="normal" text-decoration="none" x="376.72998046875" y="2192">Validation check (edit subscribtion)</text></g></g><g transform="translate(-6,2) scale(1,1)"><g><path fill="none" stroke="none"/><text fill="#000000" stroke="none" font-family="Arial" font-size="13px" font-style="normal" font-weight="bold" text-decoration="none" x="356.279541015625" y="2192">alt</text></g></g><g transform="translate(-6,2) scale(1,1)"><g><path fill="none" stroke="none"/><text fill="#000000" stroke="none" font-family="Arial" font-size="13px" font-style="normal" font-weight="normal" text-decoration="none" x="371.5" y="2225">[Validation success]</text></g></g><g transform="translate(-6,2) scale(1,1)"><path fill="none" stroke="#000000" d="M 352 2249 L 943 2249" stroke-miterlimit="10" stroke-dasharray="10,3"/></g><g transform="translate(-6,2) scale(1,1)"><g><path fill="none" stroke="none"/><text fill="#000000" stroke="none" font-family="Arial" font-size="13px" font-style="normal" font-weight="normal" text-decoration="none" x="371.5" y="2275">[Validation failed]</text></g></g><g transform="translate(-6,2) scale(1,1)"><path fill="none" stroke="#000000" d="M 80 1976 L 959 1976 L 959 2320 L 80 2320 L 80 1976" stroke-miterlimit="10"/></g><g transform="translate(-6,2) scale(1,1)"><path fill="#ffffff" stroke="none" d="M 80 1976 L 80 1998 L 209.45166015625 1998 L 220.45166015625 1987 L 220.45166015625 1976 L 80 1976"/></g><g transform="translate(-6,2) scale(1,1)"><path fill="none" stroke="#000000" d="M 80 1976 L 80 1998 L 209.45166015625 1998 L 220.45166015625 1987 L 220.45166015625 1976 L 80 1976 L 80 1976" stroke-miterlimit="10"/></g><g transform="translate(-6,2) scale(1,1)"><g><path fill="none" stroke="none"/><text fill="#000000" stroke="none" font-family="Arial" font-size="13px" font-style="normal" font-weight="normal" text-decoration="none" x="109.07177734375" y="1992">Edit subscribtion</text></g></g><g transform="translate(-6,2) scale(1,1)"><g><path fill="none" stroke="none"/><text fill="#000000" stroke="none" font-family="Arial" font-size="13px" font-style="normal" font-weight="bold" text-decoration="none" x="83.930419921875" y="1991.5">opt</text></g></g><g transform="translate(-6,2) scale(1,1)"><path fill="none" stroke="#000000" d="M 360 2480 L 943 2480 L 943 2631 L 360 2631 L 360 2480" stroke-miterlimit="10"/></g><g transform="translate(-6,2) scale(1,1)"><path fill="#ffffff" stroke="none" d="M 360 2480 L 360 2502 L 604.10302734375 2502 L 615.10302734375 2491 L 615.10302734375 2480 L 360 2480"/></g><g transform="translate(-6,2) scale(1,1)"><path fill="none" stroke="#000000" d="M 360 2480 L 360 2502 L 604.10302734375 2502 L 615.10302734375 2491 L 615.10302734375 2480 L 360 2480 L 360 2480" stroke-miterlimit="10"/></g><g transform="translate(-6,2) scale(1,1)"><g><path fill="none" stroke="none"/><text fill="#000000" stroke="none" font-family="Arial" font-size="13px" font-style="normal" font-weight="normal" text-decoration="none" x="384.72998046875" y="2496">Validation check (delete subscription)</text></g></g><g transform="translate(-6,2) scale(1,1)"><g><path fill="none" stroke="none"/><text fill="#000000" stroke="none" font-family="Arial" font-size="13px" font-style="normal" font-weight="bold" text-decoration="none" x="364.279541015625" y="2496">alt</text></g></g><g transform="translate(-6,2) scale(1,1)"><g><path fill="none" stroke="none"/><text fill="#000000" stroke="none" font-family="Arial" font-size="13px" font-style="normal" font-weight="normal" text-decoration="none" x="379.5" y="2529">[Validation success]</text></g></g><g transform="translate(-6,2) scale(1,1)"><path fill="none" stroke="#000000" d="M 360 2561 L 943 2561" stroke-miterlimit="10" stroke-dasharray="10,3"/></g><g transform="translate(-6,2) scale(1,1)"><g><path fill="none" stroke="none"/><text fill="#000000" stroke="none" font-family="Arial" font-size="13px" font-style="normal" font-weight="normal" text-decoration="none" x="379.5" y="2587">[Validation failed]</text></g></g><g transform="translate(-6,2) scale(1,1)"><path fill="none" stroke="#000000" d="M 80 2328 L 959 2328 L 959 2639 L 80 2639 L 80 2328" stroke-miterlimit="10"/></g><g transform="translate(-6,2) scale(1,1)"><path fill="#ffffff" stroke="none" d="M 80 2328 L 80 2350 L 224.62890625 2350 L 235.62890625 2339 L 235.62890625 2328 L 80 2328"/></g><g transform="translate(-6,2) scale(1,1)"><path fill="none" stroke="#000000" d="M 80 2328 L 80 2350 L 224.62890625 2350 L 235.62890625 2339 L 235.62890625 2328 L 80 2328 L 80 2328" stroke-miterlimit="10"/></g><g transform="translate(-6,2) scale(1,1)"><g><path fill="none" stroke="none"/><text fill="#000000" stroke="none" font-family="Arial" font-size="13px" font-style="normal" font-weight="normal" text-decoration="none" x="109.07177734375" y="2344">Delete subscription</text></g></g><g transform="translate(-6,2) scale(1,1)"><g><path fill="none" stroke="none"/><text fill="#000000" stroke="none" font-family="Arial" font-size="13px" font-style="normal" font-weight="bold" text-decoration="none" x="83.930419921875" y="2343.5">opt</text></g></g><g transform="translate(-6,2) scale(1,1)"><path fill="none" stroke="#000000" d="M 56 1568 L 975 1568 L 975 2648 L 56 2648 L 56 1568" stroke-miterlimit="10"/></g><g transform="translate(-6,2) scale(1,1)"><path fill="#ffffff" stroke="none" d="M 56 1568 L 56 1590 L 210.02978515625 1590 L 221.02978515625 1579 L 221.02978515625 1568 L 56 1568"/></g><g transform="translate(-6,2) scale(1,1)"><path fill="none" stroke="#000000" d="M 56 1568 L 56 1590 L 210.02978515625 1590 L 221.02978515625 1579 L 221.02978515625 1568 L 56 1568 L 56 1568" stroke-miterlimit="10"/></g><g transform="translate(-6,2) scale(1,1)"><g><path fill="none" stroke="none"/><text fill="#000000" stroke="none" font-family="Arial" font-size="13px" font-style="normal" font-weight="normal" text-decoration="none" x="85.07177734375" y="1584">Manage subscribtion</text></g></g><g transform="translate(-6,2) scale(1,1)"><g><path fill="none" stroke="none"/><text fill="#000000" stroke="none" font-family="Arial" font-size="13px" font-style="normal" font-weight="bold" text-decoration="none" x="59.930419921875" y="1583.5">opt</text></g></g></g></svg>