<svg version="1.1" xmlns="http://www.w3.org/2000/svg" xmlns:xlink="http://www.w3.org/1999/xlink" width="1772" height="2396"><defs/><g><g transform="translate(-22,-6) scale(1,1)"><path fill="none" stroke="#000000" d="M 40 16 L 1784 16 L 1784 2392 L 40 2392 L 40 16" stroke-miterlimit="10"/></g><g transform="translate(-22,-6) scale(1,1)"><path fill="#ffffff" stroke="none" d="M 40 16 L 40 38 L 210.6416015625 38 L 221.6416015625 27 L 221.6416015625 16 L 40 16"/></g><g transform="translate(-22,-6) scale(1,1)"><path fill="none" stroke="#000000" d="M 40 16 L 40 38 L 210.6416015625 38 L 221.6416015625 27 L 221.6416015625 16 L 40 16 L 40 16" stroke-miterlimit="10"/></g><g transform="translate(-22,-6) scale(1,1)"><g><path fill="none" stroke="none"/><text fill="#000000" stroke="none" font-family="Arial" font-size="13px" font-style="normal" font-weight="normal" text-decoration="none" x="64.72998046875" y="32">ClientSequenceDiagram</text></g></g><g transform="translate(-22,-6) scale(1,1)"><g><path fill="none" stroke="none"/><text fill="#000000" stroke="none" font-family="Arial" font-size="13px" font-style="normal" font-weight="bold" text-decoration="none" x="44.279541015625" y="32">sd</text></g></g><g transform="translate(-22,-6) scale(1,1)"><path fill="#ffffff" stroke="none" d="M 78.4654403409091 47.3 C 78.4654403409091 43.82060576 81.34384206309092 41 84.89453125 41 C 88.44522043690908 41 91.3236221590909 43.82060576 91.3236221590909 47.3 C 91.3236221590909 50.779394239999995 88.44522043690908 53.6 84.89453125 53.6 C 81.34384206309092 53.6 78.4654403409091 50.779394239999995 78.4654403409091 47.3 Z"/></g><g transform="translate(-22,-6) scale(1,1)"><path fill="none" stroke="#000000" d="M 78.4654403409091 47.3 C 78.4654403409091 43.82060576 81.34384206309092 41 84.89453125 41 C 88.44522043690908 41 91.3236221590909 43.82060576 91.3236221590909 47.3 C 91.3236221590909 50.779394239999995 88.44522043690908 53.6 84.89453125 53.6 C 81.34384206309092 53.6 78.4654403409091 50.779394239999995 78.4654403409091 47.3 Z" stroke-miterlimit="10"/></g><g transform="translate(-22,-6) scale(1,1)"><path fill="none" stroke="#000000" d="M 84.89453125 53.6 L 84.89453125 66.4" stroke-miterlimit="10"/></g><g transform="translate(-22,-6) scale(1,1)"><path fill="none" stroke="#000000" d="M 78.08725852272727 58.4 L 91.70180397727273 58.4" stroke-miterlimit="10"/></g><g transform="translate(-22,-6) scale(1,1)"><path fill="none" stroke="#000000" d="M 84.89453125 66.4 L 75.43998579545455 79" stroke-miterlimit="10"/></g><g transform="translate(-22,-6) scale(1,1)"><path fill="none" stroke="#000000" d="M 84.89453125 66.4 L 94.34907670454545 79" stroke-miterlimit="10"/></g><g transform="translate(-22,-6) scale(1,1)"><g><path fill="none" stroke="none"/><text fill="#000000" stroke="none" font-family="Arial" font-size="13px" font-style="normal" font-weight="bold" text-decoration="none" x="44.812255859375" y="98">Client: Client</text></g></g><g transform="translate(-22,-6) scale(1,1)"><path fill="none" stroke="#000000" d="M 85.5 105 L 85.5 2376" stroke-miterlimit="10" stroke-dasharray="3"/></g><g transform="translate(-22,-6) scale(1,1)"><path fill="none" stroke="#000000" d="M 1541.404052734375 60 C 1541.404052734375 50.6111584 1549.015211134375 43 1558.404052734375 43 C 1567.792894334375 43 1575.404052734375 50.6111584 1575.404052734375 60 C 1575.404052734375 69.3888416 1567.792894334375 77 1558.404052734375 77 C 1549.015211134375 77 1541.404052734375 69.3888416 1541.404052734375 60 Z" stroke-miterlimit="10"/></g><g transform="translate(-22,-6) scale(1,1)"><path fill="none" stroke="#000000" d="M 1541.404052734375 77 L 1575.404052734375 77" stroke-miterlimit="10"/></g><g transform="translate(-22,-6) scale(1,1)"><g><path fill="none" stroke="none"/><text fill="#000000" stroke="none" font-family="Arial" font-size="13px" font-style="normal" font-weight="normal" text-decoration="none" x="1535.63818359375" y="96">«entity»</text></g></g><g transform="translate(-22,-6) scale(1,1)"><g><path fill="none" stroke="none"/><text fill="#000000" stroke="none" font-family="Arial" font-size="13px" font-style="normal" font-weight="bold" text-decoration="none" x="1529.5" y="111">Database</text></g></g><g transform="translate(-22,-6) scale(1,1)"><path fill="none" stroke="#000000" d="M 1559.5 118 L 1559.5 2376" stroke-miterlimit="10" stroke-dasharray="3"/></g><g transform="translate(-22,-6) scale(1,1)"><path fill="none" stroke="#000000" d="M 311.83447265625 60 C 311.83447265625 51.1634432 318.99791585625 44 327.83447265625 44 C 336.67102945625 44 343.83447265625 51.1634432 343.83447265625 60 C 343.83447265625 68.8365568 336.67102945625 76 327.83447265625 76 C 318.99791585625 76 311.83447265625 68.8365568 311.83447265625 60 Z" stroke-miterlimit="10"/></g><g transform="translate(-22,-6) scale(1,1)"><path fill="none" stroke="#000000" d="M 303.83447265625 44 L 303.83447265625 76" stroke-miterlimit="10"/></g><g transform="translate(-22,-6) scale(1,1)"><path fill="none" stroke="#000000" d="M 303.83447265625 60 L 311.83447265625 60" stroke-miterlimit="10"/></g><g transform="translate(-22,-6) scale(1,1)"><g><path fill="none" stroke="none"/><text fill="#000000" stroke="none" font-family="Arial" font-size="13px" font-style="normal" font-weight="normal" text-decoration="none" x="289.5" y="96">«boundary»</text></g></g><g transform="translate(-22,-6) scale(1,1)"><g><path fill="none" stroke="none"/><text fill="#000000" stroke="none" font-family="Arial" font-size="13px" font-style="normal" font-weight="bold" text-decoration="none" x="303.607666015625" y="111">Profile</text></g></g><g transform="translate(-22,-6) scale(1,1)"><path fill="none" stroke="#000000" d="M 324.5 118 L 324.5 2376" stroke-miterlimit="10" stroke-dasharray="3"/></g><g transform="translate(-22,-6) scale(1,1)"><path fill="none" stroke="#000000" d="M 1053.239501953125 60 C 1053.239501953125 51.715728 1059.955229953125 45 1068.239501953125 45 C 1076.523773953125 45 1083.239501953125 51.715728 1083.239501953125 60 C 1083.239501953125 68.284272 1076.523773953125 75 1068.239501953125 75 C 1059.955229953125 75 1053.239501953125 68.284272 1053.239501953125 60 Z" stroke-miterlimit="10"/></g><g transform="translate(-22,-6) scale(1,1)"><path fill="none" stroke="#000000" d="M 1068.239501953125 45 L 1073.239501953125 40" stroke-miterlimit="10"/></g><g transform="translate(-22,-6) scale(1,1)"><path fill="none" stroke="#000000" d="M 1068.239501953125 45 L 1073.239501953125 50" stroke-miterlimit="10"/></g><g transform="translate(-22,-6) scale(1,1)"><g><path fill="none" stroke="none"/><text fill="#000000" stroke="none" font-family="Arial" font-size="13px" font-style="normal" font-weight="normal" text-decoration="none" x="1041.5" y="96">«control»</text></g></g><g transform="translate(-22,-6) scale(1,1)"><g><path fill="none" stroke="none"/><text fill="#000000" stroke="none" font-family="Arial" font-size="13px" font-style="normal" font-weight="bold" text-decoration="none" x="1057.404052734375" y="111">API</text></g></g><g transform="translate(-22,-6) scale(1,1)"><path fill="none" stroke="#000000" d="M 1069.5 118 L 1069.5 2376" stroke-miterlimit="10" stroke-dasharray="3"/></g><g transform="translate(-22,-6) scale(1,1)"><path fill="none" stroke="#000000" d="M 1685.28271484375 60 C 1685.28271484375 51.1634432 1692.44615804375 44 1701.28271484375 44 C 1710.11927164375 44 1717.28271484375 51.1634432 1717.28271484375 60 C 1717.28271484375 68.8365568 1710.11927164375 76 1701.28271484375 76 C 1692.44615804375 76 1685.28271484375 68.8365568 1685.28271484375 60 Z" stroke-miterlimit="10"/></g><g transform="translate(-22,-6) scale(1,1)"><path fill="none" stroke="#000000" d="M 1677.28271484375 44 L 1677.28271484375 76" stroke-miterlimit="10"/></g><g transform="translate(-22,-6) scale(1,1)"><path fill="none" stroke="#000000" d="M 1677.28271484375 60 L 1685.28271484375 60" stroke-miterlimit="10"/></g><g transform="translate(-22,-6) scale(1,1)"><g><path fill="none" stroke="none"/><text fill="#000000" stroke="none" font-family="Arial" font-size="13px" font-style="normal" font-weight="normal" text-decoration="none" x="1662.9482421875" y="96">«boundary»</text></g></g><g transform="translate(-22,-6) scale(1,1)"><g><path fill="none" stroke="none"/><text fill="#000000" stroke="none" font-family="Arial" font-size="13px" font-style="normal" font-weight="bold" text-decoration="none" x="1665.5" y="111">Main page</text></g></g><g transform="translate(-22,-6) scale(1,1)"><path fill="none" stroke="#000000" d="M 1698.5 118 L 1698.5 2376" stroke-miterlimit="10" stroke-dasharray="3"/></g><g transform="translate(-22,-6) scale(1,1)"><path fill="none" stroke="#000000" d="M 754.83447265625 60 C 754.83447265625 51.1634432 761.99791585625 44 770.83447265625 44 C 779.67102945625 44 786.83447265625 51.1634432 786.83447265625 60 C 786.83447265625 68.8365568 779.67102945625 76 770.83447265625 76 C 761.99791585625 76 754.83447265625 68.8365568 754.83447265625 60 Z" stroke-miterlimit="10"/></g><g transform="translate(-22,-6) scale(1,1)"><path fill="none" stroke="#000000" d="M 746.83447265625 44 L 746.83447265625 76" stroke-miterlimit="10"/></g><g transform="translate(-22,-6) scale(1,1)"><path fill="none" stroke="#000000" d="M 746.83447265625 60 L 754.83447265625 60" stroke-miterlimit="10"/></g><g transform="translate(-22,-6) scale(1,1)"><g><path fill="none" stroke="none"/><text fill="#000000" stroke="none" font-family="Arial" font-size="13px" font-style="normal" font-weight="normal" text-decoration="none" x="732.5" y="96">«boundary»</text></g></g><g transform="translate(-22,-6) scale(1,1)"><g><path fill="none" stroke="none"/><text fill="#000000" stroke="none" font-family="Arial" font-size="13px" font-style="normal" font-weight="bold" text-decoration="none" x="737.936767578125" y="111">Schedule</text></g></g><g transform="translate(-22,-6) scale(1,1)"><path fill="none" stroke="#000000" d="M 767.5 118 L 767.5 2376" stroke-miterlimit="10" stroke-dasharray="3"/></g><g transform="translate(-22,-6) scale(1,1)"><rect fill="#C0C0C0" stroke="none" x="1255" y="47" width="121.60986328125" height="39" opacity="0.2"/></g><g transform="translate(-22,-6) scale(1,1)"><rect fill="#ffffff" stroke="none" x="1248" y="40" width="121.60986328125" height="39"/></g><g transform="translate(-22,-6) scale(1,1)"><path fill="none" stroke="#000000" d="M 1248 40 L 1369.60986328125 40 L 1369.60986328125 79 L 1248 79 L 1248 40 Z Z" stroke-miterlimit="10"/></g><g transform="translate(-22,-6) scale(1,1)"><g><path fill="none" stroke="none"/><text fill="#000000" stroke="none" font-family="Arial" font-size="13px" font-style="normal" font-weight="bold" text-decoration="none" x="1257.5" y="58">Payment system</text></g></g><g transform="translate(-22,-6) scale(1,1)"><path fill="none" stroke="#000000" d="M 1309.5 80 L 1309.5 2376" stroke-miterlimit="10" stroke-dasharray="3"/></g><g transform="translate(-22,-6) scale(1,1)"><path fill="none" stroke="#000000" d="M 543.83447265625 60 C 543.83447265625 51.1634432 550.99791585625 44 559.83447265625 44 C 568.67102945625 44 575.83447265625 51.1634432 575.83447265625 60 C 575.83447265625 68.8365568 568.67102945625 76 559.83447265625 76 C 550.99791585625 76 543.83447265625 68.8365568 543.83447265625 60 Z" stroke-miterlimit="10"/></g><g transform="translate(-22,-6) scale(1,1)"><path fill="none" stroke="#000000" d="M 535.83447265625 44 L 535.83447265625 76" stroke-miterlimit="10"/></g><g transform="translate(-22,-6) scale(1,1)"><path fill="none" stroke="#000000" d="M 535.83447265625 60 L 543.83447265625 60" stroke-miterlimit="10"/></g><g transform="translate(-22,-6) scale(1,1)"><g><path fill="none" stroke="none"/><text fill="#000000" stroke="none" font-family="Arial" font-size="13px" font-style="normal" font-weight="normal" text-decoration="none" x="521.5" y="96">«boundary»</text></g></g><g transform="translate(-22,-6) scale(1,1)"><g><path fill="none" stroke="none"/><text fill="#000000" stroke="none" font-family="Arial" font-size="13px" font-style="normal" font-weight="bold" text-decoration="none" x="529.596435546875" y="111">Workout</text></g></g><g transform="translate(-22,-6) scale(1,1)"><path fill="none" stroke="#000000" d="M 556.5 118 L 556.5 2376" stroke-miterlimit="10" stroke-dasharray="3"/></g><g transform="translate(-22,-6) scale(1,1)"><path fill="none" stroke="#000000" d="M 85 166 L 317 166" stroke-miterlimit="10"/></g><g transform="translate(-22,-6) scale(1,1)"><path fill="#000000" stroke="none" d="M 306.83732514237585 170.209517756016 L 317 166 L 306.83732514237585 161.790482243984"/></g><g transform="translate(-22,-6) scale(1,1)"><path fill="none" stroke="#000000" d="M 306.83732514237585 170.209517756016 L 317 166 L 306.83732514237585 161.790482243984 L 306.83732514237585 170.209517756016" stroke-miterlimit="10"/></g><g transform="translate(-22,-6) scale(1,1)"><g><path fill="none" stroke="none"/><text fill="#000000" stroke="none" font-family="Arial" font-size="13px" font-style="normal" font-weight="normal" text-decoration="none" x="132.937744140625" y="161">1.1 : Click logout button</text></g></g><g transform="translate(-22,-6) scale(1,1)"><rect fill="#ffffff" stroke="none" x="317" y="166" width="13" height="28"/></g><g transform="translate(-22,-6) scale(1,1)"><path fill="none" stroke="#000000" d="M 317 166 L 330 166 L 330 194 L 317 194 L 317 166 Z Z" stroke-miterlimit="10"/></g><g transform="translate(-22,-6) scale(1,1)"><path fill="none" stroke="#000000" d="M 330 192 L 1062 192" stroke-miterlimit="10"/></g><g transform="translate(-22,-6) scale(1,1)"><path fill="#000000" stroke="none" d="M 1051.837325142376 196.209517756016 L 1062 192 L 1051.837325142376 187.790482243984"/></g><g transform="translate(-22,-6) scale(1,1)"><path fill="none" stroke="#000000" d="M 1051.837325142376 196.209517756016 L 1062 192 L 1051.837325142376 187.790482243984 L 1051.837325142376 196.209517756016" stroke-miterlimit="10"/></g><g transform="translate(-22,-6) scale(1,1)"><g><path fill="none" stroke="none"/><text fill="#000000" stroke="none" font-family="Arial" font-size="13px" font-style="normal" font-weight="normal" text-decoration="none" x="621.5" y="186">1.2 : Send logout request</text></g></g><g transform="translate(-22,-6) scale(1,1)"><rect fill="#ffffff" stroke="none" x="1062" y="192" width="13" height="28"/></g><g transform="translate(-22,-6) scale(1,1)"><path fill="none" stroke="#000000" d="M 1062 192 L 1075 192 L 1075 220 L 1062 220 L 1062 192 Z Z" stroke-miterlimit="10"/></g><g transform="translate(-22,-6) scale(1,1)"><path fill="none" stroke="#000000" d="M 1075 216 L 1552 216" stroke-miterlimit="10"/></g><g transform="translate(-22,-6) scale(1,1)"><path fill="#000000" stroke="none" d="M 1541.837325142376 220.209517756016 L 1552 216 L 1541.837325142376 211.790482243984"/></g><g transform="translate(-22,-6) scale(1,1)"><path fill="none" stroke="#000000" d="M 1541.837325142376 220.209517756016 L 1552 216 L 1541.837325142376 211.790482243984 L 1541.837325142376 220.209517756016" stroke-miterlimit="10"/></g><g transform="translate(-22,-6) scale(1,1)"><g><path fill="none" stroke="none"/><text fill="#000000" stroke="none" font-family="Arial" font-size="13px" font-style="normal" font-weight="normal" text-decoration="none" x="1229.5" y="211">1.3 : Request to delete token</text></g></g><g transform="translate(-22,-6) scale(1,1)"><rect fill="#ffffff" stroke="none" x="1552" y="216" width="13" height="40"/></g><g transform="translate(-22,-6) scale(1,1)"><path fill="none" stroke="#000000" d="M 1552 216 L 1565 216 L 1565 256 L 1552 256 L 1552 216 Z Z" stroke-miterlimit="10"/></g><g transform="translate(-22,-6) scale(1,1)"><path fill="none" stroke="#000000" d="M 1559 256 L 1069 256" stroke-miterlimit="10" stroke-dasharray="3"/></g><g transform="translate(-22,-6) scale(1,1)"><path fill="none" stroke="#000000" d="M 1079.162674857624 251.790482243984 L 1069 256 L 1079.162674857624 260.209517756016" stroke-miterlimit="10"/></g><g transform="translate(-22,-6) scale(1,1)"><g><path fill="none" stroke="none"/><text fill="#000000" stroke="none" font-family="Arial" font-size="13px" font-style="normal" font-weight="normal" text-decoration="none" x="1178.5" y="275">1.4 : Seccess message</text></g></g><g transform="translate(-22,-6) scale(1,1)"><path fill="none" stroke="#000000" d="M 1069 288 L 1691 288" stroke-miterlimit="10"/></g><g transform="translate(-22,-6) scale(1,1)"><path fill="#000000" stroke="none" d="M 1680.837325142376 292.209517756016 L 1691 288 L 1680.837325142376 283.790482243984"/></g><g transform="translate(-22,-6) scale(1,1)"><path fill="none" stroke="#000000" d="M 1680.837325142376 292.209517756016 L 1691 288 L 1680.837325142376 283.790482243984 L 1680.837325142376 292.209517756016" stroke-miterlimit="10"/></g><g transform="translate(-22,-6) scale(1,1)"><g><path fill="none" stroke="none"/><text fill="#000000" stroke="none" font-family="Arial" font-size="13px" font-style="normal" font-weight="normal" text-decoration="none" x="1394.864990234375" y="283">1.5 : Redirect</text></g></g><g transform="translate(-22,-6) scale(1,1)"><rect fill="#ffffff" stroke="none" x="1691" y="288" width="13" height="28"/></g><g transform="translate(-22,-6) scale(1,1)"><path fill="none" stroke="#000000" d="M 1691 288 L 1704 288 L 1704 316 L 1691 316 L 1691 288 Z Z" stroke-miterlimit="10"/></g><g transform="translate(-22,-6) scale(1,1)"><path fill="none" stroke="#000000" d="M 85 416 L 317 416" stroke-miterlimit="10"/></g><g transform="translate(-22,-6) scale(1,1)"><path fill="#000000" stroke="none" d="M 306.83732514237585 420.209517756016 L 317 416 L 306.83732514237585 411.790482243984"/></g><g transform="translate(-22,-6) scale(1,1)"><path fill="none" stroke="#000000" d="M 306.83732514237585 420.209517756016 L 317 416 L 306.83732514237585 411.790482243984 L 306.83732514237585 420.209517756016" stroke-miterlimit="10"/></g><g transform="translate(-22,-6) scale(1,1)"><g><path fill="none" stroke="none"/><text fill="#000000" stroke="none" font-family="Arial" font-size="13px" font-style="normal" font-weight="normal" text-decoration="none" x="152.5" y="410">2.1 : Edit data</text></g></g><g transform="translate(-22,-6) scale(1,1)"><rect fill="#ffffff" stroke="none" x="317" y="416" width="13" height="28"/></g><g transform="translate(-22,-6) scale(1,1)"><path fill="none" stroke="#000000" d="M 317 416 L 330 416 L 330 444 L 317 444 L 317 416 Z Z" stroke-miterlimit="10"/></g><g transform="translate(-22,-6) scale(1,1)"><path fill="none" stroke="#000000" d="M 330 432 L 1062 432" stroke-miterlimit="10"/></g><g transform="translate(-22,-6) scale(1,1)"><path fill="#000000" stroke="none" d="M 1051.837325142376 436.209517756016 L 1062 432 L 1051.837325142376 427.790482243984"/></g><g transform="translate(-22,-6) scale(1,1)"><path fill="none" stroke="#000000" d="M 1051.837325142376 436.209517756016 L 1062 432 L 1051.837325142376 427.790482243984 L 1051.837325142376 436.209517756016" stroke-miterlimit="10"/></g><g transform="translate(-22,-6) scale(1,1)"><g><path fill="none" stroke="none"/><text fill="#000000" stroke="none" font-family="Arial" font-size="13px" font-style="normal" font-weight="normal" text-decoration="none" x="625.5" y="427">2.2 : Send chenged data</text></g></g><g transform="translate(-22,-6) scale(1,1)"><rect fill="#ffffff" stroke="none" x="1062" y="432" width="13" height="88"/></g><g transform="translate(-22,-6) scale(1,1)"><path fill="none" stroke="#000000" d="M 1062 432 L 1075 432 L 1075 520 L 1062 520 L 1062 432 Z Z" stroke-miterlimit="10"/></g><g transform="translate(-22,-6) scale(1,1)"><path fill="none" stroke="#000000" d="M 1075 440 L 1105 440 L 1105 460 L 1082 460" stroke-miterlimit="10"/></g><g transform="translate(-22,-6) scale(1,1)"><path fill="#000000" stroke="none" d="M 1092.162674857624 455.790482243984 L 1082 460 L 1092.162674857624 464.209517756016"/></g><g transform="translate(-22,-6) scale(1,1)"><path fill="none" stroke="#000000" d="M 1092.162674857624 455.790482243984 L 1082 460 L 1092.162674857624 464.209517756016 L 1092.162674857624 455.790482243984" stroke-miterlimit="10"/></g><g transform="translate(-22,-6) scale(1,1)"><g><path fill="none" stroke="none"/><text fill="#000000" stroke="none" font-family="Arial" font-size="13px" font-style="normal" font-weight="normal" text-decoration="none" x="1111.5" y="454">2.3 : Validation</text></g></g><g transform="translate(-22,-6) scale(1,1)"><rect fill="#ffffff" stroke="none" x="1069" y="460" width="13" height="52"/></g><g transform="translate(-22,-6) scale(1,1)"><path fill="none" stroke="#000000" d="M 1069 460 L 1082 460 L 1082 512 L 1069 512 L 1069 460 Z Z" stroke-miterlimit="10"/></g><g transform="translate(-22,-6) scale(1,1)"><path fill="none" stroke="#000000" d="M 1082 496 L 1552 496" stroke-miterlimit="10"/></g><g transform="translate(-22,-6) scale(1,1)"><path fill="#000000" stroke="none" d="M 1541.837325142376 500.209517756016 L 1552 496 L 1541.837325142376 491.790482243984"/></g><g transform="translate(-22,-6) scale(1,1)"><path fill="none" stroke="#000000" d="M 1541.837325142376 500.209517756016 L 1552 496 L 1541.837325142376 491.790482243984 L 1541.837325142376 500.209517756016" stroke-miterlimit="10"/></g><g transform="translate(-22,-6) scale(1,1)"><g><path fill="none" stroke="none"/><text fill="#000000" stroke="none" font-family="Arial" font-size="13px" font-style="normal" font-weight="normal" text-decoration="none" x="1244.5" y="491">2.4 : Request change data</text></g></g><g transform="translate(-22,-6) scale(1,1)"><rect fill="#ffffff" stroke="none" x="1552" y="496" width="13" height="28"/></g><g transform="translate(-22,-6) scale(1,1)"><path fill="none" stroke="#000000" d="M 1552 496 L 1565 496 L 1565 524 L 1552 524 L 1552 496 Z Z" stroke-miterlimit="10"/></g><g transform="translate(-22,-6) scale(1,1)"><path fill="none" stroke="#000000" d="M 1559 544 L 1069 544" stroke-miterlimit="10" stroke-dasharray="3"/></g><g transform="translate(-22,-6) scale(1,1)"><path fill="none" stroke="#000000" d="M 1079.162674857624 539.790482243984 L 1069 544 L 1079.162674857624 548.209517756016" stroke-miterlimit="10"/></g><g transform="translate(-22,-6) scale(1,1)"><g><path fill="none" stroke="none"/><text fill="#000000" stroke="none" font-family="Arial" font-size="13px" font-style="normal" font-weight="normal" text-decoration="none" x="1245.5" y="557">2.5 : Seccess message</text></g></g><g transform="translate(-22,-6) scale(1,1)"><path fill="none" stroke="#000000" d="M 1069 584 L 324 584" stroke-miterlimit="10" stroke-dasharray="3"/></g><g transform="translate(-22,-6) scale(1,1)"><path fill="none" stroke="#000000" d="M 334.16267485762415 579.790482243984 L 324 584 L 334.16267485762415 588.209517756016" stroke-miterlimit="10"/></g><g transform="translate(-22,-6) scale(1,1)"><g><path fill="none" stroke="none"/><text fill="#000000" stroke="none" font-family="Arial" font-size="13px" font-style="normal" font-weight="normal" text-decoration="none" x="632.5" y="599">2.6 : Display changes</text></g></g><g transform="translate(-22,-6) scale(1,1)"><path fill="none" stroke="#000000" d="M 1069 650 L 324 650" stroke-miterlimit="10" stroke-dasharray="3"/></g><g transform="translate(-22,-6) scale(1,1)"><path fill="none" stroke="#000000" d="M 334.16267485762415 645.790482243984 L 324 650 L 334.16267485762415 654.209517756016" stroke-miterlimit="10"/></g><g transform="translate(-22,-6) scale(1,1)"><g><path fill="none" stroke="none"/><text fill="#000000" stroke="none" font-family="Arial" font-size="13px" font-style="normal" font-weight="normal" text-decoration="none" x="631.5" y="667">2.4 : Failed validation</text></g></g><g transform="translate(-22,-6) scale(1,1)"><path fill="none" stroke="#000000" d="M 85 792 L 760 792" stroke-miterlimit="10"/></g><g transform="translate(-22,-6) scale(1,1)"><path fill="#000000" stroke="none" d="M 749.8373251423759 796.209517756016 L 760 792 L 749.8373251423758 787.790482243984"/></g><g transform="translate(-22,-6) scale(1,1)"><path fill="none" stroke="#000000" d="M 749.8373251423759 796.209517756016 L 760 792 L 749.8373251423758 787.790482243984 L 749.8373251423759 796.209517756016" stroke-miterlimit="10"/></g><g transform="translate(-22,-6) scale(1,1)"><g><path fill="none" stroke="none"/><text fill="#000000" stroke="none" font-family="Arial" font-size="13px" font-style="normal" font-weight="normal" text-decoration="none" x="343.5" y="787">3.1 : Click subscribe button</text></g></g><g transform="translate(-22,-6) scale(1,1)"><rect fill="#ffffff" stroke="none" x="760" y="792" width="13" height="28"/></g><g transform="translate(-22,-6) scale(1,1)"><path fill="none" stroke="#000000" d="M 760 792 L 773 792 L 773 820 L 760 820 L 760 792 Z Z" stroke-miterlimit="10"/></g><g transform="translate(-22,-6) scale(1,1)"><path fill="none" stroke="#000000" d="M 773 808 L 1062 808" stroke-miterlimit="10"/></g><g transform="translate(-22,-6) scale(1,1)"><path fill="#000000" stroke="none" d="M 1051.837325142376 812.209517756016 L 1062 808 L 1051.837325142376 803.790482243984"/></g><g transform="translate(-22,-6) scale(1,1)"><path fill="none" stroke="#000000" d="M 1051.837325142376 812.209517756016 L 1062 808 L 1051.837325142376 803.790482243984 L 1051.837325142376 812.209517756016" stroke-miterlimit="10"/></g><g transform="translate(-22,-6) scale(1,1)"><g><path fill="none" stroke="none"/><text fill="#000000" stroke="none" font-family="Arial" font-size="13px" font-style="normal" font-weight="normal" text-decoration="none" x="834.5" y="803">3.2 : Send subscribe request</text></g></g><g transform="translate(-22,-6) scale(1,1)"><rect fill="#ffffff" stroke="none" x="1062" y="808" width="13" height="28"/></g><g transform="translate(-22,-6) scale(1,1)"><path fill="none" stroke="#000000" d="M 1062 808 L 1075 808 L 1075 836 L 1062 836 L 1062 808 Z Z" stroke-miterlimit="10"/></g><g transform="translate(-22,-6) scale(1,1)"><path fill="none" stroke="#000000" d="M 85 880 L 760 880" stroke-miterlimit="10"/></g><g transform="translate(-22,-6) scale(1,1)"><path fill="#000000" stroke="none" d="M 749.8373251423759 884.209517756016 L 760 880 L 749.8373251423758 875.790482243984"/></g><g transform="translate(-22,-6) scale(1,1)"><path fill="none" stroke="#000000" d="M 749.8373251423759 884.209517756016 L 760 880 L 749.8373251423758 875.790482243984 L 749.8373251423759 884.209517756016" stroke-miterlimit="10"/></g><g transform="translate(-22,-6) scale(1,1)"><g><path fill="none" stroke="none"/><text fill="#000000" stroke="none" font-family="Arial" font-size="13px" font-style="normal" font-weight="normal" text-decoration="none" x="336.5" y="867">3.1 : Click unsubscribe button</text></g></g><g transform="translate(-22,-6) scale(1,1)"><rect fill="#ffffff" stroke="none" x="760" y="880" width="13" height="32"/></g><g transform="translate(-22,-6) scale(1,1)"><path fill="none" stroke="#000000" d="M 760 880 L 773 880 L 773 912 L 760 912 L 760 880 Z Z" stroke-miterlimit="10"/></g><g transform="translate(-22,-6) scale(1,1)"><path fill="none" stroke="#000000" d="M 767 912 L 1062 912" stroke-miterlimit="10"/></g><g transform="translate(-22,-6) scale(1,1)"><path fill="#000000" stroke="none" d="M 1051.837325142376 916.209517756016 L 1062 912 L 1051.837325142376 907.790482243984"/></g><g transform="translate(-22,-6) scale(1,1)"><path fill="none" stroke="#000000" d="M 1051.837325142376 916.209517756016 L 1062 912 L 1051.837325142376 907.790482243984 L 1051.837325142376 916.209517756016" stroke-miterlimit="10"/></g><g transform="translate(-22,-6) scale(1,1)"><g><path fill="none" stroke="none"/><text fill="#000000" stroke="none" font-family="Arial" font-size="13px" font-style="normal" font-weight="normal" text-decoration="none" x="824.5" y="907">3.2 : Send unsubscribe request</text></g></g><g transform="translate(-22,-6) scale(1,1)"><rect fill="#ffffff" stroke="none" x="1062" y="912" width="13" height="28"/></g><g transform="translate(-22,-6) scale(1,1)"><path fill="none" stroke="#000000" d="M 1062 912 L 1075 912 L 1075 940 L 1062 940 L 1062 912 Z Z" stroke-miterlimit="10"/></g><g transform="translate(-22,-6) scale(1,1)"><path fill="none" stroke="#000000" d="M 1069 968 L 1099 968 L 1099 988 L 1075 988" stroke-miterlimit="10"/></g><g transform="translate(-22,-6) scale(1,1)"><path fill="#000000" stroke="none" d="M 1085.162674857624 983.790482243984 L 1075 988 L 1085.162674857624 992.209517756016"/></g><g transform="translate(-22,-6) scale(1,1)"><path fill="none" stroke="#000000" d="M 1085.162674857624 983.790482243984 L 1075 988 L 1085.162674857624 992.209517756016 L 1085.162674857624 983.790482243984" stroke-miterlimit="10"/></g><g transform="translate(-22,-6) scale(1,1)"><g><path fill="none" stroke="none"/><text fill="#000000" stroke="none" font-family="Arial" font-size="13px" font-style="normal" font-weight="normal" text-decoration="none" x="1107.5" y="987">3.3 : Validation</text></g></g><g transform="translate(-22,-6) scale(1,1)"><rect fill="#ffffff" stroke="none" x="1062" y="988" width="13" height="28"/></g><g transform="translate(-22,-6) scale(1,1)"><path fill="none" stroke="#000000" d="M 1062 988 L 1075 988 L 1075 1016 L 1062 1016 L 1062 988 Z Z" stroke-miterlimit="10"/></g><g transform="translate(-22,-6) scale(1,1)"><path fill="none" stroke="#000000" d="M 1069 1048 L 1552 1048" stroke-miterlimit="10"/></g><g transform="translate(-22,-6) scale(1,1)"><path fill="#000000" stroke="none" d="M 1541.837325142376 1052.2095177560159 L 1552 1048 L 1541.837325142376 1043.7904822439841"/></g><g transform="translate(-22,-6) scale(1,1)"><path fill="none" stroke="#000000" d="M 1541.837325142376 1052.2095177560159 L 1552 1048 L 1541.837325142376 1043.7904822439841 L 1541.837325142376 1052.2095177560159" stroke-miterlimit="10"/></g><g transform="translate(-22,-6) scale(1,1)"><g><path fill="none" stroke="none"/><text fill="#000000" stroke="none" font-family="Arial" font-size="13px" font-style="normal" font-weight="normal" text-decoration="none" x="1225.5" y="1043">3.4 : Request status changed</text></g></g><g transform="translate(-22,-6) scale(1,1)"><rect fill="#ffffff" stroke="none" x="1552" y="1048" width="13" height="28"/></g><g transform="translate(-22,-6) scale(1,1)"><path fill="none" stroke="#000000" d="M 1552 1048 L 1565 1048 L 1565 1076 L 1552 1076 L 1552 1048 Z Z" stroke-miterlimit="10"/></g><g transform="translate(-22,-6) scale(1,1)"><path fill="none" stroke="#000000" d="M 1552 1072 L 1069 1072" stroke-miterlimit="10" stroke-dasharray="3"/></g><g transform="translate(-22,-6) scale(1,1)"><path fill="none" stroke="#000000" d="M 1079.162674857624 1067.7904822439841 L 1069 1072 L 1079.162674857624 1076.2095177560159" stroke-miterlimit="10"/></g><g transform="translate(-22,-6) scale(1,1)"><g><path fill="none" stroke="none"/><text fill="#000000" stroke="none" font-family="Arial" font-size="13px" font-style="normal" font-weight="normal" text-decoration="none" x="1241.5" y="1087">3.5 : Seccess message</text></g></g><g transform="translate(-22,-6) scale(1,1)"><path fill="none" stroke="#000000" d="M 1069 1088 L 767 1088" stroke-miterlimit="10" stroke-dasharray="3"/></g><g transform="translate(-22,-6) scale(1,1)"><path fill="none" stroke="#000000" d="M 777.1626748576241 1083.7904822439841 L 767 1088 L 777.1626748576241 1092.2095177560159" stroke-miterlimit="10"/></g><g transform="translate(-22,-6) scale(1,1)"><g><path fill="none" stroke="none"/><text fill="#000000" stroke="none" font-family="Arial" font-size="13px" font-style="normal" font-weight="normal" text-decoration="none" x="855.5" y="1103">3.6 : DIspaly success</text></g></g><g transform="translate(-22,-6) scale(1,1)"><path fill="none" stroke="#000000" d="M 1069 1170 L 767 1170" stroke-miterlimit="10" stroke-dasharray="3"/></g><g transform="translate(-22,-6) scale(1,1)"><path fill="none" stroke="#000000" d="M 777.1626748576241 1165.7904822439841 L 767 1170 L 777.1626748576241 1174.2095177560159" stroke-miterlimit="10"/></g><g transform="translate(-22,-6) scale(1,1)"><g><path fill="none" stroke="none"/><text fill="#000000" stroke="none" font-family="Arial" font-size="13px" font-style="normal" font-weight="normal" text-decoration="none" x="865.5" y="1185">3.4 : Display error</text></g></g><g transform="translate(-22,-6) scale(1,1)"><path fill="none" stroke="#000000" d="M 85 1336 L 317 1336" stroke-miterlimit="10"/></g><g transform="translate(-22,-6) scale(1,1)"><path fill="#000000" stroke="none" d="M 306.83732514237585 1340.2095177560159 L 317 1336 L 306.83732514237585 1331.7904822439841"/></g><g transform="translate(-22,-6) scale(1,1)"><path fill="none" stroke="#000000" d="M 306.83732514237585 1340.2095177560159 L 317 1336 L 306.83732514237585 1331.7904822439841 L 306.83732514237585 1340.2095177560159" stroke-miterlimit="10"/></g><g transform="translate(-22,-6) scale(1,1)"><g><path fill="none" stroke="none"/><text fill="#000000" stroke="none" font-family="Arial" font-size="13px" font-style="normal" font-weight="normal" text-decoration="none" x="131.5" y="1323">4.1 : Select subscription</text></g></g><g transform="translate(-22,-6) scale(1,1)"><rect fill="#ffffff" stroke="none" x="317" y="1336" width="13" height="28"/></g><g transform="translate(-22,-6) scale(1,1)"><path fill="none" stroke="#000000" d="M 317 1336 L 330 1336 L 330 1364 L 317 1364 L 317 1336 Z Z" stroke-miterlimit="10"/></g><g transform="translate(-22,-6) scale(1,1)"><path fill="none" stroke="#000000" d="M 330 1360 L 1062 1360" stroke-miterlimit="10"/></g><g transform="translate(-22,-6) scale(1,1)"><path fill="#000000" stroke="none" d="M 1051.837325142376 1364.2095177560159 L 1062 1360 L 1051.837325142376 1355.7904822439841"/></g><g transform="translate(-22,-6) scale(1,1)"><path fill="none" stroke="#000000" d="M 1051.837325142376 1364.2095177560159 L 1062 1360 L 1051.837325142376 1355.7904822439841 L 1051.837325142376 1364.2095177560159" stroke-miterlimit="10"/></g><g transform="translate(-22,-6) scale(1,1)"><g><path fill="none" stroke="none"/><text fill="#000000" stroke="none" font-family="Arial" font-size="13px" font-style="normal" font-weight="normal" text-decoration="none" x="616.5" y="1355">4.2 : Send subscription data</text></g></g><g transform="translate(-22,-6) scale(1,1)"><rect fill="#ffffff" stroke="none" x="1062" y="1360" width="13" height="64"/></g><g transform="translate(-22,-6) scale(1,1)"><path fill="none" stroke="#000000" d="M 1062 1360 L 1075 1360 L 1075 1424 L 1062 1424 L 1062 1360 Z Z" stroke-miterlimit="10"/></g><g transform="translate(-22,-6) scale(1,1)"><path fill="none" stroke="#000000" d="M 1075 1368 L 1105 1368 L 1105 1388 L 1082 1388" stroke-miterlimit="10"/></g><g transform="translate(-22,-6) scale(1,1)"><path fill="#000000" stroke="none" d="M 1092.162674857624 1383.7904822439841 L 1082 1388 L 1092.162674857624 1392.2095177560159"/></g><g transform="translate(-22,-6) scale(1,1)"><path fill="none" stroke="#000000" d="M 1092.162674857624 1383.7904822439841 L 1082 1388 L 1092.162674857624 1392.2095177560159 L 1092.162674857624 1383.7904822439841" stroke-miterlimit="10"/></g><g transform="translate(-22,-6) scale(1,1)"><g><path fill="none" stroke="none"/><text fill="#000000" stroke="none" font-family="Arial" font-size="13px" font-style="normal" font-weight="normal" text-decoration="none" x="1106.5" y="1382">4.3 : Validation</text></g></g><g transform="translate(-22,-6) scale(1,1)"><rect fill="#ffffff" stroke="none" x="1069" y="1388" width="13" height="28"/></g><g transform="translate(-22,-6) scale(1,1)"><path fill="none" stroke="#000000" d="M 1069 1388 L 1082 1388 L 1082 1416 L 1069 1416 L 1069 1388 Z Z" stroke-miterlimit="10"/></g><g transform="translate(-22,-6) scale(1,1)"><path fill="none" stroke="#000000" d="M 1075 1418 L 1302 1418" stroke-miterlimit="10"/></g><g transform="translate(-22,-6) scale(1,1)"><path fill="#000000" stroke="none" d="M 1291.837325142376 1422.2095177560159 L 1302 1418 L 1291.837325142376 1413.7904822439841"/></g><g transform="translate(-22,-6) scale(1,1)"><path fill="none" stroke="#000000" d="M 1291.837325142376 1422.2095177560159 L 1302 1418 L 1291.837325142376 1413.7904822439841 L 1291.837325142376 1422.2095177560159" stroke-miterlimit="10"/></g><g transform="translate(-22,-6) scale(1,1)"><g><path fill="none" stroke="none"/><text fill="#000000" stroke="none" font-family="Arial" font-size="13px" font-style="normal" font-weight="normal" text-decoration="none" x="1092.5" y="1413">4.4 : Redirect to payment system</text></g></g><g transform="translate(-22,-6) scale(1,1)"><rect fill="#ffffff" stroke="none" x="1302" y="1418" width="13" height="28"/></g><g transform="translate(-22,-6) scale(1,1)"><path fill="none" stroke="#000000" d="M 1302 1418 L 1315 1418 L 1315 1446 L 1302 1446 L 1302 1418 Z Z" stroke-miterlimit="10"/></g><g transform="translate(-22,-6) scale(1,1)"><path fill="none" stroke="#000000" d="M 1309 1456 L 1069 1456" stroke-miterlimit="10" stroke-dasharray="3"/></g><g transform="translate(-22,-6) scale(1,1)"><path fill="none" stroke="#000000" d="M 1079.162674857624 1451.7904822439841 L 1069 1456 L 1079.162674857624 1460.2095177560159" stroke-miterlimit="10"/></g><g transform="translate(-22,-6) scale(1,1)"><g><path fill="none" stroke="none"/><text fill="#000000" stroke="none" font-family="Arial" font-size="13px" font-style="normal" font-weight="normal" text-decoration="none" x="1116.5" y="1471">4.5 : Response message</text></g></g><g transform="translate(-22,-6) scale(1,1)"><path fill="none" stroke="#000000" d="M 1069 1488 L 1099 1488 L 1099 1508 L 1075 1508" stroke-miterlimit="10"/></g><g transform="translate(-22,-6) scale(1,1)"><path fill="#000000" stroke="none" d="M 1085.162674857624 1503.7904822439841 L 1075 1508 L 1085.162674857624 1512.2095177560159"/></g><g transform="translate(-22,-6) scale(1,1)"><path fill="none" stroke="#000000" d="M 1085.162674857624 1503.7904822439841 L 1075 1508 L 1085.162674857624 1512.2095177560159 L 1085.162674857624 1503.7904822439841" stroke-miterlimit="10"/></g><g transform="translate(-22,-6) scale(1,1)"><g><path fill="none" stroke="none"/><text fill="#000000" stroke="none" font-family="Arial" font-size="13px" font-style="normal" font-weight="normal" text-decoration="none" x="1103.5" y="1502">4.6 : Validation</text></g></g><g transform="translate(-22,-6) scale(1,1)"><rect fill="#ffffff" stroke="none" x="1062" y="1508" width="13" height="28"/></g><g transform="translate(-22,-6) scale(1,1)"><path fill="none" stroke="#000000" d="M 1062 1508 L 1075 1508 L 1075 1536 L 1062 1536 L 1062 1508 Z Z" stroke-miterlimit="10"/></g><g transform="translate(-22,-6) scale(1,1)"><path fill="none" stroke="#000000" d="M 1069 1536 L 1552 1536" stroke-miterlimit="10"/></g><g transform="translate(-22,-6) scale(1,1)"><path fill="#000000" stroke="none" d="M 1541.837325142376 1540.2095177560159 L 1552 1536 L 1541.837325142376 1531.7904822439841"/></g><g transform="translate(-22,-6) scale(1,1)"><path fill="none" stroke="#000000" d="M 1541.837325142376 1540.2095177560159 L 1552 1536 L 1541.837325142376 1531.7904822439841 L 1541.837325142376 1540.2095177560159" stroke-miterlimit="10"/></g><g transform="translate(-22,-6) scale(1,1)"><g><path fill="none" stroke="none"/><text fill="#000000" stroke="none" font-family="Arial" font-size="13px" font-style="normal" font-weight="normal" text-decoration="none" x="1192.5" y="1531">4.7 : Request to change subscription info</text></g></g><g transform="translate(-22,-6) scale(1,1)"><rect fill="#ffffff" stroke="none" x="1552" y="1536" width="13" height="28"/></g><g transform="translate(-22,-6) scale(1,1)"><path fill="none" stroke="#000000" d="M 1552 1536 L 1565 1536 L 1565 1564 L 1552 1564 L 1552 1536 Z Z" stroke-miterlimit="10"/></g><g transform="translate(-22,-6) scale(1,1)"><path fill="none" stroke="#000000" d="M 1559 1566 L 1069 1566" stroke-miterlimit="10" stroke-dasharray="3"/></g><g transform="translate(-22,-6) scale(1,1)"><path fill="none" stroke="#000000" d="M 1079.162674857624 1561.7904822439841 L 1069 1566 L 1079.162674857624 1570.2095177560159" stroke-miterlimit="10"/></g><g transform="translate(-22,-6) scale(1,1)"><g><path fill="none" stroke="none"/><text fill="#000000" stroke="none" font-family="Arial" font-size="13px" font-style="normal" font-weight="normal" text-decoration="none" x="1241.5" y="1581">4.8 : Response message</text></g></g><g transform="translate(-22,-6) scale(1,1)"><path fill="none" stroke="#000000" d="M 1069 1584 L 324 1584" stroke-miterlimit="10" stroke-dasharray="3"/></g><g transform="translate(-22,-6) scale(1,1)"><path fill="none" stroke="#000000" d="M 334.16267485762415 1579.7904822439841 L 324 1584 L 334.16267485762415 1588.2095177560159" stroke-miterlimit="10"/></g><g transform="translate(-22,-6) scale(1,1)"><g><path fill="none" stroke="none"/><text fill="#000000" stroke="none" font-family="Arial" font-size="13px" font-style="normal" font-weight="normal" text-decoration="none" x="624.5" y="1603">4.9 : Display message</text></g></g><g transform="translate(-22,-6) scale(1,1)"><path fill="none" stroke="#000000" d="M 85 1698 L 549 1698" stroke-miterlimit="10"/></g><g transform="translate(-22,-6) scale(1,1)"><path fill="#000000" stroke="none" d="M 538.8373251423759 1702.2095177560159 L 549 1698 L 538.8373251423758 1693.7904822439841"/></g><g transform="translate(-22,-6) scale(1,1)"><path fill="none" stroke="#000000" d="M 538.8373251423759 1702.2095177560159 L 549 1698 L 538.8373251423758 1693.7904822439841 L 538.8373251423759 1702.2095177560159" stroke-miterlimit="10"/></g><g transform="translate(-22,-6) scale(1,1)"><g><path fill="none" stroke="none"/><text fill="#000000" stroke="none" font-family="Arial" font-size="13px" font-style="normal" font-weight="normal" text-decoration="none" x="245.5" y="1693">5.1 : Go to workout page</text></g></g><g transform="translate(-22,-6) scale(1,1)"><rect fill="#ffffff" stroke="none" x="549" y="1698" width="13" height="28"/></g><g transform="translate(-22,-6) scale(1,1)"><path fill="none" stroke="#000000" d="M 549 1698 L 562 1698 L 562 1726 L 549 1726 L 549 1698 Z Z" stroke-miterlimit="10"/></g><g transform="translate(-22,-6) scale(1,1)"><path fill="none" stroke="#000000" d="M 556 1728 L 1062 1728" stroke-miterlimit="10"/></g><g transform="translate(-22,-6) scale(1,1)"><path fill="#000000" stroke="none" d="M 1051.837325142376 1732.2095177560159 L 1062 1728 L 1051.837325142376 1723.7904822439841"/></g><g transform="translate(-22,-6) scale(1,1)"><path fill="none" stroke="#000000" d="M 1051.837325142376 1732.2095177560159 L 1062 1728 L 1051.837325142376 1723.7904822439841 L 1051.837325142376 1732.2095177560159" stroke-miterlimit="10"/></g><g transform="translate(-22,-6) scale(1,1)"><g><path fill="none" stroke="none"/><text fill="#000000" stroke="none" font-family="Arial" font-size="13px" font-style="normal" font-weight="normal" text-decoration="none" x="736.5" y="1723">5.2 : Send to request info</text></g></g><g transform="translate(-22,-6) scale(1,1)"><rect fill="#ffffff" stroke="none" x="1062" y="1728" width="13" height="28"/></g><g transform="translate(-22,-6) scale(1,1)"><path fill="none" stroke="#000000" d="M 1062 1728 L 1075 1728 L 1075 1756 L 1062 1756 L 1062 1728 Z Z" stroke-miterlimit="10"/></g><g transform="translate(-22,-6) scale(1,1)"><path fill="none" stroke="#000000" d="M 1069 1760 L 1552 1760" stroke-miterlimit="10"/></g><g transform="translate(-22,-6) scale(1,1)"><path fill="#000000" stroke="none" d="M 1541.837325142376 1764.2095177560159 L 1552 1760 L 1541.837325142376 1755.7904822439841"/></g><g transform="translate(-22,-6) scale(1,1)"><path fill="none" stroke="#000000" d="M 1541.837325142376 1764.2095177560159 L 1552 1760 L 1541.837325142376 1755.7904822439841 L 1541.837325142376 1764.2095177560159" stroke-miterlimit="10"/></g><g transform="translate(-22,-6) scale(1,1)"><g><path fill="none" stroke="none"/><text fill="#000000" stroke="none" font-family="Arial" font-size="13px" font-style="normal" font-weight="normal" text-decoration="none" x="1228.5" y="1755">5.3 : Request to get workout</text></g></g><g transform="translate(-22,-6) scale(1,1)"><rect fill="#ffffff" stroke="none" x="1552" y="1760" width="13" height="28"/></g><g transform="translate(-22,-6) scale(1,1)"><path fill="none" stroke="#000000" d="M 1552 1760 L 1565 1760 L 1565 1788 L 1552 1788 L 1552 1760 Z Z" stroke-miterlimit="10"/></g><g transform="translate(-22,-6) scale(1,1)"><path fill="none" stroke="#000000" d="M 1552 1780 L 1069 1780" stroke-miterlimit="10" stroke-dasharray="3"/></g><g transform="translate(-22,-6) scale(1,1)"><path fill="none" stroke="#000000" d="M 1079.162674857624 1775.7904822439841 L 1069 1780 L 1079.162674857624 1784.2095177560159" stroke-miterlimit="10"/></g><g transform="translate(-22,-6) scale(1,1)"><g><path fill="none" stroke="none"/><text fill="#000000" stroke="none" font-family="Arial" font-size="13px" font-style="normal" font-weight="normal" text-decoration="none" x="1226.5" y="1795">5.4 : Response workout data</text></g></g><g transform="translate(-22,-6) scale(1,1)"><path fill="none" stroke="#000000" d="M 1069 1795 L 556 1795" stroke-miterlimit="10" stroke-dasharray="3"/></g><g transform="translate(-22,-6) scale(1,1)"><path fill="none" stroke="#000000" d="M 566.1626748576241 1790.7904822439841 L 556 1795 L 566.1626748576241 1799.2095177560159" stroke-miterlimit="10"/></g><g transform="translate(-22,-6) scale(1,1)"><g><path fill="none" stroke="none"/><text fill="#000000" stroke="none" font-family="Arial" font-size="13px" font-style="normal" font-weight="normal" text-decoration="none" x="736.5" y="1810">5.5 : Display workout data</text></g></g><g transform="translate(-22,-6) scale(1,1)"><path fill="none" stroke="#000000" d="M 85 1928 L 549 1928" stroke-miterlimit="10"/></g><g transform="translate(-22,-6) scale(1,1)"><path fill="#000000" stroke="none" d="M 538.8373251423759 1932.2095177560159 L 549 1928 L 538.8373251423758 1923.7904822439841"/></g><g transform="translate(-22,-6) scale(1,1)"><path fill="none" stroke="#000000" d="M 538.8373251423759 1932.2095177560159 L 549 1928 L 538.8373251423758 1923.7904822439841 L 538.8373251423759 1932.2095177560159" stroke-miterlimit="10"/></g><g transform="translate(-22,-6) scale(1,1)"><g><path fill="none" stroke="none"/><text fill="#000000" stroke="none" font-family="Arial" font-size="13px" font-style="normal" font-weight="normal" text-decoration="none" x="259.86181640625" y="1923">5.6 : Click on button</text></g></g><g transform="translate(-22,-6) scale(1,1)"><rect fill="#ffffff" stroke="none" x="549" y="1928" width="13" height="28"/></g><g transform="translate(-22,-6) scale(1,1)"><path fill="none" stroke="#000000" d="M 549 1928 L 562 1928 L 562 1956 L 549 1956 L 549 1928 Z Z" stroke-miterlimit="10"/></g><g transform="translate(-22,-6) scale(1,1)"><path fill="none" stroke="#000000" d="M 556 2024 L 1062 2024" stroke-miterlimit="10"/></g><g transform="translate(-22,-6) scale(1,1)"><path fill="#000000" stroke="none" d="M 1051.837325142376 2028.2095177560159 L 1062 2024 L 1051.837325142376 2019.7904822439841"/></g><g transform="translate(-22,-6) scale(1,1)"><path fill="none" stroke="#000000" d="M 1051.837325142376 2028.2095177560159 L 1062 2024 L 1051.837325142376 2019.7904822439841 L 1051.837325142376 2028.2095177560159" stroke-miterlimit="10"/></g><g transform="translate(-22,-6) scale(1,1)"><g><path fill="none" stroke="none"/><text fill="#000000" stroke="none" font-family="Arial" font-size="13px" font-style="normal" font-weight="normal" text-decoration="none" x="712.5" y="2019">5.7 : Send to subscribtion request</text></g></g><g transform="translate(-22,-6) scale(1,1)"><rect fill="#ffffff" stroke="none" x="1062" y="2024" width="13" height="54"/></g><g transform="translate(-22,-6) scale(1,1)"><path fill="none" stroke="#000000" d="M 1062 2024 L 1075 2024 L 1075 2078 L 1062 2078 L 1062 2024 Z Z" stroke-miterlimit="10"/></g><g transform="translate(-22,-6) scale(1,1)"><path fill="none" stroke="#000000" d="M 1075 2024 L 1105 2024 L 1105 2044 L 1082 2044" stroke-miterlimit="10"/></g><g transform="translate(-22,-6) scale(1,1)"><path fill="#000000" stroke="none" d="M 1092.162674857624 2039.7904822439841 L 1082 2044 L 1092.162674857624 2048.209517756016"/></g><g transform="translate(-22,-6) scale(1,1)"><path fill="none" stroke="#000000" d="M 1092.162674857624 2039.7904822439841 L 1082 2044 L 1092.162674857624 2048.209517756016 L 1092.162674857624 2039.7904822439841" stroke-miterlimit="10"/></g><g transform="translate(-22,-6) scale(1,1)"><g><path fill="none" stroke="none"/><text fill="#000000" stroke="none" font-family="Arial" font-size="13px" font-style="normal" font-weight="normal" text-decoration="none" x="1111.5" y="2038">5.8 : Validate</text></g></g><g transform="translate(-22,-6) scale(1,1)"><rect fill="#ffffff" stroke="none" x="1069" y="2044" width="13" height="31"/></g><g transform="translate(-22,-6) scale(1,1)"><path fill="none" stroke="#000000" d="M 1069 2044 L 1082 2044 L 1082 2075 L 1069 2075 L 1069 2044 Z Z" stroke-miterlimit="10"/></g><g transform="translate(-22,-6) scale(1,1)"><path fill="none" stroke="#000000" d="M 1069 2144 L 1552 2144" stroke-miterlimit="10"/></g><g transform="translate(-22,-6) scale(1,1)"><path fill="#000000" stroke="none" d="M 1541.837325142376 2148.209517756016 L 1552 2144 L 1541.837325142376 2139.790482243984"/></g><g transform="translate(-22,-6) scale(1,1)"><path fill="none" stroke="#000000" d="M 1541.837325142376 2148.209517756016 L 1552 2144 L 1541.837325142376 2139.790482243984 L 1541.837325142376 2148.209517756016" stroke-miterlimit="10"/></g><g transform="translate(-22,-6) scale(1,1)"><g><path fill="none" stroke="none"/><text fill="#000000" stroke="none" font-family="Arial" font-size="13px" font-style="normal" font-weight="normal" text-decoration="none" x="1234.5" y="2139">5.9 : Request to subscribe</text></g></g><g transform="translate(-22,-6) scale(1,1)"><rect fill="#ffffff" stroke="none" x="1552" y="2144" width="13" height="28"/></g><g transform="translate(-22,-6) scale(1,1)"><path fill="none" stroke="#000000" d="M 1552 2144 L 1565 2144 L 1565 2172 L 1552 2172 L 1552 2144 Z Z" stroke-miterlimit="10"/></g><g transform="translate(-22,-6) scale(1,1)"><path fill="none" stroke="#000000" d="M 1069 2233 L 1552 2233" stroke-miterlimit="10"/></g><g transform="translate(-22,-6) scale(1,1)"><path fill="#000000" stroke="none" d="M 1541.837325142376 2237.209517756016 L 1552 2233 L 1541.837325142376 2228.790482243984"/></g><g transform="translate(-22,-6) scale(1,1)"><path fill="none" stroke="#000000" d="M 1541.837325142376 2237.209517756016 L 1552 2233 L 1541.837325142376 2228.790482243984 L 1541.837325142376 2237.209517756016" stroke-miterlimit="10"/></g><g transform="translate(-22,-6) scale(1,1)"><g><path fill="none" stroke="none"/><text fill="#000000" stroke="none" font-family="Arial" font-size="13px" font-style="normal" font-weight="normal" text-decoration="none" x="1227.5" y="2228">5.9 : Request to unsubscribe</text></g></g><g transform="translate(-22,-6) scale(1,1)"><rect fill="#ffffff" stroke="none" x="1552" y="2233" width="13" height="28"/></g><g transform="translate(-22,-6) scale(1,1)"><path fill="none" stroke="#000000" d="M 1552 2233 L 1565 2233 L 1565 2261 L 1552 2261 L 1552 2233 Z Z" stroke-miterlimit="10"/></g><g transform="translate(-22,-6) scale(1,1)"><path fill="none" stroke="#000000" d="M 1559 2304 L 1069 2304" stroke-miterlimit="10" stroke-dasharray="3"/></g><g transform="translate(-22,-6) scale(1,1)"><path fill="none" stroke="#000000" d="M 1079.162674857624 2299.790482243984 L 1069 2304 L 1079.162674857624 2308.209517756016" stroke-miterlimit="10"/></g><g transform="translate(-22,-6) scale(1,1)"><g><path fill="none" stroke="none"/><text fill="#000000" stroke="none" font-family="Arial" font-size="13px" font-style="normal" font-weight="normal" text-decoration="none" x="1237.5" y="2319">5.10 : Response message</text></g></g><g transform="translate(-22,-6) scale(1,1)"><path fill="none" stroke="#000000" d="M 1069 2320 L 556 2320" stroke-miterlimit="10" stroke-dasharray="3"/></g><g transform="translate(-22,-6) scale(1,1)"><path fill="none" stroke="#000000" d="M 566.1626748576241 2315.790482243984 L 556 2320 L 566.1626748576241 2324.209517756016" stroke-miterlimit="10"/></g><g transform="translate(-22,-6) scale(1,1)"><g><path fill="none" stroke="none"/><text fill="#000000" stroke="none" font-family="Arial" font-size="13px" font-style="normal" font-weight="normal" text-decoration="none" x="745.5" y="2335">5.11 : Display chenges</text></g></g><g transform="translate(-22,-6) scale(1,1)"><path fill="none" stroke="#000000" d="M 312 472 L 1584 472 L 1584 680 L 312 680 L 312 472" stroke-miterlimit="10"/></g><g transform="translate(-22,-6) scale(1,1)"><path fill="#ffffff" stroke="none" d="M 312 472 L 312 494 L 403.14990234375 494 L 414.14990234375 483 L 414.14990234375 472 L 312 472"/></g><g transform="translate(-22,-6) scale(1,1)"><path fill="none" stroke="#000000" d="M 312 472 L 312 494 L 403.14990234375 494 L 414.14990234375 483 L 414.14990234375 472 L 312 472 L 312 472" stroke-miterlimit="10"/></g><g transform="translate(-22,-6) scale(1,1)"><g><path fill="none" stroke="none"/><text fill="#000000" stroke="none" font-family="Arial" font-size="13px" font-style="normal" font-weight="normal" text-decoration="none" x="336.72998046875" y="488">Edit profile</text></g></g><g transform="translate(-22,-6) scale(1,1)"><g><path fill="none" stroke="none"/><text fill="#000000" stroke="none" font-family="Arial" font-size="13px" font-style="normal" font-weight="bold" text-decoration="none" x="316.279541015625" y="488">alt</text></g></g><g transform="translate(-22,-6) scale(1,1)"><g><path fill="none" stroke="none"/><text fill="#000000" stroke="none" font-family="Arial" font-size="13px" font-style="normal" font-weight="normal" text-decoration="none" x="331.5" y="521">[Correct data]</text></g></g><g transform="translate(-22,-6) scale(1,1)"><path fill="none" stroke="#000000" d="M 312 609 L 1584 609" stroke-miterlimit="10" stroke-dasharray="10,3"/></g><g transform="translate(-22,-6) scale(1,1)"><g><path fill="none" stroke="none"/><text fill="#000000" stroke="none" font-family="Arial" font-size="13px" font-style="normal" font-weight="normal" text-decoration="none" x="331.5" y="635">[Incorrect data]</text></g></g><g transform="translate(-22,-6) scale(1,1)"><path fill="none" stroke="#000000" d="M 56 720 L 1112 720 L 1112 944 L 56 944 L 56 720" stroke-miterlimit="10"/></g><g transform="translate(-22,-6) scale(1,1)"><path fill="#ffffff" stroke="none" d="M 56 720 L 56 742 L 268.55517578125 742 L 279.55517578125 731 L 279.55517578125 720 L 56 720"/></g><g transform="translate(-22,-6) scale(1,1)"><path fill="none" stroke="#000000" d="M 56 720 L 56 742 L 268.55517578125 742 L 279.55517578125 731 L 279.55517578125 720 L 56 720 L 56 720" stroke-miterlimit="10"/></g><g transform="translate(-22,-6) scale(1,1)"><g><path fill="none" stroke="none"/><text fill="#000000" stroke="none" font-family="Arial" font-size="13px" font-style="normal" font-weight="normal" text-decoration="none" x="80.72998046875" y="736">Subscribe/Unsubscribe shudule</text></g></g><g transform="translate(-22,-6) scale(1,1)"><g><path fill="none" stroke="none"/><text fill="#000000" stroke="none" font-family="Arial" font-size="13px" font-style="normal" font-weight="bold" text-decoration="none" x="60.279541015625" y="736">alt</text></g></g><g transform="translate(-22,-6) scale(1,1)"><g><path fill="none" stroke="none"/><text fill="#000000" stroke="none" font-family="Arial" font-size="13px" font-style="normal" font-weight="normal" text-decoration="none" x="75.5" y="769">[Is not subscribed]</text></g></g><g transform="translate(-22,-6) scale(1,1)"><path fill="none" stroke="#000000" d="M 56 841 L 1112 841" stroke-miterlimit="10" stroke-dasharray="10,3"/></g><g transform="translate(-22,-6) scale(1,1)"><g><path fill="none" stroke="none"/><text fill="#000000" stroke="none" font-family="Arial" font-size="13px" font-style="normal" font-weight="normal" text-decoration="none" x="75.5" y="867">[Is subscribed]</text></g></g><g transform="translate(-22,-6) scale(1,1)"><path fill="none" stroke="#000000" d="M 736 1024 L 1584 1024 L 1584 1200 L 736 1200 L 736 1024" stroke-miterlimit="10"/></g><g transform="translate(-22,-6) scale(1,1)"><path fill="#ffffff" stroke="none" d="M 736 1024 L 736 1046 L 821.8623046875 1046 L 832.8623046875 1035 L 832.8623046875 1024 L 736 1024"/></g><g transform="translate(-22,-6) scale(1,1)"><path fill="none" stroke="#000000" d="M 736 1024 L 736 1046 L 821.8623046875 1046 L 832.8623046875 1035 L 832.8623046875 1024 L 736 1024 L 736 1024" stroke-miterlimit="10"/></g><g transform="translate(-22,-6) scale(1,1)"><g><path fill="none" stroke="none"/><text fill="#000000" stroke="none" font-family="Arial" font-size="13px" font-style="normal" font-weight="normal" text-decoration="none" x="760.72998046875" y="1040">Validation</text></g></g><g transform="translate(-22,-6) scale(1,1)"><g><path fill="none" stroke="none"/><text fill="#000000" stroke="none" font-family="Arial" font-size="13px" font-style="normal" font-weight="bold" text-decoration="none" x="740.279541015625" y="1040">alt</text></g></g><g transform="translate(-22,-6) scale(1,1)"><g><path fill="none" stroke="none"/><text fill="#000000" stroke="none" font-family="Arial" font-size="13px" font-style="normal" font-weight="normal" text-decoration="none" x="755.5" y="1073">[Validation success]</text></g></g><g transform="translate(-22,-6) scale(1,1)"><path fill="none" stroke="#000000" d="M 736 1121 L 1584 1121" stroke-miterlimit="10" stroke-dasharray="10,3"/></g><g transform="translate(-22,-6) scale(1,1)"><g><path fill="none" stroke="none"/><text fill="#000000" stroke="none" font-family="Arial" font-size="13px" font-style="normal" font-weight="normal" text-decoration="none" x="755.5" y="1147">[Validation failed]</text></g></g><g transform="translate(-22,-6) scale(1,1)"><path fill="none" stroke="#000000" d="M 72 1856 L 1583 1856 L 1583 2352 L 72 2352 L 72 1856" stroke-miterlimit="10"/></g><g transform="translate(-22,-6) scale(1,1)"><path fill="#ffffff" stroke="none" d="M 72 1856 L 72 1878 L 191.33349609375 1878 L 202.33349609375 1867 L 202.33349609375 1856 L 72 1856"/></g><g transform="translate(-22,-6) scale(1,1)"><path fill="none" stroke="#000000" d="M 72 1856 L 72 1878 L 191.33349609375 1878 L 202.33349609375 1867 L 202.33349609375 1856 L 72 1856 L 72 1856" stroke-miterlimit="10"/></g><g transform="translate(-22,-6) scale(1,1)"><g><path fill="none" stroke="none"/><text fill="#000000" stroke="none" font-family="Arial" font-size="13px" font-style="normal" font-weight="normal" text-decoration="none" x="101.07177734375" y="1872">Select workout</text></g></g><g transform="translate(-22,-6) scale(1,1)"><g><path fill="none" stroke="none"/><text fill="#000000" stroke="none" font-family="Arial" font-size="13px" font-style="normal" font-weight="bold" text-decoration="none" x="75.930419921875" y="1871.5">opt</text></g></g><g transform="translate(-22,-6) scale(1,1)"><g><path fill="none" stroke="none"/><text fill="#000000" stroke="none" font-family="Arial" font-size="13px" font-style="normal" font-weight="normal" text-decoration="none" x="91.5" y="1905">[Selected workout]</text></g></g><g transform="translate(-22,-6) scale(1,1)"><path fill="none" stroke="#000000" d="M 1016 2085 L 1567 2085 L 1567 2282 L 1016 2282 L 1016 2085" stroke-miterlimit="10"/></g><g transform="translate(-22,-6) scale(1,1)"><path fill="#ffffff" stroke="none" d="M 1016 2085 L 1016 2107 L 1228.5361328125 2107 L 1239.5361328125 2096 L 1239.5361328125 2085 L 1016 2085"/></g><g transform="translate(-22,-6) scale(1,1)"><path fill="none" stroke="#000000" d="M 1016 2085 L 1016 2107 L 1228.5361328125 2107 L 1239.5361328125 2096 L 1239.5361328125 2085 L 1016 2085 L 1016 2085" stroke-miterlimit="10"/></g><g transform="translate(-22,-6) scale(1,1)"><g><path fill="none" stroke="none"/><text fill="#000000" stroke="none" font-family="Arial" font-size="13px" font-style="normal" font-weight="normal" text-decoration="none" x="1040.72998046875" y="2101">Subscribe/Unsubscribe workout</text></g></g><g transform="translate(-22,-6) scale(1,1)"><g><path fill="none" stroke="none"/><text fill="#000000" stroke="none" font-family="Arial" font-size="13px" font-style="normal" font-weight="bold" text-decoration="none" x="1020.279541015625" y="2101">alt</text></g></g><g transform="translate(-22,-6) scale(1,1)"><g><path fill="none" stroke="none"/><text fill="#000000" stroke="none" font-family="Arial" font-size="13px" font-style="normal" font-weight="normal" text-decoration="none" x="1035.5" y="2134">[is not subscribed]</text></g></g><g transform="translate(-22,-6) scale(1,1)"><path fill="none" stroke="#000000" d="M 1016 2185 L 1567 2185" stroke-miterlimit="10" stroke-dasharray="10,3"/></g><g transform="translate(-22,-6) scale(1,1)"><g><path fill="none" stroke="none"/><text fill="#000000" stroke="none" font-family="Arial" font-size="13px" font-style="normal" font-weight="normal" text-decoration="none" x="1035.5" y="2211">[is subscribed]</text></g></g></g></svg>